<svg width="24" height="24" viewBox="0 0 24 24" fill="none" xmlns="http://www.w3.org/2000/svg">
<path d="M14.4296 18.82C14.6196 18.82 14.8096 18.75 14.9596 18.6L21.0296 12.53C21.3196 12.24 21.3196 11.76 21.0296 11.47L14.9596 5.4C14.6696 5.11 14.1896 5.11 13.8996 5.4C13.6096 5.69 13.6096 6.17 13.8996 6.46L19.4396 12L13.8996 17.54C13.6096 17.83 13.6096 18.31 13.8996 18.6C14.0396 18.75 14.2396 18.82 14.4296 18.82Z" fill="#232F34"/>
<path d="M3.50008 12.75H20.3301C20.7401 12.75 21.0801 12.41 21.0801 12C21.0801 11.59 20.7401 11.25 20.3301 11.25H3.50008C3.09008 11.25 2.75008 11.59 2.75008 12C2.75008 12.41 3.09008 12.75 3.50008 12.75Z" fill="#232F34"/>
</svg>
