<svg width="71" height="70" viewBox="0 0 71 70" fill="none" xmlns="http://www.w3.org/2000/svg">
<path d="M35.5 0C16.1702 0 0.5 15.6702 0.5 35C0.5 54.3309 16.1702 70 35.5 70C54.8309 70 70.5 54.3309 70.5 35C70.5 15.6702 54.8309 0 35.5 0ZM35.5 65.6939C18.6136 65.6939 4.875 51.8864 4.875 34.9999C4.875 18.1135 18.6136 4.37486 35.5 4.37486C52.3864 4.37486 66.125 18.1135 66.125 34.9999C66.125 51.8862 52.3864 65.6939 35.5 65.6939ZM49.4683 22.1933L28.9331 42.8575L19.6854 33.6098C18.8312 32.7556 17.4465 32.7556 16.5912 33.6098C15.737 34.4641 15.737 35.8487 16.5912 36.703L27.4182 47.5311C28.2724 48.3842 29.6571 48.3842 30.5124 47.5311C30.6109 47.4327 30.6952 47.3254 30.7717 47.2139L52.5636 25.2874C53.4167 24.4332 53.4167 23.0485 52.5636 22.1933C51.7083 21.3391 50.3236 21.3391 49.4683 22.1933Z" fill="#44B852"/>
</svg>
