<svg width="335" height="324" viewBox="0 0 335 324" fill="none" xmlns="http://www.w3.org/2000/svg">
<path d="M236.491 276.549C234.8 266.523 223.846 261.391 214.219 258.494C176.106 247.079 135.953 244.457 96.7079 250.82L94.6219 252.221C88.5574 254.32 86.5861 262.654 89.0807 268.636C91.5753 274.618 97.0878 278.654 102.457 282.19C119.984 293.74 139.08 303.345 159.589 307.469C180.098 311.592 202.191 309.886 220.635 299.911C229.438 295.163 238.14 286.517 236.491 276.549Z" fill="#EBEBEB"/>
<path d="M68.3714 56.9825L69.4681 54.5359C78.9949 33.9107 98.8585 19.8557 121.281 18.6941C124.168 18.5393 127.063 18.6024 129.941 18.8829C150.729 20.8793 170.084 34.1721 179.575 52.9533C185.173 64.0028 187.868 77.1576 197.058 85.3757C209.015 96.0767 227.087 94.3707 242.878 92.0475C258.67 89.7244 276.749 88.0619 288.663 98.8137C296.125 105.551 299.416 115.969 300.025 126.074C301.602 152.82 285.753 178.73 263.523 193.264C241.294 207.798 213.682 212.06 187.316 209.838C150.406 206.724 113.805 190.694 89.683 162.199C65.5614 133.705 55.6045 92.2218 68.3714 56.9825Z" fill="white"/>
<path d="M335 271.829C335 271.938 259.997 272.018 167.511 272.018C75.0243 272.018 0 271.938 0 271.829C0 271.72 74.9813 271.641 167.511 271.641C260.04 271.641 335 271.728 335 271.829Z" fill="#263238"/>
<path d="M266.314 9.57578C260.223 9.63254 254.268 11.3965 249.107 14.672C243.946 17.9475 239.782 22.6065 237.076 28.1326C234.37 33.6586 233.228 39.8357 233.777 45.9788C234.326 52.122 236.544 57.9912 240.185 62.9356L236.357 75.4153L248.335 70.7254C253.663 74.3092 259.918 76.2186 266.314 76.2138C274.955 76.0847 283.199 72.5174 289.265 66.2829C295.331 60.0485 298.731 51.6473 298.731 42.8948C298.731 34.1423 295.331 25.7411 289.265 19.5067C283.199 13.2722 274.955 9.70496 266.314 9.57578Z" fill="#FAFAFA"/>
<path d="M266.392 9.57573C266.583 9.56281 266.774 9.56281 266.965 9.57573L268.643 9.62655C269.008 9.62655 269.424 9.62655 269.876 9.67737L271.352 9.8879L273.08 10.142L275.008 10.6284C278.316 11.4777 281.464 12.8707 284.327 14.752C289.235 17.8908 293.233 22.2927 295.912 27.5081C298.59 32.7235 299.854 38.5655 299.574 44.4375C299.524 45.2143 299.538 45.9983 299.424 46.7752C299.309 47.552 299.194 48.3433 299.073 49.1346C298.501 52.3778 297.462 55.5185 295.99 58.4562C294.395 61.5239 292.372 64.343 289.983 66.8268C287.435 69.366 284.514 71.4894 281.324 73.1211C278.026 74.8383 274.453 75.9493 270.772 76.4026C269.842 76.5515 268.903 76.6316 267.962 76.6421C267.008 76.7168 266.05 76.7362 265.094 76.7002C259.017 76.4532 253.122 74.5276 248.048 71.1319H248.392L236.837 75.829L236.12 76.1049L236.313 75.3789C237.479 71.0908 238.612 66.9212 239.711 62.8702L239.769 63.1824C236.651 58.988 234.547 54.1122 233.625 48.9458C233.185 46.5338 233.033 44.0767 233.174 41.6279C233.196 40.4475 233.306 39.2705 233.503 38.1069C233.589 37.5334 233.683 36.9598 233.769 36.3936C233.855 35.8273 234.041 35.2901 234.17 34.7383C236.105 27.044 240.679 20.2971 247.073 15.703C249.43 13.984 252.011 12.6059 254.743 11.6085L256.471 10.9769L258.112 10.5558L259.611 10.1783C260.091 10.0839 260.557 10.0331 260.994 9.96776C261.869 9.85886 262.636 9.70641 263.309 9.67011L265.008 9.61203H266.041C266.158 9.60388 266.275 9.60388 266.392 9.61203C266.278 9.64644 266.16 9.66357 266.041 9.66285L265.008 9.74997L263.324 9.85886C262.657 9.91694 261.89 10.0839 261.03 10.2146C254.761 11.3111 248.942 14.2273 244.278 18.609C239.614 22.9906 236.307 28.6494 234.758 34.8981C234.629 35.4425 234.464 35.9725 234.364 36.5315C234.263 37.0905 234.199 37.6495 234.12 38.2085C233.93 39.3508 233.827 40.506 233.812 41.6642C233.68 44.0678 233.836 46.4788 234.278 48.8442C235.195 53.924 237.28 58.7139 240.363 62.8267L240.464 62.9719L240.421 63.1388C239.331 67.1801 238.208 71.3521 237.052 75.6548L236.557 75.2192L248.112 70.5076L248.292 70.435L248.457 70.5439C253.416 73.8609 259.177 75.7389 265.116 75.9742C266.043 76.0118 266.972 75.9948 267.897 75.9234C268.819 75.9118 269.739 75.8342 270.65 75.6911C274.248 75.2515 277.74 74.17 280.965 72.4968C284.087 70.901 286.948 68.8269 289.445 66.3477C291.793 63.924 293.78 61.168 295.345 58.1658C296.817 55.2995 297.865 52.2297 298.456 49.0547C298.571 48.2779 298.693 47.5084 298.807 46.7388C298.922 45.9693 298.908 45.207 298.965 44.4447C299.035 42.9468 299.011 41.4458 298.893 39.9509C298.454 34.9516 296.896 30.1192 294.339 25.8199C291.782 21.5206 288.292 17.8673 284.134 15.1368C281.311 13.2448 278.206 11.8278 274.937 10.9406L273.051 10.3888L271.345 10.1057L269.912 9.85886C269.467 9.80805 269.051 9.80079 268.686 9.77175L267.023 9.64833C266.811 9.64487 266.599 9.62056 266.392 9.57573Z" fill="#263238"/>
<path d="M253.948 38.4699C254.665 35.3627 257.532 32.6983 260.672 33.0105C261.593 33.1408 262.478 33.4588 263.274 33.9455C264.07 34.4322 264.76 35.0773 265.303 35.8418C265.706 36.3452 266.07 36.8792 266.392 37.439C266.714 36.8782 267.076 36.342 267.475 35.8346C268.019 35.0718 268.71 34.4279 269.506 33.9415C270.301 33.455 271.185 33.1359 272.106 33.0032C275.231 32.6911 278.141 35.3554 278.837 38.4554C279.532 41.5553 278.378 44.844 276.493 47.3777C273.999 50.9164 270.32 53.4165 266.141 54.4125C262.636 53.5921 258.192 49.9259 256.306 47.3922C254.421 44.8586 253.26 41.5698 253.948 38.4699Z" fill="#EF5E9C"/>
<path d="M254.527 44.2197H254.628H254.929H256.097H260.398L260.327 44.1616L261.638 49.0112L261.717 49.3016L261.818 49.0185L264.327 41.7078C264.606 40.902 264.878 40.1034 265.144 39.3266H264.957L267.76 44.1616V44.2124H267.81L275.351 44.1689H277.502H278.068C278.133 44.1752 278.197 44.1752 278.262 44.1689C278.197 44.1625 278.133 44.1625 278.068 44.1689H277.502H275.351L267.81 44.1326L267.889 44.1761L265.108 39.3266L264.993 39.1378L264.921 39.3484C264.656 40.1252 264.384 40.9237 264.104 41.7296C263.215 44.3431 262.37 46.8115 261.61 49.0402H261.789C261.287 47.2398 260.828 45.5991 260.441 44.1979V44.1471H260.384L256.083 44.1834H254.914H254.613L254.527 44.2197Z" fill="#FAFAFA"/>
<path d="M162.113 278.357C167.496 278.778 173.159 278.473 177.374 280.201C179.525 281.087 181.26 281.929 181.991 284.833C182.622 287.345 180.643 291.533 178.801 293.363C173.432 298.721 171.346 301.225 169.862 307.193C168.378 313.161 166.278 319.535 160.844 322.802C159.637 323.602 158.222 324.019 156.78 323.999C156.046 323.987 155.33 323.774 154.708 323.381C154.085 322.989 153.58 322.432 153.246 321.771C152.665 320.319 153.461 318.794 154.185 317.466C156.378 313.487 158.213 309.255 158.765 304.725C159.317 300.194 158.765 298.539 155.977 294.561C152.808 290.728 147.461 287.664 141.504 284.818L153.69 277.74L162.113 278.357Z" fill="#FFBE9D"/>
<path d="M156.5 227.828C156.5 227.828 150.479 228.997 148.063 228.395C129.045 223.661 88.5653 202.259 73.3612 211.603C59.8416 219.908 63.3254 233.382 71.9275 244.722C80.3647 255.895 134.12 284.143 134.12 284.143L152.149 269.188L145.174 266.015L147.712 265.623C152.359 266.26 157.078 266.126 161.683 265.224L184.442 260.737V236.78L156.5 227.828Z" fill="#263238"/>
<path d="M231.969 234.994C231.969 234.994 240.456 244.083 241.833 260.149C242.299 265.594 239.474 275.642 234.872 279.613C226.401 286.817 215.468 290.348 204.442 289.443L153.547 286.902L152.113 267.496C152.113 267.496 172.837 259.648 178.636 258.552L184.407 257.826V236.772L209.776 238.166C217.855 238.595 231.969 234.994 231.969 234.994Z" fill="#263238"/>
<path d="M210.764 247.394C210.394 247.509 210.015 247.594 209.631 247.648C208.915 247.778 207.839 247.996 206.542 248.287C199.752 249.797 193.212 252.288 187.123 255.684C185.954 256.331 185.022 256.875 184.377 257.26C184.055 257.478 183.714 257.667 183.359 257.826C183.653 257.556 183.969 257.313 184.306 257.1C184.922 256.672 185.84 256.091 186.994 255.409C193.049 251.878 199.632 249.372 206.485 247.989C207.796 247.735 208.864 247.553 209.61 247.466C209.992 247.407 210.378 247.383 210.764 247.394Z" fill="#455A64"/>
<path d="M233.425 278.502C233.775 278.263 234.111 278.001 234.428 277.718C235.245 276.902 235.825 275.875 236.105 274.749C236.471 273.059 236.556 271.319 236.356 269.601C236.248 267.476 236.026 265.358 235.69 263.256C235.359 261.162 234.756 259.121 233.898 257.187C233.185 255.613 232.232 254.163 231.073 252.889C229.987 251.723 228.721 250.742 227.324 249.985C227.434 250.011 227.54 250.05 227.64 250.102C227.935 250.219 228.223 250.358 228.5 250.515C229.524 251.098 230.456 251.832 231.267 252.693C232.473 253.975 233.465 255.446 234.206 257.049C235.096 259.007 235.718 261.078 236.055 263.206C236.395 265.32 236.61 267.454 236.7 269.594C236.885 271.348 236.771 273.121 236.364 274.836C236.049 275.995 235.412 277.038 234.528 277.841C234.284 278.052 234.017 278.235 233.733 278.386C233.637 278.441 233.533 278.48 233.425 278.502Z" fill="#455A64"/>
<path d="M151.905 267.714C152.076 267.621 152.253 267.541 152.436 267.474L153.991 266.857C155.339 266.32 157.31 265.594 159.726 264.679C162.142 263.765 165.095 262.806 168.385 261.819C171.676 260.832 175.303 259.801 179.174 258.915C185.791 257.377 192.557 256.592 199.346 256.577H201.195L202.844 256.665C203.876 256.715 204.758 256.773 205.482 256.868L207.138 257.064C207.331 257.078 207.522 257.107 207.711 257.151C207.518 257.169 207.324 257.169 207.13 257.151L205.467 257.027C204.751 256.955 203.862 256.919 202.837 256.89L201.188 256.831H199.346C192.599 256.945 185.883 257.78 179.31 259.322C175.453 260.171 171.819 261.166 168.557 262.16C165.296 263.155 162.35 264.113 159.891 264.941L154.092 266.973L152.515 267.525C152.318 267.609 152.114 267.672 151.905 267.714Z" fill="#455A64"/>
<path d="M144.436 268.68C144.39 268.63 144.35 268.577 144.314 268.52C144.235 268.389 144.127 268.229 143.998 268.026L142.801 266.131L141.948 264.759C141.626 264.258 141.231 263.736 140.873 263.162C140.084 262.022 139.239 260.694 138.185 259.314C137.662 258.588 137.124 257.862 136.558 257.136C135.991 256.41 135.353 255.619 134.723 254.82C133.475 253.202 132.013 251.583 130.508 249.855C127.159 246.171 123.6 242.69 119.848 239.43C116.064 236.201 112.095 233.2 107.963 230.442C106.035 229.222 104.214 228.024 102.436 227.037C101.554 226.536 100.716 226.021 99.8842 225.585L97.4828 224.322C95.9702 223.487 94.5366 222.87 93.3036 222.26C92.68 221.97 92.1065 221.679 91.5689 221.44L90.0922 220.808L88.0492 219.922L87.5187 219.683L87.3467 219.589L87.5331 219.647L88.0779 219.85C88.5796 220.053 89.2678 220.329 90.1495 220.67L91.6405 221.273C92.1853 221.505 92.7588 221.781 93.3896 222.064C94.6298 222.645 96.0778 223.262 97.6046 224.082L100.02 225.324C100.859 225.759 101.705 226.275 102.594 226.776C104.379 227.756 106.178 228.954 108.149 230.166C112.306 232.914 116.295 235.915 120.092 239.154C123.854 242.421 127.416 245.917 130.758 249.622C132.264 251.365 133.719 252.998 134.966 254.632C135.59 255.438 136.228 256.2 136.787 256.962L138.393 259.176C139.439 260.57 140.271 261.913 141.045 263.06C141.418 263.641 141.762 264.178 142.099 264.679L142.923 266.073C143.411 266.894 143.791 267.525 144.063 268.012C144.178 268.222 144.271 268.389 144.35 268.52C144.429 268.651 144.443 268.672 144.436 268.68Z" fill="#455A64"/>
<path d="M118.479 238.849C118.257 238.57 118.06 238.271 117.891 237.956C117.533 237.361 117.01 236.504 116.35 235.48C114.627 232.777 112.745 230.181 110.716 227.705C108.68 225.234 106.504 222.885 104.2 220.67C103.311 219.828 102.587 219.146 102.049 218.688C101.775 218.467 101.519 218.224 101.282 217.962C101.589 218.145 101.878 218.359 102.142 218.601C102.68 219.022 103.44 219.676 104.35 220.496C106.72 222.661 108.933 224.995 110.974 227.48C113.015 229.966 114.877 232.599 116.544 235.357C117.182 236.417 117.669 237.288 117.977 237.905C118.172 238.204 118.34 238.52 118.479 238.849Z" fill="#455A64"/>
<path d="M80.3858 231.168C80.2926 231.24 78.7729 229.077 76.436 226.87C74.0992 224.663 71.8841 223.24 71.9486 223.146C72.4841 223.355 72.9883 223.638 73.4468 223.988C74.5967 224.764 75.6805 225.636 76.6869 226.594C77.6986 227.549 78.6268 228.591 79.4611 229.709C79.832 230.151 80.143 230.642 80.3858 231.168Z" fill="#263238"/>
<path d="M152.171 267.714L121.54 271.228L123.282 287.148H158.572L152.171 267.714Z" fill="#FFBE9D"/>
<path d="M131.984 287.069C127.296 287.207 118.271 291.352 115.095 294.445C111.92 297.537 109.712 301.487 107.927 305.56C107.332 306.917 106.622 308.463 105.153 308.841C104.443 308.963 103.715 308.888 103.044 308.623C102.374 308.359 101.787 307.914 101.346 307.338C100.497 306.198 99.9979 304.829 99.9126 303.403C99.2531 297.167 102.959 291.788 106.708 287.083C110.457 282.379 111.425 280.382 112.443 272.97C112.787 270.436 114.866 266.4 117.181 265.427C119.862 264.302 121.518 265.173 123.482 266.371L130.378 270.357" fill="#FFBE9D"/>
<path d="M158.571 287.148C158.285 287.195 157.994 287.21 157.704 287.192H155.353C153.367 287.192 150.622 287.265 147.597 287.33C144.571 287.395 141.812 287.41 139.819 287.33C138.83 287.33 138.02 287.265 137.468 287.221C137.178 287.22 136.89 287.186 136.607 287.119C136.894 287.068 137.185 287.053 137.475 287.076H139.826C141.812 287.076 144.55 287.011 147.589 286.945C150.629 286.88 153.367 286.865 155.353 286.945C156.349 286.945 157.152 287.011 157.711 287.054C158.001 287.049 158.29 287.08 158.571 287.148Z" fill="#EB996E"/>
<path d="M145.59 238.646C145.812 238.926 146.006 239.227 146.17 239.546C146.395 239.904 146.598 240.275 146.78 240.656C146.995 241.092 147.26 241.586 147.497 242.167C147.733 242.747 147.998 243.364 148.213 244.061C148.429 244.758 148.665 245.513 148.88 246.29C149.771 249.757 150.015 253.361 149.597 256.919C149.475 257.732 149.382 258.508 149.217 259.22C149.052 259.931 148.909 260.599 148.737 261.195C148.565 261.79 148.386 262.327 148.228 262.792C148.099 263.193 147.946 263.586 147.769 263.968C147.645 264.305 147.491 264.631 147.31 264.941C147.388 264.59 147.499 264.247 147.64 263.917C147.755 263.59 147.898 263.191 148.027 262.726C148.156 262.262 148.35 261.732 148.486 261.129C148.622 260.527 148.794 259.873 148.909 259.162C149.024 258.45 149.145 257.71 149.253 256.882C149.635 253.367 149.404 249.812 148.572 246.377C148.364 245.593 148.178 244.845 147.941 244.163C147.705 243.481 147.482 242.842 147.26 242.268C147.038 241.695 146.801 241.194 146.601 240.744C146.4 240.294 146.221 239.923 146.063 239.618C145.877 239.309 145.719 238.983 145.59 238.646Z" fill="#455A64"/>
<path d="M159.546 251.604C159.468 251.264 159.422 250.916 159.41 250.566C159.41 250.232 159.346 249.84 159.274 249.347C159.202 248.853 159.152 248.337 159.03 247.749C158.788 246.371 158.457 245.011 158.041 243.677C157.517 242.046 156.875 240.456 156.12 238.921C155.347 237.404 154.463 235.948 153.475 234.566C152.658 233.434 151.77 232.357 150.815 231.342C150.421 230.892 150.019 230.529 149.69 230.195C149.36 229.861 149.052 229.585 148.801 229.367C148.539 229.15 148.299 228.906 148.084 228.641C148.379 228.824 148.66 229.03 148.923 229.259C149.25 229.499 149.561 229.761 149.855 230.043C150.206 230.362 150.622 230.718 151.03 231.153C152.023 232.15 152.94 233.22 153.776 234.355C155.816 237.138 157.366 240.257 158.356 243.575C158.761 244.928 159.07 246.308 159.281 247.706C159.389 248.301 159.417 248.853 159.467 249.325C159.516 249.732 159.54 250.142 159.539 250.552C159.572 250.902 159.575 251.254 159.546 251.604Z" fill="#455A64"/>
<path d="M235.697 267.395C235.676 267.464 235.649 267.532 235.618 267.598L235.352 268.186C235.01 268.938 234.617 269.666 234.177 270.364C233.484 271.46 232.7 272.495 231.833 273.457C230.674 274.718 229.4 275.866 228.026 276.883C224.416 279.506 220.331 281.383 216.005 282.408C211.145 283.649 205.632 284.056 199.89 284.128C188.385 284.128 177.984 284.085 170.457 284.049L161.532 283.976L159.11 283.932H158.479C158.407 283.942 158.335 283.942 158.264 283.932H158.479H159.11H161.532L170.457 283.882H199.883C205.618 283.809 211.102 283.417 215.919 282.205C220.23 281.158 224.297 279.266 227.89 276.636C229.263 275.643 230.54 274.52 231.704 273.282C232.576 272.341 233.369 271.329 234.076 270.255C234.529 269.579 234.941 268.876 235.309 268.15L235.603 267.583C235.63 267.518 235.661 267.455 235.697 267.395Z" fill="#EF5E9C"/>
<path d="M239.962 253.252C239.568 254.918 239.058 256.553 238.435 258.145C237.925 259.782 237.298 261.379 236.557 262.922C236.949 261.254 237.46 259.616 238.084 258.022C238.59 256.387 239.218 254.792 239.962 253.252Z" fill="#EF5E9C"/>
<path d="M114.164 268.331L113.999 268.273L113.504 268.062L111.64 267.235C110.028 266.509 107.698 265.442 104.845 264.055C101.992 262.668 98.6227 260.948 95.0026 258.813C91.058 256.52 87.3122 253.892 83.8056 250.958C77.4767 245.55 72.2283 238.966 68.3434 231.56C67.1639 229.321 66.1271 227.007 65.2395 224.634C64.9026 223.806 64.709 223.139 64.5227 222.696L64.3578 222.187C64.3578 222.071 64.3076 222.006 64.3076 222.006C64.3449 222.057 64.3739 222.113 64.3936 222.173C64.4438 222.304 64.5083 222.463 64.5943 222.667C64.7736 223.102 64.9958 223.763 65.3112 224.583C66.2578 226.918 67.3299 229.199 68.5226 231.415C72.4552 238.747 77.7038 245.271 83.9992 250.653C87.4864 253.574 91.205 256.198 95.1173 258.501C98.7015 260.643 102.071 262.385 104.902 263.801C107.734 265.217 110.049 266.32 111.648 267.09L113.483 267.983L113.956 268.222C114.114 268.295 114.171 268.324 114.164 268.331Z" fill="#EF5E9C"/>
<path d="M166.278 56.0532C165.737 55.1365 164.953 54.3922 164.014 53.9056C163.076 53.4189 162.021 53.2094 160.971 53.301C159.92 53.3926 158.916 53.7817 158.074 54.4237C157.231 55.0657 156.584 55.9348 156.206 56.9317C155.995 57.81 155.667 58.655 155.231 59.4436C153.798 61.411 150.213 60.8375 149.081 62.9936C147.855 65.2878 150.687 68.032 149.998 70.5439C149.446 72.5549 146.902 73.4478 146.321 75.4588C145.547 78.1086 148.701 80.7294 147.941 83.3865C147.296 85.6734 144.113 86.5155 143.64 88.8387C143.088 91.4014 146.206 93.485 146.156 96.0985C146.092 99.4526 141.031 101.304 141.497 104.629C141.748 106.466 143.683 107.692 144.006 109.522C144.615 112.956 139.361 115.33 139.984 118.778C140.285 120.39 141.791 121.428 143.095 122.408C144.4 123.388 145.74 124.782 145.475 126.408C145.21 128.035 143.36 128.986 142.357 130.372C140.809 132.499 143.267 138.024 145.654 139.084L155.575 131.577C155.575 131.577 152.708 129.174 154.966 126.967C157.224 124.76 155.747 123.773 155.683 122.103C155.683 122.103 157.898 123.991 157.117 125.958C156.805 126.72 156.688 127.55 156.779 128.37C156.869 129.191 157.163 129.974 157.633 130.648L172.693 123.795L174.321 109.275L166.278 56.0532Z" fill="#263238"/>
<path d="M144.199 123.773C143.879 123.825 143.554 123.837 143.231 123.809C142.022 123.739 140.862 123.303 139.901 122.558C138.94 121.812 138.222 120.791 137.84 119.628C137.548 118.735 137.453 117.788 137.561 116.854C137.727 115.833 138.072 114.85 138.579 113.95C139.073 112.978 139.69 112.019 140.156 110.952C140.682 109.87 140.883 108.657 140.736 107.46C140.521 106.233 139.597 105.246 138.865 104.092C138.437 103.506 138.208 102.795 138.213 102.066C138.244 101.687 138.361 101.32 138.555 100.994C138.749 100.667 139.015 100.391 139.331 100.186C139.938 99.7863 140.573 99.4321 141.231 99.1259C141.874 98.8391 142.42 98.367 142.801 97.7683C142.962 97.4514 143.059 97.1048 143.084 96.7493C143.11 96.3938 143.065 96.0366 142.951 95.6992C142.734 94.9778 142.4 94.2982 141.962 93.6883C141.532 93.0639 141.023 92.4541 140.6 91.7717C140.13 91.0874 139.824 90.3021 139.704 89.4776C139.63 88.6154 139.887 87.7575 140.421 87.0818C140.973 86.4545 141.602 85.9008 142.292 85.4338C142.957 84.9869 143.579 84.4764 144.149 83.9093C144.691 83.3645 145.013 82.6345 145.052 81.862C145.01 81.0964 144.794 80.351 144.421 79.684C144.062 78.9581 143.647 78.3192 143.31 77.6005C142.924 76.8885 142.745 76.0806 142.794 75.2701C142.837 74.8685 142.956 74.4791 143.145 74.123C143.347 73.7838 143.588 73.4696 143.862 73.1865C144.916 72.0975 146.263 71.357 146.829 70.0938C147.096 69.4702 147.18 68.7825 147.073 68.1119C146.968 67.4415 146.8 66.7827 146.571 66.1444C146.039 64.9107 145.793 63.5693 145.855 62.2241C145.926 61.5628 146.214 60.9445 146.672 60.4673C147.115 60.0241 147.663 59.704 148.263 59.538C149.41 59.1895 150.543 59.146 151.568 58.8919C152.057 58.815 152.526 58.6407 152.948 58.379C153.37 58.1173 153.737 57.7735 154.027 57.3673C154.557 56.576 154.844 55.6758 155.36 54.9643C155.801 54.3635 156.358 53.8604 156.998 53.4859C157.638 53.1114 158.346 52.8733 159.08 52.7863C160.006 52.6499 160.95 52.7626 161.819 53.113C162.042 53.199 162.256 53.3085 162.457 53.4397C162.532 53.479 162.601 53.5278 162.664 53.5849C162.664 53.5849 162.378 53.4034 161.79 53.1784C160.928 52.8706 160.004 52.7857 159.102 52.9315C158.39 53.0302 157.705 53.2741 157.089 53.6485C156.473 54.0228 155.938 54.5198 155.518 55.1095C155.03 55.8355 154.758 56.6921 154.213 57.527C153.598 58.4048 152.665 59.0001 151.618 59.1823C150.564 59.4436 149.424 59.5017 148.335 59.8429C147.793 60.0055 147.301 60.3024 146.901 60.7068C146.493 61.1407 146.241 61.7005 146.184 62.2967C146.134 63.5918 146.379 64.8812 146.901 66.0646C147.138 66.7212 147.311 67.3995 147.417 68.0901C147.539 68.8261 147.449 69.582 147.159 70.268C146.514 71.6764 145.123 72.446 144.134 73.4624C143.887 73.724 143.67 74.0139 143.489 74.3263C143.322 74.6416 143.217 74.9868 143.181 75.3427C143.143 76.084 143.312 76.8211 143.668 77.4698C143.991 78.1595 144.385 78.8274 144.772 79.5388C145.181 80.2618 145.415 81.0731 145.453 81.9056C145.412 82.7722 145.054 83.5923 144.45 84.2069C143.865 84.7954 143.224 85.3231 142.536 85.7823C141.877 86.231 141.275 86.7601 140.744 87.3577C140.254 87.9505 140.014 88.7146 140.077 89.4848C140.186 90.2499 140.471 90.9784 140.908 91.612C141.317 92.2726 141.812 92.8679 142.263 93.5213C142.723 94.1678 143.074 94.8864 143.303 95.6484C143.427 96.0309 143.475 96.4349 143.443 96.8364C143.411 97.2379 143.3 97.6289 143.116 97.9861C142.699 98.6436 142.101 99.1634 141.396 99.4816C140.753 99.7826 140.13 100.127 139.532 100.513C139.255 100.686 139.022 100.923 138.852 101.204C138.681 101.485 138.578 101.803 138.55 102.131C138.552 102.79 138.761 103.43 139.145 103.961C139.862 105.079 140.808 106.095 141.037 107.446C141.198 108.703 140.983 109.979 140.421 111.112C139.933 112.215 139.31 113.166 138.815 114.117C138.309 114.999 137.965 115.965 137.797 116.971C137.683 117.868 137.766 118.781 138.041 119.642C138.482 121.04 139.416 122.224 140.665 122.967C141.451 123.437 142.329 123.727 143.238 123.817C143.862 123.795 144.192 123.722 144.199 123.773Z" fill="#263238"/>
<path d="M144.657 134.772C144.583 134.735 144.515 134.686 144.457 134.627C144.277 134.448 144.166 134.212 144.141 133.959C144.102 133.549 144.198 133.138 144.414 132.79C144.711 132.311 145.174 131.962 145.711 131.81C146.356 131.616 147.012 131.461 147.675 131.345C148.057 131.279 148.421 131.136 148.746 130.924C149.071 130.712 149.351 130.435 149.568 130.111C149.666 129.925 149.724 129.72 149.736 129.509C149.749 129.298 149.716 129.088 149.639 128.891C149.45 128.464 149.209 128.061 148.923 127.693C148.591 127.274 148.376 126.773 148.299 126.241C148.263 125.678 148.401 125.118 148.693 124.637C148.958 124.143 149.281 123.686 149.568 123.185C149.881 122.722 150.058 122.178 150.077 121.617C150.032 121.039 149.776 120.498 149.36 120.1C148.958 119.649 148.464 119.25 148.034 118.749C147.778 118.509 147.584 118.21 147.468 117.878C147.352 117.545 147.317 117.189 147.367 116.84C147.421 116.473 147.595 116.136 147.862 115.882C148.113 115.63 148.404 115.421 148.722 115.265C149.346 114.945 150.005 114.727 150.636 114.444C151.272 114.21 151.834 113.806 152.263 113.275C152.449 112.988 152.572 112.664 152.623 112.324C152.673 111.985 152.651 111.638 152.557 111.308C152.358 110.596 152.102 109.901 151.79 109.232C151.449 108.524 151.208 107.771 151.073 106.996C150.985 106.181 151.119 105.357 151.46 104.614C152.077 103.162 153.138 101.863 153.467 100.317C153.614 99.5437 153.508 98.7437 153.166 98.0369C152.797 97.3022 152.39 96.5874 151.948 95.8953C151.471 95.1755 151.178 94.3474 151.095 93.485C151.089 92.6126 151.388 91.7663 151.94 91.0965C152.435 90.4214 153.009 89.8624 153.503 89.2453C154.02 88.687 154.363 87.988 154.492 87.2343C154.541 86.4864 154.355 85.7421 153.962 85.1072C153.611 84.4393 153.166 83.8149 152.794 83.1397C152.383 82.4697 152.16 81.6993 152.148 80.911C152.217 80.1475 152.478 79.4148 152.908 78.7838C153.288 78.1595 153.704 77.5787 153.998 76.9616C154.313 76.3768 154.415 75.6982 154.285 75.045C154.005 73.76 153.009 72.7291 152.765 71.3715C152.651 70.7012 152.803 70.0122 153.188 69.4549C153.547 68.9507 153.961 68.4881 154.421 68.0756C154.84 67.6924 155.209 67.2556 155.517 66.7761C155.775 66.3016 155.915 65.771 155.926 65.2297C155.969 64.1553 155.733 63.1171 155.79 62.108C155.848 61.1554 156.138 60.2324 156.636 59.4218C157.02 58.7693 157.533 58.2037 158.142 57.7604C158.751 57.317 159.444 57.0053 160.177 56.8446C161.096 56.6396 162.052 56.667 162.958 56.9245C163.274 57.011 163.577 57.1379 163.861 57.302C163.861 57.302 163.553 57.1568 162.944 56.9971C162.044 56.7771 161.105 56.7771 160.206 56.9971C159.5 57.1649 158.835 57.4767 158.252 57.9136C157.669 58.3505 157.18 58.9032 156.815 59.538C156.347 60.321 156.076 61.2086 156.026 62.1225C155.976 63.0953 156.22 64.119 156.191 65.2442C156.186 65.8315 156.036 66.408 155.754 66.9213C155.439 67.4281 155.058 67.8897 154.621 68.2934C154.179 68.6922 153.782 69.1403 153.439 69.6292C153.268 69.8731 153.148 70.1492 153.086 70.441C153.023 70.7328 153.019 71.0345 153.073 71.328C153.281 72.5476 154.277 73.5713 154.607 74.9579C154.752 75.6833 154.646 76.4371 154.306 77.0923C153.991 77.7457 153.589 78.3337 153.202 78.9436C152.8 79.5231 152.553 80.1985 152.485 80.9037C152.5 81.6274 152.711 82.333 153.095 82.9437C153.446 83.5899 153.897 84.2142 154.27 84.9111C154.699 85.6127 154.9 86.4329 154.844 87.2561C154.701 88.0708 154.331 88.8268 153.776 89.434C153.267 90.0656 152.693 90.6319 152.227 91.2708C151.718 91.8781 151.443 92.6518 151.453 93.4487C151.534 94.2476 151.81 95.0135 152.256 95.6775C152.707 96.3791 153.119 97.1063 153.489 97.8554C153.861 98.6356 153.976 99.5159 153.819 100.367C153.453 102.052 152.385 103.322 151.783 104.723C151.468 105.402 151.342 106.155 151.417 106.901C151.543 107.639 151.765 108.357 152.077 109.036C152.398 109.737 152.657 110.466 152.851 111.214C152.957 111.591 152.981 111.987 152.92 112.375C152.859 112.762 152.716 113.131 152.5 113.457C152.034 114.042 151.419 114.486 150.722 114.742C150.077 115.025 149.424 115.25 148.829 115.548C148.539 115.657 148.278 115.835 148.07 116.068C147.862 116.3 147.712 116.58 147.632 116.883C147.594 117.186 147.628 117.493 147.73 117.779C147.832 118.066 148 118.324 148.22 118.531C148.629 119.003 149.116 119.403 149.539 119.882C149.998 120.337 150.278 120.946 150.328 121.595C150.302 122.211 150.106 122.807 149.761 123.316C149.467 123.817 149.138 124.267 148.88 124.768C148.611 125.202 148.481 125.708 148.507 126.22C148.578 126.703 148.774 127.158 149.073 127.541C149.365 127.929 149.606 128.354 149.79 128.804C149.874 129.03 149.909 129.272 149.891 129.512C149.874 129.753 149.805 129.987 149.69 130.198C149.454 130.543 149.152 130.836 148.803 131.061C148.453 131.285 148.062 131.436 147.654 131.505C146.937 131.672 146.256 131.737 145.69 131.933C145.179 132.068 144.735 132.388 144.442 132.833C144.231 133.16 144.13 133.547 144.156 133.937C144.173 134.105 144.227 134.267 144.314 134.412C144.4 134.556 144.518 134.679 144.657 134.772Z" fill="#455A64"/>
<path d="M233.073 234.994L220.592 192.887L224.485 126.096C216.542 121.74 207.109 118.241 193.661 117.697L172.156 119.337L148.436 131.338L153.453 171.717L161.511 206.564L156.543 227.872C176.801 242.609 203.775 244.236 233.073 234.994Z" fill="#EF5E9C"/>
<path d="M214.27 165.038C214.27 165.038 238.542 166.301 238.542 164.268C238.542 160.109 237.266 148.297 233.796 139.106C231.165 132.151 226.628 127.025 224.191 125.98C218.571 123.533 214.27 165.038 214.27 165.038Z" fill="#EF5E9C"/>
<path d="M148.744 131.098C148.744 131.098 144.163 134.953 139.339 146.54C133.604 160.283 131.963 163.114 131.963 163.114L146.35 182.817L154.163 173.946L148.744 131.098Z" fill="#EF5E9C"/>
<path d="M161.468 206.521C161.468 206.521 161.468 206.47 161.411 206.361C161.353 206.252 161.332 206.078 161.282 205.882C161.167 205.432 161.016 204.807 160.823 204.031C160.429 202.419 159.884 200.081 159.232 197.192C157.927 191.384 156.206 183.398 154.357 174.556L149.619 151.883C149.009 149.016 148.508 146.678 148.185 145.023C148.027 144.231 147.898 143.614 147.805 143.15C147.769 142.954 147.741 142.794 147.712 142.663V142.496C147.741 142.545 147.761 142.599 147.769 142.656C147.805 142.787 147.848 142.939 147.898 143.135C148.013 143.59 148.164 144.207 148.35 144.986C148.737 146.598 149.275 148.936 149.927 151.832C151.224 157.64 152.931 165.626 154.773 174.476C156.615 183.326 158.314 191.304 159.54 197.134C160.156 200.038 160.658 202.346 161.016 204.002C161.181 204.786 161.31 205.41 161.404 205.867L161.497 206.354C161.497 206.411 161.487 206.467 161.468 206.521Z" fill="#263238"/>
<g opacity="0.3">
<path d="M217.954 122.8C214.767 120.892 211.016 120.189 207.365 120.818C203.715 121.447 200.404 123.366 198.019 126.234L197.689 123.766C197.489 126.437 195.367 129.45 195.661 131.193C195.955 132.935 197.367 134.554 199.109 134.627C201.575 134.728 203.833 131.933 206.119 132.87C206.879 133.175 207.438 133.857 208.184 134.205C209.854 134.99 211.768 133.901 213.245 132.819C214.965 131.585 216.655 130.305 218.313 128.978C219.238 128.252 220.227 127.359 220.327 126.169C220.449 124.717 219.194 123.541 217.954 122.8Z" fill="black"/>
</g>
<path d="M221.338 127.352C219.814 128.339 218.454 129.564 217.309 130.982C216.119 132.562 215.185 134.324 214.542 136.202C213.752 138.51 213.099 140.864 212.585 143.251C212.066 145.64 211.747 148.068 211.632 150.511C211.496 152.762 211.453 154.794 211.381 156.5C211.309 158.206 211.245 159.586 211.159 160.544C211.123 161.016 211.073 161.386 211.044 161.64C211.04 161.769 211.018 161.896 210.979 162.018C210.963 161.89 210.963 161.761 210.979 161.633C210.979 161.335 210.979 160.972 211.022 160.53C211.058 159.579 211.094 158.199 211.13 156.493C211.166 154.787 211.18 152.747 211.295 150.489C211.393 148.029 211.707 145.582 212.234 143.179C212.752 140.777 213.417 138.41 214.227 136.093C214.894 134.193 215.863 132.415 217.094 130.83C217.941 129.774 218.936 128.85 220.047 128.085C220.442 127.817 220.764 127.65 220.986 127.519C221.093 127.443 221.212 127.387 221.338 127.352Z" fill="#263238"/>
<path d="M200.965 221.048C200.845 221.043 200.725 221.029 200.607 221.004L199.582 220.815C198.693 220.648 197.431 220.365 195.84 219.98C191.744 218.986 187.703 217.774 183.733 216.351C179.76 214.927 175.862 213.296 172.055 211.465C170.622 210.739 169.432 210.158 168.636 209.73L167.718 209.221C167.608 209.17 167.504 209.104 167.41 209.025C167.531 209.049 167.648 209.093 167.754 209.156L168.7 209.592C169.51 209.991 170.7 210.55 172.17 211.218C175.109 212.568 179.216 214.325 183.854 215.995C188.492 217.665 192.779 218.899 195.904 219.734C197.467 220.14 198.736 220.46 199.611 220.677L200.621 220.939C200.741 220.955 200.858 220.992 200.965 221.048Z" fill="#263238"/>
<path d="M202.65 212.771C202.528 212.8 202.403 212.817 202.278 212.822L201.21 212.909C200.278 212.975 198.93 213.033 197.267 213.062C188.581 213.202 179.912 212.244 171.461 210.209C169.841 209.817 168.536 209.483 167.64 209.2L166.615 208.88C166.493 208.852 166.375 208.808 166.264 208.75C166.39 208.751 166.516 208.77 166.636 208.808L167.683 209.054C168.579 209.279 169.891 209.592 171.518 209.947C179.98 211.833 188.617 212.787 197.281 212.793C198.944 212.793 200.285 212.793 201.217 212.757H202.292C202.412 212.744 202.532 212.749 202.65 212.771Z" fill="#263238"/>
<path d="M113.497 100.295H111.626C110.85 100.295 110.089 100.519 109.434 100.941C108.779 101.362 108.256 101.964 107.927 102.676C107.63 103.313 107.499 104.016 107.547 104.719C107.594 105.422 107.819 106.101 108.199 106.691L111.067 111.228C111.067 111.228 108.199 112.811 109.002 115.976C109.002 115.976 107.11 117.145 108.099 121.058C108.099 121.058 106.844 124.339 108.371 126.619C109.898 128.899 114.758 137.632 114.758 137.632V147.288L127.661 145.778V134.612C128.569 133.064 129.213 131.374 129.568 129.61C130.113 126.786 128.041 115.961 128.041 115.961L122.106 109.028L115.454 106.386C115.019 107.112 114.868 107.977 115.031 108.811C115.068 108.977 115.118 109.139 115.181 109.297L114.192 108.84L111.97 104.745V104.201C111.97 104.201 117.439 102.959 115.346 100.992C114.831 100.545 114.175 100.298 113.497 100.295Z" fill="#FFBE9D"/>
<path d="M121.647 126.089C121.647 126.089 121.827 126.249 121.963 126.641C122.161 127.203 122.191 127.811 122.049 128.39C121.994 128.601 121.894 128.796 121.755 128.962C121.616 129.128 121.442 129.26 121.246 129.349C120.791 129.543 120.283 129.567 119.812 129.414C118.802 129.102 118.156 128.129 117.497 127.294C117.188 126.885 116.815 126.53 116.393 126.241C116.003 125.99 115.543 125.873 115.081 125.907L112.587 126.06C111.82 126.14 111.048 126.157 110.278 126.111C111.031 125.944 111.796 125.84 112.565 125.799C113.282 125.726 114.113 125.639 115.067 125.559C115.599 125.512 116.132 125.639 116.586 125.922C117.047 126.23 117.452 126.615 117.784 127.062C118.457 127.926 119.067 128.811 119.934 129.08C120.324 129.218 120.749 129.218 121.138 129.08C121.296 129.016 121.438 128.917 121.554 128.792C121.67 128.667 121.758 128.517 121.812 128.354C121.952 127.821 121.952 127.261 121.812 126.728C121.733 126.3 121.619 126.104 121.647 126.089Z" fill="#EB996E"/>
<path d="M116.845 110.596C116.845 110.64 116.558 110.596 116.185 110.379C115.69 110.082 115.299 109.635 115.067 109.101C114.836 108.567 114.775 107.973 114.895 107.402C114.988 106.967 115.146 106.741 115.189 106.763C115.107 107.497 115.183 108.24 115.411 108.941C115.764 109.592 116.253 110.157 116.845 110.596Z" fill="#263238"/>
<path d="M115.734 125.646C115.777 125.646 115.806 125.951 115.691 126.43C115.536 127.049 115.241 127.623 114.831 128.107C114.419 128.593 113.905 128.978 113.325 129.232C112.881 129.421 112.608 129.443 112.565 129.399C113.323 129.033 113.996 128.509 114.542 127.863C115.088 127.216 115.494 126.461 115.734 125.646Z" fill="#EB996E"/>
<path d="M123.683 133.24C122.988 132.33 122.139 131.553 121.174 130.946C120.15 130.448 119.044 130.145 117.912 130.053C118.239 129.917 118.595 129.872 118.944 129.922C119.791 129.968 120.616 130.205 121.36 130.616C122.104 131.027 122.749 131.601 123.245 132.296C123.467 132.568 123.618 132.893 123.683 133.24Z" fill="#EB996E"/>
<path d="M123.784 126.212C124.288 127.116 124.641 128.097 124.83 129.116C125.038 130.108 125.1 131.126 125.017 132.136C124.751 133.777 124.006 138.438 125.06 139.534C126.113 140.63 133.21 146.525 133.21 146.525H137.676C137.676 146.525 128.608 140.856 127.389 137.044C126.171 133.233 127.346 131.193 126.73 128.819C125.878 126.204 124.86 123.648 123.683 121.167L113.318 103.896L111.604 104.302L123.784 126.212Z" fill="#E0E0E0"/>
<path d="M123.783 126.212C123.783 126.212 123.69 126.082 123.54 125.82C123.389 125.559 123.153 125.16 122.873 124.673L120.364 120.259L111.461 104.397L111.354 104.208L111.561 104.157L113.267 103.75H113.382L113.447 103.852L123.834 121.116C124.687 122.967 125.554 124.935 126.314 126.989C126.747 128.018 127.008 129.112 127.088 130.227C127.088 131.345 126.966 132.405 126.981 133.465C126.985 134.509 127.132 135.547 127.418 136.55C127.697 137.521 128.186 138.417 128.852 139.171C130.151 140.65 131.591 141.995 133.153 143.186C134.672 144.362 136.199 145.444 137.712 146.409L138.199 146.721H133.102L133.059 146.685C130.249 144.326 127.676 142.177 125.468 140.188C125.17 139.95 124.911 139.666 124.701 139.345C124.548 139.008 124.452 138.647 124.414 138.278C124.342 137.603 124.33 136.923 124.378 136.245C124.455 135.061 124.591 133.881 124.787 132.71C124.958 131.779 124.958 130.824 124.787 129.893C124.711 129.198 124.567 128.512 124.357 127.846C124.248 127.43 124.112 127.023 123.948 126.626C123.879 126.494 123.817 126.358 123.762 126.22C124.066 126.715 124.306 127.246 124.479 127.802C124.704 128.47 124.865 129.158 124.959 129.857C125.128 130.805 125.128 131.776 124.959 132.724C124.809 133.784 124.651 134.953 124.586 136.238C124.549 136.904 124.568 137.572 124.644 138.235C124.679 138.575 124.771 138.906 124.916 139.215C125.117 139.493 125.359 139.738 125.633 139.941C127.855 141.908 130.443 144.05 133.26 146.387H133.16H137.626L137.54 146.7C136.006 145.732 134.472 144.652 132.938 143.462C131.341 142.263 129.869 140.903 128.543 139.404C127.839 138.611 127.32 137.668 127.024 136.645C126.732 135.61 126.58 134.541 126.572 133.465C126.572 132.383 126.708 131.287 126.68 130.242C126.617 129.167 126.374 128.112 125.963 127.12C125.21 125.087 124.343 123.12 123.497 121.312L113.196 103.997L113.375 104.07L111.662 104.469L111.762 104.237L120.551 120.209L122.973 124.659L123.604 125.835C123.719 126.067 123.783 126.212 123.783 126.212Z" fill="#263238"/>
<path d="M110.78 111.831C111.371 111.199 112.099 110.717 112.907 110.422C113.715 110.127 114.58 110.027 115.433 110.132C117.142 110.354 118.755 111.061 120.085 112.172C121.407 113.27 122.63 114.485 123.741 115.802C124.544 116.554 125.135 117.508 125.454 118.568C125.669 119.649 125.088 120.978 124.02 121.145C122.952 121.312 122.113 120.419 121.389 119.606C120.399 118.537 119.282 117.596 118.063 116.804C117.337 116.271 116.502 115.911 115.619 115.751C114.529 115.697 113.441 115.893 112.436 116.324" fill="#FFBE9D"/>
<path d="M112.429 116.346C112.534 116.285 112.644 116.234 112.758 116.194C113.08 116.066 113.408 115.954 113.74 115.86C114.272 115.705 114.822 115.632 115.375 115.642C116.114 115.7 116.83 115.929 117.468 116.31C119.109 117.259 120.592 118.464 121.862 119.882C122.217 120.27 122.634 120.594 123.095 120.84C123.32 120.956 123.571 121.009 123.823 120.995C124.074 120.981 124.318 120.9 124.529 120.76C124.741 120.594 124.917 120.386 125.048 120.149C125.178 119.912 125.26 119.651 125.289 119.381C125.345 118.809 125.224 118.233 124.945 117.733C124.307 116.737 123.567 115.812 122.737 114.974C122.004 114.144 121.219 113.363 120.386 112.636C119.013 111.373 117.302 110.55 115.468 110.27C114.228 110.12 112.972 110.375 111.884 110.996C111.499 111.248 111.133 111.527 110.787 111.831C110.848 111.724 110.923 111.626 111.009 111.54C111.25 111.286 111.519 111.062 111.812 110.872C112.911 110.175 114.207 109.869 115.497 110.001C117.398 110.255 119.181 111.079 120.615 112.368C121.464 113.1 122.264 113.888 123.009 114.727C123.869 115.582 124.631 116.532 125.282 117.559C125.603 118.126 125.736 118.782 125.662 119.432C125.626 119.753 125.527 120.063 125.369 120.344C125.211 120.625 124.999 120.87 124.744 121.065C124.481 121.241 124.176 121.343 123.861 121.361C123.547 121.379 123.233 121.312 122.952 121.167C122.453 120.903 122.004 120.551 121.626 120.129C120.378 118.721 118.928 117.512 117.325 116.542C116.73 116.153 116.056 115.905 115.353 115.816C114.818 115.789 114.282 115.84 113.762 115.969C112.909 116.216 112.479 116.383 112.429 116.346Z" fill="#EB996E"/>
<path d="M110.443 120.622C112.716 121.174 115.282 120.622 117.282 121.835C117.938 122.265 118.533 122.783 119.053 123.374L122.185 126.648C122.759 127.251 123.547 127.904 124.336 127.519C124.513 127.423 124.666 127.285 124.781 127.117C124.895 126.949 124.969 126.756 124.995 126.554C125.048 125.827 124.858 125.104 124.458 124.499C123.713 123.103 122.895 121.748 122.006 120.441C121.554 119.769 121.037 119.144 120.465 118.575C119.569 117.605 118.495 116.821 117.303 116.266C115.683 115.758 114.479 115.54 112.852 116.266" fill="#FFBE9D"/>
<path d="M112.845 116.266C112.942 116.194 113.048 116.135 113.16 116.092C113.476 115.945 113.808 115.838 114.149 115.773C115.431 115.61 116.732 115.821 117.898 116.383C118.678 116.814 119.401 117.343 120.049 117.958C120.818 118.625 121.5 119.388 122.078 120.23C122.687 121.109 123.296 122.053 123.884 123.054C124.178 123.555 124.465 124.078 124.737 124.615C125.072 125.169 125.236 125.811 125.21 126.459C125.182 126.808 125.041 127.137 124.809 127.396C124.691 127.526 124.548 127.631 124.389 127.705C124.23 127.779 124.059 127.819 123.884 127.824C123.249 127.758 122.663 127.446 122.25 126.953L119.941 124.535C119.225 123.809 118.508 123.004 117.841 122.408C117.184 121.861 116.403 121.487 115.569 121.319C114.02 121.007 112.701 121.051 111.827 120.913C111.484 120.871 111.145 120.811 110.809 120.731C110.69 120.712 110.574 120.676 110.465 120.622C110.465 120.622 110.952 120.702 111.841 120.768C113.105 120.789 114.366 120.886 115.619 121.058C116.503 121.215 117.333 121.595 118.035 122.161C118.751 122.779 119.468 123.541 120.185 124.296L122.493 126.684C122.85 127.088 123.339 127.346 123.87 127.41C124.127 127.389 124.368 127.272 124.545 127.081C124.723 126.891 124.824 126.641 124.83 126.379C124.85 125.804 124.7 125.235 124.4 124.746C124.135 124.223 123.848 123.708 123.561 123.207C122.981 122.212 122.379 121.268 121.791 120.39C121.23 119.568 120.573 118.817 119.834 118.154C119.22 117.548 118.533 117.021 117.791 116.586C116.682 116.023 115.444 115.773 114.207 115.86C113.745 115.968 113.29 116.104 112.845 116.266Z" fill="#EB996E"/>
<path d="M114.586 103.3C113.79 103.82 112.905 104.184 111.977 104.375C111.077 104.688 110.117 104.783 109.174 104.651C109.174 104.542 110.407 104.418 111.883 104.004C112.765 103.699 113.668 103.463 114.586 103.3Z" fill="#EB996E"/>
<path d="M130.794 163.288L127.712 144.478L114.809 146.888C114.809 146.888 115.482 172.53 116.099 178.832C117.095 189.054 122.092 199.885 129.719 197.969C136.837 196.175 145.246 181.111 145.246 181.111L130.794 163.288Z" fill="#FFBE9D"/>
<path d="M195.547 57.2802C196.041 58.0933 197.339 57.9408 197.984 57.2802C198.55 56.513 198.891 55.5995 198.966 54.6448C199.038 53.6883 199.433 52.7861 200.084 52.0894C200.801 51.4723 202.142 51.5594 202.45 52.4596C201.877 50.9133 203.697 49.0983 205.21 49.7154C205.33 48.9407 205.72 48.2353 206.311 47.7276C206.901 47.2199 207.651 46.9435 208.425 46.9488C209.2 46.954 209.946 47.2406 210.53 47.7563C211.113 48.2721 211.494 48.9827 211.604 49.759C211.932 49.4022 212.366 49.1641 212.841 49.0812C213.315 48.9984 213.803 49.0753 214.23 49.3002C214.657 49.5251 215 49.8855 215.205 50.3264C215.41 50.7672 215.468 51.2641 215.367 51.7409C215.841 51.8248 216.288 52.0229 216.67 52.3185C217.052 52.614 217.358 52.9984 217.563 53.4391C217.768 53.8798 217.864 54.3639 217.845 54.8505C217.826 55.3371 217.692 55.8119 217.453 56.2348C218.041 56.2913 218.597 56.53 219.045 56.9182C219.493 57.3065 219.813 57.8253 219.959 58.4041C220.106 58.9828 220.073 59.5933 219.864 60.1522C219.656 60.7111 219.282 61.1913 218.794 61.5272C218.955 61.9225 219.015 62.3525 218.97 62.7777C218.924 63.2028 218.774 63.6096 218.533 63.9607C218.292 64.3118 217.967 64.596 217.59 64.7873C217.212 64.9786 216.793 65.0708 216.371 65.0555C215.829 65.9711 214.951 66.6324 213.929 66.8949C212.907 67.1574 211.824 66.9998 210.916 66.4566C209.113 67.1656 207.164 67.4062 205.245 67.1564C203.327 66.9066 201.501 66.1743 199.934 65.0264" fill="#263238"/>
<path d="M196.307 67.2625C196.252 66.1307 195.779 65.061 194.983 64.2651C194.186 63.4692 193.124 63.0051 192.006 62.9647L167.942 58.5507C160.314 58.2675 155.92 68.0611 155.963 75.7928C156.006 84.3812 156.4 94.8644 157.834 101.202C160.702 113.892 170.537 114.851 170.537 114.851C170.537 114.851 170.63 118.829 170.895 124.419C170.981 126.23 171.424 128.005 172.2 129.639C172.976 131.272 174.068 132.732 175.411 133.93C176.754 135.129 178.321 136.042 180.019 136.615C181.717 137.189 183.512 137.411 185.296 137.269C188.699 136.997 191.871 135.417 194.159 132.852C196.448 130.287 197.681 126.932 197.604 123.475L196.307 67.2625Z" fill="#FFBE9D"/>
<path d="M160.235 84.9329C160.259 85.3623 160.448 85.7652 160.761 86.0555C161.074 86.3458 161.487 86.5005 161.912 86.4865C162.12 86.4885 162.327 86.4482 162.519 86.3682C162.712 86.2882 162.887 86.17 163.034 86.0205C163.181 85.871 163.297 85.6933 163.375 85.4978C163.453 85.3023 163.492 85.093 163.489 84.8821C163.463 84.4533 163.274 84.0515 162.961 83.7616C162.648 83.4717 162.236 83.3164 161.812 83.3285C161.603 83.3265 161.397 83.3667 161.204 83.4468C161.011 83.5268 160.837 83.645 160.69 83.7945C160.543 83.944 160.427 84.1217 160.349 84.3172C160.27 84.5127 160.232 84.722 160.235 84.9329Z" fill="#263238"/>
<path d="M158.773 80.2503C158.988 80.4536 160.157 79.4445 161.906 79.3283C163.655 79.2122 164.995 80.0035 165.175 79.7785C165.261 79.6696 165.031 79.2993 164.458 78.9291C163.667 78.446 162.748 78.2252 161.827 78.2974C160.915 78.3585 160.047 78.712 159.347 79.3066C158.824 79.7567 158.673 80.1632 158.773 80.2503Z" fill="#263238"/>
<path d="M176.6 84.432C176.626 84.8601 176.815 85.2612 177.129 85.5499C177.442 85.8387 177.854 85.9924 178.277 85.9783C178.485 85.9813 178.691 85.9419 178.884 85.8627C179.077 85.7835 179.252 85.666 179.399 85.5171C179.546 85.3682 179.662 85.1909 179.74 84.9958C179.818 84.8007 179.857 84.5917 179.854 84.3812C179.83 83.9517 179.641 83.5489 179.328 83.2586C179.014 82.9683 178.601 82.8136 178.177 82.8276C177.969 82.8256 177.762 82.8658 177.569 82.9459C177.377 83.0259 177.202 83.1441 177.055 83.2936C176.908 83.4431 176.792 83.6208 176.714 83.8163C176.636 84.0118 176.597 84.2211 176.6 84.432Z" fill="#263238"/>
<path d="M176.042 80.214C176.257 80.4173 177.432 79.4082 179.174 79.292C180.916 79.1759 182.264 79.9744 182.443 79.7421C182.529 79.6405 182.3 79.2702 181.726 78.8927C180.933 78.4158 180.015 78.1978 179.095 78.2684C178.185 78.3274 177.316 78.6782 176.615 79.2702C176.092 79.7276 175.934 80.1632 176.042 80.214Z" fill="#263238"/>
<path d="M170.586 93.7899C170.586 93.6882 169.489 93.5721 167.718 93.4705C167.267 93.4705 166.837 93.3906 166.743 93.0929C166.674 92.6272 166.747 92.151 166.951 91.7281C167.295 90.6004 167.659 89.4219 168.041 88.1925C169.539 83.1615 170.593 79.0379 170.392 78.9798C170.191 78.9217 168.815 82.9509 167.31 87.982L166.242 91.5321C166.002 92.0992 165.964 92.7329 166.134 93.3253C166.212 93.4892 166.328 93.632 166.471 93.7419C166.614 93.8517 166.781 93.9254 166.958 93.9569C167.197 93.984 167.437 93.984 167.675 93.9569C169.489 93.9569 170.586 93.8915 170.586 93.7899Z" fill="#263238"/>
<path d="M170.543 114.829C176.516 114.506 182.283 112.51 187.202 109.065C187.202 109.065 183.518 118.183 170.758 117.864L170.543 114.829Z" fill="#EB996E"/>
<path d="M174.901 75.6622C175.102 76.134 176.837 75.7856 178.901 75.8872C180.966 75.9888 182.672 76.4462 182.908 75.9961C183.016 75.7856 182.7 75.35 181.998 74.9289C181.068 74.4126 180.032 74.1242 178.973 74.0868C177.916 74.0298 176.861 74.2315 175.898 74.6748C175.159 75.0378 174.844 75.4371 174.901 75.6622Z" fill="#263238"/>
<path d="M159.13 75.909C159.46 76.2938 160.636 75.7928 162.084 75.6694C163.532 75.546 164.779 75.7565 165.03 75.3137C165.145 75.1032 164.922 74.7111 164.363 74.3699C163.612 73.9636 162.759 73.7923 161.912 73.8776C161.064 73.9629 160.261 74.301 159.604 74.8491C159.116 75.2992 158.98 75.7275 159.13 75.909Z" fill="#263238"/>
<path d="M164.858 58.3256C164.141 59.9155 167.181 62.8557 168.83 63.4074C170.478 63.9592 172.614 63.6761 173.503 65.1934C174.521 66.9139 172.45 69.6945 175.89 71.5675C176.98 72.1556 178.564 70.9141 179.475 71.7563C180.6 72.8017 179.131 74.6021 179.181 76.1122C179.274 79.1032 184.665 79.3428 185.023 82.3121C185.245 84.1851 183.181 85.942 183.898 87.6989C184.614 89.4558 187.582 89.3251 188.313 91.0965C189.252 93.3833 185.446 95.358 185.912 97.7828C186.378 100.208 190.356 100.186 191.152 102.494C191.833 104.469 189.639 106.625 190.385 108.571C191.238 110.8 194.951 110.473 195.948 112.636C197.152 115.25 193.08 118.263 194.457 120.782C194.915 121.624 195.976 121.922 196.607 122.648C198.629 125 198.449 130.125 196.363 132.18H197.854C200.094 132.142 202.289 131.542 204.245 130.435C206.2 129.328 207.854 127.747 209.059 125.835L210.299 128.739C214.27 127.461 217.367 124.826 220.549 122.118C221.339 121.449 222.277 120.983 223.283 120.761C224.29 120.538 225.334 120.566 226.327 120.84L227.209 121.08C229.868 121.283 233.352 119.947 235.574 118.444C232.643 117.849 231.065 114.611 230.334 111.678C229.603 108.745 229.159 105.471 226.965 103.409C224.592 101.173 220.478 100.672 219.388 97.6013C218.528 95.1765 220.105 92.4105 219.352 89.9567C218.6 87.5029 215.696 86.2614 214.585 83.9165C213.073 80.7222 215.259 76.4969 213.331 73.5422C211.245 70.3261 205.646 70.798 204.062 67.2987C203.195 65.3603 203.897 62.7395 202.392 61.2585C201.18 60.0752 199.123 60.2712 197.854 59.1532C195.991 57.5197 196.901 54.1584 195.281 52.2781C193.095 49.7372 188.607 51.9805 185.797 50.1728C184.027 49.033 183.439 46.5791 181.69 45.4103C179.317 43.8131 176.206 45.2506 173.518 46.2016C171.439 46.9276 169.253 47.3559 167.231 48.2562C165.21 49.1564 163.317 50.6374 162.6 52.75C161.883 54.8626 162.779 57.5923 164.865 58.311" fill="#263238"/>
<path d="M231.668 108.222C231.745 108.274 231.815 108.335 231.876 108.404C232.012 108.535 232.213 108.723 232.457 108.985C232.77 109.306 233.053 109.656 233.303 110.03C233.671 110.534 233.917 111.118 234.02 111.736C234.063 112.126 234.027 112.52 233.914 112.895C233.8 113.269 233.612 113.616 233.36 113.914C233.061 114.268 232.646 114.5 232.192 114.568C231.946 114.593 231.698 114.569 231.462 114.497C231.225 114.425 231.006 114.305 230.815 114.146C230.07 113.365 229.641 112.329 229.611 111.243C229.547 110.067 229.547 108.889 229.611 107.714C229.675 106.48 229.783 105.188 229.955 103.852C230.041 103.184 230.149 102.502 230.263 101.812C230.396 101.126 230.44 100.426 230.392 99.7284C230.378 99.3817 230.285 99.043 230.121 98.7384C229.957 98.4338 229.726 98.1714 229.446 97.9715C228.815 97.6204 228.088 97.4854 227.374 97.5868C226.598 97.6704 225.818 97.7091 225.038 97.7029C224.616 97.6999 224.2 97.6027 223.82 97.4182C223.439 97.2338 223.104 96.9666 222.837 96.6357C222.344 95.9251 222.076 95.0793 222.07 94.2109C222.052 93.3572 222.117 92.5037 222.263 91.6627C222.4 90.8279 222.427 89.9783 222.342 89.1363C222.294 88.7224 222.164 88.3228 221.958 87.962C221.752 87.6012 221.475 87.2868 221.145 87.0382C220.403 86.5744 219.621 86.1807 218.808 85.8621C217.946 85.4774 217.226 84.827 216.751 84.0036C215.826 82.3121 215.84 80.3301 215.876 78.4716C215.907 77.5498 215.862 76.627 215.74 75.7129C215.622 74.8248 215.295 73.9784 214.787 73.2445C213.704 71.7926 211.962 71.19 210.378 70.464C209.565 70.1222 208.791 69.6913 208.07 69.179C207.345 68.647 206.799 67.9018 206.507 67.0446C206.308 66.2135 206.185 65.3652 206.142 64.5109C206.114 63.7203 205.794 62.9689 205.246 62.4056C204.636 61.9364 203.913 61.6406 203.152 61.5489C202.376 61.4394 201.612 61.2496 200.873 60.9827C200.127 60.6858 199.523 60.1083 199.188 59.371C198.918 58.676 198.765 57.9396 198.737 57.193C198.636 55.7411 198.672 54.2891 198.02 53.1711C197.352 52.0965 196.339 51.2867 195.153 50.877C194.078 50.4708 192.944 50.2499 191.798 50.2236C190.708 50.1655 189.647 50.18 188.708 50.1365C187.804 50.1184 186.904 50.0114 186.02 49.817C185.264 49.6437 184.539 49.3549 183.87 48.9604C182.93 48.4468 182.177 47.6432 181.719 46.6663C181.558 46.3297 181.463 45.9648 181.439 45.5918C181.527 45.9466 181.642 46.2937 181.784 46.63C182.261 47.5638 183.012 48.3247 183.934 48.8079C184.591 49.2041 185.304 49.4955 186.049 49.6718C186.925 49.8499 187.815 49.9447 188.708 49.955C189.669 49.955 190.701 49.955 191.805 50.013C192.976 50.0329 194.137 50.2488 195.239 50.6519C196.487 51.078 197.553 51.9266 198.256 53.0549C198.973 54.2891 198.923 55.7846 199.038 57.2003C199.065 57.919 199.211 58.628 199.468 59.2984C199.77 59.9635 200.314 60.4841 200.988 60.7503C201.71 61.0015 202.454 61.1814 203.21 61.2876C204.032 61.3844 204.812 61.7056 205.468 62.2168C206.082 62.8341 206.444 63.6641 206.479 64.54C206.527 65.3718 206.646 66.1978 206.837 67.0083C207.11 67.7907 207.609 68.4715 208.271 68.9612C208.97 69.4575 209.723 69.8716 210.514 70.1954C211.31 70.5584 212.134 70.9214 212.93 71.3352C213.764 71.7567 214.498 72.356 215.081 73.0921C215.628 73.8705 215.98 74.7727 216.106 75.7201C216.236 76.6578 216.284 77.6053 216.249 78.5515C216.206 80.41 216.249 82.3266 217.073 83.8875C217.51 84.6473 218.176 85.2453 218.973 85.5935C219.806 85.9253 220.608 86.3335 221.367 86.8132C221.735 87.0914 222.042 87.443 222.271 87.8464C222.499 88.2497 222.643 88.6962 222.693 89.1581C222.79 90.0311 222.763 90.9135 222.615 91.7789C222.47 92.6005 222.405 93.4346 222.421 94.269C222.425 95.0616 222.662 95.8351 223.102 96.4905C223.341 96.7829 223.639 97.0189 223.977 97.1819C224.315 97.345 224.685 97.4311 225.059 97.4343C225.825 97.4413 226.591 97.405 227.353 97.3254C228.139 97.2221 228.936 97.3801 229.625 97.7755C229.942 98.0021 230.204 98.2991 230.391 98.6439C230.577 98.9887 230.683 99.3721 230.701 99.7647C230.748 100.494 230.7 101.226 230.557 101.943C230.435 102.669 230.335 103.3 230.242 103.968C230.063 105.297 229.941 106.582 229.876 107.809C229.796 108.971 229.779 110.137 229.826 111.301C229.849 112.327 230.239 113.309 230.923 114.067C231.084 114.208 231.272 114.315 231.474 114.382C231.677 114.448 231.891 114.473 232.103 114.455C232.316 114.437 232.522 114.376 232.711 114.275C232.9 114.175 233.067 114.037 233.202 113.871C233.446 113.593 233.63 113.266 233.742 112.913C233.854 112.559 233.893 112.186 233.855 111.816C233.771 111.217 233.553 110.646 233.217 110.146C232.976 109.775 232.708 109.423 232.414 109.094L231.862 108.491C231.786 108.41 231.721 108.32 231.668 108.222Z" fill="#263238"/>
<path d="M203.926 126.808L204.27 126.655C204.5 126.554 204.844 126.416 205.267 126.198C205.795 125.938 206.258 125.561 206.621 125.094C206.86 124.78 207.01 124.406 207.054 124.012C207.098 123.618 207.036 123.219 206.872 122.858C206.63 122.462 206.244 122.178 205.797 122.067C205.324 121.915 204.801 121.856 204.263 121.668C203.978 121.577 203.718 121.42 203.503 121.21C203.289 120.969 203.16 120.663 203.138 120.339C203.188 119.692 203.408 119.07 203.776 118.539C204.123 117.987 204.337 117.36 204.399 116.709C204.456 116.022 204.328 115.332 204.027 114.713C203.685 114.054 203.156 113.514 202.508 113.164C201.86 112.813 201.123 112.667 200.392 112.745H200.242V112.586C200.228 111.43 200.591 110.302 201.274 109.377C201.972 108.447 202.586 107.456 203.109 106.415C203.347 105.877 203.481 105.298 203.503 104.709C203.53 104.119 203.341 103.54 202.973 103.082C202.199 102.153 200.822 101.943 199.668 101.384C199.01 101.126 198.469 100.633 198.148 99.9971C197.883 99.3209 197.883 98.5678 198.148 97.8917C198.571 96.5704 199.424 95.3871 199.381 94.044C199.331 93.3719 199.061 92.7359 198.614 92.2363C198.158 91.7166 197.623 91.2732 197.03 90.9223C195.847 90.1963 194.45 89.6881 193.288 88.7443C192.547 88.1661 192.038 87.3357 191.855 86.4066C191.729 85.496 191.818 84.5683 192.113 83.6987C192.349 82.842 192.65 82.0217 192.83 81.1868C192.919 80.7822 192.953 80.3668 192.93 79.9526C192.89 79.5554 192.76 79.1728 192.55 78.8346C192.076 78.1785 191.396 77.705 190.622 77.4916C189.827 77.2526 189.055 76.9441 188.313 76.5695C187.944 76.3573 187.624 76.0662 187.377 75.7165C187.129 75.3668 186.96 74.9667 186.88 74.544C186.766 73.7322 186.812 72.9055 187.016 72.112C187.174 71.3425 187.367 70.5947 187.46 69.8469C187.589 69.1175 187.527 68.3668 187.281 67.669C186.999 67.028 186.528 66.4907 185.934 66.1299C185.346 65.7732 184.711 65.5042 184.048 65.3313C182.736 64.9756 181.389 64.8667 180.156 64.4093C179.524 64.2142 178.936 63.8934 178.428 63.4655C177.974 63.0539 177.597 62.5619 177.317 62.0136C176.765 60.9391 176.471 59.8356 176.027 58.8918C175.636 57.9805 175.019 57.1874 174.235 56.5905C173.607 56.1129 172.885 55.7781 172.118 55.6089C171.351 55.4398 170.557 55.4403 169.79 55.6104C168.814 55.8356 167.913 56.3133 167.174 56.997C166.672 57.4762 166.457 57.7883 166.457 57.7738C166.64 57.4677 166.864 57.1891 167.124 56.9462C167.856 56.2312 168.764 55.7296 169.754 55.4942C170.544 55.3047 171.364 55.2916 172.159 55.4559C172.954 55.6201 173.704 55.9578 174.357 56.4453C175.178 57.0516 175.828 57.8651 176.242 58.8047C176.708 59.7848 177.009 60.881 177.554 61.9119C177.818 62.4379 178.175 62.9103 178.607 63.3058C179.076 63.7018 179.613 64.007 180.192 64.206C181.374 64.6416 182.708 64.736 184.063 65.0917C184.758 65.2685 185.425 65.5473 186.041 65.9194C186.692 66.3174 187.207 66.9077 187.518 67.6109C187.785 68.3487 187.859 69.1441 187.733 69.9195C187.64 70.6963 187.446 71.4514 187.288 72.2136C187.099 72.9603 187.056 73.7369 187.159 74.5005C187.231 74.8752 187.383 75.2293 187.605 75.5379C187.827 75.8465 188.113 76.102 188.442 76.2864C189.167 76.6461 189.92 76.9448 190.693 77.1794C191.54 77.407 192.286 77.9189 192.808 78.6313C193.052 79.0186 193.202 79.459 193.245 79.9163C193.266 80.3665 193.233 80.8176 193.145 81.2594C192.973 82.1378 192.672 82.9582 192.428 83.8003C192.151 84.6136 192.065 85.4812 192.177 86.334C192.353 87.1809 192.827 87.9342 193.511 88.4539C194.607 89.3759 195.976 89.8551 197.209 90.6319C197.838 91.0037 198.404 91.4742 198.887 92.0257C199.38 92.589 199.677 93.3006 199.733 94.0512C199.769 95.5831 198.865 96.7882 198.478 98.0296C198.249 98.6249 198.249 99.2856 198.478 99.8809C198.768 100.434 199.243 100.864 199.819 101.093C200.392 101.362 201.009 101.551 201.611 101.819C202.235 102.041 202.797 102.415 203.245 102.908C203.665 103.431 203.879 104.093 203.847 104.767C203.819 105.399 203.673 106.019 203.417 106.596C202.884 107.653 202.258 108.659 201.546 109.602C200.894 110.467 200.544 111.526 200.55 112.615L200.385 112.477C201.177 112.398 201.974 112.564 202.672 112.953C203.369 113.341 203.934 113.935 204.292 114.655C204.597 115.298 204.731 116.011 204.68 116.722C204.63 117.434 204.397 118.12 204.005 118.713C203.659 119.206 203.444 119.781 203.381 120.383C203.406 120.653 203.513 120.908 203.688 121.114C203.863 121.319 204.096 121.465 204.356 121.53C204.858 121.711 205.389 121.784 205.876 121.944C206.366 122.075 206.785 122.395 207.044 122.837C207.248 123.244 207.306 123.711 207.209 124.158C207.14 124.547 206.983 124.914 206.751 125.232C206.362 125.706 205.872 126.084 205.317 126.336C204.867 126.532 204.402 126.69 203.926 126.808Z" fill="#455A64"/>
<path d="M224.306 120.092C224.52 119.779 224.695 119.44 224.829 119.083C225.176 118.05 225.104 116.919 224.628 115.94C224.282 115.243 223.728 114.674 223.044 114.313C222.646 114.097 222.263 113.855 221.897 113.588C221.69 113.437 221.515 113.247 221.381 113.028C221.247 112.808 221.157 112.564 221.116 112.31C220.965 111.214 221.711 110.241 221.689 109.144C221.679 108.867 221.606 108.596 221.475 108.351C221.345 108.107 221.16 107.897 220.937 107.736C220.439 107.39 219.902 107.105 219.338 106.887C218.725 106.65 218.146 106.33 217.618 105.936C217.059 105.485 216.69 104.836 216.585 104.121C216.356 102.669 216.808 101.217 216.836 99.7648C216.887 99.0314 216.704 98.3009 216.313 97.6812C215.84 97.0916 215.211 96.6509 214.499 96.4107C213.741 96.1376 212.999 95.82 212.277 95.4597C211.884 95.2669 211.541 94.9831 211.275 94.6313C211.01 94.2794 210.83 93.8694 210.75 93.4342C210.675 92.5662 210.716 91.692 210.872 90.8352C210.96 90.4315 210.965 90.0139 210.887 89.6081C210.81 89.2023 210.651 88.817 210.421 88.4757C209.804 87.8806 209.05 87.4513 208.227 87.227C207.322 86.9674 206.521 86.4234 205.94 85.6734C205.46 84.8255 205.29 83.8334 205.46 82.8711C205.622 81.9327 205.861 81.0098 206.177 80.1124C206.472 79.2327 206.594 78.3027 206.535 77.3754C206.479 76.9221 206.328 76.4863 206.09 76.0978C205.852 75.7094 205.535 75.3775 205.159 75.1249C204.344 74.6657 203.456 74.3537 202.535 74.2029C201.611 74.0214 200.672 73.8689 199.761 73.6003C198.825 73.3655 197.967 72.8847 197.274 72.2064C196.622 71.5117 196.132 70.6783 195.84 69.7671C195.281 67.9812 195.123 66.1372 194.765 64.4602C194.601 63.6208 194.326 62.8076 193.948 62.0427C193.561 61.3193 192.989 60.7148 192.292 60.293C190.858 59.5162 189.173 59.7195 187.618 59.7921C186.832 59.8552 186.041 59.8309 185.26 59.7195C184.479 59.603 183.74 59.2911 183.109 58.812C181.898 57.8465 181.217 56.5107 180.428 55.3999C180.058 54.8424 179.625 54.3308 179.138 53.8753C178.661 53.4556 178.134 53.0994 177.568 52.8154C175.512 51.8683 173.181 51.7311 171.03 52.4306C169.413 52.9682 167.918 53.8243 166.629 54.9498C165.807 55.6532 165.04 56.4202 164.335 57.2439L163.79 57.8973C163.668 58.0425 163.597 58.1151 163.597 58.1151C163.64 58.0296 163.693 57.9493 163.754 57.8755C163.869 57.7158 164.041 57.4907 164.278 57.2003C164.96 56.3476 165.715 55.558 166.536 54.8409C167.826 53.6798 169.332 52.7913 170.966 52.2273C173.178 51.4852 175.585 51.6095 177.711 52.5758C178.301 52.8648 178.85 53.2309 179.346 53.6648C179.852 54.1321 180.302 54.6584 180.686 55.2329C181.496 56.3582 182.184 57.665 183.324 58.5652C183.911 59.0039 184.595 59.2905 185.317 59.4001C186.075 59.5058 186.841 59.5277 187.604 59.4654C188.392 59.4218 189.195 59.3493 190.019 59.3856C190.869 59.3929 191.706 59.5991 192.464 59.9881C193.22 60.4392 193.842 61.0888 194.263 61.8684C194.661 62.6649 194.95 63.5123 195.123 64.3876C195.39 66.1576 195.749 67.9121 196.198 69.6437C196.465 70.4994 196.918 71.2834 197.525 71.9378C198.172 72.5753 198.977 73.0243 199.854 73.2373C200.736 73.4987 201.668 73.6439 202.6 73.8326C203.568 73.9891 204.501 74.3211 205.353 74.8127C205.775 75.0928 206.132 75.4625 206.399 75.8962C206.667 76.3299 206.838 76.8173 206.901 77.3246C206.965 78.3079 206.838 79.2944 206.528 80.2285C206.225 81.1048 205.997 82.006 205.847 82.922C205.687 83.7976 205.837 84.7024 206.27 85.4774C206.804 86.1744 207.541 86.6826 208.378 86.9294C209.261 87.1735 210.069 87.6434 210.722 88.2942C211.014 88.6641 211.2 89.1089 211.259 89.5792C211.31 90.0255 211.31 90.4761 211.259 90.9223C211.105 91.7426 211.059 92.5799 211.123 93.4124C211.193 93.7983 211.353 94.1618 211.588 94.4735C211.824 94.7851 212.129 95.036 212.478 95.2056C213.175 95.5622 213.893 95.8749 214.628 96.1421C215.394 96.4143 216.069 96.897 216.578 97.536C216.985 98.2035 217.181 98.9814 217.137 99.7648C217.094 101.289 216.65 102.712 216.858 104.055C216.949 104.703 217.279 105.292 217.782 105.703C218.29 106.086 218.847 106.396 219.438 106.625C220.022 106.854 220.575 107.154 221.087 107.518C221.336 107.705 221.541 107.946 221.685 108.224C221.829 108.502 221.909 108.809 221.919 109.123C221.919 110.342 221.202 111.301 221.309 112.266C221.388 112.732 221.646 113.147 222.026 113.421C222.381 113.686 222.752 113.929 223.137 114.147C223.848 114.525 224.419 115.126 224.764 115.86C225.001 116.362 225.136 116.908 225.16 117.464C225.185 118.02 225.099 118.576 224.908 119.098C224.776 119.467 224.571 119.805 224.306 120.092Z" fill="#455A64"/>
<path d="M172.829 99.547C172.54 99.1312 172.394 98.6306 172.414 98.1225C172.434 97.6143 172.618 97.1269 172.938 96.7354C173.259 96.3439 173.698 96.0702 174.187 95.9564C174.677 95.8426 175.189 95.8951 175.646 96.1059C176.221 96.4152 176.703 96.8737 177.044 97.4344C177.257 97.6989 177.414 98.0048 177.505 98.3333C177.597 98.6617 177.62 99.0057 177.575 99.3437C177.492 99.6062 177.358 99.8486 177.179 100.056C177 100.263 176.781 100.431 176.535 100.549C176.167 100.752 175.76 100.876 175.342 100.913C174.924 100.949 174.503 100.897 174.105 100.759C173.71 100.617 173.353 100.382 173.065 100.073C172.777 99.7633 172.566 99.389 172.449 98.9808" fill="#EB996E"/>
<path d="M176.937 95.7573C177.08 95.7936 177.138 96.222 176.937 96.8754C176.641 97.7234 176.101 98.4622 175.387 98.9966C174.673 99.531 173.817 99.8365 172.93 99.8737C172.256 99.8737 171.869 99.6922 171.876 99.547C171.876 99.2275 173.381 99.1041 174.743 98.095C176.105 97.0859 176.636 95.6775 176.937 95.7573Z" fill="#263238"/>
<path d="M131.633 145.095C131.477 144.533 131.471 143.939 131.616 143.374C131.761 142.809 132.051 142.293 132.458 141.879C133.289 141.06 134.383 140.571 135.54 140.5C136.551 140.389 137.572 140.578 138.479 141.044C138.998 141.295 139.449 141.668 139.795 142.132C140.142 142.597 140.373 143.138 140.469 143.712C140.565 144.286 140.524 144.874 140.349 145.428C140.173 145.982 139.869 146.486 139.461 146.896C138.573 147.829 137.37 148.389 136.092 148.464C135.02 148.584 133.944 148.279 133.089 147.614C132.693 147.315 132.362 146.938 132.115 146.505C131.869 146.071 131.712 145.592 131.655 145.095" fill="#EF5E9C"/>
<path d="M120.902 149.132C116.658 150.264 112.006 145.77 110.715 142.707C110.627 142.555 110.577 142.384 110.568 142.208C110.559 142.033 110.592 141.857 110.665 141.698C110.793 141.562 110.953 141.462 111.13 141.406C111.307 141.35 111.495 141.341 111.676 141.378C113.83 141.502 115.888 142.322 117.549 143.717C119.209 145.113 120.384 147.01 120.902 149.132Z" fill="#455A64"/>
<path d="M115.87 147.157C115.712 146.596 115.705 146.003 115.85 145.439C115.995 144.875 116.286 144.36 116.694 143.948C117.525 143.129 118.619 142.637 119.776 142.562C120.788 142.455 121.809 142.646 122.715 143.113C123.226 143.366 123.67 143.738 124.011 144.198C124.352 144.659 124.58 145.195 124.676 145.762C124.772 146.33 124.733 146.912 124.563 147.461C124.393 148.01 124.096 148.511 123.698 148.921C122.809 149.858 121.602 150.419 120.321 150.489C119.253 150.608 118.18 150.306 117.325 149.647C116.927 149.349 116.593 148.971 116.347 148.536C116.1 148.101 115.945 147.619 115.891 147.121" fill="#EF5E9C"/>
<path d="M138.192 146.3C138.049 144.021 139.375 141.124 140.551 139.178C141.736 137.219 143.488 135.675 145.569 134.757C145.634 134.705 145.711 134.672 145.793 134.66C145.875 134.648 145.958 134.658 146.035 134.689C146.112 134.72 146.179 134.77 146.231 134.836C146.282 134.901 146.316 134.979 146.328 135.062C146.893 136.354 147.11 137.774 146.96 139.178C146.81 140.583 146.297 141.922 145.472 143.062C144.648 144.201 143.542 145.101 142.265 145.669C140.988 146.238 139.586 146.455 138.2 146.3" fill="#455A64"/>
<path d="M153.583 141.146C154.358 140.084 155.035 138.951 155.604 137.763C156.171 136.564 156.401 135.23 156.271 133.908C156.269 133.808 156.245 133.711 156.202 133.622C156.159 133.533 156.096 133.454 156.02 133.392C155.933 133.353 155.839 133.332 155.744 133.332C155.649 133.332 155.555 133.353 155.468 133.392C153.076 134.142 150.976 135.633 149.466 137.656C147.956 139.679 147.112 142.132 147.052 144.667L146.98 145.32C149.129 146.379 151.599 146.55 153.869 145.799C155.718 145.314 157.451 144.457 158.966 143.28C160.493 142.086 161.518 140.351 161.833 138.423C160.345 138.235 158.834 138.382 157.408 138.852C155.982 139.323 154.676 140.106 153.583 141.146Z" fill="#455A64"/>
<path d="M126.443 139.454C124.292 137.523 121.367 136.601 118.507 136.158C118.442 137.62 118.665 139.081 119.162 140.455C119.66 141.829 120.423 143.089 121.407 144.161C122.39 145.234 123.574 146.097 124.891 146.701C126.207 147.305 127.629 147.638 129.073 147.68L129.217 147.353C129.962 144.493 128.629 141.385 126.443 139.454Z" fill="#455A64"/>
<path d="M112.02 147.128C112.02 147.128 117.037 164.552 127.001 170.722C140.019 178.781 159.589 168.058 161.252 163.84C162.915 159.622 165.825 142.496 165.825 142.496L112.02 147.128Z" fill="#E0E0E0"/>
<path d="M112.021 147.128H112.271L113.038 147.048L116.035 146.772L127.261 145.749L165.812 142.344H166.049L166.006 142.576C165.088 147.847 164.084 153.422 162.78 159.114C162.493 160.319 162.214 161.51 161.855 162.686C161.769 162.983 161.669 163.274 161.568 163.564C161.511 163.709 161.468 163.855 161.411 164C161.353 164.145 161.267 164.29 161.188 164.428C160.846 164.944 160.444 165.417 159.991 165.837C158.214 167.406 156.237 168.727 154.113 169.764C152.082 170.789 149.97 171.639 147.798 172.305C145.72 172.957 143.587 173.412 141.425 173.663C137.414 174.214 133.331 173.729 129.554 172.254C126.322 170.826 123.493 168.602 121.325 165.786C119.508 163.517 117.918 161.07 116.58 158.482C115.563 156.536 114.649 154.537 113.841 152.493C113.167 150.816 112.723 149.48 112.408 148.573C112.257 148.123 112.157 147.774 112.092 147.542C112.028 147.309 111.999 147.171 111.999 147.179C112.049 147.292 112.092 147.409 112.128 147.527C112.207 147.774 112.329 148.115 112.479 148.551C112.795 149.444 113.261 150.772 113.956 152.435C114.785 154.464 115.715 156.448 116.744 158.381C118.091 160.954 119.685 163.385 121.504 165.641C123.678 168.383 126.488 170.537 129.683 171.913C133.416 173.354 137.447 173.819 141.404 173.263C145.78 172.71 150.028 171.396 153.963 169.379C156.057 168.36 158.005 167.059 159.755 165.51C160.18 165.111 160.56 164.665 160.887 164.181L161.081 163.804C161.138 163.666 161.181 163.521 161.231 163.383C161.325 163.1 161.432 162.816 161.511 162.526C161.862 161.364 162.142 160.174 162.436 158.976C163.726 153.299 164.744 147.723 165.662 142.46L165.855 142.678L127.425 145.901L116.15 146.816L113.11 147.055L112.314 147.113L112.021 147.128Z" fill="#263238"/>
<path d="M125.203 166.94C124.98 166.783 124.775 166.601 124.594 166.396C124.221 166.033 123.698 165.481 123.067 164.777C121.439 162.937 119.946 160.979 118.601 158.918C117.251 156.862 116.053 154.707 115.017 152.471C114.622 151.607 114.3 150.903 114.135 150.409C114.02 150.159 113.934 149.896 113.877 149.625C114.039 149.849 114.172 150.093 114.271 150.351C114.493 150.823 114.83 151.513 115.253 152.348C116.36 154.538 117.588 156.664 118.931 158.715C120.275 160.757 121.73 162.723 123.289 164.602C123.884 165.328 124.379 165.902 124.723 166.294C124.909 166.488 125.07 166.705 125.203 166.94Z" fill="white"/>
<path d="M163.031 145.422C162.867 145.47 162.699 145.501 162.529 145.516L161.095 145.712C159.855 145.887 158.056 146.104 155.827 146.358C151.375 146.867 145.21 147.484 138.393 148.014C131.576 148.544 125.382 148.878 120.909 149.059C118.666 149.146 116.859 149.212 115.605 149.233H114.171C114.002 149.245 113.832 149.245 113.662 149.233C113.827 149.194 113.995 149.175 114.164 149.175L115.598 149.081L120.895 148.783C125.368 148.529 131.547 148.152 138.364 147.629C145.181 147.106 151.339 146.525 155.798 146.083L161.081 145.56L162.515 145.429C162.686 145.409 162.859 145.406 163.031 145.422Z" fill="white"/>
<path d="M149.037 175.862C148.711 175.951 148.377 176.006 148.041 176.029C147.396 176.109 146.457 176.218 145.302 176.327C142.994 176.574 139.776 176.77 136.234 176.915C135.357 176.988 134.475 176.939 133.611 176.77C132.808 176.565 132.047 176.221 131.36 175.754C130.234 174.953 129.221 174 128.349 172.922C127.597 172.022 127.023 171.267 126.622 170.744C126.395 170.489 126.193 170.212 126.02 169.917C126.285 170.13 126.525 170.374 126.736 170.643L128.557 172.733C129.437 173.768 130.447 174.681 131.561 175.449C132.219 175.887 132.946 176.209 133.711 176.4C134.546 176.552 135.396 176.593 136.242 176.523C139.826 176.378 142.98 176.225 145.302 176.051L148.048 175.87C148.377 175.835 148.708 175.833 149.037 175.862Z" fill="#EB996E"/>
<path d="M146.17 175.579C145.935 175.629 145.693 175.646 145.453 175.63H143.561C141.962 175.63 139.733 175.63 137.217 175.557H137.181C136.823 175.478 136.464 175.391 136.056 175.282C135.385 175.122 134.738 174.878 134.127 174.556C133.561 174.227 133.056 173.799 132.636 173.292C131.862 172.341 131.203 171.477 130.651 170.737C130.099 169.996 129.69 169.379 129.411 168.944C129.251 168.72 129.121 168.476 129.023 168.218C129.213 168.406 129.384 168.612 129.532 168.835C129.841 169.241 130.292 169.837 130.859 170.548L132.894 173.046C133.76 174.001 134.897 174.661 136.149 174.933C136.529 175.035 136.909 175.122 137.26 175.202H137.224C139.74 175.26 141.97 175.332 143.568 175.405L145.453 175.499C145.695 175.487 145.937 175.514 146.17 175.579Z" fill="#EB996E"/>
<path d="M159.726 168.007C159.726 168.109 158.293 167.746 156.565 167.506C154.837 167.267 153.382 167.245 153.375 167.136C154.445 166.926 155.545 166.926 156.615 167.136C157.698 167.221 158.754 167.516 159.726 168.007Z" fill="#EB996E"/>
<path d="M205.511 67.9812C205.32 68.0313 205.121 68.0313 204.93 67.9812C204.412 67.8902 203.921 67.679 203.496 67.3641C202.84 66.8878 202.369 66.1946 202.163 65.404C201.927 64.5328 201.962 63.5309 201.661 62.6307C201.523 62.1997 201.239 61.832 200.859 61.5926C200.474 61.3865 200.06 61.2397 199.633 61.157C199.22 61.0655 198.82 60.9216 198.443 60.7287C198.113 60.556 197.828 60.3074 197.611 60.0027C197.319 59.5587 197.103 59.0677 196.973 58.5507C196.88 58.1877 196.844 57.9844 196.873 57.9772C196.974 58.1401 197.054 58.3158 197.109 58.4999C197.29 58.9795 197.531 59.4334 197.826 59.8502C198.031 60.1208 198.293 60.3416 198.593 60.4963C198.952 60.6636 199.33 60.7855 199.719 60.8593C200.184 60.9425 200.633 61.0967 201.052 61.3167C201.507 61.5976 201.85 62.0321 202.02 62.5436C202.357 63.5673 202.292 64.5473 202.5 65.3604C202.675 66.088 203.087 66.7349 203.669 67.1972C204.217 67.5944 204.847 67.8622 205.511 67.9812Z" fill="#455A64"/>
<path d="M218.922 55.9734C219.012 56.0793 219.074 56.2068 219.101 56.3436C219.211 56.7352 219.196 57.1519 219.058 57.5343C218.962 57.8417 218.788 58.1184 218.555 58.3373C218.321 58.5563 218.035 58.7098 217.725 58.7829C217.314 58.8792 216.883 58.8459 216.491 58.6876C216.099 58.5293 215.764 58.2536 215.531 57.8972H215.804C215.598 58.4989 215.259 59.0445 214.811 59.4915C214.363 59.9385 213.82 60.2749 213.223 60.4745C212.551 60.7062 211.827 60.7389 211.137 60.5689C210.415 60.3777 209.757 59.9942 209.23 59.4581C208.677 58.8952 208.299 58.1812 208.141 57.4036L208.442 57.5052C207.286 58.502 205.892 59.173 204.399 59.4509C203.214 59.6832 201.994 59.6684 200.815 59.4073C200.033 59.2449 199.281 58.9609 198.585 58.5652C198.397 58.4637 198.217 58.3472 198.048 58.2167C197.926 58.1368 197.868 58.086 197.876 58.0787C198.814 58.5814 199.818 58.948 200.858 59.1677C202.008 59.3812 203.189 59.3664 204.334 59.1242C205.763 58.8397 207.094 58.1842 208.198 57.2221L208.435 57.0115L208.499 57.331C208.642 58.0369 208.989 58.6839 209.496 59.1895C209.971 59.6786 210.568 60.0296 211.223 60.2059C211.848 60.3607 212.504 60.3355 213.116 60.1333C213.665 59.9535 214.166 59.6496 214.582 59.2446C214.998 58.8396 215.318 58.3441 215.517 57.7956L215.617 57.4834L215.789 57.7666C215.988 58.076 216.274 58.3181 216.61 58.4617C216.946 58.6053 217.317 58.6439 217.675 58.5724C217.951 58.5116 218.209 58.3813 218.423 58.1936C218.637 58.0058 218.801 57.7667 218.9 57.498C219.04 57.1483 219.08 56.7659 219.015 56.3945C218.975 56.2563 218.944 56.1157 218.922 55.9734Z" fill="#455A64"/>
<path d="M212.349 48.4087C212.349 48.4087 212.471 48.4087 212.614 48.5611C212.711 48.6767 212.782 48.8133 212.819 48.9606C212.856 49.1078 212.86 49.2617 212.829 49.4105C212.769 49.6418 212.648 49.852 212.479 50.0184C212.31 50.1848 212.098 50.301 211.868 50.3543C211.294 50.4777 210.696 50.4194 210.155 50.1873L210.363 49.9623C210.858 51.0803 210.169 52.5758 208.929 53.222C208.003 53.6585 206.99 53.8746 205.969 53.8536C205.141 53.9225 204.307 53.8363 203.51 53.5995C202.968 53.4134 202.502 53.051 202.184 52.5686C201.969 52.2201 201.955 51.9878 201.976 51.9878C201.998 51.9878 202.069 52.1911 202.299 52.4887C202.64 52.896 203.09 53.1938 203.596 53.3454C204.367 53.5348 205.165 53.5888 205.954 53.5051C206.92 53.5107 207.875 53.3 208.75 52.888C209.833 52.3145 210.428 51.0005 210.04 50.093L209.883 49.73L210.248 49.8752C210.726 50.096 211.256 50.1717 211.775 50.093C211.966 50.0571 212.143 49.9711 212.291 49.8437C212.438 49.7163 212.549 49.5519 212.614 49.367C212.646 49.2454 212.654 49.1184 212.637 48.9936C212.62 48.8689 212.578 48.749 212.514 48.641C212.435 48.474 212.334 48.4305 212.349 48.4087Z" fill="#455A64"/>
<ellipse cx="177.678" cy="203.262" rx="32.3166" ry="33.0846" fill="#EF5E9C"/>
<g opacity="0.3">
<path d="M223.675 206.158C222.385 204.023 219.862 203.08 217.546 202.194C205.001 197.389 193.494 190.168 183.661 180.93C178.98 176.523 174.529 171.557 168.651 169.009C162.773 166.461 154.852 167.223 151.396 172.675L153.547 174.127C164.386 177.757 171.583 187.848 179.403 196.277C185.281 202.608 191.84 208.256 198.385 213.882C202.586 217.512 207.281 221.302 212.794 221.302C215.582 221.22 218.259 220.173 220.376 218.333C222.493 216.494 223.924 213.975 224.428 211.196C224.765 209.479 224.499 207.697 223.675 206.158Z" fill="black"/>
</g>
<path d="M175.561 166.701C175.561 166.701 164.887 158.497 161.095 159.332C159.969 159.559 158.872 159.917 157.826 160.399C156.577 161.026 155.206 161.361 153.812 161.379C152.414 161.379 150.644 161.379 148.93 161.292C145.647 161.14 144.629 162.018 144.371 163.296C144.308 163.584 144.306 163.883 144.367 164.173C144.427 164.462 144.548 164.735 144.721 164.973C144.894 165.211 145.116 165.409 145.371 165.553C145.626 165.697 145.908 165.784 146.199 165.808C148.325 165.924 150.438 166.223 152.515 166.701C154.493 167.354 152.178 166.94 149.705 168.566C147.232 170.193 137.167 170.526 137.167 170.526L131.69 166.287C131.371 166.037 130.978 165.902 130.575 165.901C130.171 165.9 129.779 166.034 129.458 166.282C129.137 166.53 128.906 166.879 128.8 167.273C128.694 167.668 128.72 168.086 128.873 168.465L128.916 168.552L128.415 168.036C128.159 167.779 127.822 167.621 127.463 167.588C127.104 167.555 126.745 167.65 126.448 167.856C126.151 168.062 125.934 168.367 125.835 168.718C125.736 169.069 125.761 169.444 125.906 169.779C125.92 169.799 125.932 169.821 125.941 169.844L130.4 174.2L137.167 177.039L148.88 175.87C148.88 175.87 157.482 172.697 159.11 172.196C160.737 171.695 166.213 173.271 170.4 178.004L175.561 166.701Z" fill="#FFBE9D"/>
<path d="M212.923 165.423L209.339 184.248L172.393 164.377L164.092 173.263C164.092 173.263 199.26 205.838 206.629 211.791C213.998 217.744 224.027 210.869 226.959 199.82C229.89 188.77 233.783 174.505 234.894 165.234L212.923 165.423Z" fill="#FFBE9D"/>
<path d="M218.227 200.633C218.17 200.633 217.862 199.617 217.259 197.998C216.472 195.882 215.542 193.822 214.478 191.834C213.402 189.854 212.189 187.952 210.851 186.142C209.826 184.748 209.138 183.928 209.181 183.885C209.384 184.037 209.567 184.215 209.725 184.415C210.055 184.763 210.514 185.3 211.059 185.975C212.468 187.753 213.721 189.652 214.801 191.653C215.883 193.651 216.788 195.742 217.503 197.903C217.776 198.731 217.976 199.413 218.084 199.885C218.169 200.126 218.217 200.378 218.227 200.633Z" fill="#EB996E"/>
</svg>
