<svg width="335" height="324" viewBox="0 0 335 324" fill="none" xmlns="http://www.w3.org/2000/svg">
<path d="M276.351 54.8548L275.01 52.6424C263.704 34.0039 243.266 22.7677 221.738 24.1315C218.965 24.306 216.208 24.6859 213.491 25.268C193.901 29.4655 176.848 44.2854 169.783 63.2725C165.633 74.4404 164.482 87.2904 156.584 96.1551C146.316 107.687 128.891 108.05 113.572 107.573C98.253 107.096 80.8211 107.505 70.6058 119.082C64.2071 126.333 62.1776 136.645 62.6926 146.358C64.0556 172.073 81.9646 195.068 104.735 206.494C127.506 217.919 154.327 218.942 179.248 213.919C214.165 206.873 247.401 187.537 267.332 157.662C287.262 127.788 292.321 87.0934 276.351 54.8548Z" fill="white"/>
<path d="M237.398 0H157.478V115.9H237.398V0Z" fill="#263238"/>
<path d="M233.391 0H153.471V115.9H233.391V0Z" fill="#455A64"/>
<path d="M223.456 12.5545H163.398V103.353H223.456V12.5545Z" fill="white"/>
<path d="M223.465 103.345C223.465 103.345 223.465 103.194 223.465 102.906C223.465 102.618 223.465 102.148 223.465 101.618C223.465 100.474 223.465 98.8071 223.465 96.6401C223.465 92.2836 223.465 85.9419 223.412 77.9334C223.412 61.924 223.359 39.2925 223.313 12.5546L223.518 12.7515H163.46L163.68 12.5394C163.68 46.7858 163.68 78.3728 163.634 103.33L163.43 103.186L207.146 103.277H219.224H222.397H223.495H222.435H219.292L207.259 103.323L163.43 103.414H163.263V103.239C163.263 78.2819 163.263 46.6949 163.218 12.4485V12.2288H163.43H223.487H223.684V12.4333C223.646 39.1865 223.608 61.9012 223.586 77.941C223.586 85.9343 223.548 92.2608 223.533 96.6022C223.533 98.754 223.533 100.391 223.533 101.542C223.533 102.095 223.533 102.512 223.533 102.808C223.533 103.103 223.465 103.345 223.465 103.345Z" fill="#E0E0E0"/>
<path d="M233.619 0C233.204 0.7307 232.725 1.42292 232.188 2.06842C231.264 3.31099 229.916 5.00058 228.439 6.82655C226.963 8.65252 225.531 10.2739 224.494 11.4256C223.962 12.0766 223.371 12.6777 222.729 13.2212C223.176 12.5124 223.683 11.8432 224.244 11.221C225.312 9.9254 226.629 8.31915 228.091 6.55379L231.938 1.87901C232.441 1.20394 233.004 0.575122 233.619 0Z" fill="#263238"/>
<path d="M223.767 103.058C226.754 107.807 230.267 112.204 234.239 116.165L223.767 103.058Z" fill="white"/>
<path d="M234.239 116.165C233.578 115.671 232.966 115.113 232.414 114.498C231.021 113.083 229.701 111.596 228.462 110.043C227.221 108.49 226.061 106.874 224.986 105.202C224.508 104.53 224.099 103.812 223.767 103.058C224.308 103.678 224.802 104.339 225.243 105.035C226.122 106.27 227.364 107.96 228.802 109.77C230.241 111.581 231.627 113.157 232.642 114.316C233.222 114.89 233.756 115.508 234.239 116.165Z" fill="#263238"/>
<path d="M153.464 115.809L163.929 102.929L153.464 115.809Z" fill="white"/>
<path d="M163.929 102.883C162.356 105.17 160.665 107.372 158.863 109.482C157.172 111.682 155.37 113.793 153.464 115.809C155.034 113.52 156.725 111.318 158.53 109.21C160.221 107.01 162.023 104.899 163.929 102.883Z" fill="#E0E0E0"/>
<path d="M153.471 0C155.276 1.92371 156.973 3.94733 158.552 6.06131C160.248 8.08829 161.831 10.208 163.292 12.4105C161.489 10.4846 159.793 8.46108 158.211 6.34922C156.518 4.31994 154.935 2.20043 153.471 0Z" fill="#263238"/>
<path d="M190.426 36.7315C196.15 37.6786 200.558 42.8383 201.883 48.4829C203.208 54.1275 201.921 60.113 199.649 65.4546C198.718 67.629 197.62 69.7657 197.188 72.0917C196.756 74.4177 197.097 77.0392 198.702 78.744C200.656 80.7745 203.776 80.9715 206.389 82.0322C210.175 83.593 212.931 87.1313 214.453 90.9651C215.975 94.7989 216.43 98.9585 216.876 103.088H163.869L163.339 49.536C163.339 49.536 168.829 32.3446 190.426 36.7315Z" fill="#EBEBEB"/>
<path d="M166.662 91.7076C166.609 91.6622 178.248 78.6152 192.666 62.583C207.084 46.5508 218.822 33.5872 218.882 33.6327C218.943 33.6781 207.296 46.7251 192.871 62.7648C178.445 78.8046 166.723 91.7607 166.662 91.7076Z" fill="#263238"/>
<path d="M213.332 30.5339C213.385 30.5869 206.054 38.7621 196.952 48.786C187.85 58.8099 180.421 66.9094 180.368 66.8563C180.315 66.8033 187.661 58.6357 196.748 48.6345C205.835 38.6333 213.279 30.4506 213.332 30.5339Z" fill="#263238"/>
<path d="M209.976 55.2262C209.89 55.3356 209.796 55.4394 209.696 55.5368L208.863 56.3854L205.781 59.4918C203.176 62.1134 199.617 65.7805 195.778 69.9173C191.939 74.0542 188.561 77.8804 186.146 80.6761L183.283 83.9871C182.958 84.366 182.693 84.6615 182.526 84.8888C182.44 84.9984 182.343 85.0999 182.238 85.1918C182.309 85.0711 182.39 84.957 182.481 84.8509L183.238 83.9189C183.889 83.1158 184.843 81.9642 186.032 80.5473C188.417 77.7212 191.78 73.8723 195.619 69.7279C199.458 65.5835 203.04 61.9467 205.675 59.3479C207 58.0523 208.076 57.0143 208.833 56.3172L209.704 55.5065C209.786 55.4052 209.877 55.3114 209.976 55.2262Z" fill="#263238"/>
<path d="M242.751 230.201H235.853V242.665H242.751V230.201Z" fill="#EF5E9C"/>
<g opacity="0.3">
<path d="M242.751 230.201H235.853V242.665H242.751V230.201Z" fill="black"/>
</g>
<path d="M235.853 230.201H195.424V242.665H235.853V230.201Z" fill="white"/>
<path d="M235.883 230.201H206.668V242.665H235.883V230.201Z" fill="#EF5E9C"/>
<path d="M213.172 235.437C213.172 235.914 212.824 236.194 212.256 236.194H211.771V236.816H211.37V234.664H212.256C212.824 234.672 213.172 234.959 213.172 235.437ZM212.771 235.437C212.771 235.172 212.589 235.013 212.241 235.013H211.771V235.869H212.241C212.589 235.869 212.771 235.71 212.771 235.437Z" fill="white"/>
<path d="M214.976 236.823L214.537 236.194H213.969V236.816H213.567V234.664H214.453C215.021 234.664 215.37 234.952 215.37 235.422C215.376 235.569 215.335 235.714 215.253 235.836C215.172 235.959 215.053 236.052 214.915 236.104L215.408 236.808L214.976 236.823ZM214.438 235.013H213.969V235.869H214.438C214.787 235.869 214.968 235.71 214.968 235.437C214.968 235.164 214.787 235.02 214.438 235.02V235.013Z" fill="white"/>
<path d="M217.429 236.49V236.823H215.816V234.671H217.384V235.02H216.218V235.573H217.255V235.906H216.218V236.497L217.429 236.49Z" fill="white"/>
<path d="M219.33 235.725H219.708V236.581C219.468 236.766 219.172 236.865 218.868 236.861C218.685 236.853 218.507 236.8 218.349 236.707C218.192 236.613 218.06 236.482 217.965 236.326C217.87 236.169 217.815 235.991 217.805 235.808C217.795 235.625 217.831 235.443 217.908 235.277C217.986 235.111 218.103 234.966 218.25 234.857C218.397 234.747 218.568 234.675 218.749 234.647C218.93 234.62 219.115 234.637 219.288 234.698C219.46 234.759 219.615 234.862 219.739 234.997L219.489 235.24C219.411 235.161 219.318 235.099 219.215 235.057C219.112 235.015 219.002 234.995 218.891 234.997C218.69 234.997 218.497 235.077 218.355 235.219C218.213 235.361 218.133 235.554 218.133 235.755C218.133 235.956 218.213 236.149 218.355 236.291C218.497 236.433 218.69 236.513 218.891 236.513C219.044 236.515 219.195 236.479 219.33 236.406V235.725Z" fill="white"/>
<path d="M222.147 234.671V236.823H221.814L220.625 235.368V236.823H220.224V234.671H220.549L221.738 236.134V234.671H222.147Z" fill="white"/>
<path d="M224.115 236.331H223.04L222.828 236.823H222.411L223.38 234.671H223.774L224.743 236.823H224.327L224.115 236.331ZM223.979 236.013L223.577 235.073L223.176 236.013H223.979Z" fill="white"/>
<path d="M226.933 234.671V236.823H226.6L225.419 235.368V236.823H225.018V234.671H225.351L226.532 236.134V234.671H226.933Z" fill="white"/>
<path d="M227.35 235.778C227.359 235.549 227.436 235.329 227.57 235.144C227.704 234.959 227.889 234.817 228.103 234.736C228.317 234.655 228.549 234.639 228.772 234.69C228.995 234.74 229.198 234.855 229.356 235.02L229.099 235.263C229.029 235.187 228.945 235.127 228.851 235.085C228.757 235.044 228.656 235.021 228.554 235.02C228.353 235.02 228.16 235.1 228.018 235.242C227.876 235.384 227.796 235.577 227.796 235.778C227.796 235.979 227.876 236.171 228.018 236.313C228.16 236.456 228.353 236.535 228.554 236.535C228.662 236.537 228.769 236.516 228.868 236.473C228.968 236.43 229.057 236.366 229.129 236.285L229.387 236.528C229.228 236.693 229.025 236.808 228.803 236.858C228.58 236.909 228.347 236.893 228.133 236.812C227.92 236.731 227.734 236.589 227.6 236.404C227.466 236.219 227.39 235.999 227.38 235.77L227.35 235.778Z" fill="white"/>
<path d="M230.635 236.066V236.823H230.234V236.066L229.386 234.664H229.817L230.446 235.717L231.082 234.664H231.476L230.635 236.066Z" fill="white"/>
<path d="M218.33 238.232H217.572V238.051H219.314V238.248H218.557V240.202H218.33V238.232Z" fill="white"/>
<path d="M221.193 239.99V240.187H219.679V238.051H221.193V238.248H219.944V239.005H220.981V239.202H219.868V239.998L221.193 239.99Z" fill="white"/>
<path d="M221.518 239.93L221.608 239.755C221.808 239.923 222.06 240.014 222.32 240.013C222.722 240.013 222.896 239.846 222.896 239.634C222.896 239.043 221.571 239.407 221.571 238.611C221.571 238.293 221.82 238.02 222.366 238.02C222.602 238.017 222.833 238.083 223.032 238.21L222.956 238.392C222.78 238.277 222.576 238.214 222.366 238.21C221.972 238.21 221.798 238.384 221.798 238.604C221.798 239.195 223.123 238.839 223.123 239.619C223.123 239.937 222.865 240.21 222.32 240.21C222.027 240.221 221.74 240.121 221.518 239.93Z" fill="white"/>
<path d="M224.009 238.232H223.252V238.051H224.994V238.248H224.236V240.202H224.009V238.232Z" fill="white"/>
<path d="M201.656 234.429H200.588V239.202H201.656V234.429Z" fill="#EF5E9C"/>
<path d="M198.732 236.278V237.346H203.503V236.278H198.732Z" fill="#EF5E9C"/>
<path d="M205.078 236.823C205.078 236.823 205.078 236.823 205.078 236.763V236.573V236.437C205.078 236.384 205.078 236.331 205.078 236.27C205.062 236.132 205.034 235.995 204.995 235.861C204.906 235.489 204.757 235.133 204.556 234.808C204.083 234.011 203.346 233.406 202.472 233.098C201.599 232.791 200.645 232.8 199.778 233.126C199.601 233.187 199.429 233.26 199.263 233.345C199.094 233.437 198.932 233.541 198.778 233.656C198.62 233.775 198.471 233.904 198.331 234.043C198.193 234.185 198.064 234.337 197.945 234.497C197.701 234.826 197.512 235.192 197.385 235.581C197.112 236.387 197.112 237.26 197.385 238.066C197.51 238.458 197.699 238.827 197.945 239.157C198.064 239.317 198.193 239.468 198.331 239.611C198.469 239.75 198.619 239.877 198.778 239.99C198.932 240.105 199.094 240.209 199.263 240.301C199.427 240.392 199.599 240.468 199.778 240.528C200.397 240.754 201.063 240.821 201.716 240.724C202.368 240.626 202.985 240.366 203.511 239.967C203.914 239.66 204.255 239.28 204.518 238.846C204.719 238.521 204.868 238.165 204.957 237.793C204.997 237.659 205.024 237.522 205.041 237.384C205.041 237.323 205.041 237.27 205.041 237.217V237.081V236.891C205.041 236.846 205.041 236.823 205.041 236.823V237.217C205.044 237.275 205.044 237.333 205.041 237.391C205.027 237.53 205.002 237.667 204.965 237.801C204.877 238.177 204.732 238.537 204.533 238.869C204.243 239.358 203.853 239.781 203.389 240.108C202.924 240.436 202.395 240.662 201.837 240.771C201.131 240.902 200.402 240.845 199.725 240.604C199.546 240.539 199.371 240.463 199.202 240.377C199.032 240.279 198.868 240.173 198.71 240.058C198.547 239.94 198.393 239.811 198.248 239.672C198.119 239.52 197.975 239.376 197.854 239.202C197.606 238.866 197.412 238.492 197.279 238.096C197.006 237.272 197.006 236.382 197.279 235.558C197.411 235.161 197.605 234.787 197.854 234.452C197.975 234.277 198.119 234.133 198.248 233.982C198.393 233.843 198.547 233.714 198.71 233.595C198.866 233.478 199.031 233.372 199.202 233.277C199.371 233.191 199.546 233.115 199.725 233.05C200.401 232.805 201.131 232.748 201.837 232.883C202.394 232.993 202.922 233.218 203.386 233.544C203.851 233.87 204.241 234.29 204.533 234.777C204.731 235.112 204.876 235.475 204.965 235.853C205.002 235.987 205.027 236.124 205.041 236.262C205.041 236.323 205.041 236.384 205.041 236.429V236.823H205.078Z" fill="#EF5E9C"/>
<path d="M233.506 241.437C233.506 241.543 228.274 241.634 221.822 241.634C215.37 241.634 210.138 241.543 210.138 241.437C210.138 241.331 215.37 241.24 221.822 241.24C228.274 241.24 233.506 241.331 233.506 241.437Z" fill="white"/>
<path d="M335 322.659C335 322.765 261.547 322.856 171.01 322.856C80.4732 322.856 7.00488 322.765 7.00488 322.659C7.00488 322.553 80.4202 322.462 171.01 322.462C261.6 322.462 335 322.553 335 322.659Z" fill="#263238"/>
<path d="M242.336 322.772H88.9168C55.416 322.772 35.5307 300.467 22.0289 265.91L12.9268 242.596H329.874L323.49 260.712C310.284 298.164 278.123 322.772 242.336 322.772Z" fill="#455A64"/>
<path d="M321.4 256.083C321.4 256.189 253.52 256.28 169.806 256.28C86.0923 256.28 18.1973 256.189 18.1973 256.083C18.1973 255.977 86.062 255.878 169.806 255.878C253.55 255.878 321.4 255.969 321.4 256.083Z" fill="#263238"/>
<path d="M125.233 82.1611C114.692 89.8438 118.168 102.815 116.214 106.02C115.457 107.3 114.465 108.596 114.472 110.036C114.472 111.612 115.661 113.021 115.782 114.582C115.942 116.771 114.071 118.643 112.897 120.643C112.11 121.945 111.621 123.407 111.466 124.922C111.312 126.436 111.495 127.966 112.004 129.401C112.216 129.992 113.405 130.25 113.17 130.917C111.868 134.576 115.343 144.767 115.851 144.759C126.263 144.668 136.455 134.417 146.83 133.576C149.2 133.387 150.699 129.273 152.645 128.068C155.303 126.409 156.257 123.423 157.03 120.681C157.848 117.776 158.663 114.88 159.476 111.99C160.062 110.127 160.481 108.215 160.725 106.278C160.975 103.603 160.551 100.974 160.438 98.2539C160.331 95.7763 160.498 93.2836 160.142 90.8212C159.877 88.2693 158.709 85.8964 156.848 84.131" fill="#263238"/>
<path d="M135.192 70.9856C128.301 72.501 121.046 78.0546 118.691 84.7069C116.336 91.3592 117.071 99.7238 117.578 106.77C119.706 106.217 121.122 107.157 123.296 106.884C124.712 106.709 125.817 105.588 126.665 104.444C128.657 101.739 129.861 98.5419 131.027 95.3976C133.799 87.9118 136.522 80.4059 139.198 72.8798" fill="#263238"/>
<path d="M157.516 91.0637C157.422 88.7151 156.856 86.4096 155.852 84.2848C154.847 82.1601 153.425 80.2598 151.669 78.6975C149.914 77.1352 147.862 75.9429 145.636 75.192C143.41 74.441 141.056 74.1468 138.714 74.3269C134.17 74.6779 129.929 76.7408 126.847 80.0991C123.764 83.4573 122.07 87.8606 122.107 92.4199C122.152 100.595 122.387 108.816 122.864 111.74C124.379 120.544 130.187 123.105 132.481 123.825C133.293 123.977 134.117 124.046 134.942 124.03C134.958 124.03 134.974 124.036 134.985 124.047C134.997 124.059 135.003 124.074 135.003 124.09L134.624 134.531C134.783 141.35 139.493 146.654 146.392 146.517C153.291 146.381 157.789 140.456 157.751 133.637L157.516 91.0637Z" fill="#FFBE9D"/>
<path d="M126.483 98.9661C126.487 99.3387 126.637 99.6948 126.9 99.9583C127.164 100.222 127.52 100.371 127.892 100.375C128.078 100.393 128.265 100.373 128.443 100.316C128.62 100.26 128.785 100.168 128.926 100.046C129.068 99.9246 129.183 99.7756 129.266 99.6083C129.348 99.4409 129.396 99.2586 129.406 99.0722C129.402 98.6997 129.253 98.3435 128.989 98.0801C128.726 97.8166 128.37 97.6669 127.998 97.663C127.812 97.6442 127.624 97.6635 127.446 97.7197C127.268 97.7758 127.103 97.8676 126.961 97.9895C126.82 98.1114 126.704 98.2608 126.622 98.4287C126.54 98.5966 126.493 98.7794 126.483 98.9661Z" fill="#263238"/>
<path d="M124.281 94.4429C124.425 94.6247 125.629 94.2686 127.135 94.6399C128.642 95.0111 129.619 95.8673 129.816 95.7612C130.013 95.6551 129.816 95.4127 129.377 95.0035C128.776 94.473 128.053 94.1007 127.272 93.9201C126.512 93.7197 125.714 93.7197 124.955 93.9201C124.432 94.1322 124.212 94.352 124.281 94.4429Z" fill="#263238"/>
<path d="M140.855 98.1782C140.859 98.5507 141.009 98.9069 141.272 99.1703C141.536 99.4338 141.892 99.5835 142.264 99.5875C142.447 99.5998 142.63 99.5758 142.803 99.5168C142.977 99.4578 143.137 99.3651 143.274 99.2439C143.411 99.1227 143.523 98.9755 143.603 98.8108C143.683 98.6461 143.73 98.4671 143.741 98.2843C143.737 97.911 143.587 97.554 143.324 97.2894C143.061 97.0247 142.705 96.8733 142.332 96.8674C142.149 96.8562 141.966 96.8811 141.792 96.941C141.619 97.0008 141.459 97.0943 141.322 97.2161C141.185 97.3378 141.073 97.4855 140.993 97.6506C140.913 97.8157 140.866 97.995 140.855 98.1782Z" fill="#263238"/>
<path d="M139.645 95.4884C139.872 95.5414 140.766 94.5944 142.341 93.9731C143.916 93.3518 145.279 93.4806 145.37 93.2912C145.461 93.1018 145.15 93.0487 144.552 92.9881C143.696 92.9377 142.838 93.0721 142.038 93.3821C141.25 93.6599 140.538 94.1163 139.956 94.7156C139.6 95.1778 139.532 95.4657 139.645 95.4884Z" fill="#263238"/>
<path d="M134.328 105.959C133.504 105.723 132.655 105.588 131.799 105.558C131.397 105.558 131.041 105.452 130.95 105.186C130.917 104.783 131.007 104.379 131.208 104.027C131.571 103.073 131.965 102.08 132.344 100.997C133.926 96.7385 135.07 93.2381 134.896 93.1775C134.722 93.1169 133.298 96.5188 131.715 100.754C131.337 101.807 130.958 102.807 130.625 103.785C130.382 104.251 130.315 104.789 130.436 105.3C130.496 105.437 130.587 105.559 130.701 105.656C130.815 105.753 130.949 105.823 131.094 105.861C131.316 105.911 131.541 105.939 131.768 105.944C132.617 106.058 133.477 106.063 134.328 105.959Z" fill="#263238"/>
<path d="M135.032 124.045C135.032 124.045 141.037 124.431 148.496 119.87C148.496 119.87 146.224 127.712 134.934 126.856L135.032 124.045Z" fill="#EB996E"/>
<path d="M135.025 109.634C135.32 109.262 135.703 108.97 136.139 108.785C136.576 108.599 137.052 108.527 137.524 108.573C137.866 108.597 138.199 108.689 138.505 108.844C138.811 108.998 139.082 109.213 139.304 109.475C139.514 109.725 139.641 110.035 139.667 110.361C139.693 110.687 139.616 111.013 139.447 111.293C139.198 111.573 138.872 111.773 138.51 111.87C138.148 111.967 137.766 111.956 137.41 111.839C136.676 111.594 135.997 111.208 135.411 110.702C135.235 110.583 135.084 110.431 134.964 110.255C134.907 110.172 134.876 110.073 134.876 109.971C134.876 109.87 134.907 109.771 134.964 109.687" fill="#EB996E"/>
<path d="M139.394 89.6772C139.599 90.0712 141.113 89.6772 142.946 89.6242C144.778 89.5711 146.308 89.8666 146.497 89.4651C146.581 89.2757 146.278 88.9271 145.634 88.6089C144.778 88.2272 143.846 88.0433 142.909 88.0708C141.972 88.0984 141.052 88.3366 140.22 88.768C139.591 89.1241 139.303 89.4878 139.394 89.6772Z" fill="#263238"/>
<path d="M124.591 89.4044C124.871 89.7454 125.939 89.3666 127.226 89.3363C128.513 89.3059 129.604 89.5257 129.854 89.162C129.96 88.9802 129.786 88.6392 129.308 88.3134C128.663 87.9194 127.912 87.7342 127.158 87.783C126.4 87.8164 125.671 88.0808 125.068 88.5407C124.614 88.8817 124.47 89.2378 124.591 89.4044Z" fill="#263238"/>
<path d="M134.873 70.19C133.011 74.7966 135.396 80.0396 139.902 82.0853C141.848 82.987 144.286 83.4037 145.331 85.2751C146.149 86.7222 145.846 88.6619 146.846 89.9802C147.845 91.2985 149.564 91.4955 150.882 92.329C152.684 93.5033 153.502 95.7309 153.805 97.8599C154.108 99.9889 154.017 102.171 154.562 104.255C155.107 106.338 156.478 108.399 158.56 108.914C159.522 102.77 160.363 96.534 159.689 90.3515C159.015 84.1689 156.66 77.9788 152.116 73.751C147.573 69.5233 140.56 67.6897 134.881 70.19" fill="#263238"/>
<path d="M157.773 131.22C155.936 130.894 154.259 129.967 153.006 128.585C151.752 127.203 150.991 125.443 150.844 123.583C150.556 119.976 150.844 116.051 150.201 114.029C149.125 110.43 147.361 110.998 147.096 107.21C146.831 103.421 149.262 99.6329 148.61 96.3673C147.959 93.1018 146.952 93.9277 145.278 88.7907C143.605 83.6537 140.629 82.4112 140.629 82.4112L142.227 69.8491L140.985 69.0914C148.459 68.9626 157.054 73.5768 159.984 80.4564C161.461 83.9265 161.983 87.9724 164.611 90.6773C166.269 92.3745 168.624 93.3594 170.01 95.2915C172.971 99.4207 170.146 105.467 172.115 110.149C173.001 112.248 174.963 113.68 176.136 115.627C182.103 125.59 177.09 133.167 177.09 133.167L157.773 131.22Z" fill="#263238"/>
<path d="M115.814 108.626C116.571 107.27 117.434 105.732 117.063 104.202C116.806 103.133 116.003 102.277 115.624 101.239C115.377 100.587 115.265 99.892 115.293 99.1953C115.322 98.4987 115.491 97.8151 115.791 97.1856C116.223 95.8673 116.851 94.6247 117.192 93.2837C117.457 92.2154 117.54 91.094 117.911 90.056C118.065 89.5247 118.347 89.0395 118.733 88.6431C119.119 88.2467 119.596 87.9513 120.122 87.783C121.145 92.6472 119.517 97.6327 119.532 102.618C119.633 103.704 119.525 104.8 119.214 105.846C118.805 106.861 117.699 107.717 116.684 107.444" fill="#263238"/>
<path d="M168.48 131.765C168.48 131.765 168.601 131.523 168.745 131.046C168.96 130.35 169.035 129.619 168.965 128.894C168.842 127.748 168.505 126.635 167.973 125.613C167.222 124.274 166.377 122.99 165.444 121.772C164.27 120.286 163.45 118.553 163.043 116.703C162.649 114.688 162.839 112.506 162.823 110.263C162.836 109.118 162.709 107.975 162.445 106.861C162.163 105.714 161.574 104.667 160.741 103.83C159.9 102.967 158.848 102.262 157.894 101.398C156.893 100.518 156.161 99.3728 155.781 98.0948C155.024 95.5036 155.38 92.8972 155.069 90.5182C154.787 88.3013 153.987 86.1821 152.734 84.3316C151.482 82.4811 149.812 80.9512 147.86 79.8654C146.111 78.9107 144.347 78.2743 142.772 77.5924C141.327 77.0267 139.954 76.2917 138.682 75.4028C137.724 74.7238 136.891 73.8828 136.221 72.9176C135.793 72.3134 135.472 71.6391 135.275 70.925C135.2 70.6783 135.151 70.4243 135.131 70.1673C135.131 70.1673 135.191 70.4249 135.35 70.925C135.578 71.6195 135.912 72.274 136.342 72.8646C137.027 73.7919 137.861 74.5985 138.811 75.2512C140.077 76.1157 141.443 76.8254 142.878 77.3651C144.632 78.027 146.349 78.7858 148.019 79.6381C149.93 80.6755 151.579 82.1342 152.843 83.9038C154.249 85.8604 155.147 88.1359 155.455 90.5257C155.773 92.9957 155.455 95.5945 156.16 98.0645C156.513 99.2755 157.207 100.359 158.159 101.186C159.083 102.035 160.135 102.739 161.014 103.641C161.895 104.527 162.516 105.638 162.808 106.853C163.074 107.996 163.201 109.166 163.187 110.339C163.187 112.612 162.998 114.763 163.361 116.726C163.749 118.535 164.539 120.233 165.671 121.696C166.601 122.932 167.436 124.236 168.17 125.598C168.702 126.647 169.029 127.789 169.131 128.962C169.19 129.705 169.089 130.451 168.836 131.152C168.743 131.37 168.624 131.576 168.48 131.765Z" fill="#455A64"/>
<path d="M140.863 108.263C140.939 108.475 139.5 109.157 137.834 110.134C136.168 111.112 134.805 112.013 134.692 111.846C134.578 111.68 135.676 110.468 137.433 109.452C139.19 108.437 140.803 108.058 140.863 108.263Z" fill="#263238"/>
<path d="M85.3343 283.965L92.1041 309.657C92.1041 309.657 70.4165 319.696 71.3934 324L113.156 317.045L107.257 273.949L85.3343 283.965Z" fill="#EF5E9C"/>
<path d="M90.1875 290.004C90.0815 290.064 89.3015 288.594 88.7563 286.662C88.3404 285.516 88.0855 284.318 87.999 283.101C88.457 284.22 88.8267 285.372 89.1046 286.549C89.6726 288.465 90.2708 289.95 90.1875 290.004Z" fill="#263238"/>
<path d="M116.132 214.714L129.475 212.797L130.043 210.244H184.686C184.686 210.244 188.54 218.404 189.676 221.708C190.812 225.011 156.205 241.278 156.205 241.278L119.146 224.647L116.132 214.714Z" fill="#263238"/>
<path d="M132.451 218.071C132.451 218.071 87.705 198.652 79.3753 198.796C74.7258 198.879 66.7519 200.971 65.0935 205.941C63.4352 210.911 62.6098 216.942 62.8218 220.639C63.0338 224.337 85.9936 283.791 85.9936 283.791L105.993 276.873L97.996 239.483L133.034 239.278L132.451 218.071Z" fill="#FFBE9D"/>
<path d="M97.4956 237.497C97.4199 237.497 97.1851 236.209 96.496 234.217C96.0844 233.051 95.5936 231.914 95.027 230.815C93.6423 228.117 91.8118 225.673 89.6127 223.587C88.7189 222.734 87.7648 221.946 86.7578 221.23C85.0389 220.003 83.8576 219.42 83.8954 219.351C84.1929 219.438 84.478 219.563 84.7435 219.723C85.0702 219.878 85.3886 220.05 85.6977 220.238C86.0612 220.457 86.4549 220.685 86.9168 220.995C87.9569 221.691 88.9418 222.466 89.8625 223.314C92.127 225.398 93.9881 227.882 95.3526 230.641C95.9117 231.761 96.3826 232.924 96.7611 234.118C96.9353 234.626 97.0413 235.096 97.1473 235.505C97.2433 235.854 97.3191 236.208 97.3745 236.565C97.4486 236.871 97.4892 237.183 97.4956 237.497Z" fill="#EB996E"/>
<path d="M162.112 220.048C162.112 220.245 111.119 216.26 103.864 216.639C97.3972 216.957 92.0738 217.806 89.1205 225.42C88.6434 226.648 88.1361 229.686 88.1436 233.883C88.1436 242.695 89.537 256.841 90.8016 270.251C92.5433 288.662 94.3076 305.664 94.3076 305.664L112.391 304.073C112.391 304.073 118.002 268.463 117.548 257.719C117.351 252.999 115.549 245.468 115.549 245.468C115.549 245.468 134.177 250.772 145.157 251.052C154.63 251.317 173.107 251.537 173.107 251.537L162.112 220.048Z" fill="#FFBE9D"/>
<path d="M187.116 216.412C187.116 216.412 193.015 226.125 191.539 233.921C191.401 234.645 191.216 235.358 190.986 236.058C189.446 240.718 186.468 244.769 182.481 247.628C178.494 250.487 173.704 252.007 168.798 251.969L150.443 251.908C152.116 239.551 149.685 229.936 141.394 218.245C141.394 218.275 179.423 214.169 187.116 216.412Z" fill="#263238"/>
<path d="M141.522 218.548H141.212H140.311L136.82 218.397L124.052 217.76C118.646 217.503 112.202 217.139 105.061 216.828C103.239 216.783 101.417 216.925 99.6236 217.253C97.7557 217.571 95.9603 218.223 94.3229 219.177C92.6406 220.182 91.2514 221.611 90.2943 223.322C89.341 225.102 88.7491 227.054 88.5526 229.065C88.3588 231.079 88.3031 233.104 88.386 235.126C88.386 237.126 88.5829 239.111 88.7041 241.051C88.9918 244.938 89.272 248.688 89.537 252.257C90.1126 259.394 90.6275 265.827 91.0515 271.198C91.4756 276.57 91.8088 280.95 92.0814 283.988C92.195 285.503 92.2859 286.655 92.3464 287.465C92.3464 287.852 92.3919 288.155 92.407 288.375C92.4187 288.478 92.4187 288.582 92.407 288.685C92.3824 288.583 92.3672 288.479 92.3616 288.375C92.3616 288.155 92.301 287.859 92.2631 287.473C92.1798 286.662 92.0663 285.496 91.9224 284.003C91.6498 280.972 91.256 276.601 90.7714 271.221C90.2867 265.842 89.7642 259.394 89.1584 252.28C88.8707 248.711 88.5753 244.96 88.3027 241.066C88.1816 239.119 88.015 237.149 87.9771 235.118C87.8935 233.071 87.9492 231.021 88.1437 228.981C88.3506 226.918 88.9603 224.915 89.9384 223.087C90.9272 221.321 92.3638 219.847 94.1033 218.813C95.7805 217.837 97.6195 217.169 99.5327 216.844C101.351 216.515 103.198 216.375 105.046 216.427C112.202 216.753 118.631 217.184 124.045 217.442L136.85 218.2L140.326 218.419L141.234 218.488L141.522 218.548Z" fill="#EB996E"/>
<path d="M105.954 233.967C106.147 234.022 106.331 234.106 106.499 234.217C106.975 234.485 107.435 234.781 107.877 235.103C109.33 236.176 110.633 237.437 111.754 238.854C112.878 240.266 113.855 241.789 114.67 243.4C115.046 244.045 115.341 244.735 115.548 245.453C115.138 244.833 114.764 244.191 114.427 243.528C113.549 241.98 112.552 240.504 111.444 239.111C110.34 237.714 109.085 236.444 107.703 235.323C106.635 234.474 105.916 234.027 105.954 233.967Z" fill="#EB996E"/>
<path d="M168.169 213.866C167.828 214.002 167.472 214.101 167.109 214.161C166.413 214.313 165.405 214.487 164.156 214.662C161.657 215.025 158.189 215.419 154.365 215.79C150.541 216.162 147.08 216.548 144.604 217.01C143.627 217.143 142.67 217.397 141.756 217.768C141.438 217.912 141.295 218.147 141.378 218.306C141.461 218.465 141.537 218.526 141.522 218.541C141.431 218.501 141.356 218.432 141.31 218.344C141.276 218.288 141.259 218.223 141.259 218.158C141.259 218.093 141.276 218.029 141.31 217.973C141.402 217.831 141.527 217.714 141.673 217.632C142.582 217.195 143.548 216.891 144.543 216.73C147.027 216.215 150.488 215.798 154.319 215.389C158.151 214.98 161.612 214.631 164.11 214.381C165.368 214.237 166.382 214.108 167.071 214.002C167.434 213.933 167.801 213.887 168.169 213.866Z" fill="#455A64"/>
<path d="M132.449 218.071C131.625 217.671 130.961 217.003 130.564 216.177C130.098 215.403 129.818 214.531 129.746 213.631C129.875 213.585 130.246 214.73 130.912 215.98C131.579 217.23 132.525 217.972 132.449 218.071Z" fill="#455A64"/>
<path d="M127.793 133.682L136.88 131.136L154.069 129.803L169.805 132.212L151.76 153.707H137.281C137.281 153.707 126.99 149.76 126.589 149.396C126.187 149.033 127.664 134.364 127.664 134.364" fill="#FFBE9D"/>
<path d="M129.763 132.811C129.763 132.811 113.376 135.842 110.688 141.615C110.688 141.615 123.235 185.635 125.469 188.999C127.703 192.363 130.694 197.955 129.763 200.198C128.831 202.44 126.219 203.554 127.339 206.729C127.339 206.729 129.202 215.502 146.929 215.313C164.657 215.124 177.712 210.093 182.937 212.146C188.162 214.199 186.852 208.039 184.61 205.425C182.369 202.812 181.066 198.144 180.506 194.78C179.946 191.416 176.886 133.084 176.886 133.084L161.158 130.977C161.158 130.977 161.082 147.002 144.726 147.934C128.369 148.866 129.763 132.811 129.763 132.811Z" fill="#EF5E9C"/>
<g opacity="0.3">
<path d="M133.896 164.262C130.402 164.366 126.962 165.156 123.772 166.588C120.563 168.049 118.012 170.652 116.616 173.892C115.351 177.142 115.76 181.12 118.07 183.741L123 182.983C123.439 180.756 125.362 179.15 127.248 177.884C129.133 176.619 131.208 175.369 132.238 173.338C132.768 172.285 132.995 171.065 133.7 170.133C135.002 168.383 137.486 168.103 139.621 167.898C141.757 167.694 144.263 167.201 145.316 165.3C141.588 164.353 137.734 164.002 133.896 164.262Z" fill="black"/>
</g>
<path d="M176.718 133.046C176.718 133.046 179.747 133.334 183.147 138.584C186.547 143.835 189.811 168.209 189.811 168.209L168.843 169.058C168.843 169.058 166.995 160.837 167.707 158.45C168.419 156.064 176.718 133.046 176.718 133.046Z" fill="#EF5E9C"/>
<path d="M111.414 140.486C109.605 142.989 108.409 145.883 107.923 148.934C107.212 153.791 106.061 157.92 105.538 160.64C105.016 163.36 104.152 168.671 104.152 168.671L120.448 169.194L111.414 140.486Z" fill="#EF5E9C"/>
<path d="M118.472 167.027C118.366 167.027 117.39 163.33 116.299 158.693C115.209 154.056 114.398 150.313 114.504 150.29C114.61 150.268 115.58 153.988 116.678 158.625C117.776 163.262 118.578 167.004 118.472 167.027Z" fill="#263238"/>
<g opacity="0.3">
<path d="M178.651 202.781C175.884 196.215 173.108 189.661 170.321 183.12C169.344 180.809 168.299 178.4 166.36 176.808C164.422 175.217 161.31 174.755 159.492 176.483L159.167 176.952C158.701 178.433 158.82 180.035 159.5 181.43C160.098 182.839 161.014 184.112 161.703 185.469C164.732 191.189 164.475 198.069 166.701 204.137C167.332 206.05 168.385 207.795 169.783 209.244C170.484 209.963 171.329 210.527 172.261 210.899C173.194 211.271 174.194 211.443 175.198 211.403C176.201 211.338 177.161 210.968 177.948 210.343C178.736 209.717 179.314 208.866 179.605 207.903C180.044 206.183 179.332 204.41 178.651 202.781Z" fill="black"/>
</g>
<path d="M168.42 148.563C168.465 148.563 168.42 149.267 168.503 150.404C168.556 151.684 168.617 153.185 168.685 154.844C168.753 156.503 168.829 158.155 168.851 159.291C168.916 159.906 168.916 160.525 168.851 161.14C168.706 160.539 168.625 159.925 168.609 159.306C168.503 158.17 168.397 156.602 168.321 154.859C168.246 153.116 168.215 151.548 168.253 150.404C168.203 149.785 168.259 149.162 168.42 148.563Z" fill="#263238"/>
<path d="M161.438 197C161.092 197.131 160.735 197.225 160.37 197.281C159.673 197.44 158.666 197.637 157.409 197.849C150.864 198.924 144.206 199.133 137.607 198.47C136.342 198.341 135.335 198.205 134.578 198.091C134.212 198.049 133.85 197.978 133.495 197.879C133.865 197.861 134.235 197.881 134.601 197.94C135.305 198.008 136.327 198.099 137.63 198.19C140.92 198.438 144.221 198.514 147.519 198.417C150.813 198.305 154.099 198.024 157.364 197.576C158.621 197.402 159.635 197.243 160.332 197.129C160.696 197.051 161.066 197.008 161.438 197Z" fill="#263238"/>
<path d="M163.27 200.22C162.96 200.271 162.646 200.291 162.331 200.281L159.772 200.326C157.606 200.364 154.623 200.448 151.329 200.652C148.035 200.857 145.059 201.13 142.908 201.349L140.364 201.615C140.051 201.664 139.733 201.682 139.417 201.668C139.716 201.565 140.026 201.496 140.341 201.463C140.939 201.349 141.802 201.221 142.878 201.069C145.021 200.781 148.004 200.455 151.306 200.258C154.607 200.061 157.599 200.016 159.764 200.046C160.847 200.046 161.726 200.092 162.331 200.13C162.647 200.122 162.962 200.153 163.27 200.22Z" fill="#263238"/>
<path d="M154.66 183.681C154.428 183.742 154.188 183.768 153.948 183.756C153.294 183.779 152.639 183.764 151.987 183.711C149.825 183.561 147.693 183.12 145.649 182.4C143.606 181.682 141.666 180.699 139.879 179.475C139.338 179.108 138.82 178.708 138.326 178.278C137.978 177.975 137.789 177.801 137.811 177.778C137.834 177.756 138.652 178.362 140.038 179.241C141.844 180.381 143.772 181.316 145.785 182.029C147.801 182.731 149.889 183.204 152.01 183.438C153.638 183.612 154.66 183.612 154.66 183.681Z" fill="#263238"/>
<g opacity="0.3">
<path d="M136.502 198.228C144.491 201.342 154.025 201.023 161.597 197C153.348 198.722 144.88 199.136 136.502 198.228Z" fill="black"/>
</g>
<g opacity="0.3">
<path d="M114.792 151.563L114.746 151.616C114.457 155.053 115.297 158.49 117.139 161.405C116.427 158.268 115.723 154.844 114.792 151.563Z" fill="black"/>
</g>
<path d="M164.239 131.152C164.236 131.351 164.211 131.549 164.163 131.743C164.103 132.121 164.004 132.682 163.861 133.409C163.48 135.456 162.902 137.46 162.134 139.395C161.583 140.733 160.852 141.99 159.961 143.13C158.907 144.423 157.642 145.527 156.22 146.396C154.66 147.349 153.018 148.161 151.313 148.82C149.489 149.551 147.593 150.087 145.656 150.419C141.882 151.128 137.979 150.552 134.57 148.782C131.852 147.204 129.747 144.753 128.595 141.827C128.137 140.724 127.828 139.565 127.679 138.38C127.557 137.489 127.524 136.588 127.581 135.69C127.628 134.92 127.763 134.157 127.982 133.417C128.035 133.417 127.808 134.22 127.732 135.69C127.706 136.577 127.761 137.465 127.899 138.342C128.066 139.503 128.387 140.637 128.853 141.713C130.018 144.547 132.094 146.912 134.752 148.434C138.097 150.142 141.913 150.691 145.603 149.995C147.514 149.67 149.384 149.144 151.184 148.426C152.869 147.781 154.494 146.988 156.038 146.055C157.433 145.218 158.675 144.149 159.711 142.895C160.596 141.787 161.327 140.563 161.884 139.259C162.673 137.346 163.287 135.365 163.717 133.341C163.876 132.659 163.997 132.106 164.095 131.697C164.13 131.512 164.178 131.33 164.239 131.152Z" fill="#263238"/>
<path d="M140.167 179.347C140.167 179.347 140.167 179.513 140.106 179.816C140.046 180.12 140 180.574 139.955 181.165C139.805 182.879 139.951 184.607 140.386 186.272C141.074 188.866 142.551 191.183 144.612 192.901C147.284 195.164 150.676 196.397 154.176 196.379H155.145L154.229 196.712C150.094 198.228 144.839 197.561 140.523 194.788C138.297 193.343 136.456 191.377 135.161 189.06C133.823 186.615 133.174 183.852 133.283 181.067C133.354 179.555 133.653 178.064 134.169 176.642C134.442 175.945 134.775 175.286 135.071 174.611L135.525 173.611C135.699 173.293 135.904 172.99 136.085 172.679L136.653 171.747C136.828 171.434 137.031 171.137 137.259 170.861L138.599 169.194L140.114 167.739C140.629 167.27 141.219 166.898 141.765 166.482C143.96 165.009 146.439 164.013 149.042 163.557C149.655 163.436 150.284 163.39 150.89 163.299C151.495 163.208 152.116 163.216 152.714 163.224C153.889 163.206 155.063 163.298 156.221 163.496L156.811 163.602L156.243 163.807C153.193 164.855 150.282 166.27 147.573 168.02C145.491 169.346 143.652 171.019 142.136 172.967C141.173 174.214 140.407 175.602 139.864 177.081C139.675 177.596 139.591 178.006 139.5 178.271C139.41 178.536 139.364 178.672 139.364 178.672C139.364 178.672 139.364 178.536 139.455 178.256C139.546 177.975 139.599 177.574 139.773 177.051C140.282 175.543 141.028 174.126 141.984 172.854C143.496 170.871 145.338 169.164 147.429 167.807C150.141 166.02 153.064 164.575 156.13 163.504V163.815C151.196 162.994 146.134 164.056 141.946 166.792C141.424 167.201 140.841 167.55 140.341 168.027L138.827 169.459L137.516 171.088C137.293 171.362 137.095 171.657 136.926 171.967L136.373 172.876C136.184 173.179 135.994 173.482 135.813 173.793L135.373 174.778C135.078 175.445 134.753 176.096 134.487 176.778C133.982 178.16 133.691 179.612 133.624 181.082C133.548 183.777 134.196 186.444 135.502 188.802C136.762 191.067 138.556 192.989 140.727 194.401C144.945 197.122 150.087 197.788 154.123 196.334L154.176 196.652C150.608 196.671 147.152 195.407 144.438 193.091C142.346 191.319 140.864 188.933 140.205 186.272C139.783 184.584 139.662 182.834 139.849 181.104C139.91 180.511 140.016 179.924 140.167 179.347Z" fill="white"/>
<g opacity="0.3">
<path d="M138.259 178.135L138.516 178.392C139.921 181.208 142.374 183.359 145.348 184.384C148.322 185.408 151.579 185.224 154.419 183.87C148.54 183.834 142.846 181.813 138.259 178.135Z" fill="black"/>
</g>
<path d="M92.044 284.723L94.5959 311.006C94.5959 311.006 71.3105 319.59 71.3938 324L113.716 322.485L116.662 279.086L92.044 284.723Z" fill="#EF5E9C"/>
<path d="M114.345 315.423C114.345 315.491 113.542 315.423 112.285 315.673C110.65 315.946 109.093 316.568 107.721 317.498C106.349 318.427 105.193 319.643 104.334 321.06C103.667 322.151 103.41 322.909 103.342 322.886C103.349 322.695 103.393 322.508 103.471 322.333C103.636 321.846 103.844 321.374 104.091 320.924C104.911 319.418 106.079 318.129 107.498 317.167C108.917 316.205 110.545 315.597 112.247 315.393C112.749 315.331 113.256 315.314 113.762 315.34C113.959 315.331 114.157 315.359 114.345 315.423Z" fill="#263238"/>
<path d="M83.7743 323.667C83.6074 322.401 83.3 321.159 82.8581 319.962C82.2944 318.815 81.6089 317.733 80.8135 316.734C81.8688 317.53 82.6974 318.589 83.2169 319.806C83.7363 321.022 83.9285 322.353 83.7743 323.667Z" fill="#263238"/>
<path d="M97.2683 291.943C97.1547 291.943 97.2683 290.132 97.0638 287.935C96.8594 285.738 96.352 283.995 96.4656 283.965C97.5153 286.486 97.7946 289.263 97.2683 291.943Z" fill="#263238"/>
<path d="M103.607 290.004C103.486 290.004 103.789 288.208 103.652 286.026C103.516 283.844 103.031 282.124 103.145 282.086C103.725 283.311 104.033 284.648 104.046 286.003C104.186 287.353 104.036 288.717 103.607 290.004Z" fill="#263238"/>
<path d="M110.361 288.814C111.015 286.1 110.771 283.247 109.664 280.684C110.521 281.836 111.009 283.22 111.065 284.654C111.248 286.08 111.003 287.528 110.361 288.814Z" fill="#263238"/>
<path d="M88.9166 323.379C88.5539 321.83 88.0755 320.31 87.4854 318.833C86.3949 316.438 85.2136 314.612 85.3348 314.544C85.6756 314.875 85.9641 315.256 86.1905 315.673C86.8199 316.638 87.3719 317.652 87.8413 318.704C88.5689 320.153 88.9377 321.757 88.9166 323.379Z" fill="white"/>
<path d="M94.4147 323.144C94.028 321.236 93.4285 319.379 92.6276 317.605C91.6992 315.883 90.5789 314.272 89.2881 312.802C89.7826 313.114 90.2247 313.503 90.5981 313.953C91.5508 314.994 92.3513 316.165 92.9759 317.431C93.6017 318.682 94.0454 320.017 94.2935 321.394C94.4264 321.967 94.4673 322.558 94.4147 323.144Z" fill="white"/>
<path d="M102.282 322.992C102.213 322.992 102.024 322.197 101.577 320.947C100.983 319.323 100.192 317.779 99.2222 316.348C98.2464 314.92 97.0966 313.619 95.7995 312.476C94.8075 311.597 94.126 311.127 94.1562 311.074C94.3442 311.132 94.521 311.222 94.6787 311.339C95.1322 311.619 95.5673 311.928 95.9812 312.264C98.7413 314.488 100.781 317.48 101.842 320.863C101.997 321.361 102.124 321.867 102.221 322.379C102.273 322.579 102.294 322.786 102.282 322.992Z" fill="white"/>
<path d="M114.482 312.256C114.229 312.365 113.961 312.431 113.687 312.453C112.958 312.583 112.222 312.669 111.483 312.711C109.04 312.826 106.593 312.653 104.191 312.195C101.794 311.743 99.4265 311.143 97.1029 310.4C96.2169 310.119 95.4975 309.885 95.0053 309.71C94.7416 309.637 94.4875 309.532 94.248 309.4C94.5211 309.42 94.7906 309.473 95.0507 309.559L97.1862 310.135C98.9809 310.612 101.465 311.301 104.259 311.809C106.637 312.26 109.055 312.469 111.475 312.43C113.331 312.385 114.474 312.195 114.482 312.256Z" fill="white"/>
<path d="M114.852 304.922C114.63 305.12 114.373 305.274 114.094 305.377C113.373 305.697 112.607 305.906 111.823 305.998C110.671 306.127 109.512 306.178 108.354 306.149C107.044 306.149 105.613 306.074 104.114 305.945C101.563 305.722 99.032 305.311 96.5412 304.717C95.5795 304.49 94.8147 304.278 94.2695 304.111C93.9906 304.047 93.721 303.947 93.4668 303.816C93.7516 303.836 94.0335 303.886 94.3073 303.967L96.5791 304.452C99.0811 304.958 101.609 305.324 104.152 305.551C105.666 305.68 107.059 305.755 108.354 305.786C109.501 305.831 110.649 305.808 111.792 305.717C112.848 305.617 113.881 305.349 114.852 304.922Z" fill="white"/>
<path d="M115.336 297.292C115.13 297.508 114.893 297.692 114.632 297.838C113.946 298.272 113.215 298.63 112.451 298.906C109.901 299.739 107.216 300.083 104.538 299.921C101.876 299.849 99.2237 299.578 96.6021 299.111C95.595 298.921 94.7923 298.747 94.2395 298.603C93.9447 298.553 93.6572 298.467 93.3838 298.345C93.6823 298.351 93.9794 298.39 94.2698 298.459L96.6475 298.83C99.2643 299.217 101.902 299.45 104.546 299.527C107.181 299.69 109.824 299.398 112.36 298.664C113.388 298.289 114.383 297.83 115.336 297.292Z" fill="white"/>
<path d="M115.647 290.163C115.381 290.315 115.099 290.437 114.806 290.526C114.261 290.746 113.451 291.019 112.436 291.33C107.142 292.901 101.615 293.537 96.1024 293.209C95.0499 293.14 94.1942 293.057 93.6111 292.966C93.3054 292.945 93.003 292.889 92.71 292.799C93.0145 292.766 93.3217 292.766 93.6262 292.799C94.2169 292.837 95.065 292.883 96.1176 292.913C98.8532 292.994 101.591 292.882 104.311 292.58C107.027 292.267 109.717 291.761 112.361 291.064C113.375 290.799 114.193 290.564 114.761 290.39C115.047 290.282 115.344 290.206 115.647 290.163Z" fill="white"/>
<path d="M116.661 279.101L116.199 279.237L114.851 279.571L109.777 280.79L92.0804 284.904L92.2243 284.707C92.5954 288.988 92.9816 293.678 93.4208 298.588C93.7842 302.914 94.1326 307.074 94.4506 310.892V311.036L94.3143 311.082C88.2866 313.284 82.4595 316.002 76.8976 319.204C75.2494 320.022 73.7207 321.062 72.3541 322.295C71.8815 322.76 71.555 323.352 71.4151 324C71.4137 323.827 71.4419 323.656 71.4984 323.492C71.6521 323.014 71.9109 322.577 72.2556 322.212C73.1189 321.212 74.7546 320.189 76.7991 319.007C82.339 315.721 88.1691 312.951 94.2159 310.733L94.0947 310.923C93.7691 307.134 93.4132 302.944 93.0421 298.618C92.6257 293.716 92.2319 289.019 91.876 284.738V284.579L92.035 284.541L109.762 280.563L114.851 279.457L116.214 279.177C116.36 279.136 116.51 279.111 116.661 279.101Z" fill="#263238"/>
<path d="M108.855 168.83C108.855 169.224 107.666 195.72 107.666 195.72C108.279 200.592 111.202 203.251 116.647 203.471L120.123 193.833L119.509 169.194L108.855 168.83Z" fill="#FFBE9D"/>
<path d="M125.567 163.262L135.563 162.83C137.543 162.538 139.544 162.409 141.545 162.443C142.978 162.531 144.417 162.447 145.831 162.193C145.831 162.193 151.427 161.625 152.532 162.193C154.274 163.095 153.797 164.822 150.753 164.951C147.709 165.08 146.308 164.883 144.528 165.292C142.762 165.653 140.962 165.816 139.159 165.777C137.448 165.777 125.741 165.906 125.741 165.906C124.62 164.951 125.567 163.262 125.567 163.262Z" fill="#E0E0E0"/>
<path d="M136.259 162.754L125.567 163.262C125.567 163.262 124.62 164.951 125.741 165.906C125.741 165.906 134.767 165.8 136.471 165.8L136.259 162.754Z" fill="#455A64"/>
<path d="M138.017 164.133V164.201C138.036 164.376 138.119 164.537 138.251 164.653C138.382 164.77 138.553 164.833 138.729 164.83L142.886 164.701C142.981 164.698 143.074 164.676 143.16 164.636C143.246 164.596 143.323 164.539 143.386 164.468C143.449 164.397 143.497 164.314 143.527 164.223C143.557 164.133 143.568 164.038 143.56 163.943C143.548 163.765 143.469 163.598 143.338 163.477C143.207 163.356 143.034 163.289 142.856 163.292L138.691 163.352C138.594 163.355 138.498 163.378 138.411 163.419C138.323 163.461 138.245 163.52 138.181 163.593C138.118 163.667 138.07 163.753 138.042 163.846C138.014 163.939 138.005 164.036 138.017 164.133Z" fill="white"/>
<path d="M110.505 166.565C110.329 165.655 110.457 164.713 110.868 163.883C111.542 162.86 117.782 160.905 120.97 160.792C124.158 160.678 127.028 159.935 127.414 161.966C127.626 163.216 125.771 163.883 124.324 164.186C123.007 164.459 115.472 166.391 115.472 166.391C115.472 166.391 129.867 163.8 130.867 165.315C131.867 166.83 130.867 167.762 130.867 167.762C130.867 167.762 132.647 168.406 131.321 170.232L130.231 170.785C130.367 170.911 130.475 171.064 130.55 171.235C130.624 171.405 130.662 171.588 130.662 171.774C130.662 171.96 130.624 172.143 130.55 172.313C130.475 172.483 130.367 172.636 130.231 172.763C129.284 173.952 124.059 176.725 124.059 176.725C124.059 176.725 124.688 178.627 122.87 180.688C122.599 183.965 122.599 187.26 122.87 190.537C123.347 194.97 121.356 202.812 116.616 203.524C111.875 204.236 109.49 197.114 109.096 194.341C108.702 191.568 110.679 188.083 112.337 184.279C113.995 180.476 114.556 180.157 114.556 180.157C113.816 179.681 113.238 178.992 112.897 178.18L112.496 176.99C112.496 176.99 110.505 176.362 110.474 174.778C110.444 173.195 110.838 172.793 110.838 172.793C110.838 172.793 108.831 171.687 109.043 170.02C109.287 168.78 109.784 167.603 110.505 166.565Z" fill="#FFBE9D"/>
<path d="M131.246 167.33C130.427 167.604 129.589 167.819 128.74 167.974L122.682 169.361L116.624 170.762C115.792 170.993 114.944 171.163 114.087 171.27C114.888 170.951 115.713 170.697 116.556 170.512C118.07 170.088 120.236 169.543 122.614 168.997C124.991 168.452 127.157 168.012 128.725 167.724C129.553 167.524 130.396 167.392 131.246 167.33Z" fill="#EB996E"/>
<path d="M130.754 170.558C130.15 170.965 129.502 171.303 128.823 171.566C127.596 172.119 125.878 172.831 123.939 173.513C122 174.195 120.213 174.71 118.911 175.028C118.216 175.243 117.5 175.385 116.775 175.452C117.443 175.17 118.132 174.94 118.835 174.763C120.115 174.369 121.864 173.808 123.81 173.134C125.756 172.46 127.468 171.793 128.71 171.3C129.372 171.004 130.056 170.756 130.754 170.558Z" fill="#EB996E"/>
<path d="M124.658 176.392C124.32 176.687 123.949 176.941 123.552 177.149C122.848 177.559 121.901 178.172 120.765 178.733C120.236 178.952 119.729 179.221 119.251 179.536C118.842 179.847 118.494 180.226 118.183 180.483C117.494 181.036 116.873 180.938 116.903 180.885C117.311 180.766 117.686 180.556 118.001 180.271C118.297 180.006 118.585 179.619 119.024 179.248C119.511 178.899 120.037 178.606 120.591 178.377C121.689 177.831 122.666 177.256 123.408 176.899C123.79 176.656 124.214 176.484 124.658 176.392Z" fill="#EB996E"/>
<path d="M122.022 180.87C121.757 181.178 121.418 181.415 121.038 181.559C120.149 181.975 119.166 182.15 118.188 182.066C117.209 181.982 116.27 181.643 115.465 181.082C114.859 180.65 114.586 180.271 114.617 180.241C114.965 180.416 115.299 180.619 115.616 180.847C116.409 181.314 117.297 181.598 118.215 181.677C119.132 181.755 120.056 181.627 120.917 181.301C121.273 181.128 121.643 180.983 122.022 180.87Z" fill="#EB996E"/>
<path d="M115.473 180.377C115.473 180.377 115.345 180.377 115.117 180.377C114.789 180.297 114.478 180.155 114.201 179.96C113.766 179.666 113.39 179.29 113.096 178.854C112.706 178.287 112.478 177.624 112.437 176.937L112.596 177.104C112.07 177.066 111.572 176.856 111.179 176.505C110.786 176.154 110.52 175.683 110.422 175.164C110.335 174.815 110.287 174.456 110.279 174.096C110.231 173.555 110.385 173.016 110.71 172.581L110.771 172.884C110.302 172.647 109.877 172.332 109.514 171.952C109.186 171.576 108.975 171.113 108.908 170.618C108.846 169.82 109 169.019 109.355 168.3C109.588 167.628 109.98 167.022 110.498 166.535C110.153 167.132 109.85 167.752 109.589 168.391C109.3 169.077 109.183 169.824 109.249 170.565C109.318 170.991 109.507 171.388 109.794 171.71C110.133 172.047 110.524 172.329 110.953 172.543L111.165 172.657L111.006 172.838C110.753 173.195 110.635 173.63 110.672 174.066C110.657 174.721 110.834 175.366 111.18 175.922C111.539 176.373 112.061 176.665 112.634 176.733H112.785V176.884C112.807 177.512 112.998 178.122 113.338 178.65C113.594 179.073 113.925 179.445 114.315 179.748C114.673 180.005 115.062 180.217 115.473 180.377Z" fill="#EB996E"/>
<path d="M114.587 180.104C114.685 180.165 113.542 182.324 112.277 185.067C111.013 187.81 110.066 190.06 109.96 190.022C110.045 189.499 110.2 188.989 110.422 188.507C110.763 187.575 111.278 186.302 111.936 184.931C112.595 183.559 113.216 182.339 113.708 181.483C113.939 180.987 114.235 180.523 114.587 180.104Z" fill="#EB996E"/>
<path d="M163.58 180.309C163.679 180.68 167.571 204.425 172.394 207.956C177.218 211.487 179.808 210.646 181.292 209.161C182.776 207.676 185.283 205.729 185.654 200.629C186.025 195.53 186.903 168.345 186.903 168.345L173.765 168.845L171.887 174.642L163.58 180.309Z" fill="#FFBE9D"/>
<path d="M184.632 198.796C184.691 197.483 184.466 196.173 183.974 194.955C183.415 193.647 182.69 192.416 181.815 191.295C180.846 190.007 179.733 188.605 178.65 187.082C176.788 184.48 175.064 181.782 173.486 178.998C172.88 177.93 172.425 177.051 172.115 176.437C171.938 176.126 171.791 175.799 171.676 175.46C171.893 175.743 172.086 176.045 172.251 176.362L173.766 178.854C175.023 180.953 176.795 183.817 179.006 186.848C180.089 188.363 181.179 189.772 182.141 191.083C183.023 192.242 183.741 193.517 184.276 194.871C184.628 195.79 184.808 196.766 184.806 197.75C184.806 198.004 184.786 198.257 184.746 198.508C184.632 198.705 184.632 198.796 184.632 198.796Z" fill="#EB996E"/>
<path d="M151.548 163.61C151.16 163.564 150.793 163.408 150.49 163.162C150.187 162.915 149.961 162.587 149.837 162.216C149.773 162.054 149.748 161.879 149.763 161.705C149.779 161.531 149.836 161.364 149.928 161.216C150.564 160.284 152.033 160.163 154.138 159.822C156.243 159.481 161.514 159.867 162.021 159.822C162.529 159.776 171.706 161.337 172.509 162.352C173.312 163.368 172.888 165.974 172.888 165.974C173.434 166.53 173.837 167.212 174.062 167.959C174.652 169.474 173.183 170.656 173.092 171.664C173.001 172.672 173.092 174.066 172.676 174.786C172.259 175.505 170.404 176.346 170.404 176.346C170.404 176.346 170.911 177.437 169.647 178.953C168.382 180.468 167.542 182.203 165.944 182.029C164.346 181.855 162.627 181.65 161.991 180.476C161.516 179.372 161.187 178.21 161.014 177.021C159.46 176.477 157.943 175.834 156.471 175.096C155.547 174.49 153.563 173.179 154.494 171.876C154.067 171.865 153.654 171.722 153.311 171.467C152.968 171.212 152.712 170.858 152.578 170.452C152.381 169.762 152.51 169.694 152.972 169.308C153.4 168.969 153.868 168.684 154.365 168.459C154.365 168.459 149.481 166.027 149.693 164.996C149.693 164.996 152.722 165.133 153.381 163.868L151.548 163.61Z" fill="#FFBE9D"/>
<path d="M169.797 165.701C169.549 165.603 169.315 165.473 169.101 165.315C168.497 164.934 167.867 164.597 167.215 164.307C166.237 163.914 165.194 163.708 164.141 163.701C163.542 163.701 162.914 163.633 162.27 163.648C161.602 163.694 160.937 163.777 160.279 163.898C157.537 164.292 154.978 164.595 153.357 165.262C153.042 165.383 152.776 165.606 152.601 165.895C152.427 166.185 152.355 166.525 152.396 166.86C152.465 167.105 152.601 167.326 152.789 167.497C152.789 167.497 152.441 167.436 152.252 166.906C152.148 166.583 152.173 166.233 152.32 165.928C152.52 165.538 152.838 165.22 153.229 165.019C154.955 164.262 157.469 163.906 160.226 163.504C160.899 163.383 161.579 163.299 162.263 163.254C162.929 163.254 163.565 163.292 164.171 163.337C165.26 163.362 166.334 163.604 167.329 164.049C167.982 164.369 168.603 164.749 169.184 165.186C169.409 165.331 169.615 165.504 169.797 165.701Z" fill="#EB996E"/>
<path d="M169.078 170.399C168.418 169.988 167.73 169.626 167.018 169.315C165.256 168.684 163.391 168.394 161.52 168.459C159.317 168.459 157.31 168.58 155.849 168.459C155.271 168.422 154.698 168.33 154.137 168.186C153.926 168.15 153.723 168.076 153.539 167.967C153.539 167.898 154.425 168.148 155.864 168.179C157.303 168.209 159.302 168.035 161.52 168.035C163.438 167.961 165.349 168.3 167.124 169.027C167.664 169.262 168.172 169.562 168.639 169.921C168.942 170.202 169.093 170.376 169.078 170.399Z" fill="#EB996E"/>
<path d="M157.976 164.034C156.406 164.356 154.782 164.317 153.229 163.921C154.015 163.794 154.814 163.771 155.606 163.853C156.401 163.813 157.197 163.874 157.976 164.034Z" fill="#EB996E"/>
<path d="M167.148 174.763C166.519 174.699 165.896 174.585 165.285 174.422C164.134 174.195 162.551 173.922 160.779 173.71C159.257 173.48 157.762 173.094 156.319 172.558C155.709 172.386 155.118 172.153 154.555 171.861C155.185 171.933 155.805 172.078 156.402 172.293C157.848 172.746 159.327 173.088 160.825 173.316C162.357 173.489 163.875 173.767 165.368 174.149C165.986 174.274 166.584 174.48 167.148 174.763Z" fill="#EB996E"/>
<path d="M168.42 170.755C167.723 170.699 167.033 170.574 166.36 170.384C165.095 170.111 163.331 169.709 161.438 169.346C159.795 169.035 158.137 168.807 156.47 168.664C155.775 168.646 155.081 168.578 154.396 168.459C155.087 168.351 155.788 168.326 156.486 168.383C158.174 168.45 159.854 168.642 161.514 168.959C163.452 169.323 165.179 169.77 166.428 170.111C167.111 170.263 167.777 170.478 168.42 170.755Z" fill="#EB996E"/>
<path d="M166.08 179.476C166.08 179.521 165.769 179.688 165.209 179.627C164.497 179.508 163.829 179.205 163.27 178.748C162.619 178.248 162.082 177.778 161.642 177.506C161.203 177.233 160.885 177.119 160.923 177.066C160.961 177.013 161.279 177.028 161.779 177.263C162.394 177.589 162.973 177.98 163.505 178.43C164.022 178.849 164.616 179.16 165.254 179.347C165.739 179.475 166.065 179.415 166.08 179.476Z" fill="#EB996E"/>
<path d="M169.639 178.953C169.639 178.953 169.79 178.756 170.025 178.347C170.173 178.093 170.285 177.82 170.358 177.536C170.471 177.158 170.471 176.755 170.358 176.377V176.308H170.419C171.085 175.999 171.713 175.612 172.289 175.157C172.615 174.882 172.821 174.49 172.865 174.066C172.939 173.582 172.977 173.093 172.978 172.603C172.978 172.346 172.978 172.081 173.016 171.846C173.032 171.554 173.107 171.268 173.236 171.005C173.52 170.516 173.773 170.01 173.993 169.49C174.089 169.218 174.131 168.929 174.114 168.641C174.076 168.343 173.989 168.054 173.857 167.785C173.624 167.196 173.282 166.656 172.849 166.194L172.781 166.125V166.042C172.898 165.262 172.914 164.47 172.827 163.686C172.787 163.295 172.658 162.919 172.448 162.587C172.145 162.33 171.788 162.143 171.403 162.042C169.666 161.498 167.895 161.067 166.102 160.754C165.173 160.572 164.219 160.405 163.24 160.254L162.483 160.147C162.232 160.114 161.978 160.101 161.725 160.11L160.211 160.049C159.196 160.011 158.166 159.981 157.129 159.973C156.084 159.945 155.038 160.001 154.001 160.14C153.176 160.269 152.358 160.375 151.578 160.572C151.204 160.657 150.846 160.803 150.518 161.004C150.369 161.09 150.241 161.209 150.145 161.352C150.049 161.495 149.988 161.659 149.965 161.83C149.986 162.186 150.114 162.529 150.331 162.812C150.548 163.096 150.846 163.308 151.184 163.421C151.552 163.514 151.927 163.577 152.305 163.61L153.449 163.769L153.721 163.807L153.593 164.049C153.398 164.383 153.104 164.648 152.752 164.807C152.434 164.955 152.098 165.062 151.752 165.125C151.094 165.254 150.423 165.305 149.753 165.277L149.943 165.133C149.943 165.247 150.064 165.481 150.223 165.648C150.39 165.83 150.572 165.997 150.768 166.148C151.157 166.454 151.561 166.74 151.98 167.004C152.813 167.527 153.653 167.997 154.478 168.429L154.781 168.58L154.471 168.732C154.047 168.921 153.644 169.152 153.267 169.421C152.911 169.694 152.638 170.035 152.744 170.421C152.872 170.809 153.111 171.151 153.432 171.405C153.752 171.658 154.14 171.811 154.547 171.846H154.789L154.645 172.043C154.522 172.213 154.45 172.414 154.438 172.624C154.426 172.833 154.474 173.042 154.577 173.225C154.781 173.602 155.059 173.935 155.395 174.202C156.002 174.736 156.683 175.18 157.417 175.521C158.802 176.165 160.037 176.634 161.044 177.036H161.089V177.081C161.215 177.963 161.407 178.835 161.665 179.688C161.847 180.263 161.998 180.536 161.983 180.551C161.816 180.288 161.681 180.006 161.582 179.71C161.286 178.863 161.065 177.991 160.923 177.104L160.976 177.172C159.961 176.801 158.704 176.354 157.311 175.725C156.551 175.386 155.845 174.94 155.213 174.399C154.85 174.085 154.554 173.701 154.342 173.27C154.214 173.042 154.154 172.781 154.169 172.519C154.184 172.258 154.273 172.006 154.425 171.793L154.524 172.02C154.073 171.963 153.642 171.799 153.267 171.543C152.861 171.266 152.571 170.852 152.449 170.376C152.392 170.118 152.432 169.848 152.563 169.618C152.7 169.405 152.874 169.217 153.078 169.065C153.474 168.769 153.9 168.515 154.35 168.308V168.611C153.509 168.186 152.661 167.717 151.813 167.186C151.381 166.918 150.964 166.627 150.564 166.315C150.354 166.153 150.157 165.975 149.973 165.785C149.856 165.678 149.762 165.548 149.698 165.404C149.634 165.259 149.601 165.102 149.602 164.944V164.792H149.799C150.438 164.813 151.079 164.762 151.707 164.64C152.014 164.607 152.312 164.513 152.582 164.363C152.853 164.214 153.091 164.012 153.282 163.769L153.426 164.049L152.282 163.898C151.881 163.861 151.483 163.791 151.094 163.686C150.668 163.552 150.295 163.29 150.024 162.937C149.753 162.583 149.598 162.154 149.579 161.708C149.589 161.469 149.674 161.238 149.821 161.049C149.954 160.865 150.118 160.706 150.306 160.579C150.671 160.353 151.07 160.187 151.487 160.087C152.305 159.882 153.123 159.784 153.948 159.647C155.005 159.506 156.071 159.45 157.136 159.481C158.181 159.481 159.219 159.526 160.234 159.564L161.748 159.625C162.001 159.618 162.255 159.634 162.505 159.67L163.263 159.776C164.239 159.928 165.201 160.102 166.14 160.284C167.949 160.612 169.735 161.057 171.486 161.617C171.699 161.686 171.906 161.77 172.107 161.867C172.213 161.914 172.314 161.97 172.41 162.034C172.515 162.103 172.61 162.187 172.69 162.284C172.932 162.663 173.08 163.094 173.122 163.542C173.213 164.359 173.192 165.185 173.061 165.997L173.001 165.845C173.478 166.341 173.849 166.929 174.091 167.573C174.236 167.87 174.329 168.191 174.364 168.52C174.386 168.847 174.337 169.175 174.22 169.482C174.004 170.022 173.751 170.546 173.463 171.05C173.271 171.532 173.186 172.048 173.213 172.566C173.205 173.073 173.159 173.58 173.077 174.081C173.032 174.317 172.955 174.547 172.849 174.763C172.737 174.963 172.588 175.14 172.41 175.286C171.814 175.741 171.166 176.122 170.479 176.422V176.316C170.612 176.725 170.612 177.165 170.479 177.574C170.395 177.863 170.27 178.138 170.108 178.392C169.975 178.597 169.817 178.785 169.639 178.953Z" fill="#EB996E"/>
</svg>
