<svg width="335" height="324" viewBox="0 0 335 324" fill="none" xmlns="http://www.w3.org/2000/svg">
<path d="M324.623 99.097C323.214 75.4933 317.714 51.2972 303.164 32.3825C287.382 11.8783 261.165 -0.692929 234.887 0.0295577C208.61 0.752045 183 14.8983 169.213 36.7247C160.681 50.2207 155.759 67.0691 141.979 75.5006C126.784 84.7917 107.14 80.1028 89.2541 81.6345C64.5557 83.7369 41.7474 99.1042 30.0357 120.367C18.324 141.63 17.6569 168.116 27.2783 190.354C36.8997 212.592 56.3797 230.373 79.3881 239.296C117.192 253.969 159.843 245.003 199.47 235.864C249.305 233.87 293.787 206.632 312.022 172.061C323.704 149.881 326.105 123.994 324.623 99.097Z" fill="white"/>
<path d="M110.979 32.8883L111.076 32.8378C111.335 32.686 111.595 32.5199 111.862 32.3754L110.979 32.8883Z" fill="white"/>
<path d="M133.232 37.3171C127.969 32.0863 117.599 29.2035 111.076 32.8376C108.004 34.732 105.542 37.4304 103.969 40.6243C102.396 43.8182 101.776 47.379 102.181 50.8998C102.734 54.5538 104.401 57.9615 106.965 60.681C109.529 63.4005 112.872 65.3064 116.561 66.1515C120.28 66.8503 124.129 66.4166 127.586 64.9095C131.044 63.4025 133.941 60.8949 135.886 57.7273C139.622 51.3261 138.517 42.5551 133.232 37.3171Z" fill="white"/>
<path d="M232.321 160.068C230.013 160.318 227.684 160.318 225.376 160.068C227.684 159.817 230.013 159.817 232.321 160.068Z" fill="#FAFAFA"/>
<path d="M335 323.805C335 323.913 260.008 324 167.522 324C75.0366 324 0 323.913 0 323.805C0 323.697 74.9699 323.603 167.478 323.603C259.986 323.603 335 323.704 335 323.805Z" fill="#263238"/>
<path d="M267.976 283.021C271.586 280.492 275.263 277.927 279.443 276.446C283.624 274.965 288.457 274.676 292.415 276.663C295.729 278.324 298.115 281.431 299.487 284.812C301.179 289.011 301.464 293.624 300.302 297.99C299.672 300.346 298.419 302.781 296.122 303.734C293.824 304.688 291.177 303.864 288.894 302.867C281.402 299.586 274.912 294.465 270.059 288.006C270.547 287.626 271.139 287.394 271.762 287.34C272.384 287.286 273.009 287.412 273.558 287.702C274.643 288.299 275.63 289.052 276.486 289.935C279.384 292.494 282.881 294.325 286.671 295.267C289.473 295.989 293.245 295.664 294.187 292.998C294.802 291.257 293.824 289.386 292.875 287.803C291.793 285.976 290.555 284.018 288.524 283.288C286.997 282.746 285.314 283.006 283.713 283.288L266.234 286.214L267.317 285.903" fill="#455A64"/>
<path d="M224.34 53.2407C212.813 50.1051 195.735 54.4689 189.212 64.2441C182.689 74.0194 185.565 88.5269 185.054 100.173C184.542 111.82 185.054 123.654 182.155 134.976C180.332 142.2 176.84 149.425 170.421 153.435C163.083 157.987 152.083 158.435 148.606 166.209C145.708 172.711 150.207 180.658 147.279 187.161C145.99 190.051 143.373 192.218 142.246 195.144C140.69 199.205 142.395 203.93 145.456 207.073C148.517 210.215 152.705 212.058 156.879 213.575C169.592 218.114 183.106 220.14 196.632 219.535C206.468 219.088 217.024 216.819 223.472 209.572C228.535 203.879 230.203 196.076 231.122 188.62C236.77 142.504 237.793 91.807 224.34 53.3129" fill="#263238"/>
<path d="M160.066 193.186C160.163 193.136 159.636 192.269 159.11 190.542C158.421 188.101 158.275 185.544 158.68 183.043C159.294 179.335 160.715 175.797 162.846 172.668C165.21 169.113 168.635 165.775 172.393 162.488C176.151 159.201 179.895 156.159 182.911 152.987C185.632 150.212 187.897 147.044 189.627 143.595C190.783 141.26 191.501 138.742 191.747 136.161C191.799 135.461 191.799 134.758 191.747 134.058C191.747 133.574 191.688 133.336 191.651 133.336C191.428 133.278 192.021 137.526 189.042 143.335C187.266 146.673 184.996 149.738 182.304 152.431C179.339 155.53 175.581 158.529 171.793 161.823C168.005 165.118 164.551 168.535 162.156 172.22C159.99 175.456 158.588 179.12 158.05 182.949C157.694 185.53 157.948 188.157 158.791 190.629C159.027 191.294 159.325 191.938 159.681 192.551C159.777 192.78 159.907 192.994 160.066 193.186Z" fill="#455A64"/>
<path d="M189.055 275.781L185.2 322.996L301.006 323.552L269.525 280.405L189.055 275.781Z" fill="#263238"/>
<path d="M97.5044 162.221C97.8305 162.495 90.7219 199.465 87.1269 217.975C86.5264 221.072 86.8291 224.271 88.0005 227.208C89.1719 230.145 91.1651 232.704 93.7536 234.592C96.4282 236.541 99.6249 237.693 102.957 237.909C106.289 238.124 109.614 237.394 112.529 235.806L160.748 211.35L145.982 181.215L115.591 198.027L117.592 166.678L97.5044 162.221Z" fill="#FFBE9D"/>
<path d="M113.967 132.823C113.626 131.5 111.914 130.901 110.55 131.233C109.22 131.687 108.034 132.472 107.111 133.509L103.212 135.814C102.476 136.29 101.87 136.933 101.446 137.688C101.023 138.444 100.794 139.288 100.78 140.149C100.761 141.866 101.034 143.575 101.588 145.206C101.996 146.651 102.574 148.291 104.005 148.819C105.598 149.396 107.363 148.197 108.111 146.709C108.86 145.221 108.934 143.523 109.327 141.912C109.8 139.979 110.738 138.184 112.062 136.674C113.048 135.539 114.345 134.268 113.967 132.823Z" fill="#EB996E"/>
<path d="M81.5743 134.311C81.4537 133.942 81.428 133.551 81.4996 133.17C81.5712 132.79 81.7378 132.432 81.9847 132.13C82.2316 131.827 82.5512 131.588 82.9153 131.434C83.2794 131.28 83.6767 131.216 84.0723 131.248C91.9888 131.883 110.794 134.448 121.95 137.577C137.768 142.013 148.183 144.881 148.183 144.881L181.776 144.158C181.776 144.158 177.744 155.444 164.943 155.502C155.254 155.545 145.092 149.476 145.092 149.476C145.092 149.476 102.04 135.185 83.9611 135.958C83.4331 135.981 82.9123 135.832 82.4803 135.536C82.0483 135.239 81.7297 134.811 81.5743 134.318V134.311Z" fill="#455A64"/>
<path d="M175.499 144.253C175.914 145.401 174.543 146.42 173.32 146.637C172.097 146.854 170.696 146.796 169.813 147.648C169.501 148.015 169.272 148.442 169.145 148.902C169.017 149.363 168.992 149.844 169.072 150.314C169.247 151.251 169.363 152.196 169.421 153.146C169.44 153.792 169.21 154.421 168.776 154.909C167.894 155.783 166.27 155.487 165.418 154.591C164.637 153.617 164.212 152.417 164.21 151.181C164.199 150.306 164.066 149.436 163.817 148.595C163.685 148.174 163.44 147.796 163.108 147.498C162.776 147.201 162.368 146.996 161.927 146.904C160.867 146.774 159.933 147.554 158.917 147.901C158.385 148.048 157.826 148.081 157.28 147.997C156.733 147.914 156.212 147.716 155.751 147.417C155.291 147.119 154.902 146.726 154.611 146.267C154.321 145.808 154.136 145.294 154.069 144.758L175.499 144.253Z" fill="#EF5E9C"/>
<path d="M93.6788 132.512C93.1519 132.798 92.6073 133.051 92.048 133.271C89.3366 134.344 86.4012 134.77 83.4866 134.513C82.8859 134.465 82.2891 134.378 81.7002 134.253C81.7002 134.253 81.8707 134.253 82.1746 134.318C82.4785 134.383 82.9158 134.412 83.4866 134.455C84.9354 134.569 86.3928 134.521 87.8303 134.311C89.266 134.1 90.6731 133.734 92.0258 133.22C92.5447 133.018 92.9598 132.844 93.2414 132.707L93.6788 132.512Z" fill="#263238"/>
<path d="M108.416 134.585H108.275L107.874 134.542C107.526 134.499 107.022 134.455 106.392 134.419C104.762 134.324 103.126 134.407 101.515 134.665C99.9046 134.932 98.3289 135.368 96.815 135.965C96.2369 136.204 95.7699 136.406 95.4585 136.558L95.0953 136.724L94.9619 136.775C94.9619 136.775 94.999 136.775 95.0805 136.695L95.4289 136.5C95.7402 136.334 96.1701 136.117 96.778 135.871C98.2879 135.238 99.8708 134.784 101.492 134.52C103.114 134.261 104.761 134.19 106.399 134.311C107.029 134.361 107.533 134.427 107.882 134.484L108.282 134.557L108.416 134.585Z" fill="#263238"/>
<path d="M119.43 140.026L117.881 139.578L116.073 139.043C115.681 138.957 115.324 138.758 115.05 138.472C114.981 138.387 114.935 138.286 114.916 138.179C114.896 138.072 114.904 137.962 114.939 137.858C114.979 137.751 115.045 137.654 115.131 137.576C115.218 137.498 115.322 137.441 115.435 137.41C115.918 137.267 116.434 137.267 116.918 137.41C117.414 137.504 117.933 137.613 118.459 137.757C119.581 138.065 120.67 138.474 121.714 138.978C122.262 139.246 122.818 139.542 123.359 139.874C123.647 140.024 123.899 140.231 124.1 140.481C124.152 140.551 124.184 140.633 124.195 140.719C124.205 140.805 124.193 140.892 124.16 140.972C124.081 141.125 123.95 141.245 123.789 141.312C122.489 141.8 121.082 141.952 119.705 141.753C116.851 141.399 114.442 140.062 112.292 138.964C110.42 137.883 108.387 137.091 106.266 136.616C104.829 136.321 103.34 136.375 101.93 136.775C101.549 136.892 101.179 137.042 100.825 137.223C100.588 137.353 100.462 137.41 100.462 137.41L100.766 137.201C101.116 137.014 101.483 136.859 101.863 136.739C103.28 136.325 104.781 136.263 106.229 136.558C108.357 137.027 110.397 137.814 112.277 138.892C114.434 139.99 116.844 141.319 119.69 141.673C121.052 141.868 122.443 141.719 123.73 141.24C123.878 141.184 124 141.075 124.071 140.936C124.097 140.866 124.106 140.791 124.097 140.717C124.088 140.643 124.061 140.572 124.019 140.51C123.815 140.269 123.563 140.073 123.278 139.932C122.749 139.604 122.202 139.305 121.639 139.036C120.599 138.531 119.512 138.123 118.393 137.815C117.874 137.671 117.355 137.555 116.858 137.454C116.396 137.324 115.905 137.324 115.443 137.454C115.338 137.486 115.241 137.54 115.161 137.612C115.08 137.685 115.017 137.774 114.976 137.873C114.942 137.968 114.934 138.07 114.95 138.17C114.967 138.269 115.009 138.363 115.072 138.444C115.34 138.725 115.689 138.921 116.073 139.007L117.881 139.549L119.43 140.026Z" fill="#263238"/>
<path d="M127.242 139.368C127.376 139.591 127.467 139.836 127.509 140.091C127.63 140.681 127.555 141.294 127.294 141.839C127.02 142.378 126.579 142.82 126.034 143.104C125.804 143.225 125.553 143.303 125.293 143.335C125.528 143.259 125.756 143.165 125.975 143.053C126.512 142.776 126.944 142.339 127.209 141.807C127.474 141.274 127.558 140.673 127.45 140.091C127.401 139.845 127.331 139.603 127.242 139.368Z" fill="#263238"/>
<path d="M140.882 142.844C140.882 142.844 140.141 142.844 138.984 142.771C137.828 142.699 136.197 142.533 134.403 142.511C132.886 142.458 131.373 142.703 129.956 143.234C129.7 143.324 129.452 143.435 129.215 143.566C129.036 143.649 128.867 143.751 128.711 143.87L128.288 144.144L128.688 143.848C128.843 143.723 129.012 143.616 129.192 143.53C129.429 143.394 129.677 143.278 129.934 143.183C131.368 142.64 132.903 142.393 134.44 142.461C136.242 142.461 137.85 142.67 139.021 142.75C139.607 142.793 140.081 142.829 140.407 142.844H140.882Z" fill="#263238"/>
<path d="M155.107 153.746C155.107 153.746 154.84 153.522 154.365 153.103C154.128 152.893 153.832 152.64 153.476 152.38C153.12 152.12 152.735 151.773 152.26 151.448C151.189 150.658 150.067 149.934 148.902 149.281C146.051 147.694 142.966 146.544 139.755 145.871C138.448 145.589 137.123 145.391 135.79 145.278C135.219 145.206 134.7 145.199 134.248 145.177C133.796 145.155 133.403 145.177 133.084 145.177C133.403 145.177 133.825 145.177 134.248 145.177C134.67 145.177 135.219 145.177 135.79 145.264C137.128 145.374 138.457 145.567 139.77 145.842C141.376 146.18 142.956 146.624 144.499 147.171C146.029 147.757 147.515 148.445 148.947 149.23C150.113 149.882 151.234 150.606 152.305 151.398C152.772 151.716 153.157 152.055 153.513 152.337C153.869 152.619 154.158 152.864 154.388 153.059C154.877 153.507 155.107 153.746 155.107 153.746Z" fill="#263238"/>
<path d="M164.825 153.992C164.589 154.116 164.341 154.215 164.084 154.288C163.395 154.492 162.675 154.577 161.956 154.541C160.889 154.475 159.845 154.21 158.88 153.76C157.71 153.195 156.631 152.464 155.678 151.593C154.648 150.683 153.751 149.743 152.92 148.905C152.194 148.141 151.424 147.418 150.615 146.738C150.07 146.286 149.49 145.875 148.881 145.51C148.666 145.387 148.495 145.286 148.377 145.228L148.206 145.148C149.091 145.564 149.915 146.091 150.66 146.716C151.47 147.387 152.244 148.099 152.98 148.847C153.817 149.686 154.714 150.625 155.737 151.528C156.684 152.397 157.755 153.127 158.917 153.695C159.874 154.146 160.911 154.411 161.971 154.476C162.683 154.522 163.398 154.446 164.084 154.252C164.271 154.2 164.455 154.135 164.632 154.057L164.825 153.992Z" fill="#263238"/>
<path d="M177.552 150.516H177.3C177.129 150.516 176.892 150.516 176.595 150.516C175.821 150.518 175.049 150.595 174.29 150.748C173.524 150.909 172.779 151.151 172.066 151.47C171.8 151.586 171.577 151.694 171.436 151.774C171.361 151.817 171.282 151.854 171.199 151.882C171.468 151.707 171.751 151.552 172.044 151.42C173.452 150.757 175.003 150.432 176.566 150.473C176.895 150.466 177.224 150.481 177.552 150.516Z" fill="#263238"/>
<path d="M85.051 153.406L84.6952 146.651C84.6558 145.923 84.8614 145.203 85.2808 144.599L85.3252 144.534C86.5193 142.807 88.0756 141.347 89.8913 140.25L104.827 131.226C105.048 131.092 105.298 131.013 105.557 130.995C105.815 130.977 106.074 131.021 106.312 131.123C106.549 131.225 106.757 131.381 106.919 131.579C107.08 131.777 107.189 132.011 107.237 132.259C107.422 133.451 106.881 136.168 105.799 137.252C103.879 138.955 101.776 140.452 99.5276 141.717L114.508 138.884C114.857 139.817 114.851 140.841 114.49 141.769C114.13 142.697 113.439 143.468 112.544 143.942L118.704 142.67C118.704 142.67 120.72 145.466 117.962 147.309C115.205 149.151 110.305 150.748 110.305 150.748C110.305 150.748 117.948 153.89 117.77 156.397C117.592 158.904 117.488 166.939 117.488 166.939L96.9554 165.494L85.051 153.406Z" fill="#FFBE9D"/>
<path d="M100.069 141.276L99.9281 141.355L99.4981 141.565C99.1275 141.753 98.5864 142.013 97.9341 142.352C97.2818 142.692 96.5406 143.154 95.7104 143.682C94.8802 144.209 93.9536 144.751 93.0715 145.416C92.6398 145.738 92.294 146.157 92.0634 146.637C91.8655 147.093 91.7744 147.587 91.7966 148.082C91.8566 148.922 92.0209 149.751 92.2858 150.553C92.456 151.104 92.5726 151.67 92.6342 152.243C92.6597 152.452 92.6597 152.663 92.6342 152.872C92.6342 152.872 92.6342 152.648 92.5823 152.243C92.5035 151.679 92.3745 151.123 92.1969 150.582C91.9113 149.774 91.7344 148.934 91.6706 148.082C91.6439 147.57 91.735 147.059 91.9374 146.586C92.1791 146.087 92.537 145.649 92.9826 145.307C93.422 144.977 93.8798 144.671 94.3539 144.39L95.6511 143.573C96.4739 143.053 97.2299 142.598 97.8748 142.266C98.5197 141.933 99.0831 141.688 99.4685 141.543L99.9058 141.355L100.069 141.276Z" fill="#EB996E"/>
<path d="M101.463 156.441C101.463 156.441 101.396 156.368 101.277 156.217L100.766 155.574L99.9505 154.562C99.5791 154.119 99.2631 153.634 99.0091 153.117C98.7287 152.409 98.6685 151.636 98.8359 150.895C99.0033 150.153 99.3909 149.476 99.9505 148.948C100.635 148.367 101.414 147.9 102.256 147.569C103.101 147.178 103.99 146.803 104.909 146.434C108.061 145.206 111.299 144.199 114.598 143.421C115.858 143.111 116.888 142.894 117.6 142.75L118.415 142.591L118.704 142.54C118.612 142.572 118.518 142.598 118.422 142.62L117.607 142.807C116.903 142.974 115.88 143.205 114.642 143.53C111.365 144.341 108.146 145.359 105.006 146.579C104.094 146.947 103.205 147.301 102.36 147.706C101.53 148.032 100.762 148.489 100.084 149.057C99.5416 149.565 99.164 150.217 98.998 150.933C98.832 151.648 98.8848 152.395 99.15 153.081C99.394 153.595 99.6974 154.08 100.054 154.526C100.351 154.909 100.618 155.249 100.855 155.552C101.092 155.855 101.233 156.058 101.344 156.217C101.455 156.376 101.463 156.441 101.463 156.441Z" fill="#EB996E"/>
<path d="M117.355 147.467C117.248 147.545 117.134 147.612 117.014 147.67L116.058 148.161C115.25 148.573 114.123 149.122 112.841 149.664C111.747 150.126 110.629 150.528 109.49 150.87C109.053 151 108.697 151.094 108.445 151.152C108.319 151.192 108.19 151.221 108.06 151.239C108.176 151.177 108.301 151.131 108.43 151.102L109.453 150.769C110.32 150.48 111.499 150.047 112.781 149.526C114.064 149.006 115.19 148.45 116.013 148.082L116.984 147.634C117.102 147.566 117.226 147.511 117.355 147.467Z" fill="#EB996E"/>
<path d="M161.422 115.245C161.422 115.245 161.17 115.577 160.836 116.249C160.377 117.205 160.144 118.249 160.154 119.305C160.163 120.872 160.732 122.387 161.763 123.589C162.402 124.271 163.078 124.92 163.786 125.533C164.564 126.199 165.179 127.026 165.588 127.953C165.927 128.918 165.895 129.971 165.499 130.915C165.132 131.781 164.632 132.587 164.016 133.307C163.453 134.029 162.852 134.614 162.311 135.192C161.807 135.73 161.346 136.305 160.933 136.912C160.468 137.475 160.137 138.13 159.961 138.832C159.786 139.534 159.771 140.264 159.917 140.972C159.917 140.972 159.917 140.871 159.843 140.683C159.774 140.399 159.744 140.108 159.754 139.816C159.826 138.749 160.203 137.723 160.844 136.854C161.254 136.24 161.712 135.658 162.215 135.113C162.756 134.52 163.349 133.914 163.905 133.22C164.505 132.51 164.992 131.716 165.35 130.865C165.737 129.943 165.766 128.916 165.432 127.975C165.035 127.067 164.432 126.259 163.668 125.612C162.961 124.992 162.288 124.336 161.652 123.647C160.601 122.422 160.03 120.873 160.043 119.276C160.043 118.206 160.297 117.15 160.784 116.191C160.96 115.853 161.174 115.536 161.422 115.245Z" fill="#263238"/>
<path d="M168.219 114.898C168.219 114.898 167.967 115.237 167.633 115.909C167.177 116.863 166.947 117.905 166.959 118.958C166.96 120.529 167.529 122.048 168.567 123.25C169.145 123.914 169.872 124.521 170.583 125.193C171.365 125.853 171.981 126.678 172.385 127.606C172.722 128.574 172.693 129.627 172.303 130.576C171.933 131.44 171.433 132.246 170.821 132.967C170.25 133.69 169.649 134.268 169.116 134.853C168.611 135.39 168.148 135.962 167.73 136.565C167.101 137.415 166.717 138.412 166.618 139.455C166.608 139.841 166.643 140.226 166.722 140.604C166.688 140.509 166.661 140.413 166.64 140.315C166.574 140.033 166.546 139.744 166.558 139.455C166.63 138.387 167.005 137.359 167.641 136.486C168.056 135.875 168.517 135.296 169.019 134.752C169.553 134.159 170.146 133.552 170.709 132.859C171.307 132.148 171.792 131.354 172.147 130.503C172.534 129.582 172.566 128.556 172.236 127.613C171.836 126.71 171.233 125.905 170.472 125.258C169.731 124.586 169.042 123.979 168.449 123.293C167.397 122.065 166.827 120.514 166.84 118.915C166.844 117.847 167.098 116.795 167.581 115.837C167.761 115.504 167.974 115.189 168.219 114.898Z" fill="#263238"/>
<path d="M114.968 221.356C114.923 221.356 115.138 215.887 115.45 209.146C115.761 202.405 116.043 196.943 116.08 196.951C116.117 196.958 115.909 202.413 115.605 209.153C115.301 215.894 115.005 221.356 114.968 221.356Z" fill="#EB996E"/>
<path d="M102.077 169.807C100.662 168.481 99.3211 167.082 98.0596 165.616C99.4745 166.942 100.816 168.341 102.077 169.807Z" fill="#EB996E"/>
<path d="M188.611 274.235L182.577 323.552H266.805L252.773 288.475L272.083 284.01C272.083 284.01 270.786 280.477 269.54 280.398C268.295 280.318 188.611 274.235 188.611 274.235Z" fill="#455A64"/>
<path d="M145.367 179.958C145.367 179.958 178.034 159.338 186.625 156.528C191.91 154.801 207.78 154.526 207.78 154.526L178.034 204.074L161.126 212.094L145.367 179.958Z" fill="#EF5E9C"/>
<path d="M309.115 214.608C299.138 191.127 282.993 164.598 278.212 160.053C273.431 155.509 244.115 151.839 244.115 151.839L205.674 155.906L174.853 197.088L188.351 261.31L187.891 262.162C186.882 264.057 186.418 266.182 186.549 268.313C186.679 270.444 187.399 272.5 188.632 274.264L269.547 280.434L269.651 219.622L309.115 214.608Z" fill="#EF5E9C"/>
<path d="M258.482 249.028C258.366 249.212 258.235 249.386 258.089 249.548C257.807 249.873 257.429 250.379 256.866 250.993C255.325 252.709 253.652 254.307 251.862 255.776C245.937 260.66 238.909 264.108 231.354 265.836C223.799 267.564 215.931 267.523 208.395 265.717C206.121 265.177 203.891 264.471 201.724 263.607C200.983 263.311 200.375 263.022 199.975 262.885C199.769 262.802 199.571 262.703 199.382 262.589C199.597 262.649 199.807 262.724 200.012 262.813C200.42 262.964 200.998 263.232 201.776 263.499C210.062 266.635 219.057 267.555 227.83 266.166C236.603 264.776 244.836 261.127 251.677 255.595C253.475 254.153 255.17 252.591 256.747 250.921C257.325 250.343 257.718 249.851 258.022 249.541C258.162 249.359 258.316 249.187 258.482 249.028Z" fill="#263238"/>
<path d="M269.629 217.332C269.561 217.142 269.511 216.946 269.48 216.747L269.125 215.071C268.821 213.568 268.383 211.458 267.879 208.879C266.864 203.612 265.47 196.394 263.936 188.425C263.743 187.428 263.558 186.438 263.372 185.463C263.187 184.488 262.957 183.534 262.854 182.573C262.598 180.735 262.529 178.876 262.646 177.024C262.768 175.352 263.028 173.692 263.424 172.061C263.798 170.647 264.276 169.261 264.855 167.914C265.696 165.966 266.784 164.129 268.094 162.445C268.539 161.831 268.954 161.411 269.206 161.108C269.326 160.946 269.468 160.8 269.629 160.675C269.629 160.675 269.51 160.841 269.265 161.159C269.021 161.477 268.635 161.881 268.22 162.531C266.963 164.232 265.917 166.073 265.107 168.015C264.547 169.353 264.089 170.73 263.736 172.133C263.352 173.749 263.104 175.392 262.994 177.046C262.889 178.875 262.966 180.709 263.224 182.523C263.328 183.476 263.573 184.415 263.743 185.413C263.914 186.41 264.114 187.37 264.306 188.375C265.789 196.322 267.153 203.547 268.139 208.85C268.613 211.444 268.991 213.561 269.258 215.063L269.547 216.754C269.59 216.944 269.617 217.138 269.629 217.332Z" fill="#263238"/>
<path d="M178.826 215.952C178.702 215.609 178.611 215.256 178.551 214.897C178.403 214.139 178.203 213.156 177.958 212.007C177.476 209.551 176.832 206.141 176.142 202.376C175.453 198.612 174.852 195.195 174.437 192.724C174.245 191.532 174.082 190.557 173.963 189.791C173.892 189.433 173.85 189.071 173.837 188.707C173.961 189.05 174.053 189.403 174.111 189.762C174.259 190.484 174.46 191.496 174.704 192.652C175.186 195.115 175.831 198.526 176.52 202.29C177.21 206.054 177.81 209.464 178.225 211.942C178.418 213.127 178.581 214.11 178.7 214.876C178.771 215.231 178.813 215.59 178.826 215.952Z" fill="#263238"/>
<path d="M272.409 182.205C272.624 180.806 272.964 179.428 273.425 178.087C273.767 176.712 274.233 175.371 274.818 174.077C274.599 175.476 274.257 176.853 273.795 178.195C273.459 179.57 272.995 180.912 272.409 182.205Z" fill="#FAFAFA"/>
<path d="M276.745 196.698C275.606 196.199 274.523 195.586 273.514 194.87C272.434 194.247 271.421 193.521 270.489 192.702C272.708 193.819 274.804 195.153 276.745 196.683V196.698Z" fill="#FAFAFA"/>
<path d="M284.929 191.098C284.756 189.849 284.786 188.581 285.018 187.341C285.124 186.085 285.426 184.852 285.915 183.686C286.026 183.686 285.671 185.347 285.404 187.392C285.137 189.437 285.041 191.098 284.929 191.098Z" fill="#FAFAFA"/>
<path d="M286.567 205.115C286.06 204.02 285.625 202.896 285.263 201.748C284.772 200.644 284.348 199.512 283.995 198.359C284.702 199.359 285.249 200.458 285.618 201.618C286.109 202.732 286.428 203.91 286.567 205.115Z" fill="#FAFAFA"/>
<path d="M280.222 213.785C278.198 212.313 276.331 210.648 274.647 208.814C276.675 210.28 278.543 211.946 280.222 213.785Z" fill="#FAFAFA"/>
<path d="M299.651 203.67C299.732 203.749 298.569 205.006 297.427 206.755C296.286 208.503 295.53 210.042 295.426 209.999C295.756 208.755 296.324 207.583 297.101 206.545C297.763 205.442 298.627 204.468 299.651 203.67Z" fill="#FAFAFA"/>
<path d="M278.466 168.116C277.664 167.666 276.933 167.106 276.294 166.454C275.565 165.896 274.919 165.242 274.374 164.511C275.174 164.969 275.907 165.531 276.553 166.18C277.28 166.736 277.923 167.388 278.466 168.116Z" fill="#FAFAFA"/>
<path d="M254.568 168.68C252.785 169.991 250.855 171.101 248.815 171.989C249.664 171.281 250.594 170.673 251.588 170.175C252.519 169.567 253.519 169.065 254.568 168.68Z" fill="#FAFAFA"/>
<path d="M250.387 189.076C249.603 188.32 248.911 187.479 248.326 186.568C247.637 185.731 247.052 184.816 246.584 183.845C248.059 185.436 249.335 187.192 250.387 189.076Z" fill="#FAFAFA"/>
<path d="M259.437 195.722C258.586 197.941 257.212 199.933 255.426 201.538C255.345 201.459 256.368 200.252 257.465 198.649C258.562 197.045 259.333 195.665 259.437 195.722Z" fill="#FAFAFA"/>
<path d="M237.445 197.211C237.334 197.247 236.703 195.629 235.688 193.772C234.672 191.915 233.627 190.513 233.716 190.441C235.528 192.35 236.805 194.681 237.422 197.211H237.445Z" fill="#FAFAFA"/>
<path d="M242.032 211.082C242.443 209.902 242.974 208.764 243.619 207.687C244.142 206.549 244.786 205.466 245.538 204.457C245.128 205.639 244.599 206.779 243.959 207.86C243.431 208.995 242.785 210.075 242.032 211.082Z" fill="#FAFAFA"/>
<path d="M257.384 221.486C256.952 220.204 256.64 218.886 256.45 217.549C256.141 216.236 255.958 214.899 255.901 213.553C256.334 214.833 256.647 216.149 256.835 217.484C257.145 218.799 257.328 220.138 257.384 221.486Z" fill="#FAFAFA"/>
<path d="M229.505 213.864C228.556 213.12 227.661 212.311 226.829 211.444C225.905 210.666 225.034 209.831 224.22 208.944C225.284 209.546 226.253 210.295 227.096 211.169C228.025 211.953 228.836 212.86 229.505 213.864Z" fill="#FAFAFA"/>
<path d="M217.142 193.779C215.474 195.574 213.618 197.194 211.604 198.612C213.272 196.817 215.128 195.198 217.142 193.779Z" fill="#FAFAFA"/>
<path d="M212.279 187.927C211.457 187.039 210.731 186.071 210.115 185.037C209.395 184.06 208.779 183.014 208.276 181.916C209.823 183.787 211.165 185.812 212.279 187.956V187.927Z" fill="#FAFAFA"/>
<path d="M193.422 198.013C192.425 196.928 191.525 195.763 190.731 194.53C189.834 193.371 189.043 192.138 188.366 190.846C189.362 191.926 190.26 193.089 191.05 194.321C191.951 195.48 192.745 196.716 193.422 198.013Z" fill="#FAFAFA"/>
<path d="M199.004 210.071C199.004 210.179 196.573 210.216 193.586 210.367C190.598 210.519 188.182 210.707 188.167 210.599C188.674 210.441 189.2 210.344 189.731 210.31C190.709 210.187 192.066 210.064 193.563 209.992C195.061 209.919 196.425 209.912 197.41 209.934C197.945 209.912 198.481 209.959 199.004 210.071Z" fill="#FAFAFA"/>
<path d="M200.374 175.095C200.478 175.095 200.056 176.909 199.67 179.134C199.285 181.359 199.077 183.187 198.966 183.18C198.928 180.424 199.405 177.685 200.374 175.095Z" fill="#FAFAFA"/>
<path d="M192.865 164.497C193.701 163.203 194.643 161.978 195.682 160.834C196.621 159.608 197.663 158.461 198.795 157.402C197.96 158.695 197.018 159.92 195.978 161.065C195.039 162.29 193.998 163.438 192.865 164.497Z" fill="#FAFAFA"/>
<path d="M185.335 174.38C185.253 174.452 183.504 172.718 181.191 170.768C178.878 168.817 176.907 167.3 176.973 167.213C177.473 167.435 177.939 167.722 178.359 168.066C179.182 168.644 180.287 169.511 181.45 170.486C182.614 171.461 183.6 172.451 184.297 173.174C184.696 173.529 185.045 173.935 185.335 174.38Z" fill="#FAFAFA"/>
<path d="M172.801 177.819C172.853 177.92 170.651 179.069 168.212 180.875C165.774 182.681 164.039 184.43 163.95 184.35C164.243 183.895 164.6 183.482 165.01 183.122C165.933 182.202 166.924 181.35 167.975 180.572C169.03 179.794 170.142 179.093 171.303 178.477C171.768 178.189 172.272 177.968 172.801 177.819Z" fill="#FAFAFA"/>
<path d="M155.981 187.963C155.878 187.963 155.892 186.005 155.796 183.592C155.7 181.179 155.537 179.257 155.648 179.257C156.001 180.676 156.18 182.131 156.181 183.592C156.301 185.051 156.234 186.52 155.981 187.963Z" fill="#FAFAFA"/>
<path d="M168.382 198.656C165.996 196.993 163.763 195.129 161.711 193.085C162.937 193.867 164.091 194.751 165.158 195.73C166.323 196.606 167.402 197.585 168.382 198.656Z" fill="#FAFAFA"/>
<path d="M187.988 183.339C186.6 183.824 185.172 184.192 183.719 184.437C182.292 184.807 180.833 185.049 179.36 185.16C180.751 184.674 182.182 184.306 183.637 184.061C185.063 183.695 186.519 183.454 187.988 183.339Z" fill="#FAFAFA"/>
<path d="M226.436 188.295C225.772 187.885 225.182 187.373 224.687 186.778C224.095 186.267 223.594 185.664 223.204 184.994C223.867 185.408 224.457 185.923 224.953 186.518C225.544 187.028 226.044 187.628 226.436 188.295Z" fill="#FAFAFA"/>
<path d="M243.685 178.535C243.039 179.356 242.292 180.096 241.461 180.738C240.71 181.474 239.872 182.119 238.963 182.66C240.363 181.102 241.954 179.716 243.699 178.535H243.685Z" fill="#FAFAFA"/>
<path d="M258.437 182.515C258.333 182.515 258.763 180.854 259.178 178.809C259.593 176.764 259.726 175.081 259.838 175.088C259.945 176.357 259.85 177.634 259.556 178.874C259.376 180.137 258.999 181.365 258.437 182.515Z" fill="#FAFAFA"/>
<path d="M182.651 205.758C182.182 205.252 181.813 204.667 181.562 204.031C181.2 203.449 180.949 202.807 180.82 202.138C181.298 202.641 181.675 203.227 181.932 203.865C182.285 204.449 182.529 205.09 182.651 205.758Z" fill="#FAFAFA"/>
<path d="M209.21 206.769C208.736 206.025 208.369 205.22 208.12 204.378C207.75 203.577 207.5 202.727 207.379 201.856C207.854 202.6 208.218 203.405 208.461 204.248C208.836 205.048 209.088 205.898 209.21 206.769Z" fill="#FAFAFA"/>
<path d="M223.694 199.66C223.612 199.588 224.042 198.981 224.657 198.302C225.272 197.623 225.828 197.124 225.91 197.189C225.991 197.254 225.554 197.868 224.946 198.547C224.338 199.226 223.812 199.725 223.694 199.66Z" fill="#FAFAFA"/>
<path d="M193.933 244.909C193.187 243.908 192.625 242.789 192.272 241.6C191.804 240.45 191.553 239.226 191.531 237.988C191.642 237.988 191.983 239.577 192.658 241.478C193.332 243.378 194.037 244.852 193.933 244.909Z" fill="#FAFAFA"/>
<path d="M205.237 245.733C205.422 244.662 205.731 243.615 206.156 242.612C206.459 241.569 206.887 240.565 207.431 239.621C207.248 240.689 206.942 241.733 206.52 242.735C206.212 243.779 205.782 244.785 205.237 245.733Z" fill="#FAFAFA"/>
<path d="M201.939 258.254C201.226 257.339 200.62 256.35 200.13 255.306C199.521 254.316 199.024 253.265 198.647 252.17C199.356 253.089 199.96 254.08 200.449 255.125C201.056 256.115 201.555 257.163 201.939 258.254Z" fill="#FAFAFA"/>
<path d="M222.879 254.656C221.598 254.464 220.351 254.1 219.173 253.572C217.954 253.161 216.803 252.579 215.756 251.845C216.97 252.239 218.161 252.7 219.321 253.225C220.536 253.631 221.724 254.108 222.879 254.656Z" fill="#FAFAFA"/>
<path d="M216.103 247.229C216.051 247.135 217.363 246.304 218.846 245.119C220.328 243.934 221.44 242.857 221.522 242.951C220.114 244.803 218.25 246.278 216.103 247.243V247.229Z" fill="#FAFAFA"/>
<path d="M233.552 252.51C233.486 252.597 232.136 251.787 230.365 250.949C228.593 250.111 227.081 249.642 227.111 249.54C229.492 249.949 231.717 250.975 233.552 252.51Z" fill="#FAFAFA"/>
<path d="M237.273 259.301C237.199 259.222 238.215 258.21 239.334 256.845C240.453 255.479 241.239 254.294 241.335 254.352C240.946 255.358 240.368 256.284 239.631 257.083C238.995 257.96 238.195 258.713 237.273 259.301Z" fill="#FAFAFA"/>
<path d="M199.211 272.422C197.978 271.848 196.804 271.161 195.705 270.37C194.53 269.687 193.425 268.896 192.406 268.007C193.639 268.581 194.813 269.268 195.912 270.059C197.087 270.742 198.192 271.533 199.211 272.422Z" fill="#FAFAFA"/>
<path d="M213.391 269.011C213.435 269.113 211.908 269.77 210.181 270.868C208.454 271.966 207.216 273.036 207.135 272.978C208.781 271.091 210.954 269.713 213.391 269.011Z" fill="#FAFAFA"/>
<path d="M226.073 274.473C225.447 273.865 224.911 273.174 224.479 272.422C223.944 271.736 223.517 270.976 223.212 270.167C224.379 271.467 225.343 272.928 226.073 274.502V274.473Z" fill="#FAFAFA"/>
<path d="M241.358 269.553C241.403 269.655 239.965 270.319 238.334 271.352C236.703 272.386 235.48 273.375 235.369 273.296C236.128 272.385 237.052 271.618 238.097 271.035C239.078 270.344 240.185 269.841 241.358 269.553Z" fill="#FAFAFA"/>
<path d="M248.422 263.087C248.318 263.138 247.881 262.365 247.051 261.736C246.221 261.108 245.398 260.79 245.428 260.688C246.124 260.679 246.795 260.939 247.295 261.411C247.884 261.802 248.289 262.405 248.422 263.087Z" fill="#FAFAFA"/>
<path d="M256.428 270.529C255.651 271.128 254.799 271.628 253.893 272.017C253.041 272.51 252.13 272.898 251.18 273.173C251.953 272.57 252.806 272.069 253.715 271.685C254.563 271.185 255.475 270.797 256.428 270.529Z" fill="#FAFAFA"/>
<path d="M263.641 274.474C263.53 274.474 263.937 272.819 264.204 270.782C264.471 268.744 264.501 267.061 264.619 267.061C264.823 268.309 264.81 269.581 264.582 270.825C264.483 272.084 264.165 273.318 263.641 274.474Z" fill="#FAFAFA"/>
<path d="M262.498 261.931C262.432 262.025 260.934 261.035 258.881 260.248C256.828 259.46 255.049 259.178 255.064 259.063C256.428 259.071 257.777 259.356 259.022 259.901C260.316 260.329 261.501 261.021 262.498 261.931Z" fill="#FAFAFA"/>
<path d="M246.429 224.109C244.207 223 242.108 221.67 240.165 220.142C242.384 221.256 244.483 222.585 246.429 224.109Z" fill="#FAFAFA"/>
<g opacity="0.3">
<path d="M208.832 265.876C208.595 265.425 208.522 264.909 208.626 264.413C208.73 263.917 209.004 263.47 209.402 263.145C210.225 262.519 211.216 262.139 212.256 262.054C217.564 261.245 223.249 262.646 228.223 260.674C231.558 259.345 234.153 256.635 236.11 253.702C238.067 250.769 239.616 247.561 241.55 244.599C243.285 241.933 245.501 239.39 248.526 238.248C251.55 237.106 255.486 237.836 257.124 240.56C258.762 243.284 257.665 246.629 256.131 249.316C251.795 256.903 243.982 262.271 235.465 264.828C226.948 267.386 217.779 267.321 208.987 265.804" fill="black"/>
</g>
<path d="M313.941 243.529L305.669 214.76L271.616 219.052L275.604 234.311L224.673 221.067L213.436 235.604L290.748 271.186C294.292 272.659 298.212 273.042 301.986 272.286C305.759 271.529 309.206 269.669 311.866 266.952C316.61 262.068 316.039 249.952 313.941 243.529Z" fill="#FFBE9D"/>
<path d="M173.186 215.952C172.044 215.656 170.665 215.417 169.82 216.212C169.487 216.595 169.29 217.074 169.261 217.576C169.231 218.078 169.371 218.576 169.657 218.994C170.184 219.854 170.584 219.976 171.977 220.439L185.535 223.437L190.724 219.478L173.186 215.952Z" fill="#EB996E"/>
<path d="M215.503 236.297C198.936 232.345 183.563 227.122 167.196 224.087C166.381 223.935 165.461 223.726 165.031 223.025C164.446 222.071 165.202 220.778 166.247 220.345C167.339 220.016 168.501 219.978 169.612 220.236C178.37 221.423 187.272 221.13 195.927 219.369C201.538 218.221 207.045 216.479 212.709 215.757C218.372 215.034 219.899 217.924 224.672 221.031" fill="#FFBE9D"/>
<path d="M224.673 221.067C223.294 218.711 221.29 216.76 218.87 215.42C216.45 214.08 213.705 213.4 210.922 213.452C207.535 213.561 204.296 214.76 201.027 215.62C197.758 216.479 194.185 217.014 191.027 215.8C189.819 215.338 188.692 214.623 187.403 214.449C186.113 214.276 184.571 214.89 184.341 216.133C184.163 217.072 184.786 217.968 185.461 218.668C187.833 221.11 195.386 223.827 201.338 223.538" fill="#FFBE9D"/>
<path d="M201.338 223.545C201.338 223.488 200.426 223.545 198.81 223.386C196.538 223.153 194.3 222.668 192.139 221.941C190.638 221.456 189.191 220.827 187.818 220.063C187.06 219.655 186.362 219.15 185.742 218.56C185.412 218.286 185.142 217.949 184.948 217.57C184.755 217.192 184.641 216.779 184.616 216.357C184.695 215.935 184.914 215.55 185.24 215.262C185.565 214.974 185.979 214.797 186.417 214.76C187.392 214.65 188.379 214.845 189.233 215.316C190.2 215.805 191.216 216.195 192.265 216.479C193.362 216.734 194.489 216.841 195.616 216.797C200.204 216.646 204.155 214.789 207.906 214.088C209.668 213.699 211.485 213.606 213.28 213.813C214.839 214.016 216.359 214.447 217.786 215.092C219.866 216.033 221.711 217.401 223.198 219.102C224.235 220.316 224.68 221.103 224.68 221.074C224.612 220.87 224.515 220.675 224.391 220.496C224.089 219.955 223.737 219.442 223.338 218.965C221.895 217.167 220.046 215.719 217.935 214.731C216.475 214.04 214.915 213.575 213.309 213.351C211.464 213.115 209.591 213.191 207.772 213.575C203.932 214.297 199.989 216.089 195.571 216.234C194.495 216.272 193.418 216.17 192.369 215.93C191.356 215.655 190.375 215.28 189.441 214.81C188.477 214.299 187.372 214.097 186.283 214.232C185.738 214.323 185.226 214.552 184.801 214.897C184.585 215.078 184.408 215.299 184.281 215.547C184.154 215.795 184.078 216.065 184.06 216.342C184.081 216.838 184.208 217.324 184.431 217.771C184.654 218.217 184.969 218.614 185.357 218.936C186.02 219.554 186.768 220.08 187.581 220.496C188.994 221.262 190.484 221.884 192.028 222.353C194.238 223.057 196.528 223.491 198.847 223.646C199.477 223.684 200.108 223.684 200.738 223.646C200.941 223.636 201.143 223.602 201.338 223.545Z" fill="#EB996E"/>
<path d="M290.77 238.898C290.77 238.898 290.711 238.898 290.6 238.848L290.118 238.681L288.369 238.06C286.886 237.54 284.826 236.854 282.535 236.153C280.245 235.452 278.147 234.874 276.605 234.484L274.804 234.029L274.307 233.906C274.196 233.906 274.137 233.855 274.144 233.848H274.315L274.819 233.942C275.249 234.029 275.871 234.166 276.635 234.347C278.169 234.722 280.267 235.279 282.565 235.979C284.863 236.68 286.916 237.388 288.391 237.93C289.132 238.205 289.718 238.436 290.125 238.602L290.592 238.797L290.77 238.898Z" fill="#EB996E"/>
<path d="M226.777 179.56C231.445 179.365 235.855 177.42 239.087 174.131C242.319 170.842 244.123 166.464 244.122 161.91V140.958L245.308 74.0122L243.774 70.2408L207.601 59.1145C196.482 58.2692 189.01 73.1741 188.617 84.0403C188.18 96.1203 188.136 110.881 189.855 119.832C193.309 137.837 207.601 139.758 207.601 139.758L207.882 162.156C207.916 164.518 208.435 166.85 209.41 169.013C210.384 171.176 211.794 173.127 213.556 174.75C215.318 176.373 217.395 177.635 219.666 178.461C221.937 179.287 224.355 179.661 226.777 179.56Z" fill="#FFBE9D"/>
<path d="M193.422 95.7808C193.433 96.3866 193.687 96.964 194.129 97.3904C194.57 97.8167 195.165 98.0584 195.786 98.0639C196.09 98.0775 196.394 98.0319 196.68 97.9298C196.965 97.8278 197.227 97.6713 197.45 97.4695C197.673 97.2677 197.852 97.0247 197.978 96.7546C198.103 96.4846 198.172 96.1928 198.181 95.8964C198.167 95.292 197.913 94.7164 197.471 94.2916C197.03 93.8667 196.436 93.6261 195.816 93.6206C195.512 93.6051 195.209 93.649 194.923 93.7499C194.637 93.8508 194.374 94.0065 194.151 94.2079C193.928 94.4093 193.748 94.6522 193.623 94.9224C193.498 95.1926 193.429 95.4845 193.422 95.7808Z" fill="#263238"/>
<path d="M192.109 91.5108C192.413 91.8071 194.185 90.456 196.742 90.391C199.3 90.326 201.19 91.5253 201.486 91.2146C201.62 91.0774 201.301 90.5355 200.463 89.9792C199.336 89.2589 198.007 88.8979 196.661 88.946C195.318 88.9704 194.019 89.4135 192.954 90.2104C192.213 90.8245 191.939 91.3808 192.109 91.5108Z" fill="#263238"/>
<path d="M218.246 95.7808C218.258 96.3853 218.51 96.9617 218.95 97.3879C219.39 97.814 219.983 98.0565 220.603 98.0639C220.908 98.0795 221.212 98.0353 221.499 97.9339C221.785 97.8326 222.048 97.6763 222.271 97.4741C222.494 97.2719 222.674 97.0281 222.799 96.7571C222.923 96.4861 222.991 96.1934 222.998 95.8964C222.988 95.2921 222.736 94.7154 222.295 94.29C221.854 93.8646 221.26 93.6243 220.64 93.6206C220.337 93.6051 220.033 93.649 219.747 93.7499C219.461 93.8508 219.198 94.0065 218.975 94.2079C218.752 94.4093 218.572 94.6522 218.447 94.9224C218.322 95.1926 218.254 95.4845 218.246 95.7808Z" fill="#263238"/>
<path d="M217.296 91.3014C217.6 91.5903 219.372 90.2465 221.929 90.1815C224.486 90.1165 226.377 91.3158 226.673 91.0051C226.799 90.8679 226.488 90.326 225.65 89.7697C224.523 89.0503 223.194 88.6894 221.848 88.7365C220.505 88.7609 219.206 89.204 218.141 90.0009C217.4 90.615 217.141 91.1641 217.296 91.3014Z" fill="#263238"/>
<path d="M208.529 110.057C208.529 109.92 206.935 109.689 204.348 109.436C203.696 109.392 203.073 109.284 202.947 108.851C202.872 108.194 203.007 107.53 203.333 106.95C203.904 105.39 204.497 103.757 205.127 102.045C207.617 95.0583 209.404 89.3289 209.115 89.2278C208.826 89.1266 206.565 94.7187 204.082 101.698L202.362 106.633C202.139 107.355 201.732 108.193 202.095 109.14C202.195 109.363 202.347 109.56 202.539 109.717C202.73 109.874 202.956 109.985 203.199 110.043C203.563 110.132 203.937 110.173 204.311 110.165C206.913 110.23 208.522 110.202 208.529 110.057Z" fill="#263238"/>
<path d="M207.594 139.643C216.335 139.537 224.875 137.068 232.263 132.512C232.263 132.512 226.585 145.098 207.964 143.906L207.594 139.643Z" fill="#EB996E"/>
<path d="M216.355 81.5694C216.63 82.2414 219.179 81.8512 222.189 82.1258C225.198 82.4003 227.659 83.13 228.045 82.5087C228.208 82.2125 227.77 81.5839 226.77 80.9553C225.441 80.1846 223.949 79.7189 222.408 79.5937C220.867 79.4686 219.316 79.6871 217.875 80.2328C216.778 80.6663 216.244 81.2154 216.355 81.5694Z" fill="#263238"/>
<path d="M192.851 84.2571C193.318 84.8134 195.075 84.1777 197.187 84.091C199.3 84.0043 201.116 84.3727 201.509 83.7658C201.679 83.4696 201.383 82.9133 200.582 82.4003C199.519 81.7637 198.276 81.4705 197.031 81.5623C195.786 81.6185 194.59 82.0502 193.607 82.7977C192.873 83.3974 192.68 83.9898 192.851 84.2571Z" fill="#263238"/>
<path d="M201.219 60.3501C202.079 66.011 204.38 71.3717 207.913 75.9428C211.445 80.5139 216.096 84.1498 221.44 86.5186C221.119 85.0736 220.803 83.6286 220.492 82.1836C225.072 89.5675 234.798 95.7519 241.054 98.2517C242.988 99.0248 245.464 98.3312 247.221 97.233C249.682 95.7014 249.83 92.2623 249.311 89.4591C247.703 80.6881 242.366 72.8419 235.413 67.062C228.46 61.2821 219.98 57.424 211.211 54.8375C208.891 54.1511 207.623 53.6815 205.326 54.4401C203.028 55.1987 200.018 57.7491 201.13 59.8443" fill="#263238"/>
<path d="M238.118 84.9652C243.426 103.497 236.406 124.095 238.215 143.255C238.615 147.525 240.209 152.467 243.9 154.815C245.723 155.971 246.124 155.241 248.221 155.646C253.581 156.658 258.643 154.468 263.995 155.48C268.828 156.397 276.515 159.092 279.561 155.314C282.608 151.535 279.094 147.092 276.115 143.393C273.135 139.694 269.132 136.529 267.664 132.042C266.078 127.223 267.79 122.05 268.532 117.036C271.067 99.9206 264.825 82.5809 254.448 68.543C250.831 63.6518 245.375 59.0206 240.468 55.3432C235.561 51.6657 224.464 48.5663 218.282 48.8408C212.1 49.1153 201.804 53.8982 199.284 60.6535" fill="#263238"/>
<path d="M217.594 74.3879C217.557 74.4529 217.965 74.7202 218.751 75.1609L220.152 75.9557L218.958 74.843C216.054 72.2072 213.572 69.1603 211.598 65.8047C207.891 59.5841 207.328 53.6236 207.032 53.6958C206.935 53.6958 206.935 55.1842 207.424 57.5323C208.086 60.5767 209.232 63.5019 210.819 66.2021C212.792 69.6661 215.477 72.6962 218.706 75.1031L218.921 74.7852C218.084 74.4818 217.624 74.3445 217.594 74.3879Z" fill="#455A64"/>
<path d="M251.239 151.492C251.274 151.095 251.274 150.696 251.239 150.3C251.239 149.519 251.239 148.371 251.276 146.89C251.522 142.72 252.152 138.58 253.159 134.521C254.3 129.348 256.19 123.286 257.324 116.307C257.913 112.649 258.094 108.941 257.865 105.245C257.666 101.232 256.635 97.2997 254.834 93.6856C252.959 90.0991 250.213 87.0137 246.836 84.6979C243.648 82.3931 240.32 80.6158 237.281 78.7662C231.87 75.522 226.891 71.6394 222.456 67.2065C219.482 64.2054 216.756 60.9803 214.302 57.5612C213.435 56.3475 212.775 55.3938 212.338 54.7363C212.127 54.3888 211.879 54.0642 211.597 53.7682C211.752 54.1378 211.94 54.4932 212.16 54.8302C212.538 55.5527 213.161 56.5064 213.984 57.7202C216.351 61.236 219.032 64.541 221.996 67.5966C226.399 72.1424 231.381 76.1196 236.821 79.4309C239.875 81.3094 243.181 83.1012 246.287 85.3625C249.544 87.6002 252.195 90.5754 254.011 94.0324C255.755 97.5354 256.763 101.343 256.976 105.231C257.208 108.867 257.046 112.516 256.494 116.119C255.419 123.011 253.588 129.124 252.521 134.318C251.561 138.42 251.022 142.604 250.913 146.81C250.894 147.953 250.938 149.096 251.046 150.235C251.059 150.66 251.124 151.082 251.239 151.492Z" fill="#455A64"/>
<path d="M188.604 68.962C187.944 73.6354 187.558 78.3416 187.447 83.0578C191.198 80.11 194.986 77.0972 197.825 73.2897C200.664 69.4822 202.435 64.721 201.694 60.0754C198.978 60.8541 196.52 62.3165 194.568 64.3154C192.616 66.3143 191.239 68.7792 190.575 71.4618" fill="#263238"/>
<path d="M207.72 118.525C208.357 117.311 208.528 117 209.61 116.422C210.431 116.22 211.277 116.138 212.123 116.177C212.946 116.22 213.494 117.015 213.798 117.759C214.295 118.835 214.366 120.052 213.998 121.176C213.568 122.267 209.684 123.575 207.594 120.707" fill="#EB996E"/>
<path d="M210.915 122.607C211.127 122.593 211.34 122.593 211.553 122.607C212.115 122.581 212.657 122.392 213.109 122.065C213.725 121.52 214.121 120.78 214.229 119.977C214.315 119.499 214.277 119.008 214.118 118.548C213.959 118.089 213.683 117.676 213.317 117.347C212.515 116.734 211.519 116.414 210.5 116.444C210.091 116.459 209.689 116.559 209.322 116.737C208.956 116.916 208.632 117.168 208.373 117.477C208.027 117.914 207.8 118.428 207.713 118.973C207.697 119.181 207.657 119.387 207.594 119.587C207.534 119.38 207.521 119.163 207.557 118.951C207.598 118.363 207.806 117.798 208.158 117.318C208.411 116.989 208.729 116.712 209.092 116.502C209.516 116.26 209.994 116.121 210.485 116.097C211.017 116.077 211.548 116.143 212.057 116.292C212.604 116.439 213.11 116.703 213.539 117.065C213.99 117.445 214.313 117.949 214.466 118.51C214.618 119.015 214.646 119.547 214.547 120.064C214.455 120.52 214.292 120.961 214.066 121.371C213.83 121.823 213.464 122.197 213.011 122.446C212.559 122.696 212.041 122.809 211.523 122.773C211.31 122.766 211.101 122.709 210.915 122.607Z" fill="#263238"/>
<path d="M219.729 104.176C219.795 104.256 219.551 104.53 219.121 104.581C218.691 104.631 218.38 104.407 218.439 104.321C218.498 104.234 218.765 104.241 219.076 104.205C219.388 104.169 219.662 104.089 219.729 104.176Z" fill="#EB996E"/>
<path d="M223.813 103.966C223.709 103.966 223.568 103.771 223.509 103.49C223.45 103.208 223.472 102.955 223.576 102.933C223.679 102.912 223.82 103.121 223.887 103.41C223.954 103.699 223.946 103.966 223.813 103.966Z" fill="#EB996E"/>
<path d="M228.772 102.363C228.772 102.464 228.491 102.493 228.202 102.435C227.913 102.377 227.69 102.233 227.712 102.131C227.735 102.03 227.994 102.001 228.283 102.066C228.572 102.131 228.795 102.261 228.772 102.363Z" fill="#EB996E"/>
<path d="M221.848 108.193C221.744 108.193 221.655 107.962 221.655 107.68C221.655 107.398 221.744 107.167 221.848 107.167C221.952 107.167 222.041 107.391 222.041 107.68C222.041 107.969 221.952 108.193 221.848 108.193Z" fill="#EB996E"/>
<path d="M226.304 106.25C226.2 106.25 226.111 106.199 226.111 106.134C226.111 106.069 226.2 106.018 226.304 106.018C226.408 106.018 226.497 106.069 226.497 106.134C226.497 106.199 226.415 106.25 226.304 106.25Z" fill="#EB996E"/>
<path d="M194.4 104.877C194.4 104.978 194.029 105.05 193.658 104.877C193.288 104.703 193.058 104.378 193.139 104.313C193.221 104.248 193.488 104.393 193.814 104.537C194.14 104.682 194.407 104.768 194.4 104.877Z" fill="#EB996E"/>
<path d="M197.714 104.198C197.659 104.178 197.615 104.138 197.59 104.087C197.565 104.036 197.562 103.977 197.581 103.923C197.618 103.8 197.722 103.714 197.825 103.743C197.88 103.762 197.925 103.802 197.95 103.853C197.975 103.905 197.978 103.964 197.959 104.017C197.955 104.045 197.946 104.071 197.932 104.096C197.917 104.12 197.898 104.141 197.875 104.158C197.853 104.174 197.827 104.187 197.799 104.193C197.771 104.2 197.742 104.202 197.714 104.198Z" fill="#EB996E"/>
<path d="M195.942 108.879C195.838 108.879 195.727 108.72 195.697 108.504C195.667 108.287 195.697 108.092 195.83 108.077C195.964 108.063 196.045 108.229 196.082 108.453C196.12 108.677 196.053 108.865 195.942 108.879Z" fill="#EB996E"/>
<path d="M191.583 108.648C191.494 108.591 191.531 108.395 191.657 108.2C191.783 108.005 191.969 107.904 192.057 107.962C192.146 108.02 192.109 108.222 191.983 108.41C191.857 108.598 191.672 108.706 191.583 108.648Z" fill="#EB996E"/>
<path d="M174.964 270.362V303.886C174.964 306.701 174.274 309.475 172.953 311.978C171.631 314.481 169.716 316.641 167.366 318.278C164.29 320.417 160.605 321.566 156.826 321.565H110.868C107.427 321.568 104.057 320.615 101.151 318.82L99.5643 317.823C96.9855 316.23 94.8604 314.03 93.3859 311.424C91.9114 308.819 91.1351 305.893 91.1289 302.918V270.362H174.964Z" fill="#263238"/>
<path d="M91.1295 278.433H67.832V282.378L81.2857 284.393C83.2538 284.661 85.1204 285.409 86.712 286.569C88.3035 287.728 89.5682 289.262 90.3882 291.026C90.8599 292.051 91.1121 293.16 91.1295 294.284C91.1295 294.284 95.8735 294.212 96.6814 288.685C96.6814 288.576 96.7185 288.468 96.7333 288.36C97.0007 286.362 96.6153 284.333 95.6319 282.562C94.6485 280.79 93.1172 279.365 91.2555 278.491L91.1295 278.433Z" fill="#455A64"/>
<path d="M174.965 278.462H198.277V282.421L184.823 284.437C182.849 284.702 180.976 285.452 179.38 286.616C177.784 287.779 176.517 289.319 175.699 291.091C175.227 292.116 174.975 293.225 174.957 294.349C174.957 294.349 170.221 294.277 169.405 288.757L169.361 288.425C169.094 286.427 169.479 284.398 170.462 282.627C171.446 280.855 172.977 279.43 174.839 278.555L174.965 278.462Z" fill="#455A64"/>
<path d="M174.965 278.462C174.857 278.54 174.743 278.61 174.624 278.671C174.286 278.848 173.959 279.046 173.646 279.264C172.453 280.076 171.459 281.134 170.733 282.363C169.598 284.26 169.181 286.484 169.554 288.649C169.708 289.972 170.246 291.225 171.103 292.261C172.088 293.362 173.478 294.04 174.973 294.147L174.795 294.313C174.813 292.977 175.151 291.664 175.78 290.477C176.418 289.206 177.307 288.072 178.397 287.139C179.543 286.154 180.868 285.387 182.303 284.877C183.789 284.405 185.322 284.088 186.877 283.931L198.27 282.233L198.114 282.406C198.114 281.055 198.114 279.74 198.114 278.462L198.292 278.635L181.503 278.57L176.707 278.519H175.425C175.277 278.536 175.128 278.536 174.98 278.519H175.417H176.685L181.466 278.469L198.292 278.404H198.47V278.577C198.47 279.856 198.47 281.171 198.47 282.522V282.681H198.314L186.921 284.393C185.392 284.549 183.884 284.862 182.422 285.325C181.039 285.811 179.761 286.546 178.657 287.493C177.618 288.347 176.77 289.4 176.167 290.587C175.564 291.774 175.218 293.069 175.15 294.392V294.573H174.98C174.191 294.519 173.421 294.311 172.716 293.962C172.011 293.614 171.384 293.131 170.873 292.543C169.986 291.462 169.435 290.156 169.287 288.779C168.926 286.555 169.38 284.278 170.569 282.349C171.324 281.107 172.361 280.051 173.601 279.264C173.926 279.055 174.265 278.869 174.617 278.707C174.724 278.615 174.841 278.532 174.965 278.462Z" fill="#263238"/>
<path d="M173.467 271.258C173.409 271.303 173.344 271.339 173.275 271.367L172.697 271.648L170.473 272.711L168.85 273.469C168.249 273.736 167.575 273.982 166.863 274.264C165.432 274.813 163.831 275.514 161.978 276.063L159.095 277.002C158.087 277.32 157.012 277.558 155.915 277.855C153.728 278.483 151.334 278.909 148.828 279.415C143.351 280.339 137.805 280.823 132.247 280.86C126.688 280.826 121.142 280.343 115.665 279.415C113.159 278.917 110.765 278.483 108.579 277.862C107.482 277.558 106.407 277.32 105.399 277.002L102.515 276.07C100.662 275.521 99.0609 274.82 97.6229 274.278C96.8817 273.989 96.2442 273.744 95.6438 273.484L94.0204 272.725L91.7967 271.663L91.2185 271.381L91.0332 271.273C91.1059 271.286 91.176 271.31 91.2408 271.345L91.8338 271.591C92.3749 271.836 93.1383 272.169 94.102 272.588L95.7401 273.31C96.3405 273.563 97.0151 273.794 97.7267 274.076C99.1647 274.596 100.766 275.283 102.626 275.81L105.51 276.72C106.51 277.031 107.585 277.262 108.675 277.551C110.862 278.165 113.248 278.577 115.754 279.068C121.21 279.981 126.733 280.464 132.269 280.513C137.805 280.465 143.328 279.981 148.784 279.068C151.289 278.577 153.676 278.158 155.863 277.544C156.952 277.255 158.027 277.024 159.028 276.713L161.911 275.803C163.765 275.275 165.373 274.589 166.804 274.062C167.545 273.787 168.19 273.549 168.798 273.303L170.428 272.58L172.667 271.583L173.26 271.331L173.467 271.258Z" fill="#455A64"/>
<path d="M173.519 274.033C173.519 274.033 173.459 274.076 173.326 274.141L172.748 274.43L170.524 275.492L168.901 276.215C168.3 276.475 167.626 276.72 166.922 277.009C165.484 277.559 163.882 278.259 162.029 278.808L159.146 279.74C158.138 280.058 157.07 280.297 155.973 280.6C153.75 281.229 151.385 281.655 148.88 282.161C143.405 283.085 137.861 283.568 132.305 283.606C126.747 283.569 121.201 283.085 115.723 282.161C113.211 281.655 110.816 281.229 108.63 280.6C107.533 280.304 106.458 280.066 105.45 279.748L102.566 278.816C100.713 278.267 99.1121 277.566 97.6815 277.017C96.9402 276.735 96.2953 276.489 95.6949 276.222L94.0938 275.507L91.8701 274.445L91.2919 274.163C91.1585 274.098 91.0918 274.062 91.0992 274.055L91.3067 274.127L91.8997 274.38L94.168 275.377L95.8061 276.099C96.4139 276.345 97.0811 276.583 97.8001 276.858C99.2307 277.385 100.839 278.064 102.692 278.599L105.576 279.502C106.576 279.813 107.651 280.044 108.748 280.333C110.928 280.947 113.322 281.366 115.82 281.857C121.279 282.77 126.804 283.253 132.342 283.302C137.878 283.257 143.401 282.773 148.857 281.857C151.355 281.366 153.742 280.954 155.929 280.34C157.018 280.051 158.093 279.82 159.101 279.509L161.977 278.599C163.838 278.064 165.439 277.385 166.877 276.858C167.618 276.583 168.263 276.345 168.864 276.092L170.502 275.369L172.77 274.372L173.363 274.127L173.519 274.033Z" fill="#455A64"/>
<path d="M157.708 322.606C163.823 321.681 166.966 318.43 168.745 312.65C169.398 310.867 169.447 308.927 168.886 307.115C168.233 305.353 166.499 303.871 164.572 303.944C162.244 304.038 160.584 306.183 159.635 308.279C158.686 310.374 157.982 312.693 156.151 314.102C154.32 315.511 150.888 315.092 150.495 312.845C150.491 312.25 150.427 311.657 150.303 311.075C149.784 309.716 147.575 309.789 146.596 310.894C145.618 311.999 145.588 313.589 145.633 315.041C145.677 316.493 145.729 318.054 144.892 319.26C143.654 321.059 141.067 321.262 138.843 321.276L125.708 321.399C125.708 321.399 127.932 322.461 133.817 322.461C141.808 322.439 157.708 322.606 157.708 322.606Z" fill="#EF5E9C"/>
<path d="M132.305 321.377C127.909 321.45 123.247 321.457 119.496 319.21C117.124 317.801 115.138 315.532 112.395 315.128C111.609 314.969 110.789 315.108 110.105 315.518C109.771 315.728 109.523 316.045 109.402 316.414C109.282 316.783 109.297 317.182 109.445 317.541C108.229 317.093 107.303 316.147 106.258 315.374C105.212 314.6 103.856 314.044 102.64 314.499C102.021 314.791 101.524 315.283 101.236 315.892C100.948 316.501 100.886 317.189 101.061 317.837C101.269 318.476 101.613 319.064 102.072 319.562C102.531 320.06 103.094 320.457 103.722 320.727C104.985 321.262 106.321 321.615 107.688 321.775L139.317 322.36C139.31 321.58 132.305 321.377 132.305 321.377Z" fill="#EF5E9C"/>
<path d="M107.622 323.552L107.689 321.854L157.708 322.606V323.552H107.622Z" fill="#455A64"/>
<path d="M154.513 303.886C153.922 302.92 153.587 301.825 153.541 300.7C153.494 299.576 153.737 298.458 154.246 297.449C154.699 296.574 155.625 295.707 156.581 296.004C157.538 296.3 157.73 297.449 157.708 298.373C157.656 300.389 156.166 304.464 154.513 303.871" fill="#EF5E9C"/>
<path d="M125.227 243.406C125.271 243.406 125.183 243.753 125.227 244.375C125.313 245.25 125.551 246.105 125.931 246.903C126.534 248.098 127.004 249.353 127.332 250.646C127.565 252.31 127.135 253.998 126.131 255.364C125.183 256.845 124.048 258.066 123.307 259.345C122.946 259.94 122.664 260.579 122.47 261.245C122.32 261.823 122.277 262.422 122.344 263.015C122.417 263.887 122.791 264.709 123.404 265.348C123.651 265.56 123.911 265.758 124.182 265.941C124.182 265.941 124.093 265.941 123.93 265.861C123.702 265.754 123.491 265.618 123.3 265.457C122.612 264.821 122.177 263.969 122.069 263.051C121.978 262.422 122.01 261.782 122.166 261.165C122.351 260.462 122.633 259.787 123.003 259.157C123.744 257.835 124.886 256.592 125.805 255.147C126.762 253.859 127.186 252.268 126.991 250.689C126.676 249.419 126.239 248.181 125.687 246.99C125.318 246.161 125.114 245.271 125.086 244.367C125.086 244.124 125.113 243.882 125.168 243.645C125.174 243.563 125.194 243.482 125.227 243.406Z" fill="#263238"/>
<path d="M133.025 242.756C133.069 242.756 132.973 243.103 133.025 243.724C133.114 244.599 133.352 245.454 133.729 246.253C134.331 247.449 134.803 248.704 135.137 249.996C135.364 251.661 134.932 253.348 133.929 254.713C132.98 256.195 131.853 257.416 131.105 258.694C130.744 259.29 130.465 259.928 130.274 260.594C130.119 261.174 130.073 261.776 130.141 262.372C130.218 263.241 130.591 264.06 131.201 264.698C131.449 264.91 131.708 265.108 131.979 265.291C131.979 265.291 131.89 265.291 131.735 265.211C131.502 265.109 131.287 264.972 131.097 264.807C130.412 264.17 129.979 263.318 129.874 262.401C129.784 261.772 129.814 261.133 129.963 260.515C130.147 259.816 130.429 259.145 130.801 258.521C131.542 257.199 132.676 255.956 133.603 254.518C134.558 253.227 134.978 251.633 134.781 250.053C134.472 248.782 134.035 247.542 133.477 246.354C133.108 245.525 132.904 244.635 132.876 243.732C132.876 243.489 132.903 243.246 132.958 243.009C132.98 242.836 133.01 242.749 133.025 242.756Z" fill="#263238"/>
<path d="M140.793 242.12C140.837 242.12 140.748 242.467 140.793 243.089C140.895 243.968 141.146 244.825 141.534 245.625C142.135 246.818 142.604 248.07 142.935 249.36C143.162 251.025 142.73 252.712 141.727 254.078C140.778 255.559 139.651 256.78 138.91 258.059C138.547 258.654 138.265 259.292 138.072 259.959C137.919 260.539 137.876 261.141 137.946 261.736C138.021 262.604 138.392 263.423 138.999 264.062C139.248 264.276 139.51 264.474 139.785 264.655C139.785 264.655 139.688 264.655 139.533 264.575C139.302 264.47 139.088 264.333 138.895 264.171C138.21 263.534 137.777 262.682 137.672 261.765C137.582 261.136 137.612 260.497 137.761 259.879C137.95 259.184 138.232 258.516 138.599 257.892C139.34 256.563 140.481 255.32 141.401 253.883C142.354 252.591 142.777 250.998 142.587 249.418C142.272 248.146 141.833 246.908 141.275 245.718C140.91 244.888 140.706 243.999 140.674 243.096C140.675 242.852 140.705 242.61 140.763 242.373C140.748 242.2 140.793 242.12 140.793 242.12Z" fill="#263238"/>
<path d="M32.5698 323.812C32.5698 323.812 22.5778 276.236 32.5698 249.801H43.6885C43.6885 249.801 52.1758 277.681 43.6885 323.812H32.5698Z" fill="#EF5E9C"/>
<g opacity="0.7">
<path d="M32.5698 323.812C32.5698 323.812 22.5778 276.236 32.5698 249.801H43.6885C43.6885 249.801 52.1758 277.681 43.6885 323.812H32.5698Z" fill="white"/>
</g>
<path d="M40.7607 225.106C42.5995 222.039 45.2228 219.489 48.3745 217.704C51.5263 215.92 55.0988 214.963 58.7433 214.926C57.0229 218.279 54.3454 221.075 51.0329 222.98C47.7204 224.885 43.914 225.816 40.0713 225.662" fill="#455A64"/>
<path d="M43.5111 205.274C40.9875 202.706 39.1907 199.544 38.2968 196.097C37.4029 192.65 37.4424 189.035 38.4114 185.608C41.2468 188.14 43.2705 191.417 44.2384 195.045C45.2064 198.673 45.0774 202.496 43.8669 206.054" fill="#455A64"/>
<path d="M33.5196 205.556C30.5345 204.381 27.9176 202.464 25.9302 199.996C23.9427 197.527 22.6542 194.594 22.1934 191.489C25.4194 192.524 28.2649 194.455 30.3798 197.046C32.4948 199.636 33.7871 202.772 34.0978 206.069" fill="#455A64"/>
<path d="M30.7845 184.43C30.2783 182.197 30.3822 179.873 31.0859 177.691C31.7896 175.509 33.0685 173.545 34.7947 171.996C35.4864 174.317 35.467 176.785 34.7387 179.095C34.0104 181.406 32.6051 183.459 30.6956 185.001" fill="#455A64"/>
<path d="M38.5001 243.674C38.7312 241.398 39.571 239.22 40.9354 237.359C42.2998 235.498 44.1412 234.018 46.2758 233.068C46.1948 235.481 45.3918 237.819 43.9655 239.793C42.5392 241.767 40.5519 243.292 38.248 244.18" fill="#455A64"/>
<path d="M26.4023 164.518C26.4023 164.518 28.4037 171.808 30.7386 183.78L31.6282 188.483C31.9321 190.116 32.1915 191.828 32.488 193.598C33.1032 197.124 33.6073 200.924 34.1706 204.912C35.1861 212.91 36.0682 221.725 36.6093 231.009C37.1504 240.293 37.2246 249.158 37.106 257.213C36.9948 261.245 36.9207 265.074 36.7057 268.65C36.6019 270.435 36.5426 272.169 36.424 273.823C36.3054 275.478 36.1794 277.074 36.0608 278.592C35.0824 290.744 33.9112 298.193 33.9112 298.193C33.9112 298.193 33.9112 298.077 33.9112 297.846L34.052 296.871C34.1558 295.96 34.2966 294.653 34.482 292.969C34.5783 292.124 34.6895 291.185 34.8007 290.151C34.9119 289.118 35.0082 287.984 35.1194 286.799C35.327 284.386 35.6235 281.648 35.8088 278.613C35.9126 277.086 36.0238 275.497 36.1424 273.845C36.2535 272.183 36.3054 270.456 36.3944 268.672C36.6019 265.096 36.6612 261.274 36.765 257.249C36.8614 249.201 36.765 240.343 36.2387 231.066C35.7124 221.79 34.8229 213.004 33.8297 204.992C33.2811 201.004 32.7919 197.211 32.1841 193.678C31.895 191.915 31.643 190.203 31.3465 188.563C31.05 186.923 30.7609 185.362 30.4866 183.859C29.9603 180.861 29.3599 178.166 28.8855 175.796C28.6335 174.611 28.4037 173.506 28.1962 172.494C27.9886 171.483 27.7514 170.558 27.5587 169.727L26.6988 165.898C26.6025 165.472 26.5358 165.176 26.4765 164.901C26.4172 164.627 26.4023 164.518 26.4023 164.518Z" fill="#263238"/>
<path d="M50.9761 181.858C50.9652 181.947 50.9428 182.035 50.9094 182.118C50.8501 182.299 50.776 182.544 50.6722 182.841L49.7383 185.658L49.0489 187.696C48.8191 188.418 48.5671 189.256 48.3076 190.131C47.7814 191.886 47.1291 193.866 46.5361 196.098C46.2321 197.211 45.906 198.374 45.5724 199.588C45.2389 200.802 44.9498 202.073 44.6162 203.388C43.9343 206.011 43.3487 208.843 42.7038 211.82C41.503 217.787 40.3985 224.391 39.5906 231.37C38.7826 238.349 38.4268 245.032 38.2637 251.116C38.2637 254.157 38.1674 257.047 38.2637 259.749C38.2637 261.1 38.2637 262.408 38.3453 263.665C38.4268 264.922 38.4564 266.122 38.5083 267.278C38.5825 269.582 38.7826 271.656 38.9012 273.477C38.9753 274.387 39.0346 275.24 39.0939 276.02C39.1532 276.8 39.2496 277.508 39.3089 278.187C39.4349 279.452 39.5313 280.441 39.598 281.135C39.598 281.46 39.6424 281.713 39.6647 281.908C39.6713 281.995 39.6713 282.082 39.6647 282.168C39.6396 282.083 39.6222 281.996 39.6128 281.908C39.6128 281.72 39.5535 281.467 39.5164 281.149C39.4275 280.427 39.3089 279.466 39.1532 278.202L38.9086 276.07C38.8345 275.29 38.7604 274.445 38.6788 273.534C38.538 271.707 38.323 269.633 38.2267 267.328C38.1674 266.179 38.1006 264.973 38.0413 263.716C37.982 262.459 37.9672 261.151 37.9302 259.8C37.8412 257.091 37.9302 254.193 37.9302 251.13C38.071 245.04 38.4564 238.342 39.2273 231.348C39.9982 224.355 41.1546 217.744 42.3777 211.769C43.0374 208.792 43.6304 205.989 44.3271 203.338C44.6681 202.023 44.9646 200.744 45.3056 199.53C45.6466 198.316 45.9801 197.16 46.2989 196.048C46.9067 193.822 47.5738 191.843 48.1223 190.094C48.404 189.22 48.6709 188.411 48.9081 187.66C49.1453 186.908 49.4121 186.215 49.6493 185.637C50.0866 184.437 50.3905 183.469 50.6574 182.833C50.776 182.53 50.8649 182.292 50.9317 182.111C50.9362 182.025 50.9512 181.94 50.9761 181.858Z" fill="#263238"/>
<path d="M49.3595 187.24C46.9282 185.246 46.78 181.533 47.9734 178.665C49.1668 175.796 51.4128 173.491 53.2881 170.992C55.1635 168.492 56.7572 165.501 56.3272 162.437C56.1461 161.729 56.0934 160.996 56.1716 160.27C56.3272 159.548 57.0611 158.876 57.7801 159.092C58.4991 159.309 58.677 160.017 58.8104 160.653C59.2259 162.632 59.3507 164.658 59.1811 166.671C59.6674 165.5 60.4205 164.451 61.3836 163.605C62.3467 162.759 63.4946 162.137 64.7404 161.787C65.0082 162.965 64.9666 164.19 64.6193 165.348C64.272 166.506 63.6304 167.56 62.7539 168.412C64.3624 167.762 66.0821 167.09 67.7944 167.415C69.5066 167.741 71.0336 169.503 70.3887 171.086C69.6475 172.877 67.1495 172.914 65.2 173.253C63.0187 173.641 61.049 174.77 59.6406 176.439C57.8765 178.534 57.1723 181.273 55.7417 183.599C54.3111 185.926 51.5758 187.934 48.937 187.11" fill="#EF5E9C"/>
<path d="M28.4937 172.545C31.1845 170.912 31.8664 167.249 31.0955 164.251C30.3246 161.253 28.4419 158.659 26.9445 155.928C25.4472 153.197 24.2983 150.018 25.1655 147.041C25.4525 146.352 25.6107 145.618 25.6325 144.874C25.5806 144.151 24.958 143.371 24.2093 143.487C23.4607 143.602 23.1864 144.281 22.964 144.932C22.2668 146.832 21.8525 148.82 21.7336 150.834C21.422 149.607 20.8275 148.464 19.9952 147.494C19.1629 146.524 18.1147 145.751 16.9303 145.235C16.4952 146.365 16.3602 147.585 16.5377 148.78C16.7153 149.974 17.1996 151.106 17.9458 152.07C16.4633 151.203 14.8325 150.307 13.098 150.394C11.3635 150.48 9.5919 152.019 9.99959 153.667C10.4592 155.545 12.9646 155.928 14.8251 156.556C16.9272 157.244 18.7142 158.63 19.873 160.472C21.311 162.784 21.6224 165.595 22.6972 168.095C23.772 170.594 26.1959 172.971 28.9311 172.502" fill="#EF5E9C"/>
<path d="M25.3145 208.315C25.4262 208.46 25.5184 208.618 25.5887 208.785L26.33 210.158C26.6413 210.757 27.0119 211.494 27.4048 212.368C27.7976 213.243 28.2869 214.218 28.7464 215.331C29.206 216.443 29.7323 217.65 30.2289 218.979C30.7256 220.309 31.237 221.725 31.7633 223.227C32.7566 226.247 33.7276 229.614 34.5504 233.183C35.3732 236.752 35.9291 240.213 36.3294 243.363C36.5073 244.938 36.6926 246.441 36.7816 247.85C36.8705 249.259 36.9669 250.566 37.0188 251.766C37.0707 252.965 37.0781 254.049 37.0929 255.002C37.1077 255.956 37.0929 256.773 37.0929 257.444C37.0929 258.116 37.0188 258.579 37.0188 258.991C37.0188 259.402 37.0188 259.525 36.9743 259.525C36.9537 259.345 36.9537 259.163 36.9743 258.983C36.9743 258.6 36.9743 258.087 36.9743 257.444C36.9743 256.801 36.9743 255.956 36.9298 255.002C36.8853 254.049 36.8853 252.972 36.7964 251.78C36.7074 250.588 36.6556 249.273 36.5147 247.871C36.3739 246.47 36.2182 244.982 36.0329 243.407C35.6104 240.271 35.0248 236.832 34.2317 233.292C33.4385 229.752 32.4453 226.377 31.4742 223.357C30.9628 221.855 30.4884 220.424 29.9917 219.109C29.4951 217.794 29.0133 216.566 28.5537 215.453C28.0941 214.341 27.6568 213.351 27.2788 212.477C26.9007 211.603 26.5375 210.851 26.2633 210.244L25.611 208.835C25.4954 208.672 25.3961 208.497 25.3145 208.315Z" fill="#263238"/>
<path d="M27.1514 215.273C28.4931 214.211 28.6339 212.188 27.9816 210.62C27.3293 209.052 26.1582 207.774 25.1575 206.394C24.1568 205.014 23.3192 203.374 23.5786 201.712C23.6826 201.323 23.7177 200.92 23.6824 200.52C23.6009 200.122 23.208 199.754 22.8151 199.862C22.4223 199.971 22.3185 200.361 22.237 200.708C21.9937 201.781 21.9088 202.883 21.9849 203.98C21.7335 203.339 21.336 202.763 20.8224 202.293C20.3087 201.824 19.6924 201.474 19.0199 201.271C18.8657 201.909 18.8785 202.574 19.0573 203.205C19.236 203.836 19.575 204.414 20.0429 204.884C19.2057 204.435 18.2532 204.231 17.3002 204.298C16.3737 204.457 15.5212 205.411 15.8177 206.271C16.2032 207.261 17.5671 207.297 18.6271 207.499C19.8104 207.735 20.872 208.366 21.6291 209.284C22.5705 210.44 22.9337 211.935 23.6898 213.214C24.4459 214.493 25.9136 215.62 27.3961 215.186" fill="#EF5E9C"/>
</svg>
