<svg width="335" height="333" viewBox="0 0 335 333" fill="none" xmlns="http://www.w3.org/2000/svg">
<path d="M334.786 130.163C333.617 96.38 309.189 62.7593 280.951 44.094C252.713 25.4288 211.389 24.6018 187.038 48.0899C165.041 69.3211 158.646 106.42 130.624 118.647C113.373 126.167 93.459 121.391 74.7369 123.06C43.8741 125.812 15.7677 147.831 5.05171 176.845C-5.66432 205.86 1.07965 240.408 21.3813 263.772C35.7209 280.281 62.4181 293.992 84.0979 297.153C132.506 307.24 206.434 305.655 233.789 297.153C268.074 286.449 286.557 273.194 308.577 237.069C330.032 201.848 336.296 173.7 334.786 130.163Z" fill="white"/>
<path d="M334.338 331.972C334.338 332.08 259.651 332.173 167.542 332.173C75.4339 332.173 0.731445 332.104 0.731445 331.972C0.731445 331.841 75.403 331.771 167.542 331.771C259.682 331.771 334.338 331.864 334.338 331.972Z" fill="#263238"/>
<path d="M122.611 232.741C122.611 232.741 100.59 247.673 99.3825 282.53C98.9799 294.224 104.733 331.454 104.733 331.454L233.519 331.972L209.431 232.184L168.913 222.91L122.611 232.741Z" fill="#EF5E9C"/>
<path d="M171.808 258.617L154.263 331.678L198.118 331.972L171.808 258.617Z" fill="#263238"/>
<path d="M171.141 242.796C171.28 243.585 171.357 244.383 171.374 245.184C171.474 246.792 171.598 248.77 171.738 250.966C171.877 253.161 171.954 255.271 171.985 256.747C172.038 257.548 172.02 258.352 171.931 259.15C171.793 258.361 171.715 257.563 171.699 256.762C171.598 255.162 171.474 253.176 171.335 250.989C171.196 248.801 171.118 246.684 171.095 245.2C171.038 244.399 171.054 243.594 171.141 242.796Z" fill="#263238"/>
<path d="M179.086 250.85C179.086 250.888 178.8 250.95 178.312 251.221C177.673 251.604 177.163 252.169 176.849 252.844C176.606 253.329 176.492 253.868 176.519 254.41C176.546 254.951 176.713 255.477 177.004 255.935C177.336 256.509 177.836 256.969 178.435 257.254C179.035 257.539 179.708 257.636 180.364 257.531C181.02 257.426 181.629 257.125 182.11 256.668C182.591 256.211 182.921 255.618 183.058 254.969C183.195 254.45 183.196 253.904 183.06 253.384C182.924 252.864 182.657 252.388 182.284 252.001C181.775 251.456 181.115 251.076 180.387 250.911C179.876 250.796 179.613 250.826 179.566 250.788C179.52 250.749 179.644 250.788 179.783 250.741C179.994 250.711 180.207 250.711 180.418 250.741C181.202 250.856 181.928 251.222 182.485 251.785C182.878 252.172 183.18 252.642 183.368 253.161C183.575 253.768 183.605 254.423 183.453 255.046C183.302 255.77 182.935 256.43 182.399 256.94C181.863 257.45 181.185 257.785 180.454 257.901C179.723 258.017 178.974 257.908 178.307 257.588C177.639 257.269 177.085 256.754 176.717 256.113C176.38 255.568 176.205 254.938 176.214 254.297C176.237 253.758 176.377 253.23 176.624 252.751C176.979 252.042 177.555 251.466 178.266 251.112C178.453 251.015 178.654 250.944 178.862 250.904C179.009 250.842 179.079 250.834 179.086 250.85Z" fill="#263238"/>
<path d="M193.124 290.738C193.124 290.738 192.838 290.847 192.35 291.109C191.714 291.493 191.207 292.059 190.895 292.732C190.651 293.217 190.538 293.757 190.565 294.299C190.592 294.84 190.759 295.366 191.05 295.824C191.382 296.398 191.881 296.858 192.481 297.143C193.081 297.428 193.754 297.524 194.41 297.42C195.066 297.315 195.674 297.014 196.155 296.557C196.636 296.099 196.967 295.507 197.104 294.858C197.24 294.338 197.24 293.793 197.105 293.273C196.969 292.754 196.702 292.277 196.33 291.89C195.824 291.346 195.166 290.966 194.441 290.8C193.922 290.684 193.62 290.715 193.62 290.677C193.688 290.646 193.762 290.631 193.837 290.63C194.045 290.604 194.256 290.604 194.464 290.63C195.251 290.746 195.98 291.115 196.539 291.681C196.931 292.065 197.23 292.533 197.413 293.049C197.629 293.656 197.658 294.312 197.499 294.935C197.354 295.662 196.989 296.327 196.454 296.841C195.92 297.354 195.24 297.692 194.507 297.808C193.774 297.924 193.023 297.813 192.355 297.49C191.687 297.168 191.134 296.648 190.771 296.002C190.426 295.46 190.251 294.827 190.268 294.186C190.287 293.646 190.427 293.118 190.678 292.64C191.033 291.93 191.609 291.355 192.319 291.001C192.508 290.906 192.708 290.836 192.915 290.793C192.982 290.765 193.053 290.747 193.124 290.738Z" fill="#263238"/>
<path d="M147.589 261.771C147.508 261.893 147.415 262.007 147.31 262.111C147.124 262.327 146.845 262.644 146.466 263.038C145.38 264.145 144.221 265.177 142.997 266.13C138.921 269.248 134.221 271.455 129.215 272.599C126.467 273.257 123.633 273.486 120.814 273.279C118.489 273.111 116.256 272.309 114.357 270.96C113.088 270.036 112.069 268.811 111.391 267.397C111.221 267.012 111.081 266.614 110.973 266.207C110.929 266.067 110.906 265.921 110.903 265.774C110.942 265.774 111.058 266.362 111.538 267.32C112.249 268.672 113.274 269.836 114.527 270.713C116.398 271.997 118.58 272.758 120.845 272.916C123.627 273.092 126.419 272.852 129.13 272.205C134.084 271.071 138.748 268.924 142.827 265.898C144.056 264.978 145.232 263.989 146.35 262.938L147.256 262.064C147.465 261.856 147.573 261.771 147.589 261.771Z" fill="#263238"/>
<path d="M147.589 269.005C147.508 269.128 147.415 269.242 147.31 269.345C147.124 269.561 146.845 269.886 146.466 270.28C141.757 275.054 135.766 278.368 129.215 279.825C126.467 280.486 123.633 280.718 120.814 280.513C118.49 280.342 116.257 279.54 114.357 278.194C113.087 277.274 112.068 276.052 111.391 274.639C111.219 274.252 111.079 273.851 110.973 273.441C110.929 273.301 110.905 273.155 110.903 273.008C110.942 273.008 111.058 273.596 111.538 274.554C112.249 275.909 113.274 277.075 114.527 277.955C116.399 279.236 118.58 279.994 120.845 280.15C123.627 280.33 126.42 280.09 129.13 279.439C134.082 278.304 138.745 276.16 142.827 273.14C144.056 272.217 145.232 271.226 146.35 270.172L147.256 269.298C147.355 269.188 147.467 269.089 147.589 269.005Z" fill="#263238"/>
<path d="M148.727 266.818C148.755 266.919 148.773 267.022 148.781 267.127C148.781 267.351 148.836 267.66 148.882 268.046C148.975 268.881 149.107 270.071 149.269 271.594C149.594 274.686 150.214 279.114 150.493 284.656C150.652 287.678 150.587 290.709 150.299 293.722C149.982 297.193 149.201 300.606 147.976 303.87C146.626 307.5 144.487 310.786 141.712 313.492C140.239 314.916 138.583 316.137 136.788 317.125C134.93 318.135 132.923 318.842 130.841 319.219C126.691 319.893 122.435 319.106 118.801 316.993C115.413 315.077 112.557 312.346 110.493 309.048C108.674 306.068 107.365 302.805 106.622 299.395C105.96 296.43 105.602 293.405 105.553 290.367C105.537 285.989 105.847 281.615 106.482 277.282C106.707 275.737 106.877 274.577 106.994 273.75C107.055 273.364 107.11 273.062 107.141 272.831C107.155 272.726 107.178 272.622 107.21 272.521C107.221 272.627 107.221 272.733 107.21 272.838C107.21 273.07 107.148 273.372 107.102 273.758C107.001 274.593 106.854 275.783 106.661 277.298C106.095 281.628 105.836 285.993 105.886 290.36C105.952 293.37 106.32 296.366 106.986 299.302C107.741 302.668 109.049 305.885 110.857 308.824C112.88 312.068 115.682 314.757 119.01 316.646C122.565 318.711 126.728 319.479 130.787 318.817C132.826 318.454 134.793 317.763 136.61 316.769C138.377 315.801 140.006 314.603 141.457 313.206C144.196 310.545 146.311 307.312 147.651 303.738C148.869 300.507 149.65 297.128 149.974 293.691C150.276 290.694 150.356 287.68 150.214 284.671C149.974 279.145 149.44 274.693 149.122 271.609C148.967 270.064 148.867 268.866 148.805 268.054C148.805 267.668 148.758 267.359 148.743 267.127C148.727 266.895 148.727 266.818 148.727 266.818Z" fill="#263238"/>
<g opacity="0.2">
<path d="M108.433 305.099C109.827 309.813 110.423 311.034 113.033 314.798C115.442 318.366 118.968 321.035 123.06 322.388C125.984 323.396 129.119 323.641 132.165 323.1C135.211 322.559 138.068 321.25 140.465 319.297C145.196 315.347 146.869 309.249 147.689 305.114C145.63 307.881 143.439 311.815 140.845 314.095C138.251 316.375 134.821 318.369 131.399 318.964C126.753 319.737 121.217 318.346 117.245 315.826C113.273 313.307 110.872 308.793 108.41 305.106" fill="black"/>
</g>
<g opacity="0.2">
<path d="M111.747 275.118C112.63 277.084 113.979 278.805 115.677 280.134C117.376 281.463 119.372 282.36 121.495 282.747C125.684 283.52 131.112 282.198 133.729 278.272C124.515 281.502 115.355 281.58 111.747 275.118Z" fill="black"/>
</g>
<path d="M187.464 263.718C187.267 263.752 187.065 263.752 186.868 263.718C186.343 263.646 185.826 263.532 185.319 263.378C181.869 262.356 178.909 260.114 176.996 257.071C176.704 256.616 176.445 256.141 176.221 255.649C176.074 255.294 176.005 255.101 176.036 255.085C176.067 255.07 176.454 255.812 177.212 256.917C178.212 258.342 179.423 259.606 180.805 260.665C182.197 261.711 183.744 262.535 185.389 263.108C186.651 263.502 187.472 263.649 187.464 263.718Z" fill="#263238"/>
<g opacity="0.2">
<path d="M176.748 255.587C177.7 258.818 181.293 261.832 184.491 262.891C185.116 263.124 185.784 263.221 186.45 263.177C186.783 263.154 187.106 263.059 187.398 262.897C187.69 262.735 187.942 262.512 188.138 262.242C188.811 261.214 188.231 259.753 187.24 259.027C186.185 258.385 185.01 257.967 183.786 257.798C181.316 257.226 179.086 258.47 177.042 256.399" fill="black"/>
</g>
<g opacity="0.2">
<path d="M108.271 249.605C114.047 254.645 122.208 254.861 129.555 252.697C136.903 250.533 143.307 246.46 149.547 242.008C142.741 243.36 136.934 246.46 130.066 247.472C123.508 248.438 116.687 248.539 110.237 246.351" fill="black"/>
</g>
<path d="M219.039 327.018C218.996 327.055 218.946 327.084 218.892 327.103C218.744 327.182 218.592 327.252 218.435 327.312C217.833 327.554 217.2 327.71 216.554 327.775C214.159 327.973 211.769 327.334 209.794 325.967C207.224 324.336 204.885 321.592 202.384 318.547C199.701 315.205 197.291 311.654 195.176 307.927C191.338 301.148 188.399 293.9 186.434 286.364C185.66 283.473 185.211 281.108 184.924 279.462C184.8 278.689 184.7 278.032 184.622 277.568C184.584 277.348 184.558 277.127 184.545 276.904C184.62 277.114 184.674 277.332 184.708 277.553L185.079 279.431C185.412 281.062 185.931 283.419 186.705 286.287C188.745 293.77 191.707 300.971 195.524 307.727C197.632 311.435 200.024 314.975 202.679 318.315C205.148 321.36 207.456 324.104 209.949 325.727C211.875 327.092 214.211 327.76 216.569 327.621C217.416 327.533 218.247 327.33 219.039 327.018Z" fill="#263238"/>
<g opacity="0.2">
<path d="M191.196 298.498C191.196 298.498 202.625 312.843 210.964 316.36C213.79 317.558 216.902 318.531 218.83 320.912C219.312 321.457 219.669 322.1 219.876 322.797C220.084 323.494 220.136 324.227 220.03 324.946C219.998 325.117 219.946 325.283 219.876 325.441C218.675 328.494 212.907 328.069 210.267 326.137C209.113 325.294 209.794 325.835 208.865 325.14C206.194 323.13 191.893 306.598 191.196 298.498Z" fill="black"/>
</g>
<path d="M140.743 104.89L148.037 103.444L184.111 103.869L202.438 107.888L209.43 210.049L128.401 213.828L140.743 104.89Z" fill="#E0E0E0"/>
<path d="M193.217 205.35L194.944 158.884L192.071 105.005C203.469 107.935 219.055 111.189 227.688 121.012C233.286 127.388 238.776 135.542 240.851 148.674C243.236 164.131 246.379 193.694 248.346 210.234" fill="#EF5E9C"/>
<path d="M204.676 197.729L148.657 206.81L146.675 172.278L143.577 104.008C127.318 104.673 108.812 118.083 103.261 128.532C99.3893 135.782 96.145 144.206 95.1307 152.36C93.1873 167.818 89.8966 194.305 87.9299 210.853C87.3351 215.882 87.8701 220.98 89.496 225.777C91.1219 230.574 93.798 234.949 97.3297 238.584C105.46 246.954 118.189 249.853 129.633 247.488L214.927 223.528L204.676 197.729Z" fill="#EF5E9C"/>
<path d="M198.762 197.111C198.766 197.045 198.779 196.98 198.8 196.917C198.847 196.778 198.901 196.593 198.963 196.361C199.125 195.843 199.342 195.124 199.629 194.205C200.233 192.303 201.092 189.567 202.161 186.182L210.949 158.791L211.065 159.03L201.983 155.282L201.626 155.135L201.944 154.926L204.042 153.551L210.894 149.083L210.817 149.3C207.333 137.227 204.267 126.577 202.06 118.917C200.984 115.115 200.117 112.054 199.505 109.921C199.226 108.878 199.002 108.066 198.839 107.486C198.772 107.234 198.718 107.025 198.676 106.86C198.651 106.791 198.635 106.718 198.63 106.644C198.63 106.644 198.63 106.706 198.707 106.845L198.909 107.471C199.087 108.043 199.334 108.847 199.644 109.882L202.315 118.84L211.196 149.192L211.235 149.331L211.111 149.416L204.267 153.891L202.168 155.259V154.903L211.243 158.667L211.413 158.737L211.359 158.907C207.782 169.874 204.662 179.419 202.432 186.259C201.309 189.645 200.418 192.357 199.791 194.243C199.482 195.155 199.234 195.874 199.064 196.384C198.986 196.608 198.916 196.786 198.87 196.933C198.841 196.996 198.804 197.056 198.762 197.111Z" fill="#263238"/>
<g opacity="0.2">
<path d="M211.15 149.362C210.692 151.038 209.704 152.521 208.331 153.589C207.263 154.2 207.874 155.011 208.757 155.862C209.818 156.882 211.521 157.16 212.303 158.397C213.085 159.633 212.644 161.048 212.241 162.346C208.363 174.665 203.654 186.708 198.149 198.394L211.15 158.845L202.083 155.112L211.15 149.362Z" fill="black"/>
</g>
<path d="M143.996 198.069C143.958 198.019 143.926 197.965 143.903 197.907C143.849 197.783 143.772 197.628 143.686 197.428L142.85 195.542C142.122 193.872 141.085 191.469 139.753 188.47L129.308 164.031L129.246 163.892L129.378 163.799L136.54 158.683V158.976L131.793 155.22L129.687 153.566L128.642 152.793L128.387 152.584C128.333 152.546 128.283 152.502 128.239 152.453C128.19 152.389 128.153 152.315 128.131 152.237C128.074 152.007 128.045 151.77 128.046 151.533C128.094 149.804 128.254 148.079 128.526 146.37C128.998 143.024 129.556 139.809 130.075 136.748C131.174 130.634 132.266 125.155 133.172 120.517C134.078 115.88 134.891 112.193 135.44 109.627C135.719 108.36 135.944 107.37 136.098 106.667L136.276 105.894C136.29 105.806 136.316 105.72 136.354 105.639C136.35 105.73 136.337 105.821 136.315 105.91C136.315 106.103 136.23 106.358 136.176 106.683C136.036 107.389 135.843 108.378 135.595 109.651C135.084 112.247 134.356 115.973 133.458 120.564C132.56 125.155 131.507 130.665 130.423 136.794C129.889 139.847 129.339 143.063 128.874 146.401C128.608 148.09 128.45 149.794 128.402 151.502C128.4 151.7 128.424 151.898 128.472 152.09C128.472 152.183 128.696 152.322 128.859 152.461L129.896 153.28L131.995 154.942L136.733 158.69L136.942 158.86L136.726 159.015L129.556 164.116L129.618 163.876L140.001 188.346C141.263 191.368 142.269 193.756 142.966 195.464C143.299 196.276 143.562 196.91 143.741 197.373L143.926 197.868C143.955 197.933 143.979 198 143.996 198.069Z" fill="#263238"/>
<path d="M211.728 164.536L155.285 155.844C154.266 155.687 153.313 156.384 153.156 157.401L140.982 236.169C140.825 237.186 141.523 238.137 142.542 238.294L198.985 246.986C200.004 247.143 200.957 246.446 201.114 245.429L213.287 166.661C213.445 165.644 212.746 164.693 211.728 164.536Z" fill="#EF5E9C"/>
<g opacity="0.2">
<path d="M211.728 164.536L155.285 155.844C154.266 155.687 153.313 156.384 153.156 157.401L140.982 236.169C140.825 237.186 141.523 238.137 142.542 238.294L198.985 246.986C200.004 247.143 200.957 246.446 201.114 245.429L213.287 166.661C213.445 165.644 212.746 164.693 211.728 164.536Z" fill="black"/>
</g>
<path d="M209.947 166.056L156.526 157.829L144.664 234.581L198.085 242.808L209.947 166.056Z" fill="#EBEBEB"/>
<path d="M193.898 164.796C193.519 163.628 192.822 162.588 191.886 161.793C190.949 160.997 189.81 160.477 188.594 160.29L189.043 157.005C189.226 155.816 188.928 154.602 188.215 153.632C187.502 152.661 186.433 152.012 185.242 151.827C184.048 151.643 182.831 151.939 181.857 152.651C180.882 153.362 180.231 154.431 180.046 155.622L179.52 159.023L178.374 158.868C177.172 158.701 175.947 158.869 174.833 159.351C173.72 159.834 172.762 160.613 172.063 161.604L171.173 162.841L194.401 166.427L193.898 164.796ZM184.297 158.799C183.818 158.726 183.372 158.513 183.015 158.186C182.658 157.86 182.405 157.436 182.29 156.966C182.175 156.497 182.202 156.004 182.367 155.55C182.532 155.096 182.829 154.701 183.22 154.415C183.61 154.129 184.077 153.965 184.56 153.944C185.044 153.923 185.523 154.046 185.937 154.297C186.35 154.548 186.68 154.916 186.885 155.354C187.089 155.792 187.158 156.281 187.084 156.758C186.983 157.396 186.634 157.969 186.111 158.351C185.589 158.733 184.937 158.894 184.297 158.799Z" fill="#263238"/>
<path d="M174.626 171.768C172.185 171.599 169.755 171.295 167.348 170.856C164.923 170.547 162.517 170.108 160.14 169.542C162.578 169.711 165.006 170.015 167.41 170.454C169.837 170.762 172.246 171.201 174.626 171.768Z" fill="#263238"/>
<path d="M166.743 173.051C165.559 173.076 164.377 172.962 163.22 172.711C162.043 172.597 160.882 172.351 159.76 171.976C160.943 171.96 162.124 172.074 163.282 172.316C164.46 172.43 165.621 172.676 166.743 173.051Z" fill="#263238"/>
<path d="M199.721 185.092C199.721 185.2 190.662 183.894 179.536 182.186C168.409 180.478 159.404 178.986 159.404 178.878C159.404 178.77 168.456 180.068 179.59 181.784C190.724 183.5 199.737 184.976 199.721 185.092Z" fill="#263238"/>
<path d="M199.124 188.926C199.124 189.034 190.073 187.735 178.939 186.02C167.805 184.304 158.808 182.828 158.808 182.719C158.808 182.611 167.859 183.91 178.993 185.626C190.127 187.341 199.14 188.818 199.124 188.926Z" fill="#263238"/>
<path d="M198.536 192.767C198.536 192.875 189.477 191.569 178.351 189.861C167.225 188.153 158.22 186.661 158.22 186.553C158.22 186.445 167.279 187.743 178.413 189.459C189.547 191.175 198.552 192.651 198.536 192.767Z" fill="#263238"/>
<path d="M197.94 196.601C197.94 196.709 188.888 195.41 177.754 193.694C166.62 191.979 157.623 190.502 157.623 190.387C157.623 190.271 166.674 191.584 177.809 193.3C188.943 195.016 197.986 196.492 197.94 196.601Z" fill="#263238"/>
<path d="M197.344 200.434C197.344 200.55 188.293 199.244 177.159 197.528C166.024 195.812 157.027 194.336 157.027 194.228C157.027 194.12 166.079 195.418 177.213 197.134C188.347 198.85 197.367 200.326 197.344 200.434Z" fill="#263238"/>
<path d="M196.755 204.275C196.755 204.384 187.696 203.085 176.57 201.369C165.443 199.654 156.438 198.177 156.438 198.061C156.438 197.945 165.49 199.252 176.624 200.967C187.758 202.683 196.771 204.167 196.755 204.275Z" fill="#263238"/>
<path d="M176.067 204.631C175.808 204.644 175.548 204.628 175.293 204.584C174.774 204.53 174.038 204.438 173.125 204.314C171.29 204.067 168.765 203.703 165.986 203.278C163.206 202.853 160.69 202.436 158.87 202.119C157.956 201.964 157.229 201.825 156.718 201.725C156.452 201.693 156.191 201.626 155.943 201.524C156.202 201.506 156.463 201.522 156.718 201.57C157.236 201.624 157.972 201.717 158.886 201.841C160.721 202.08 163.245 202.451 166.024 202.876C168.804 203.301 171.321 203.719 173.14 204.036C174.054 204.19 174.782 204.329 175.293 204.43C175.559 204.461 175.819 204.529 176.067 204.631Z" fill="#263238"/>
<path d="M202.948 175.779C201.853 175.812 200.759 175.711 199.689 175.477C198.598 175.379 197.524 175.145 196.491 174.782C198.676 174.85 200.844 175.185 202.948 175.779Z" fill="#263238"/>
<path d="M165.607 211.579C163.839 211.508 162.079 211.304 160.342 210.968C158.584 210.767 156.845 210.431 155.139 209.964C156.907 210.034 158.667 210.238 160.404 210.574C162.161 210.779 163.9 211.115 165.607 211.579Z" fill="#263238"/>
<path d="M165.42 215.119C163.621 215.043 161.83 214.834 160.062 214.493C158.275 214.291 156.507 213.95 154.773 213.473C156.57 213.549 158.358 213.758 160.124 214.099C161.913 214.3 163.684 214.642 165.42 215.119Z" fill="#263238"/>
<path d="M196.051 215.737C194.335 215.743 192.63 215.482 190.995 214.964C191.854 214.896 192.718 214.959 193.558 215.15C194.415 215.209 195.257 215.408 196.051 215.737Z" fill="#263238"/>
<path d="M195.741 218.898C194.026 218.904 192.32 218.644 190.686 218.125C192.401 218.12 194.106 218.38 195.741 218.898Z" fill="#263238"/>
<path d="M159.969 218.025C159.139 218.093 158.303 218.033 157.492 217.847C156.663 217.785 155.85 217.59 155.084 217.268C155.911 217.194 156.745 217.254 157.554 217.445C158.385 217.505 159.201 217.701 159.969 218.025Z" fill="#263238"/>
<path d="M195.353 222.585C194.732 222.686 194.097 222.658 193.487 222.5C192.859 222.469 192.244 222.305 191.684 222.021C192.304 221.91 192.941 221.936 193.549 222.098C194.179 222.13 194.794 222.296 195.353 222.585Z" fill="#263238"/>
<path d="M153.48 225.483C153.784 225.456 154.09 225.456 154.394 225.483L156.965 225.561L166.148 225.924H166.357L166.31 226.125C166.08 227.118 165.511 228.001 164.7 228.621C164.27 228.964 163.768 229.205 163.232 229.327C162.696 229.449 162.139 229.448 161.603 229.325C161.031 229.192 160.499 228.922 160.055 228.538C159.612 228.155 159.268 227.668 159.055 227.122C158.86 226.535 158.846 225.903 159.014 225.308C159.183 224.712 159.526 224.181 160 223.783C160.348 223.469 160.768 223.246 161.223 223.134C161.337 223.104 161.454 223.086 161.572 223.08C161.698 223.064 161.825 223.064 161.951 223.08C162.036 223.093 162.116 223.127 162.184 223.178C162.253 223.23 162.309 223.296 162.346 223.373C162.397 223.506 162.413 223.65 162.392 223.791C162.29 224.656 162.003 225.489 161.548 226.233C161.107 226.945 160.525 227.561 159.837 228.042C159.167 228.543 158.352 228.814 157.514 228.814C157.111 228.786 156.723 228.646 156.395 228.41C156.066 228.174 155.811 227.851 155.656 227.477C155.36 226.797 155.305 226.036 155.501 225.321C155.96 224.129 156.704 223.068 157.669 222.229L157.878 222.021V222.315C158.002 223.381 157.797 224.459 157.29 225.406C156.913 226.122 156.385 226.747 155.741 227.238C155.341 227.548 154.894 227.793 154.417 227.964C154.254 228.029 154.082 228.071 153.906 228.088C154.536 227.859 155.124 227.53 155.648 227.114C156.246 226.616 156.734 226.001 157.081 225.306C157.547 224.39 157.722 223.355 157.584 222.338L157.832 222.415C156.916 223.235 156.212 224.264 155.78 225.414C155.611 226.054 155.666 226.733 155.935 227.338C156.064 227.649 156.277 227.918 156.551 228.115C156.824 228.311 157.147 228.428 157.483 228.451C158.223 228.443 158.94 228.197 159.528 227.748C160.182 227.291 160.733 226.7 161.142 226.016C161.552 225.331 161.812 224.567 161.905 223.775C161.922 223.707 161.922 223.635 161.905 223.567C161.905 223.528 161.905 223.512 161.796 223.497C161.609 223.486 161.421 223.505 161.239 223.551C160.848 223.65 160.487 223.841 160.186 224.108C159.776 224.457 159.479 224.919 159.332 225.436C159.184 225.953 159.193 226.502 159.357 227.014C159.544 227.485 159.838 227.906 160.218 228.242C160.597 228.578 161.05 228.821 161.541 228.951C162.031 229.08 162.546 229.092 163.042 228.987C163.538 228.881 164.003 228.661 164.398 228.343C165.147 227.783 165.675 226.979 165.892 226.071L166.055 226.279L156.949 225.746L154.379 225.576C154.078 225.564 153.778 225.533 153.48 225.483Z" fill="#263238"/>
<path d="M191.746 231.241C191.623 231.417 191.474 231.573 191.305 231.705C191.106 231.875 190.885 232.015 190.647 232.123C190.312 232.27 189.934 232.29 189.586 232.177C189.366 232.109 189.175 231.971 189.044 231.783C188.913 231.579 188.838 231.344 188.827 231.102C188.833 230.609 188.87 230.116 188.935 229.626C189.036 228.575 189.152 227.423 189.276 226.179L189.609 226.31L186.651 230.306L185.916 231.296L185.436 231.945L185.552 231.172C185.869 229.108 186.156 227.184 186.411 225.491L186.698 225.646C185.49 226.662 184.42 227.831 183.515 229.124C182.865 230.059 182.555 230.67 182.517 230.623C182.555 230.469 182.615 230.32 182.695 230.183C182.893 229.782 183.113 229.393 183.353 229.016C184.203 227.661 185.246 226.437 186.45 225.383L186.798 225.082L186.729 225.545C186.496 227.23 186.218 229.162 185.954 231.234L185.59 231.079L186.365 230.09C187.418 228.683 188.417 227.338 189.346 226.109L189.756 225.553L189.679 226.241C189.532 227.485 189.4 228.637 189.276 229.68C189.204 230.154 189.157 230.631 189.137 231.11C189.124 231.296 189.171 231.481 189.272 231.638C189.372 231.795 189.52 231.916 189.694 231.983C189.962 232.056 190.243 232.061 190.513 231.999C190.783 231.937 191.034 231.81 191.243 231.628C191.4 231.486 191.568 231.356 191.746 231.241Z" fill="#263238"/>
<path d="M193.108 229.139C190.581 229.327 188.046 229.381 185.513 229.301C182.981 229.357 180.448 229.28 177.925 229.07C180.449 228.877 182.982 228.82 185.513 228.9C188.047 228.844 190.583 228.924 193.108 229.139Z" fill="#263238"/>
<path d="M195.579 231.543C193.576 231.959 191.548 232.246 189.508 232.401C187.484 232.685 185.444 232.84 183.399 232.864C185.401 232.437 187.429 232.148 189.47 231.999C191.493 231.709 193.535 231.557 195.579 231.543Z" fill="#263238"/>
<g opacity="0.2">
<path d="M128.247 151.966C128.155 154.285 128.782 156.65 130.717 157.956C128.294 159.131 127.001 161.944 126.923 164.634C126.846 167.324 127.783 169.936 128.797 172.432C131.933 180.107 138.623 190.912 143.725 197.451C143.725 197.451 141.139 190.495 140.396 188.864C137.036 181.529 134.07 174.179 130.702 166.821C130.33 166.048 129.664 163.791 129.664 163.791C130.031 163.611 130.37 163.379 130.671 163.104C132.56 161.558 136.656 158.845 136.656 158.845C136.656 158.845 128.247 152.198 128.247 151.966Z" fill="black"/>
</g>
<path d="M128.13 167.733C128.239 167.733 128.045 176.66 127.689 187.658C127.333 198.656 126.961 207.576 126.853 207.568C126.745 207.56 126.93 198.649 127.287 187.643C127.643 176.637 128.014 167.725 128.13 167.733Z" fill="#263238"/>
<path d="M141.465 144.291H140.69C140.69 143.998 141.813 114.759 142.688 103.12C142.717 102.303 142.912 101.5 143.262 100.761C143.612 100.022 144.11 99.3626 144.724 98.8224C147.14 96.7587 150.756 97.0293 150.919 97.037L150.857 97.8099C150.818 97.8099 147.403 97.5625 145.235 99.4097C144.7 99.8863 144.267 100.466 143.962 101.114C143.657 101.763 143.487 102.466 143.462 103.181C142.611 114.736 141.503 143.967 141.465 144.291Z" fill="#263238"/>
<path d="M148.719 193.2H147.349V191.654H148.719C150.156 191.654 151.535 191.084 152.551 190.069C153.567 189.055 154.138 187.679 154.138 186.244V169.874H155.687V186.244C155.687 188.089 154.953 189.858 153.646 191.162C152.339 192.467 150.567 193.2 148.719 193.2Z" fill="#455A64"/>
<path d="M149.276 192.612C149.244 192.94 149.115 193.25 148.907 193.504C148.698 193.758 148.418 193.944 148.103 194.04C147.788 194.135 147.452 194.136 147.137 194.04C146.822 193.945 146.542 193.759 146.333 193.505C146.124 193.251 145.996 192.941 145.963 192.614C145.931 192.286 145.996 191.957 146.151 191.667C146.306 191.377 146.544 191.14 146.834 190.985C147.125 190.83 147.454 190.764 147.782 190.796C148.221 190.841 148.624 191.057 148.903 191.397C149.183 191.738 149.317 192.174 149.276 192.612Z" fill="#263238"/>
<path d="M135.323 193.161H133.953C132.105 193.161 130.333 192.428 129.026 191.124C127.719 189.819 126.985 188.05 126.985 186.205L127.047 169.835H128.596L128.534 186.205C128.534 187.64 129.105 189.016 130.121 190.031C131.137 191.045 132.516 191.615 133.953 191.615H135.323V193.161Z" fill="#455A64"/>
<path d="M133.403 192.566C133.435 192.891 133.563 193.2 133.771 193.453C133.978 193.705 134.256 193.891 134.569 193.986C134.882 194.082 135.217 194.082 135.53 193.988C135.844 193.894 136.122 193.709 136.33 193.457C136.539 193.205 136.667 192.897 136.701 192.571C136.734 192.246 136.669 191.919 136.516 191.63C136.363 191.341 136.127 191.104 135.839 190.949C135.551 190.794 135.224 190.727 134.898 190.758C134.68 190.778 134.469 190.841 134.277 190.943C134.084 191.045 133.913 191.184 133.774 191.352C133.635 191.52 133.531 191.714 133.467 191.922C133.404 192.13 133.382 192.349 133.403 192.566Z" fill="#263238"/>
<path d="M126.591 171.721L126.397 160.051C126.25 151.155 132.762 143.82 140.915 143.673C142.9 143.655 144.868 144.055 146.689 144.846C148.509 145.637 150.143 146.802 151.484 148.264C154.332 151.341 155.931 155.367 155.967 159.556L156.16 171.234L153.837 171.273L153.644 159.595C153.616 155.978 152.235 152.502 149.772 149.848C148.657 148.618 147.293 147.637 145.77 146.971C144.247 146.305 142.6 145.969 140.938 145.984C134.062 146.1 128.549 152.384 128.704 160.004L128.898 171.675L126.591 171.721Z" fill="#263238"/>
<path d="M192.73 144.724C192.73 144.415 189.176 114.033 188.154 104.294L188.084 103.583C187.766 100.275 187.395 96.5346 183.732 95.5453L183.934 94.7724C188.115 95.9008 188.525 100.105 188.858 103.483L188.928 104.186C189.942 113.925 193.465 144.307 193.496 144.616L192.73 144.724Z" fill="#263238"/>
<path d="M198.993 145.381C202.237 142.143 202.237 136.892 198.993 133.653C195.749 130.415 190.489 130.415 187.244 133.653C184 136.892 184 142.143 187.244 145.381C190.489 148.619 195.749 148.619 198.993 145.381Z" fill="#263238"/>
<path d="M197.127 139.515C197.127 140.309 196.891 141.085 196.449 141.744C196.007 142.404 195.379 142.918 194.645 143.222C193.91 143.525 193.102 143.604 192.322 143.449C191.543 143.293 190.827 142.91 190.265 142.349C189.703 141.787 189.321 141.071 189.167 140.293C189.013 139.514 189.094 138.707 189.399 137.975C189.704 137.242 190.22 136.616 190.882 136.176C191.544 135.736 192.322 135.502 193.117 135.504C193.644 135.504 194.166 135.608 194.653 135.809C195.14 136.011 195.583 136.306 195.955 136.679C196.328 137.052 196.623 137.494 196.824 137.981C197.025 138.467 197.128 138.989 197.127 139.515Z" fill="#455A64"/>
<path d="M143.996 198.069L133.566 223.675L216.763 246.699C220.566 247.757 224.557 247.959 228.448 247.291C232.339 246.622 236.033 245.101 239.263 242.835C247.966 236.706 250.103 225.986 249.042 215.374L247.54 204.09L143.996 198.069Z" fill="#EF5E9C"/>
<path d="M232.14 225.862C232.054 225.862 231.876 224.115 231.017 221.418C230.796 220.681 230.538 219.956 230.243 219.246C229.948 218.473 229.538 217.7 229.128 216.835C228.173 215.045 227.05 213.35 225.775 211.772C224.477 210.214 223.036 208.781 221.47 207.491C220.696 206.926 220.03 206.362 219.325 205.945C218.688 205.507 218.029 205.102 217.351 204.731C214.873 203.363 213.177 202.838 213.208 202.753C213.614 202.836 214.011 202.957 214.393 203.116C214.855 203.266 215.308 203.444 215.748 203.649C216.267 203.889 216.871 204.128 217.49 204.484C218.186 204.84 218.86 205.234 219.511 205.667C220.231 206.099 220.943 206.664 221.702 207.212C223.303 208.503 224.774 209.948 226.092 211.525C227.381 213.125 228.507 214.849 229.453 216.672C229.863 217.53 230.266 218.334 230.552 219.13C230.853 219.852 231.111 220.59 231.327 221.341C231.521 221.954 231.679 222.579 231.799 223.211C231.922 223.691 232.007 224.179 232.054 224.672C232.119 225.065 232.147 225.464 232.14 225.862Z" fill="#263238"/>
<g opacity="0.2">
<path d="M131.708 208.967C125.358 209.492 120.457 210.072 113.899 210.876C109.803 211.378 105.552 211.092 104.213 207.205C102.873 203.317 103.725 198.865 105.924 195.379C108.123 191.894 111.576 183.786 130.066 189.969L131.708 208.967Z" fill="black"/>
</g>
<path d="M140.271 207.846L140.318 207.676L140.496 207.166L141.193 205.218L143.864 198.023L143.903 197.922H144.004L172.303 200.48L199.682 203.077L207.974 203.904L210.228 204.152L210.808 204.229C210.877 204.231 210.945 204.244 211.01 204.268H210.808H210.22L207.959 204.098L199.651 203.386L172.265 200.913L143.98 198.231L144.12 198.139L141.332 205.296L140.558 207.212L140.349 207.707C140.31 207.8 140.279 207.854 140.271 207.846Z" fill="#263238"/>
<g opacity="0.2">
<path d="M174.503 234.256C186.318 237.417 193.504 235.585 204.235 229.727C206.434 228.44 208.544 227.01 210.553 225.445C212.084 224.196 213.445 222.754 214.603 221.155C200.782 226.434 189.299 230.43 175.053 234.403" fill="black"/>
</g>
<path d="M140.31 207.568L143.013 200.032L136.733 190.232C136.19 189.383 135.478 188.653 134.642 188.088C133.806 187.523 132.863 187.135 131.871 186.947L108.766 182.596C108.479 183.459 108.519 184.398 108.878 185.234C109.238 186.07 109.892 186.746 110.717 187.133C113.745 188.856 127.364 192.017 127.364 192.017L106.389 191.662C106.389 191.662 105.739 194.684 108.116 195.766C110.493 196.848 125.436 197.397 125.436 197.397L106.304 200.086C106.304 200.086 106.196 203.116 110.57 203.178C114.879 203.127 119.181 202.856 123.462 202.366C123.639 202.342 123.819 202.387 123.964 202.492C124.108 202.597 124.206 202.755 124.236 202.931C124.262 203.101 124.224 203.275 124.128 203.418C124.032 203.561 123.885 203.663 123.718 203.703L110.996 206.702C110.63 206.785 110.301 206.986 110.06 207.274C109.82 207.563 109.682 207.922 109.668 208.297C109.654 208.672 109.765 209.041 109.982 209.346C110.2 209.652 110.513 209.877 110.872 209.987C111.103 210.042 111.341 210.058 111.577 210.033C113.745 209.817 126.691 208.178 126.691 208.178L127.364 209.686L140.31 207.583" fill="#B78876"/>
<path d="M130.81 205.241C130.634 204.825 130.393 204.439 130.098 204.098C129.755 203.749 129.337 203.484 128.874 203.325C128.303 203.15 127.704 203.085 127.109 203.131C125.824 203.224 124.663 203.595 123.796 203.703C123.328 203.817 122.839 203.817 122.371 203.703C122.822 203.576 123.279 203.476 123.741 203.402C124.835 203.079 125.954 202.846 127.086 202.706C127.736 202.656 128.39 202.74 129.006 202.954C129.507 203.148 129.954 203.461 130.307 203.866C130.492 204.04 130.634 204.255 130.722 204.494C130.809 204.733 130.839 204.989 130.81 205.241Z" fill="#AA6550"/>
<path d="M132.9 199.499C132.861 199.499 132.838 199.29 132.668 198.958C132.416 198.497 132.034 198.12 131.568 197.876C130.399 197.196 128.425 197.42 126.35 197.559C124.275 197.698 122.37 198.007 120.999 198.185C120.264 198.324 119.518 198.399 118.77 198.409C119.479 198.17 120.21 198.001 120.953 197.907C122.725 197.559 124.513 197.301 126.311 197.134C127.305 197.044 128.302 197.005 129.3 197.018C130.14 196.998 130.971 197.2 131.708 197.605C132.206 197.893 132.593 198.339 132.807 198.873C132.904 199.066 132.936 199.286 132.9 199.499Z" fill="#AA6550"/>
<path d="M134.495 196.16C134.478 195.547 134.31 194.947 134.008 194.413C133.662 193.854 133.184 193.389 132.614 193.061C131.892 192.684 131.103 192.453 130.291 192.381C128.557 192.218 126.931 192.381 125.746 192.288C125.102 192.287 124.468 192.133 123.896 191.84C123.896 191.778 124.608 191.986 125.762 192.01C126.915 192.033 128.518 191.816 130.338 192.01C131.203 192.081 132.042 192.345 132.792 192.782C133.408 193.157 133.911 193.691 134.248 194.328C134.481 194.749 134.601 195.223 134.596 195.704C134.581 195.99 134.495 196.16 134.495 196.16Z" fill="#AA6550"/>
<path d="M209.5 196.137C209.502 195.717 209.541 195.298 209.616 194.885C209.717 194.112 209.91 192.922 210.181 191.499C210.715 188.655 211.66 184.768 212.659 180.478C213.542 176.825 214.216 173.124 214.679 169.395C214.772 168.676 214.811 168.027 214.865 167.455C214.919 166.883 214.95 166.396 214.966 165.986C214.962 165.567 214.998 165.147 215.074 164.734C215.124 165.152 215.14 165.574 215.121 165.994C215.121 166.396 215.121 166.898 215.121 167.47C215.121 168.042 215.074 168.699 214.989 169.418C214.613 173.175 213.976 176.902 213.085 180.571C212.078 184.868 211.095 188.733 210.491 191.561C210.189 192.968 209.949 194.12 209.802 194.908C209.735 195.325 209.634 195.736 209.5 196.137Z" fill="#263238"/>
<path d="M217.53 246.838C217.375 246.836 217.221 246.809 217.073 246.761L215.788 246.475L211.08 245.316C207.108 244.319 201.634 242.873 195.595 241.204C189.555 239.534 184.143 237.935 180.233 236.737L175.587 235.299L174.333 234.882C174.211 234.84 174.094 234.786 173.984 234.719C174.138 234.73 174.289 234.761 174.433 234.812L175.711 235.152L180.357 236.474L195.749 240.825L211.15 245.045L215.795 246.32L217.065 246.684C217.225 246.719 217.381 246.771 217.53 246.838Z" fill="#263238"/>
<path d="M137.824 22.6618C139.528 17.4139 148.254 12.6761 153.039 9.92461C160.201 5.82056 166.836 6.63983 170.925 10.2956C178.311 4.11248 188.044 -1.83877 197.374 0.595834C206.704 3.03043 214.284 12.5679 212.581 22.0512C211.582 27.6392 207.703 32.6475 207.935 38.2819C208.09 42.1464 210.142 45.6398 211.807 49.1487C213.471 52.6576 214.695 56.7385 213.239 60.3247C211.884 63.6559 208.5 65.7349 206.681 68.8265C205.194 71.3616 204.854 74.3758 203.901 77.1505C200.386 87.4299 188.23 93.1957 177.498 91.3871C166.767 89.5786 157.824 81.5173 152.721 71.9026C147.619 62.2878 145.977 51.251 145.389 40.4073" fill="#263238"/>
<path d="M145.729 29.9038L147.874 115.617C148.649 125.441 157.715 132.621 168.246 131.709C178.876 130.797 186.999 122.009 186.387 112.07C185.744 101.643 185.264 90.6452 185.264 90.6452C185.264 90.6452 198.574 87.5536 200.231 69.839C201.075 60.7653 199.604 45.8794 198.063 34.0852C197.761 31.7337 196.985 29.4676 195.783 27.4232C194.581 25.3788 192.977 23.5982 191.067 22.1888C189.157 20.7794 186.982 19.7702 184.671 19.2219C182.361 18.6736 179.963 18.5975 177.622 18.9984" fill="#B78876"/>
<path d="M194.115 46.7528C194.16 47.3378 193.974 47.9172 193.596 48.3666C193.218 48.816 192.679 49.0996 192.094 49.1565C191.809 49.1989 191.519 49.1838 191.24 49.1121C190.961 49.0404 190.7 48.9136 190.471 48.7392C190.242 48.5648 190.051 48.3463 189.908 48.0968C189.765 47.8472 189.674 47.5715 189.64 47.2861C189.597 46.7008 189.783 46.1216 190.161 45.6714C190.538 45.2212 191.076 44.9354 191.661 44.8747C191.946 44.8335 192.236 44.8497 192.515 44.9223C192.794 44.9949 193.055 45.1224 193.284 45.2974C193.513 45.4725 193.704 45.6914 193.847 45.9413C193.989 46.1913 194.081 46.4672 194.115 46.7528Z" fill="#263238"/>
<path d="M196.353 44.4651C196.089 44.7742 194.301 43.6226 191.877 43.7849C189.454 43.9472 187.758 45.2689 187.479 44.9906C187.34 44.867 187.588 44.3259 188.323 43.7076C189.327 42.9132 190.552 42.4488 191.831 42.3783C193.089 42.2956 194.341 42.6121 195.408 43.2825C196.19 43.8158 196.477 44.3182 196.353 44.4651Z" fill="#263238"/>
<path d="M170.886 49.1797C170.934 49.766 170.748 50.3473 170.37 50.7984C169.992 51.2495 169.452 51.5342 168.866 51.5911C168.58 51.6324 168.29 51.6162 168.011 51.5436C167.732 51.471 167.471 51.3434 167.242 51.1684C167.013 50.9934 166.822 50.7745 166.679 50.5245C166.537 50.2746 166.446 49.9987 166.411 49.713C166.368 49.1277 166.555 48.5485 166.932 48.0983C167.309 47.6481 167.847 47.3623 168.432 47.3016C168.717 47.2604 169.008 47.2766 169.287 47.3492C169.565 47.4218 169.827 47.5493 170.056 47.7243C170.284 47.8993 170.476 48.1183 170.618 48.3682C170.761 48.6182 170.852 48.8941 170.886 49.1797Z" fill="#263238"/>
<path d="M172.56 46.4514C172.296 46.7606 170.508 45.609 168.084 45.7713C165.661 45.9336 163.965 47.2552 163.686 46.977C163.547 46.8533 163.795 46.3123 164.538 45.694C165.539 44.9011 166.762 44.4367 168.038 44.3646C169.296 44.2819 170.548 44.5984 171.615 45.2689C172.436 45.7945 172.684 46.3046 172.56 46.4514Z" fill="#263238"/>
<path d="M182.501 63.8182C182.501 63.6868 183.964 63.3313 186.372 62.8598C186.984 62.7593 187.564 62.597 187.642 62.1642C187.653 61.5235 187.466 60.8949 187.108 60.3634C186.434 58.9026 185.722 57.38 184.979 55.7801C182.006 49.2415 179.807 43.8545 180.07 43.7385C180.333 43.6226 182.958 48.8241 185.939 55.3319C186.651 56.9395 187.34 58.4775 187.99 59.9692C188.432 60.6876 188.603 61.5401 188.47 62.3729C188.395 62.5964 188.269 62.7996 188.102 62.9671C187.936 63.1345 187.733 63.2618 187.51 63.339C187.176 63.4556 186.827 63.5259 186.473 63.5477C184.05 63.8491 182.501 63.9573 182.501 63.8182Z" fill="#263238"/>
<path d="M185.273 90.6143C177.012 91.2735 168.729 89.6307 161.348 85.8687C161.348 85.8687 167.999 97.6708 185.466 94.8961L185.273 90.6143Z" fill="#AA6550"/>
<path d="M172.575 36.9294C172.373 37.6018 169.934 37.4472 167.116 37.9728C164.298 38.4984 162.044 39.4181 161.626 38.8539C161.441 38.5834 161.804 37.9342 162.687 37.2386C163.866 36.3674 165.235 35.7874 166.682 35.5459C168.128 35.2801 169.616 35.3568 171.026 35.7701C172.095 36.1256 172.652 36.6125 172.575 36.9294Z" fill="#263238"/>
<path d="M195.005 37.5168C194.618 38.0964 192.907 37.6327 190.901 37.7332C188.896 37.8336 187.216 38.3438 186.791 37.795C186.597 37.5245 186.791 36.9603 187.565 36.3883C188.522 35.701 189.663 35.3134 190.841 35.2749C192.02 35.2363 193.184 35.5486 194.184 36.1719C194.889 36.6898 195.175 37.2385 195.005 37.5168Z" fill="#263238"/>
<path d="M178.753 68.3706C180.65 68.3706 181.594 68.9271 183.204 69.9164C183.69 70.1715 184.088 70.5641 184.35 71.0448C184.474 71.3902 184.517 71.7593 184.475 72.1238C184.434 72.4883 184.309 72.8384 184.11 73.147C183.714 73.849 183.126 74.4234 182.414 74.8027C181.702 75.1819 180.897 75.3503 180.092 75.2879C179.29 75.2039 178.535 74.8719 177.931 74.3385C177.327 73.805 176.906 73.0967 176.724 72.3123C176.575 71.5215 176.692 70.7034 177.06 69.9869C177.427 69.2704 178.023 68.6963 178.753 68.3551" fill="#AA6550"/>
<path d="M185.187 72.4127C185.187 72.5982 184.583 72.8764 183.522 72.8146C182.181 72.6904 180.885 72.2678 179.728 71.578C178.562 70.9301 177.53 70.0672 176.686 69.0352C176.058 68.2623 175.865 67.5821 176.027 67.4894C176.345 67.2807 177.94 68.9502 180.449 70.3259C181.486 70.9236 182.577 71.423 183.708 71.8176C184.575 72.1113 185.164 72.2118 185.187 72.4127Z" fill="#263238"/>
<path d="M173.226 57.3259C173.58 57.3259 173.868 57.0387 173.868 56.6844C173.868 56.3301 173.58 56.0429 173.226 56.0429C172.871 56.0429 172.583 56.3301 172.583 56.6844C172.583 57.0387 172.871 57.3259 173.226 57.3259Z" fill="#AA6550"/>
<path d="M192.063 53.5387C192.063 53.6656 192.026 53.7896 191.955 53.8951C191.885 54.0006 191.784 54.0829 191.667 54.1314C191.549 54.18 191.42 54.1927 191.296 54.1679C191.171 54.1432 191.056 54.0821 190.967 53.9924C190.877 53.9026 190.815 53.7883 190.791 53.6639C190.766 53.5395 190.779 53.4105 190.827 53.2933C190.876 53.176 190.958 53.0758 191.064 53.0054C191.17 52.9349 191.294 52.8972 191.421 52.8972C191.591 52.8972 191.755 52.9648 191.875 53.0851C191.996 53.2054 192.063 53.3686 192.063 53.5387Z" fill="#AA6550"/>
<path d="M195.617 55.2082C195.627 55.2988 195.618 55.3906 195.59 55.4775C195.562 55.5643 195.516 55.6443 195.455 55.7122C195.394 55.7802 195.319 55.8345 195.236 55.8717C195.152 55.9089 195.062 55.9281 194.971 55.9281C194.879 55.9281 194.789 55.9089 194.705 55.8717C194.622 55.8345 194.547 55.7802 194.486 55.7122C194.425 55.6443 194.379 55.5643 194.351 55.4775C194.324 55.3906 194.314 55.2988 194.324 55.2082C194.342 55.0492 194.417 54.9022 194.537 54.7955C194.656 54.6887 194.81 54.6297 194.971 54.6297C195.131 54.6297 195.285 54.6887 195.405 54.7955C195.524 54.9022 195.6 55.0492 195.617 55.2082Z" fill="#AA6550"/>
<path d="M196.693 52.5263C196.693 52.6532 196.656 52.7772 196.585 52.8827C196.514 52.9882 196.414 53.0704 196.297 53.119C196.179 53.1675 196.05 53.1802 195.925 53.1555C195.801 53.1307 195.686 53.0696 195.596 52.9799C195.507 52.8902 195.445 52.7759 195.421 52.6515C195.396 52.527 195.408 52.398 195.457 52.2808C195.506 52.1636 195.588 52.0634 195.694 51.9929C195.799 51.9224 195.924 51.8848 196.051 51.8848C196.221 51.8848 196.385 51.9524 196.505 52.0727C196.626 52.193 196.693 52.3562 196.693 52.5263Z" fill="#AA6550"/>
<path d="M170.925 59.521C170.926 59.6497 170.889 59.776 170.819 59.8838C170.748 59.9915 170.647 60.0759 170.529 60.1263C170.41 60.1766 170.279 60.1906 170.152 60.1664C170.026 60.1422 169.909 60.081 169.817 59.9905C169.726 59.9 169.663 59.7844 169.637 59.6582C169.611 59.5321 169.624 59.4012 169.673 59.2821C169.722 59.163 169.805 59.0611 169.912 58.9895C170.019 58.9178 170.145 58.8795 170.274 58.8795C170.445 58.8795 170.61 58.9468 170.731 59.0669C170.853 59.187 170.923 59.3501 170.925 59.521Z" fill="#AA6550"/>
<path d="M168.51 56.955C168.51 57.0819 168.472 57.2059 168.401 57.3114C168.331 57.4169 168.231 57.4991 168.113 57.5476C167.996 57.5962 167.866 57.6089 167.742 57.5841C167.617 57.5594 167.503 57.4983 167.413 57.4086C167.323 57.3189 167.262 57.2046 167.237 57.0801C167.212 56.9557 167.225 56.8267 167.274 56.7095C167.322 56.5923 167.405 56.4921 167.51 56.4216C167.616 56.3511 167.74 56.3135 167.867 56.3135C168.038 56.3135 168.201 56.3811 168.322 56.5014C168.442 56.6217 168.51 56.7848 168.51 56.955Z" fill="#AA6550"/>
<path d="M179.04 49.1797C178.968 48.2683 178.826 47.3639 178.614 46.4745C177.978 44.0573 176.543 41.9252 174.542 40.4228C173.176 39.3871 171.584 38.6879 169.896 38.3824C167.962 38.029 165.968 38.1971 164.12 38.8693C163.124 39.224 162.189 39.7298 161.348 40.3687C160.457 41.0156 159.673 41.798 159.025 42.6874C157.642 44.5661 156.896 46.8366 156.896 49.1681C156.896 51.4995 157.642 53.77 159.025 55.6487C160.308 57.4067 162.079 58.7504 164.12 59.5132C165.968 60.1854 167.962 60.3535 169.896 60.0001C171.584 59.6946 173.176 58.9954 174.542 57.9597C176.54 56.4585 177.975 54.3296 178.614 51.9157C178.825 51.0261 178.967 50.1218 179.04 49.2106C179.052 49.2693 179.052 49.3296 179.04 49.3883V49.9216C179.04 50.2116 179.017 50.501 178.971 50.7873C178.931 51.1785 178.861 51.5662 178.762 51.9466C178.517 53.0076 178.11 54.0244 177.554 54.9609C176.224 57.2327 174.138 58.9673 171.66 59.8626C169.181 60.7579 166.466 60.7574 163.988 59.861C162.955 59.4941 161.984 58.9729 161.108 58.3152C160.181 57.6487 159.368 56.837 158.7 55.9115C157.257 53.9698 156.479 51.6164 156.479 49.199C156.479 46.7815 157.257 44.4282 158.7 42.4864C159.368 41.561 160.181 40.7493 161.108 40.0827C161.984 39.4251 162.955 38.9039 163.988 38.537C165.898 37.8529 167.957 37.6927 169.95 38.0732C171.526 38.3781 173.019 39.014 174.33 39.9387C175.641 40.8635 176.74 42.056 177.554 43.4371C178.109 44.3741 178.516 45.3907 178.762 46.4514C178.862 46.8343 178.932 47.2245 178.971 47.6184C179.017 47.9021 179.04 48.189 179.04 48.4763V49.0096C179.05 49.0659 179.05 49.1234 179.04 49.1797Z" fill="white"/>
<path d="M183.893 45.8022C183.031 45.5655 182.139 45.4613 181.245 45.493C180.365 45.6521 179.512 45.9385 178.714 46.3432C178.714 46.3432 178.876 46.0495 179.31 45.7558C179.879 45.3893 180.526 45.1616 181.199 45.0911C181.876 45.0145 182.562 45.1047 183.196 45.3539C183.676 45.5471 183.916 45.7558 183.893 45.8022Z" fill="white"/>
<path d="M176.818 16.4942C175.269 30.4603 164.863 43.0352 151.437 47.2706C155.765 53.5001 153.039 65.3562 153.148 75.2492C153.256 84.4466 153.249 87.0744 147.279 91.7659C142.347 92.9484 139.536 79.4615 135.835 75.6898C132.134 71.9181 128.657 67.273 128.928 62.0328C129.06 59.575 130.02 57.2254 130.152 54.7754C130.307 52.0548 129.432 49.3652 128.952 46.7142C126.815 34.8503 132.947 22.0899 143.33 15.8836C153.713 9.67731 167.503 10.0947 177.778 16.4401" fill="#263238"/>
<path d="M147.185 73.9122C145.898 69.4007 143.686 65.2053 140.689 61.5923L140.914 62.0715C139.988 59.9638 138.594 58.094 136.837 56.6036C135.08 55.1132 133.006 54.0413 130.773 53.4691C128.54 52.8969 126.206 52.8393 123.947 53.3007C121.688 53.7622 119.564 54.7305 117.735 56.1324C115.907 57.5344 114.422 59.3332 113.393 61.3927C112.364 63.4522 111.818 65.7184 111.796 68.0197C111.774 70.3211 112.276 72.5973 113.266 74.676C114.255 76.7547 115.706 78.5815 117.507 80.018C115.765 79.6316 114 81.131 113.636 82.87C113.501 83.7546 113.547 84.6574 113.772 85.5236C113.997 86.3899 114.396 87.2015 114.944 87.9092C118.576 93.2112 126.806 94.6102 131.978 90.8075C136.082 93.5822 142.145 91.9669 145.188 88.0638C148.231 84.1607 148.587 78.6577 147.185 73.9122Z" fill="#263238"/>
<path d="M130.562 53.4537C130.4 53.3021 130.253 53.1365 130.12 52.9591C129.76 52.4417 129.498 51.8628 129.346 51.251C128.874 49.6511 129.098 47.1238 130.368 44.4496C131.058 42.9854 132.008 41.6579 133.171 40.531C134.445 39.1936 135.857 37.9941 137.383 36.9525C139.072 35.7913 140.914 34.8705 142.857 34.2165C144.863 33.5286 146.992 32.9954 149.16 32.4543C151.328 31.9133 153.449 31.38 155.432 30.6844C157.343 30.027 159.199 29.2207 160.983 28.273C164.002 26.6688 166.808 24.6956 169.338 22.399C171.043 20.8429 172.617 19.1497 174.045 17.3366C174.556 16.6951 174.928 16.1773 175.184 15.7908C175.304 15.6085 175.442 15.4378 175.594 15.2807C175.493 15.4739 175.38 15.6598 175.253 15.8372C175.013 16.2005 174.665 16.7338 174.169 17.383C172.781 19.2458 171.226 20.979 169.524 22.5613C166.991 24.9071 164.171 26.9224 161.13 28.559C159.332 29.521 157.46 30.3403 155.532 31.009C153.527 31.7124 151.398 32.2534 149.23 32.8021C147.062 33.3509 144.94 33.8687 142.95 34.5411C141.03 35.1788 139.207 36.0759 137.53 37.2076C136.022 38.2341 134.621 39.4096 133.349 40.7165C132.216 41.8341 131.293 43.1456 130.624 44.5887C129.346 47.1933 129.075 49.6588 129.501 51.2278C129.698 52.0344 130.059 52.792 130.562 53.4537Z" fill="#455A64"/>
<path d="M175.578 15.3194C175.467 15.4744 175.346 15.6216 175.214 15.76C174.967 16.0459 174.587 16.4478 174.099 16.9657C172.695 18.4083 171.203 19.7635 169.632 21.0233C167.308 22.93 164.722 24.4918 161.951 25.6607C160.287 26.2743 158.572 26.7373 156.825 27.0442C155.021 27.4074 153.14 27.6857 151.22 27.9794C147.602 28.411 144.029 29.1584 140.542 30.213C137.713 31.1348 135.086 32.5852 132.799 34.4871C131.263 35.7733 129.994 37.3491 129.067 39.1244C128.826 39.6121 128.611 40.1127 128.425 40.6238C128.37 40.8069 128.295 40.9832 128.2 41.1494C128.236 40.9633 128.285 40.7799 128.347 40.6006C128.502 40.0716 128.696 39.5549 128.928 39.0548C129.814 37.2263 131.069 35.6002 132.614 34.2784C134.902 32.3188 137.55 30.8224 140.411 29.8729C143.911 28.7813 147.503 28.0053 151.142 27.5543C153.07 27.2683 154.944 26.9823 156.732 26.6345C158.459 26.336 160.156 25.886 161.804 25.2897C164.547 24.1517 167.117 22.6349 169.438 20.7838C171.023 19.5542 172.54 18.241 173.983 16.8497L175.153 15.7059C175.281 15.5631 175.424 15.4336 175.578 15.3194Z" fill="#455A64"/>
<path d="M195.238 0.0316678C195.238 0.116686 193.728 0.170788 191.367 0.804557C190.726 0.970938 190.096 1.17219 189.477 1.40741C188.804 1.63155 188.122 1.96389 187.387 2.28851C184.255 3.79801 181.499 5.98398 179.319 8.68803C178.839 9.32952 178.359 9.91692 177.987 10.5275C177.617 11.0718 177.278 11.6369 176.973 12.2201C175.835 14.3533 175.424 15.8218 175.362 15.7909C175.414 15.4425 175.502 15.1005 175.626 14.7707C175.737 14.3697 175.877 13.9771 176.044 13.5959C176.24 13.0677 176.468 12.5515 176.725 12.0501C177.014 11.4469 177.342 10.8634 177.708 10.3034C178.072 9.68505 178.545 9.07447 179.025 8.41752C180.132 7.04701 181.381 5.79586 182.749 4.68446C184.14 3.60566 185.643 2.6781 187.232 1.91752C187.927 1.59121 188.641 1.30478 189.369 1.05961C190.521 0.656212 191.708 0.36123 192.915 0.178519C193.324 0.0994048 193.738 0.0503216 194.154 0.0316678C194.514 -0.0105559 194.878 -0.0105559 195.238 0.0316678Z" fill="#455A64"/>
<path d="M207.711 66.7629C207.711 66.7629 207.711 66.7088 207.827 66.6084L208.191 66.1833C208.517 65.8046 209.004 65.2558 209.554 64.4906C210.246 63.589 210.771 62.5706 211.103 61.4841C211.291 60.8082 211.347 60.102 211.265 59.405C211.156 58.6269 210.892 57.8782 210.491 57.2023C209.655 55.757 208.284 54.4972 207.03 52.936C204.209 49.4129 202.398 45.1929 201.788 40.7243C201.539 38.2205 201.477 35.7016 201.602 33.1886C201.727 30.6978 201.495 28.202 200.913 25.7766C200.294 23.6614 199.224 21.7052 197.775 20.0427C196.326 18.3802 194.533 17.051 192.52 16.1464C190.851 15.3996 189.052 14.9848 187.224 14.9253C183.822 14.7882 180.469 15.7742 177.685 17.7309L177.22 18.0555C177.12 18.125 177.065 18.1637 177.058 18.1559C177.782 17.4898 178.591 16.9231 179.466 16.471C181.843 15.1977 184.512 14.5662 187.208 14.6393C189.076 14.6852 190.916 15.092 192.628 15.8373C194.699 16.7503 196.546 18.1038 198.038 19.8033C199.531 21.5027 200.634 23.5071 201.269 25.6762C201.862 28.1366 202.099 30.6689 201.974 33.1964C201.849 35.6912 201.909 38.1918 202.152 40.6779C202.741 45.0822 204.512 49.2456 207.278 52.7273C208.501 54.273 209.879 55.556 210.731 57.0632C211.144 57.7758 211.407 58.5646 211.505 59.3818C211.583 60.1119 211.514 60.8501 211.304 61.5537C210.948 62.6595 210.388 63.6895 209.655 64.5911C209.212 65.1691 208.736 65.7213 208.23 66.2451L207.827 66.647C207.794 66.6902 207.755 66.7292 207.711 66.7629Z" fill="#455A64"/>
<path d="M205.915 46.4514C205.843 45.5401 205.7 44.6358 205.489 43.7463C204.853 41.329 203.418 39.1969 201.417 37.6945C199.946 36.5904 198.222 35.8707 196.402 35.6007C194.582 35.3307 192.723 35.5191 190.995 36.1488C188.954 36.9115 187.183 38.2552 185.9 40.0132C184.517 41.8902 183.77 44.1596 183.77 46.49C183.77 48.8204 184.517 51.0898 185.9 52.9668C186.544 53.8594 187.329 54.6424 188.223 55.2855C189.066 55.9193 190.001 56.4222 190.995 56.7772C192.443 57.3024 193.985 57.5202 195.523 57.4164C197.06 57.3126 198.559 56.8896 199.923 56.1745C201.288 55.4594 202.487 54.4679 203.446 53.2634C204.404 52.0589 205.1 50.668 205.489 49.1797C205.7 48.2902 205.843 47.3858 205.915 46.4746C205.927 46.5358 205.927 46.5988 205.915 46.66C205.915 46.7992 205.915 46.9769 205.915 47.1856C205.915 47.4756 205.892 47.765 205.846 48.0512C205.806 48.445 205.736 48.8351 205.636 49.2183C205.391 50.2789 204.984 51.2956 204.429 52.2326C203.696 53.4782 202.732 54.5722 201.587 55.4555C200.085 56.612 198.314 57.3714 196.44 57.6632C194.565 57.955 192.647 57.7699 190.863 57.125C189.829 56.7621 188.857 56.2406 187.983 55.5792C187.058 54.9073 186.245 54.0934 185.575 53.1678C184.132 51.2277 183.353 48.8755 183.353 46.4591C183.353 44.0427 184.132 41.6905 185.575 39.7504C186.243 38.825 187.056 38.0133 187.983 37.3467C188.859 36.689 189.83 36.1679 190.863 35.801C192.773 35.1146 194.831 34.9518 196.825 35.3295C198.406 35.6377 199.902 36.28 201.214 37.2131C202.525 38.1463 203.621 39.3487 204.429 40.7397C204.985 41.6735 205.392 42.6877 205.636 43.7463C205.736 44.1294 205.806 44.5196 205.846 44.9133C205.892 45.1995 205.915 45.489 205.915 45.779C205.915 45.9876 205.915 46.1654 205.915 46.3122C205.922 46.3584 205.922 46.4053 205.915 46.4514Z" fill="white"/>
<path d="M147.171 92.0519C147.034 91.984 146.906 91.8983 146.792 91.7968C146.552 91.6191 146.211 91.3485 145.762 91.0239C144.51 90.0231 143.335 88.9303 142.247 87.7546C140.567 86.0197 139.417 83.8426 138.933 81.4787C138.772 80.0833 138.71 78.6783 138.747 77.2742C138.773 75.8032 138.352 74.3587 137.539 73.1315C136.628 71.9529 135.615 70.8563 134.512 69.8545C133.489 68.8655 132.645 67.7071 132.018 66.4306C131.464 65.2755 131.058 64.0549 130.811 62.798C130.578 61.7086 130.471 60.5961 130.493 59.4823C130.493 58.4544 130.733 57.5578 130.826 56.7695C130.917 56.0957 130.932 55.414 130.872 54.7368C130.741 53.6238 130.524 53.0287 130.563 53.0132C130.634 53.1487 130.691 53.2912 130.733 53.4383C130.862 53.8557 130.961 54.2819 131.027 54.7136C131.111 55.4041 131.111 56.1021 131.027 56.7927C130.958 57.5656 130.772 58.493 130.749 59.4901C130.76 61.8355 131.289 64.1497 132.297 66.2683C132.913 67.5029 133.738 68.622 134.736 69.5763C135.867 70.5879 136.904 71.7004 137.833 72.8997C138.283 73.5453 138.616 74.2647 138.817 75.0251C138.994 75.7569 139.09 76.506 139.103 77.2588C139.065 78.6469 139.119 80.036 139.266 81.4169C139.715 83.732 140.807 85.8745 142.417 87.6C143.48 88.7845 144.621 89.8974 145.832 90.9312L146.885 91.735C146.99 91.831 147.086 91.9372 147.171 92.0519Z" fill="#455A64"/>
<path d="M138.367 74.0513C138.381 74.1565 138.381 74.263 138.367 74.3682C138.367 74.5768 138.367 74.8783 138.305 75.2724C138.174 76.3833 137.915 77.4753 137.531 78.5263C136.308 82.0539 133.878 85.0387 130.67 86.9566C127.462 88.8746 123.679 89.6031 119.986 89.0144C118.88 88.8476 117.796 88.5545 116.757 88.141C116.385 88.0019 116.115 87.8473 115.929 87.7623C115.743 87.6773 115.65 87.6155 115.658 87.6C117.072 88.1214 118.535 88.5019 120.025 88.7362C121.643 88.9448 123.284 88.9161 124.895 88.6511C128.883 88.0411 132.474 85.8966 134.899 82.6767C135.891 81.3852 136.69 79.9557 137.268 78.4335C137.773 77.0109 138.141 75.5435 138.367 74.0513Z" fill="#455A64"/>
<path d="M135.386 70.4187C135.354 70.7793 135.279 71.1348 135.162 71.4776C134.887 72.4251 134.522 73.344 134.07 74.2213C132.563 77.1344 130.28 79.5761 127.473 81.2778C124.659 82.9604 121.46 83.897 118.182 83.9984C117.196 84.0285 116.209 83.9768 115.232 83.8438C114.871 83.8112 114.515 83.7386 114.171 83.6274C115.503 83.723 116.839 83.7514 118.174 83.7124C121.388 83.5351 124.51 82.5802 127.272 80.93C130.018 79.2593 132.277 76.898 133.822 74.0822C134.423 72.8965 134.946 71.6727 135.386 70.4187Z" fill="#455A64"/>
<path d="M112.738 62.7207C112.951 62.5553 113.185 62.42 113.435 62.3188C113.712 62.1698 113.999 62.0406 114.295 61.9324C114.681 61.7707 115.077 61.6313 115.479 61.515C116.522 61.2026 117.593 60.9954 118.677 60.8967C120.005 60.781 121.342 60.8069 122.665 60.974C123.985 61.16 125.283 61.4838 126.536 61.9401C127.554 62.3301 128.529 62.8221 129.447 63.4086C129.8 63.6299 130.139 63.8726 130.462 64.1351C130.718 64.3185 130.959 64.5227 131.182 64.7457C131.388 64.9186 131.573 65.1158 131.731 65.3331C131.677 65.3949 130.864 64.5602 129.292 63.6482C128.373 63.1077 127.407 62.6523 126.404 62.2879C125.171 61.8667 123.901 61.5614 122.61 61.3759C121.326 61.2149 120.03 61.1761 118.739 61.2599C117.675 61.3425 116.62 61.521 115.588 61.7932C113.791 62.257 112.816 62.7903 112.738 62.7207Z" fill="#455A64"/>
<path d="M130.563 61.2909C130.493 61.3759 125.607 57.2332 119.661 52.0162C113.714 46.7992 108.945 42.556 109.014 42.471C109.084 42.386 113.97 46.5364 119.924 51.7457C125.878 56.955 130.625 61.2136 130.563 61.2909Z" fill="#EF5E9C"/>
<path d="M152.869 52.8277C153.239 52.104 153.788 51.4867 154.464 51.0346C155.054 50.4732 155.779 50.0738 156.57 49.8753C155.993 50.4157 155.371 50.9069 154.712 51.3438C154.137 51.8851 153.521 52.3812 152.869 52.8277Z" fill="white"/>
<path d="M131.128 57.1791C131.09 57.131 131.056 57.0792 131.027 57.0245C130.958 56.8931 130.873 56.7386 130.764 56.5531C130.464 55.9278 130.26 55.2607 130.16 54.5745C129.874 52.0039 130.608 49.4237 132.204 47.3866C132.709 46.7034 133.288 46.0786 133.931 45.5239C134.636 44.9342 135.399 44.4164 136.207 43.9782C138.002 43.0397 139.929 42.3779 141.922 42.015C146.11 41.1417 150.826 41.3503 155.626 40.6393C157.975 40.3292 160.255 39.6263 162.37 38.5602C164.303 37.5116 166.05 36.1539 167.542 34.5412C170.076 31.7942 172.104 28.6233 173.535 25.1738C174.805 22.2445 175.603 19.7635 176.183 18.0941L176.842 16.1387L177.02 15.6363C177.038 15.5777 177.061 15.5208 177.089 15.4663C177.089 15.4663 177.089 15.5281 177.089 15.644L176.95 16.1619L176.307 18.1714C175.59 20.5949 174.745 22.9787 173.775 25.3129C172.366 28.8159 170.339 32.0383 167.79 34.8272C166.268 36.4691 164.483 37.848 162.51 38.908C160.366 40.0013 158.051 40.7226 155.665 41.0412C150.803 41.7677 146.11 41.5358 141.968 42.386C137.826 43.2362 134.272 44.9597 132.406 47.5566C130.839 49.5217 130.086 52.0106 130.3 54.5126C130.433 55.4395 130.713 56.3394 131.128 57.1791Z" fill="#FAFAFA"/>
<path d="M136.044 87.8705C135.882 88.9396 135.569 89.9804 135.115 90.962C134.592 92.1424 133.912 93.2472 133.094 94.2468C132.009 95.5824 130.68 96.6998 129.176 97.5393C127.335 98.5354 125.278 99.0661 123.184 99.0851C120.766 99.1406 118.391 98.4467 116.385 97.0988C114.179 95.5749 112.583 93.3221 111.879 90.7379C111.503 89.3768 111.424 87.9509 111.647 86.5566C111.892 85.1216 112.444 83.7561 113.265 82.553C114.604 80.5253 116.657 79.0742 119.018 78.4876V78.8741C116.623 78.5043 114.348 77.5806 112.375 76.1767C110.545 74.8884 109.087 73.1425 108.147 71.1143C107.32 69.2914 106.966 67.2899 107.117 65.2944C107.245 63.5702 107.825 61.9097 108.797 60.4793C109.616 59.3184 110.671 58.3437 111.895 57.6196C112.803 57.0839 113.795 56.7025 114.829 56.4912C115.476 56.363 116.137 56.3137 116.796 56.3443L117.299 56.3984C117.355 56.39 117.413 56.39 117.469 56.3984C116.592 56.3531 115.712 56.4207 114.852 56.5994C113.845 56.8294 112.882 57.2237 112.003 57.7665C110.83 58.4926 109.822 59.4563 109.045 60.5952C108.115 61.9937 107.567 63.6113 107.458 65.2867C107.328 67.2267 107.685 69.1684 108.495 70.9365C109.42 72.901 110.842 74.5902 112.622 75.8366C114.555 77.1952 116.775 78.0917 119.111 78.4567L120.11 78.6113L119.126 78.8431C116.862 79.4091 114.894 80.8053 113.613 82.754C112.824 83.9157 112.296 85.2339 112.065 86.6184C111.853 87.9584 111.927 89.328 112.282 90.6374C112.953 93.1456 114.492 95.3359 116.625 96.8205C118.565 98.1327 120.864 98.8155 123.207 98.776C125.252 98.7685 127.264 98.2617 129.068 97.2997C130.547 96.4936 131.861 95.4158 132.939 94.1232C133.761 93.1468 134.454 92.0688 134.999 90.9157C135.337 90.1841 135.625 89.43 135.858 88.6588C135.928 88.4115 135.982 88.2106 136.021 88.0482L136.044 87.8705Z" fill="#263238"/>
<path d="M131.484 54.4431C131.418 54.4238 131.356 54.3952 131.298 54.3581L130.756 54.0721C130.079 53.6847 129.434 53.2427 128.828 52.7504C126.579 50.9166 124.862 48.5147 123.857 45.7944C122.691 42.57 122.588 39.0579 123.563 35.7709C124.538 32.4839 126.54 29.594 129.277 27.5233C131.467 25.9122 133.93 24.7079 136.548 23.9681C139.165 23.2304 141.85 22.7566 144.562 22.5537C147.163 22.3063 149.672 22.1904 152.057 22.0281C154.314 21.8863 156.562 21.6284 158.793 21.2552C160.73 20.9228 162.631 20.4052 164.468 19.7094C167.136 18.727 169.568 17.1973 171.607 15.2189C172.144 14.6627 172.643 14.0714 173.102 13.449L173.458 12.9621C173.495 12.9026 173.539 12.8481 173.589 12.7998C173.08 13.7214 172.45 14.5713 171.716 15.3272C169.692 17.375 167.245 18.9575 164.546 19.9645C162.695 20.6826 160.779 21.2184 158.824 21.5644C156.583 21.9409 154.324 22.1989 152.057 22.3373C147.295 22.716 141.991 22.7546 136.687 24.3236C134.118 25.052 131.698 26.2295 129.541 27.8016C126.858 29.8235 124.888 32.6433 123.914 35.8547C122.94 39.066 123.012 42.5031 124.121 45.6708C125.092 48.347 126.747 50.7235 128.921 52.5649C129.511 53.0687 130.137 53.5286 130.795 53.9407L131.306 54.2576C131.373 54.3111 131.433 54.3735 131.484 54.4431Z" fill="#263238"/>
<path d="M217.77 43.043C217.681 43.1488 217.571 43.235 217.447 43.2962C217.323 43.3574 217.188 43.3922 217.05 43.3985C216.648 43.4063 216.252 43.2934 215.916 43.0742C215.579 42.8551 215.316 42.5399 215.16 42.1696C215.041 41.9008 214.989 41.6073 215.008 41.3139C215.026 41.0205 215.116 40.736 215.269 40.4847C215.626 39.8905 216.171 39.4313 216.817 39.1785C217.606 38.8937 218.455 38.8152 219.284 38.9504C220.112 39.0857 220.891 39.4303 221.548 39.9514C222.34 40.5219 222.95 41.3082 223.306 42.216C223.682 43.2027 223.757 44.2782 223.523 45.3075C223.285 46.4233 222.68 47.4274 221.804 48.1595C220.876 48.9271 219.742 49.4055 218.544 49.5352C217.266 49.6278 215.983 49.4328 214.79 48.9646C213.598 48.4964 212.526 47.767 211.653 46.8301C210.691 45.8806 209.94 44.7406 209.446 43.4835C208.942 42.1769 208.808 40.757 209.059 39.3795C209.327 38.0325 209.748 36.7204 210.313 35.4687C210.832 34.232 211.312 33.0109 211.715 31.7897C212.52 29.4437 213.04 27.0097 213.263 24.54C213.471 22.3117 213.335 20.0649 212.861 17.8777C212.438 15.9623 211.692 14.1328 210.654 12.4675C209.159 10.0453 207.013 8.09046 204.46 6.82539C203.762 6.50947 203.04 6.25098 202.3 6.0525L201.711 5.90565C201.644 5.89215 201.578 5.86871 201.518 5.83609H201.719L202.315 5.94429C203.075 6.11685 203.817 6.36276 204.53 6.67854C207.14 7.91614 209.34 9.87402 210.871 12.3206C211.948 13.9789 212.734 15.8086 213.194 17.7309C213.692 19.9511 213.844 22.2349 213.643 24.5014C213.425 27.0022 212.905 29.4675 212.094 31.8438C211.692 33.0804 211.204 34.3171 210.685 35.5459C210.136 36.7852 209.726 38.0812 209.462 39.4104C209.231 40.7083 209.359 42.0446 209.833 43.2748C210.301 44.4843 211.022 45.5803 211.947 46.4901C212.776 47.3871 213.794 48.0879 214.929 48.5412C216.064 48.9945 217.286 49.1889 218.505 49.1101C219.641 48.9944 220.718 48.5483 221.602 47.8272C222.426 47.15 222.999 46.2165 223.228 45.1761C223.455 44.2058 223.393 43.1904 223.05 42.2546C222.717 41.3964 222.148 40.6491 221.409 40.0983C220.791 39.5979 220.056 39.264 219.272 39.1287C218.489 38.9934 217.683 39.0611 216.933 39.3254C216.327 39.5489 215.812 39.9676 215.47 40.5156C215.323 40.7425 215.233 41.0019 215.209 41.2713C215.184 41.5407 215.226 41.8119 215.331 42.0614C215.471 42.4103 215.711 42.7104 216.021 42.9247C216.33 43.139 216.696 43.258 217.073 43.2671C217.321 43.2557 217.562 43.1783 217.77 43.043Z" fill="#263238"/>
<g opacity="0.2">
<path d="M212.829 217.963C216.592 216.904 220.495 220.282 224.312 219.409C226.635 218.868 228.384 216.796 229.437 214.624C230.49 212.453 231.056 210.057 232.171 207.908C233.286 205.759 235.144 203.788 237.544 203.456C239.743 203.162 242.352 204.19 243.986 202.683C245.248 201.524 245.078 199.375 244.071 197.992C243.065 196.608 241.47 195.797 239.929 195.039C238.239 194.118 236.442 193.407 234.579 192.922C232.696 192.443 230.703 192.675 228.981 193.571C225.76 195.441 225.109 199.684 224.172 203.286C223.601 205.82 222.526 208.214 221.013 210.327C219.477 212.446 217.2 213.913 214.633 214.439C213.645 214.475 212.676 214.722 211.792 215.165C210.979 215.722 210.661 217.113 211.505 217.631" fill="black"/>
</g>
<path d="M193.217 204.074L207.324 199.167L219.968 179.435C220.585 178.472 221.392 177.645 222.34 177.005C223.288 176.364 224.357 175.923 225.481 175.709L248.16 171.435C248.448 172.298 248.409 173.236 248.051 174.072C247.693 174.908 247.04 175.584 246.216 175.972C243.189 177.696 229.569 180.865 229.569 180.865L250.544 180.509C250.544 180.509 251.187 183.531 248.81 184.613C246.433 185.695 231.489 186.236 231.489 186.236L250.637 188.957C250.637 188.957 250.746 191.994 246.371 192.048C242.063 192.009 237.761 191.751 233.479 191.275C233.302 191.249 233.121 191.293 232.976 191.399C232.831 191.504 232.734 191.663 232.705 191.84C232.677 192.01 232.715 192.185 232.811 192.328C232.908 192.472 233.055 192.573 233.224 192.612L245.945 195.611C246.312 195.693 246.642 195.893 246.883 196.181C247.124 196.469 247.262 196.828 247.277 197.203C247.292 197.578 247.183 197.947 246.966 198.253C246.749 198.56 246.436 198.786 246.077 198.896C245.844 198.955 245.603 198.971 245.365 198.942C243.204 198.726 230.251 197.087 230.251 197.087C230.251 197.087 225.682 213.071 222.725 214.362C219.767 215.652 213.565 216.008 213.565 216.008L200.402 221.209L193.217 204.074Z" fill="#B78876"/>
<path d="M249.089 180.447C248.727 180.523 248.359 180.56 247.989 180.555L244.985 180.702C242.453 180.81 238.946 180.934 235.082 181.035L229.623 181.174C228.155 181.112 226.688 181.322 225.295 181.792C224.379 182.152 223.601 182.793 223.073 183.624C222.904 183.943 222.756 184.274 222.632 184.613C222.616 184.518 222.616 184.422 222.632 184.327C222.691 184.059 222.785 183.799 222.91 183.554C223.415 182.65 224.208 181.939 225.164 181.537C226.579 181.013 228.083 180.766 229.593 180.81L235.012 180.64C238.884 180.54 242.391 180.463 244.923 180.424H247.927C248.315 180.399 248.703 180.407 249.089 180.447Z" fill="#AA6550"/>
<path d="M249.406 189.011C249.067 189.024 248.727 189.001 248.392 188.941L245.651 188.593C243.328 188.292 240.138 187.821 236.615 187.31C234.858 187.063 233.177 186.746 231.66 186.615C230.329 186.455 228.98 186.697 227.789 187.31C226.994 187.751 226.309 188.364 225.783 189.104C225.411 189.629 225.264 189.961 225.233 189.946C225.246 189.857 225.272 189.771 225.311 189.691C225.405 189.455 225.519 189.228 225.652 189.011C226.15 188.21 226.835 187.541 227.649 187.063C228.879 186.378 230.291 186.092 231.691 186.244C233.239 186.36 234.92 186.669 236.685 186.909C240.208 187.434 243.398 187.936 245.698 188.315L248.423 188.787C248.757 188.829 249.087 188.904 249.406 189.011Z" fill="#AA6550"/>
<path d="M238.76 193.872C238.012 193.766 237.271 193.606 236.546 193.393C235.183 193.061 233.309 192.566 231.234 192.141C230.741 192.025 230.238 191.95 229.732 191.917C229.279 191.935 228.837 192.065 228.447 192.295C227.754 192.678 227.17 193.232 226.751 193.903C226.405 194.559 226.176 195.27 226.078 196.005C226.013 195.806 225.997 195.594 226.031 195.387C226.072 194.82 226.23 194.267 226.496 193.764C226.912 193.018 227.522 192.399 228.261 191.971C228.706 191.706 229.208 191.552 229.724 191.523C230.259 191.551 230.79 191.624 231.312 191.739C233.418 192.18 235.276 192.713 236.616 193.115C237.354 193.296 238.072 193.549 238.76 193.872Z" fill="#AA6550"/>
<path d="M88.4961 214.686L130.81 209.492L205.025 197.451L214.603 221.48C186.729 231.126 158.127 239.828 130.067 247.48C127.774 247.937 125.436 248.134 123.099 248.067C113.73 248.106 90.6254 244.35 88.4961 214.686Z" fill="#EF5E9C"/>
<path d="M214.603 221.48C214.531 221.342 214.466 221.2 214.409 221.055C214.278 220.753 214.107 220.336 213.875 219.795C213.418 218.667 212.752 217.044 211.908 214.972L204.87 197.505L205.048 197.605L168.99 203.618C160.473 205.079 152.304 206.03 144.902 207.011C141.193 207.498 137.678 207.985 134.403 208.557C132.762 208.82 131.182 209.078 129.664 209.33C128.21 209.563 126.77 209.878 125.352 210.273C121.079 211.617 117.479 214.535 115.286 218.435C114.685 219.483 114.19 220.589 113.807 221.735C113.676 222.129 113.59 222.438 113.536 222.639C113.509 222.745 113.473 222.849 113.428 222.948C113.5 222.53 113.601 222.117 113.73 221.712C114.082 220.547 114.557 219.423 115.147 218.357C116.078 216.665 117.275 215.133 118.693 213.821C120.591 212.089 122.841 210.786 125.29 210.002C126.719 209.596 128.169 209.269 129.633 209.021C131.182 208.743 132.731 208.457 134.372 208.186C137.655 207.645 141.17 207.135 144.871 206.64C152.281 205.643 160.442 204.685 168.944 203.216L205.017 197.288H205.149L205.195 197.412C208.076 204.708 210.445 210.721 212.102 214.926L213.991 219.78C214.2 220.328 214.355 220.753 214.479 221.055C214.603 221.356 214.603 221.48 214.603 221.48Z" fill="#263238"/>
<path d="M111.267 246.792C111.382 246.804 111.496 246.827 111.607 246.861L112.591 247.101C113.458 247.287 114.735 247.58 116.408 247.781C121.133 248.362 125.922 248.132 130.569 247.101C132.041 246.792 133.558 246.375 135.145 245.926L140.085 244.535L150.925 241.444C158.583 239.218 166.984 236.721 175.772 233.993C190.483 229.433 204.002 224.966 214.486 221.356L214.393 221.565C211.497 214.222 209.12 208.217 207.471 204.02C206.658 201.941 206.031 200.31 205.589 199.182C205.38 198.641 205.225 198.224 205.109 197.914C204.993 197.605 204.962 197.482 204.962 197.482C204.962 197.482 205.032 197.621 205.156 197.899C205.28 198.177 205.45 198.618 205.675 199.151L207.633 203.951L214.687 221.449L214.749 221.603L214.594 221.658C204.095 225.321 190.592 229.812 175.88 234.379C167.092 237.108 158.683 239.596 151.018 241.807L140.116 244.898L135.169 246.259C133.62 246.699 132.071 247.117 130.577 247.418C125.897 248.43 121.076 248.621 116.33 247.982C114.608 247.749 112.912 247.35 111.267 246.792Z" fill="#263238"/>
<path d="M127.666 209.492C127.32 209.584 126.964 209.638 126.606 209.655L123.702 209.941L114.132 210.876L104.562 211.896L101.658 212.197C101.306 212.258 100.947 212.278 100.59 212.259C100.934 212.158 101.286 212.085 101.643 212.043C102.324 211.935 103.308 211.788 104.531 211.618C106.97 211.278 110.346 210.845 114.086 210.482C117.825 210.118 121.224 209.825 123.679 209.662C124.91 209.577 125.909 209.523 126.598 209.492C126.953 209.462 127.311 209.462 127.666 209.492Z" fill="#263238"/>
<path d="M53.7314 286.974C51.5944 290.027 47.4288 289.015 45.5008 287.152C43.5729 285.29 42.7599 282.592 42.0166 280.018C40.3209 274.137 38.6097 267.969 39.8718 261.979C40.1803 260.162 40.9839 258.464 42.1946 257.071C42.8054 256.385 43.5863 255.872 44.459 255.583C45.3316 255.294 46.2651 255.24 47.1655 255.425C49.2638 255.974 50.5646 258.022 51.5092 259.977C54.2857 265.737 55.7405 272.042 55.7678 278.434C55.7678 281.402 55.4271 284.524 53.7469 286.974" fill="#EF5E9C"/>
<g opacity="0.2">
<path d="M53.7314 286.974C51.5944 290.027 47.4288 289.015 45.5008 287.152C43.5729 285.29 42.7599 282.592 42.0166 280.018C40.3209 274.137 38.6097 267.969 39.8718 261.979C40.1803 260.162 40.9839 258.464 42.1946 257.071C42.8054 256.385 43.5863 255.872 44.459 255.583C45.3316 255.294 46.2651 255.24 47.1655 255.425C49.2638 255.974 50.5646 258.022 51.5092 259.977C54.2857 265.737 55.7405 272.042 55.7678 278.434C55.7678 281.402 55.4271 284.524 53.7469 286.974" fill="black"/>
</g>
<path d="M45.7092 302.425C42.2095 300.624 38.0903 300.392 34.2034 301.033C32.1206 301.373 29.9371 301.999 28.5202 303.568C27.1033 305.137 26.8323 307.889 28.4583 309.234C29.5122 309.94 30.7793 310.26 32.0432 310.138C35.0861 310.099 38.4619 309.566 40.8932 311.398C42.2791 312.433 43.216 314.172 44.8575 314.683C45.6857 314.876 46.5544 314.795 47.3324 314.452C48.1105 314.109 48.7555 313.523 49.1702 312.781C49.9611 311.261 50.1358 309.495 49.658 307.85C49.4647 306.703 49.0075 305.616 48.3223 304.674C47.6372 303.733 46.7427 302.963 45.7092 302.425Z" fill="#EF5E9C"/>
<path d="M59.6079 291.357C57.2851 288.598 56.8437 284.586 57.8813 281.139C58.9188 277.692 61.2494 274.755 63.9361 272.359C67.0998 269.547 70.7815 267.376 74.776 265.967C76.3216 265.338 77.9869 265.056 79.654 265.14C80.4873 265.187 81.2965 265.437 82.0106 265.868C82.7247 266.299 83.3219 266.898 83.7499 267.614C84.8959 269.785 83.7964 272.429 82.6117 274.57C80.5249 278.359 78.1404 281.977 75.4806 285.39C73.3436 288.141 70.8969 290.854 67.6449 292.099C64.3929 293.343 61.0016 293.196 59.2749 290.939" fill="#EF5E9C"/>
<path d="M53.8784 333C53.7629 332.547 53.6979 332.083 53.6849 331.617C53.5842 330.612 53.4603 329.344 53.3132 327.837C53.1233 325.972 52.839 324.117 52.4615 322.28C51.9649 320.047 51.2891 317.858 50.4407 315.734C49.6085 313.61 48.4798 311.614 47.088 309.806C45.9544 308.335 44.5078 307.134 42.8527 306.289C41.7219 305.732 40.509 305.359 39.2601 305.184C38.795 305.164 38.3331 305.097 37.8818 304.983C38.3476 304.933 38.8175 304.933 39.2833 304.983C40.5725 305.081 41.8338 305.408 43.0076 305.949C44.7507 306.772 46.2797 307.986 47.4752 309.496C48.9276 311.328 50.0992 313.365 50.9517 315.54C51.8082 317.7 52.4791 319.929 52.9571 322.203C53.3289 324.058 53.5874 325.935 53.7313 327.822C53.8552 329.429 53.9017 330.728 53.9172 331.624C53.9528 332.083 53.9399 332.544 53.8784 333Z" fill="#263238"/>
<path d="M53.6145 330.094C53.5752 329.882 53.5622 329.667 53.5757 329.452C53.5757 328.965 53.5757 328.355 53.5757 327.605C53.5757 326.013 53.5757 323.702 53.4906 320.85C53.3512 315.146 52.8557 307.263 51.9422 298.606C51.0287 289.95 49.6893 282.159 48.5513 276.571C48.2726 275.165 48.0016 273.905 47.7771 272.8C47.5526 271.694 47.3203 270.744 47.119 269.971C46.9177 269.198 46.8016 268.649 46.6855 268.178C46.6247 267.971 46.5858 267.759 46.5693 267.544C46.6699 267.734 46.7454 267.937 46.7939 268.147C46.9409 268.611 47.1113 269.198 47.3358 269.909C47.5603 270.62 47.8158 271.625 48.11 272.73C48.4042 273.835 48.7061 275.087 49.008 276.486C50.5862 283.77 51.7724 291.134 52.5616 298.545C53.5138 307.224 53.9474 315.123 53.9861 320.842C53.9861 323.702 53.9861 326.021 53.8854 327.613C53.839 328.386 53.8003 328.973 53.7693 329.452C53.7458 329.672 53.6938 329.888 53.6145 330.094Z" fill="#263238"/>
<path d="M53.5759 314.852C53.5268 314.215 53.5268 313.574 53.5759 312.936C53.6455 311.699 53.8159 309.914 54.1643 307.726C54.5857 305.169 55.1518 302.638 55.86 300.144C56.7055 297.08 57.7664 294.079 59.0345 291.163C61.2427 285.804 64.4066 280.889 68.3723 276.656C69.058 275.932 69.7899 275.253 70.5636 274.624C70.9042 274.338 71.1985 274.052 71.5004 273.851L72.3521 273.263C72.8682 272.879 73.4116 272.533 73.9781 272.228C74.071 272.359 71.6553 273.773 68.6666 276.965C64.8293 281.231 61.7499 286.119 59.561 291.418C58.3015 294.307 57.2358 297.277 56.371 300.307C55.6415 302.779 55.0368 305.286 54.5592 307.819C54.1643 309.983 53.932 311.753 53.7849 312.974C53.7663 313.605 53.6964 314.233 53.5759 314.852Z" fill="#263238"/>
<path d="M278.96 69.7849C278.186 63.6559 273.006 57.9443 266.819 57.9443C263.173 57.9443 259.696 59.8456 257.203 62.5121C256.316 63.4085 255.501 64.3723 254.764 65.3949C254.24 64.2476 253.629 63.1418 252.937 62.087C251.016 58.9954 247.989 56.4371 244.419 55.7184C238.349 54.5126 232.139 59.0881 230.18 64.9466C228.222 70.8051 229.855 77.3747 233.069 82.6458C236.282 87.9169 241.818 94.8188 252.015 98.235C259.038 97.3384 268.453 91.1167 272.642 86.5721C276.831 82.0275 279.719 75.9139 278.96 69.7849Z" fill="#EF5E9C"/>
<path d="M276.731 80.7831H276.53L275.934 80.7445L273.611 80.5513L265.202 79.7784L265.349 79.6856L261.85 88.8057L261.633 89.3545L261.494 88.7825C260.433 84.3539 259.233 79.3997 257.971 74.1749L256.832 69.4217L257.189 69.499L250.77 78.3099L250.708 78.3872H250.638L235.857 76.8414L231.676 76.3777L230.569 76.2385L230.189 76.169C230.318 76.157 230.448 76.157 230.577 76.169L231.684 76.254L235.88 76.6173L250.669 78.0085L250.507 78.0858L256.894 69.2516L257.15 68.9038L257.251 69.3212C257.622 70.867 258.025 72.4669 258.396 74.0899C259.643 79.3146 260.828 84.2766 261.888 88.7053H261.532L265.109 79.6083L265.148 79.5079H265.257L273.658 80.4044L275.942 80.6749L276.53 80.7522L276.731 80.7831Z" fill="#FAFAFA"/>
<path d="M45.8201 190.123L58.3443 193.827L56.2112 201.015C55.9517 201.889 55.3547 202.625 54.5516 203.061C53.7486 203.496 52.8052 203.595 51.929 203.336L45.9898 201.58C45.1136 201.321 44.3764 200.725 43.9404 199.923C43.5044 199.121 43.4052 198.18 43.6648 197.305L45.7979 190.117L45.8201 190.123Z" fill="#EF5E9C"/>
<path opacity="0.3" d="M45.8203 190.123L58.3445 193.827L56.2092 201.022C55.9508 201.893 55.3566 202.625 54.5571 203.059C53.7576 203.492 52.8185 203.591 51.9462 203.333L46.0071 201.577C45.5752 201.449 45.1727 201.238 44.8226 200.955C44.4726 200.672 44.1818 200.323 43.9669 199.927C43.7519 199.532 43.6171 199.099 43.57 198.652C43.5229 198.204 43.5645 197.752 43.6924 197.321L45.8277 190.126L45.8203 190.123Z" fill="black"/>
<path d="M56.3871 201.014C54.2378 200.594 52.1172 200.039 50.038 199.352C47.9332 198.793 45.8646 198.107 43.8438 197.296C45.9924 197.722 48.1127 198.28 50.1928 198.966C52.2968 199.524 54.3653 200.208 56.3871 201.014Z" fill="#263238"/>
<path d="M47.7764 198.394C47.8292 198.196 47.9208 198.011 48.0458 197.849C48.1708 197.687 48.3268 197.552 48.5046 197.45C48.6825 197.349 48.8787 197.284 49.0819 197.259C49.2852 197.234 49.4914 197.249 49.6886 197.304L52.197 198.077C52.3915 198.138 52.5719 198.237 52.7278 198.369C52.8838 198.5 53.0122 198.661 53.1057 198.842C53.1992 199.023 53.256 199.22 53.2728 199.423C53.2896 199.626 53.266 199.831 53.2034 200.024L47.7764 198.394Z" fill="#263238"/>
<path d="M57.7878 129.398L43.8508 186.909C43.5319 188.122 43.6923 189.412 44.299 190.511C44.9057 191.61 45.9122 192.434 47.1105 192.813L56.2393 195.519C57.4181 195.843 58.676 195.715 59.7651 195.16C60.8542 194.605 61.6957 193.663 62.1238 192.52L84.0127 137.142L57.7878 129.398Z" fill="#EF5E9C"/>
<path d="M82.2086 141.702C82.2086 141.81 76.4325 140.203 69.3788 138.116C62.3251 136.029 56.6264 134.252 56.6574 134.143C56.6883 134.035 62.4335 135.643 69.4949 137.73C76.5563 139.816 82.2396 141.594 82.2086 141.702Z" fill="#263238"/>
<path d="M58.6699 134.8C58.7091 133.972 58.8816 133.155 59.1809 132.381C59.3556 131.567 59.6559 130.785 60.0712 130.063C60.0371 130.891 59.8671 131.708 59.568 132.482C59.3968 133.298 59.0935 134.081 58.6699 134.8Z" fill="#263238"/>
<path d="M60.7539 135.411C60.9547 133.77 61.4283 132.174 62.1552 130.689C62.116 131.517 61.9435 132.334 61.6442 133.108C61.4697 133.917 61.1693 134.694 60.7539 135.411Z" fill="#263238"/>
<path d="M62.8281 136.029C62.8673 135.201 63.0398 134.384 63.3391 133.61C63.5098 132.795 63.8104 132.012 64.2294 131.291C64.1953 132.12 64.0253 132.937 63.7262 133.711C63.555 134.527 63.2517 135.31 62.8281 136.029Z" fill="#263238"/>
<path d="M64.9111 136.64C65.1119 134.999 65.5855 133.403 66.3124 131.917C66.1019 133.556 65.6288 135.151 64.9111 136.64Z" fill="#263238"/>
<path d="M66.9863 137.258C67.0255 136.43 67.1981 135.613 67.4973 134.839C67.668 134.024 67.9686 133.241 68.3876 132.52C68.3535 133.349 68.1835 134.166 67.8844 134.939C67.7132 135.756 67.4099 136.539 66.9863 137.258Z" fill="#263238"/>
<path d="M69.0693 137.869C69.2701 136.228 69.7437 134.632 70.4706 133.146C70.2601 134.785 69.787 136.38 69.0693 137.869Z" fill="#263238"/>
<path d="M71.1445 138.487C71.1837 137.659 71.3562 136.842 71.6555 136.068C71.8262 135.252 72.1268 134.47 72.5458 133.749C72.5117 134.578 72.3417 135.395 72.0426 136.168C71.8714 136.985 71.5681 137.768 71.1445 138.487Z" fill="#263238"/>
<path d="M73.2188 139.098C73.2626 138.27 73.435 137.454 73.7297 136.678C73.8991 135.861 74.2025 135.078 74.6278 134.36C74.5839 135.188 74.4116 136.004 74.1168 136.779C73.9474 137.596 73.644 138.379 73.2188 139.098Z" fill="#263238"/>
<path d="M75.3018 139.716C75.3353 138.887 75.5053 138.07 75.805 137.297C75.9802 136.482 76.2833 135.699 76.703 134.978C76.6638 135.807 76.4913 136.624 76.1921 137.397C76.0214 138.213 75.7208 138.996 75.3018 139.716Z" fill="#263238"/>
<path d="M77.3779 140.326C77.5884 138.688 78.0616 137.093 78.7792 135.604C78.5784 137.245 78.1048 138.841 77.3779 140.326Z" fill="#263238"/>
<path d="M79.46 140.945C79.4935 140.116 79.6635 139.299 79.9632 138.526C80.1343 137.709 80.4377 136.926 80.8612 136.207C80.8221 137.036 80.6495 137.852 80.3503 138.626C80.1796 139.442 79.879 140.224 79.46 140.945Z" fill="#263238"/>
<path d="M81.5352 141.555C81.7456 139.916 82.2188 138.322 82.9364 136.833C82.7357 138.474 82.2621 140.07 81.5352 141.555Z" fill="#263238"/>
<path d="M61.1553 159.463L62.1386 156.171L65.3984 157.137L64.4847 160.221L67.1482 161.001L66.1881 164.24L63.2381 163.374L62.4019 166.195L59.6764 165.384L60.5746 162.354L57.3613 161.403L58.213 158.536L61.1553 159.463Z" fill="white"/>
<path d="M69.0379 163.181C68.9914 163.181 69.2082 162.563 69.2624 161.426C69.3271 159.824 68.8648 158.244 67.9461 156.928C67.3208 156.027 66.4867 155.29 65.5149 154.78C64.3954 154.206 63.1375 153.957 61.8835 154.061C60.4976 154.188 59.1816 154.726 58.105 155.607C56.9469 156.547 56.1003 157.814 55.6761 159.243C55.2519 160.672 55.27 162.195 55.728 163.614C56.1489 164.934 56.9583 166.098 58.0508 166.953C59.0476 167.718 60.2378 168.191 61.4886 168.321C62.5821 168.422 63.684 168.26 64.7019 167.849C66.1955 167.238 67.4448 166.151 68.2558 164.758C68.8365 163.776 68.9836 163.15 69.0301 163.165C69.0145 163.319 68.9781 163.47 68.9217 163.614C68.79 164.038 68.6135 164.448 68.3952 164.835C67.6012 166.291 66.3381 167.438 64.8103 168.089C63.676 168.573 62.4331 168.748 61.2088 168.596C59.9845 168.444 58.8226 167.97 57.8418 167.223C56.6796 166.33 55.8157 165.107 55.3641 163.714C54.8721 162.225 54.8456 160.621 55.2881 159.117C55.7307 157.612 56.6213 156.277 57.8418 155.29C58.9795 154.363 60.3732 153.805 61.8371 153.69C63.157 153.583 64.4804 153.851 65.6542 154.463C66.6642 155.01 67.5273 155.792 68.1707 156.743C69.0896 158.107 69.5231 159.74 69.4018 161.38C69.3707 161.824 69.2955 162.264 69.1772 162.694C69.1567 162.863 69.1097 163.027 69.0379 163.181Z" fill="white"/>
</svg>
