<svg width="13" height="12" viewBox="0 0 13 12" fill="none" xmlns="http://www.w3.org/2000/svg">
<g clip-path="url(#clip0_114_992)">
<path d="M11.375 1H9.75V0H8.66667V1H4.33333V0H3.25V1H1.625C1.19402 1 0.780698 1.15804 0.475951 1.43934C0.171205 1.72064 0 2.10218 0 2.5L0 12H13V2.5C13 2.10218 12.8288 1.72064 12.524 1.43934C12.2193 1.15804 11.806 1 11.375 1ZM1.08333 2.5C1.08333 2.36739 1.1404 2.24021 1.24198 2.14645C1.34357 2.05268 1.48134 2 1.625 2H11.375C11.5187 2 11.6564 2.05268 11.758 2.14645C11.8596 2.24021 11.9167 2.36739 11.9167 2.5V4H1.08333V2.5ZM1.08333 11V5H11.9167V11H1.08333Z" fill="#374957"/>
<path d="M9.20834 6.5H8.125V7.50001H9.20834V6.5Z" fill="#374957"/>
<path d="M7.04171 6.5H5.95837V7.50001H7.04171V6.5Z" fill="#374957"/>
<path d="M4.87496 6.5H3.79163V7.50001H4.87496V6.5Z" fill="#374957"/>
<path d="M9.20834 8.5H8.125V9.50001H9.20834V8.5Z" fill="#374957"/>
<path d="M7.04171 8.5H5.95837V9.50001H7.04171V8.5Z" fill="#374957"/>
<path d="M4.87496 8.5H3.79163V9.50001H4.87496V8.5Z" fill="#374957"/>
</g>
<defs>
<clipPath id="clip0_114_992">
<rect width="13" height="12" fill="white"/>
</clipPath>
</defs>
</svg>
