<svg width="25" height="25" viewBox="0 0 25 25" fill="none" xmlns="http://www.w3.org/2000/svg">
<g clip-path="url(#clip0_98_997)">
<path d="M12.5 0C10.0277 0 7.61099 0.733112 5.55538 2.10663C3.49976 3.48015 1.89761 5.43238 0.951511 7.71646C0.00541608 10.0005 -0.242126 12.5139 0.24019 14.9386C0.722505 17.3634 1.91301 19.5907 3.66117 21.3388C5.40933 23.087 7.63661 24.2775 10.0614 24.7598C12.4861 25.2421 14.9995 24.9946 17.2835 24.0485C19.5676 23.1024 21.5199 21.5002 22.8934 19.4446C24.2669 17.389 25 14.9723 25 12.5C24.9964 9.18589 23.6783 6.00855 21.3349 3.66512C18.9915 1.3217 15.8141 0.00358446 12.5 0V0ZM12.5 22.9167C10.4398 22.9167 8.42583 22.3057 6.71282 21.1611C4.9998 20.0165 3.66467 18.3897 2.87626 16.4863C2.08785 14.5829 1.88156 12.4884 2.28349 10.4678C2.68542 8.44717 3.67751 6.5911 5.13431 5.1343C6.59111 3.67751 8.44718 2.68542 10.4678 2.28349C12.4885 1.88156 14.5829 2.08784 16.4863 2.87626C18.3897 3.66467 20.0165 4.9998 21.1611 6.71281C22.3057 8.42582 22.9167 10.4398 22.9167 12.5C22.9136 15.2617 21.8152 17.9095 19.8624 19.8623C17.9095 21.8152 15.2617 22.9136 12.5 22.9167V22.9167Z" fill="#374957"/>
<path d="M12.4998 6.25C12.2235 6.25 11.9586 6.35975 11.7632 6.5551C11.5679 6.75045 11.4581 7.0154 11.4581 7.29167V11.7969L7.94668 13.9969C7.71185 14.1436 7.54492 14.3775 7.4826 14.6473C7.42028 14.9171 7.46769 15.2006 7.61438 15.4354C7.76108 15.6702 7.99506 15.8372 8.26484 15.8995C8.53461 15.9618 8.8181 15.9144 9.05293 15.7677L13.0529 13.2677C13.2041 13.173 13.3283 13.0411 13.4139 12.8846C13.4994 12.7281 13.5434 12.5523 13.5415 12.3739V7.29167C13.5415 7.0154 13.4317 6.75045 13.2364 6.5551C13.041 6.35975 12.7761 6.25 12.4998 6.25Z" fill="#374957"/>
</g>
<defs>
<clipPath id="clip0_98_997">
<rect width="25" height="25" fill="white"/>
</clipPath>
</defs>
</svg>
