<svg width="17" height="22" viewBox="0 0 17 22" fill="none" xmlns="http://www.w3.org/2000/svg">
<path d="M0.0249023 18.8359C0.0249023 20.5708 0.879883 21.4424 2.59814 21.4424H10.4009C12.1191 21.4424 12.9741 20.5625 12.9741 18.8359V17.3003H14.4268C16.1367 17.3003 17 16.4204 17 14.6938V7.95361C17 6.93262 16.7925 6.28516 16.1699 5.646L11.978 1.3877C11.3887 0.781738 10.6914 0.557617 9.80322 0.557617H6.62402C4.91406 0.557617 4.05078 1.4375 4.05078 3.16406V4.69971H2.59814C0.888184 4.69971 0.0249023 5.57129 0.0249023 7.30615V18.8359ZM12.1855 10.145L7.61182 5.48828C6.98096 4.84082 6.45801 4.69971 5.52832 4.69971H5.38721V3.18896C5.38721 2.36719 5.82715 1.89404 6.69043 1.89404H10.3594V6.15234C10.3594 7.11523 10.8242 7.57178 11.7788 7.57178H15.6636V14.6689C15.6636 15.499 15.2153 15.9639 14.3521 15.9639H12.9741V12.353C12.9741 11.2905 12.8496 10.8257 12.1855 10.145ZM11.563 5.95312V2.5498L15.3149 6.36816H11.9697C11.6792 6.36816 11.563 6.24365 11.563 5.95312ZM1.36133 18.811V7.32275C1.36133 6.50928 1.80127 6.03613 2.66455 6.03613H5.38721V10.8506C5.38721 11.8965 5.91846 12.4194 6.94775 12.4194H11.6377V18.811C11.6377 19.6411 11.1895 20.106 10.3345 20.106H2.65625C1.80127 20.106 1.36133 19.6411 1.36133 18.811ZM7.10547 11.166C6.77344 11.166 6.64062 11.0332 6.64062 10.7012V6.34326L11.3804 11.166H7.10547Z" fill="black"/>
</svg>
