<svg width="16" height="16" viewBox="0 0 16 16" fill="none" xmlns="http://www.w3.org/2000/svg">
<g clip-path="url(#clip0_129_604)">
<path d="M12.4375 0.620129L4.30948 8.74813C3.99904 9.05689 3.75293 9.42417 3.5854 9.82869C3.41786 10.2332 3.33224 10.667 3.33347 11.1048V12.0001C3.33347 12.1769 3.40371 12.3465 3.52874 12.4715C3.65376 12.5966 3.82333 12.6668 4.00014 12.6668H4.89547C5.33332 12.668 5.76705 12.5824 6.17158 12.4149C6.5761 12.2473 6.94338 12.0012 7.25214 11.6908L15.3801 3.5628C15.7697 3.17224 15.9885 2.64311 15.9885 2.09146C15.9885 1.53981 15.7697 1.01068 15.3801 0.620129C14.9839 0.241392 14.4569 0.0300293 13.9088 0.0300293C13.3607 0.0300293 12.8337 0.241392 12.4375 0.620129ZM14.4375 2.62013L6.30947 10.7481C5.93356 11.1218 5.42548 11.3321 4.89547 11.3335H4.66681V11.1048C4.6682 10.5748 4.87852 10.0667 5.25214 9.6908L13.3801 1.5628C13.5225 1.42677 13.7119 1.35086 13.9088 1.35086C14.1057 1.35086 14.2951 1.42677 14.4375 1.5628C14.5774 1.70314 14.656 1.89326 14.656 2.09146C14.656 2.28967 14.5774 2.47979 14.4375 2.62013Z" fill="black"/>
<path d="M15.3333 5.986C15.1565 5.986 14.987 6.05624 14.8619 6.18126C14.7369 6.30629 14.6667 6.47586 14.6667 6.65267V10H12C11.4696 10 10.9609 10.2107 10.5858 10.5858C10.2107 10.9609 10 11.4696 10 12V14.6667H3.33333C2.8029 14.6667 2.29419 14.456 1.91912 14.0809C1.54405 13.7058 1.33333 13.1971 1.33333 12.6667V3.33333C1.33333 2.8029 1.54405 2.29419 1.91912 1.91912C2.29419 1.54405 2.8029 1.33333 3.33333 1.33333H9.36133C9.53815 1.33333 9.70771 1.2631 9.83274 1.13807C9.95776 1.01305 10.028 0.843478 10.028 0.666667C10.028 0.489856 9.95776 0.320286 9.83274 0.195262C9.70771 0.0702379 9.53815 0 9.36133 0L3.33333 0C2.4496 0.00105857 1.60237 0.352588 0.97748 0.97748C0.352588 1.60237 0.00105857 2.4496 0 3.33333L0 12.6667C0.00105857 13.5504 0.352588 14.3976 0.97748 15.0225C1.60237 15.6474 2.4496 15.9989 3.33333 16H10.8953C11.3333 16.0013 11.7671 15.9156 12.1718 15.7481C12.5764 15.5806 12.9438 15.3345 13.2527 15.024L15.0233 13.252C15.3338 12.9432 15.58 12.576 15.7477 12.1715C15.9153 11.767 16.0011 11.3332 16 10.8953V6.65267C16 6.47586 15.9298 6.30629 15.8047 6.18126C15.6797 6.05624 15.5101 5.986 15.3333 5.986ZM12.31 14.0813C12.042 14.3487 11.7031 14.5337 11.3333 14.6147V12C11.3333 11.8232 11.4036 11.6536 11.5286 11.5286C11.6536 11.4036 11.8232 11.3333 12 11.3333H14.6167C14.5342 11.7023 14.3493 12.0406 14.0833 12.3093L12.31 14.0813Z" fill="black"/>
</g>
<defs>
<clipPath id="clip0_129_604">
<rect width="16" height="16" fill="white"/>
</clipPath>
</defs>
</svg>
