<svg width="57" height="57" viewBox="0 0 57 57" fill="none" xmlns="http://www.w3.org/2000/svg">
<g clip-path="url(#clip0_1437_1176)">
<path d="M48.45 0H8.55C3.82797 0 0 3.82797 0 8.55V48.45C0 53.172 3.82797 57 8.55 57H48.45C53.172 57 57 53.172 57 48.45V8.55C57 3.82797 53.172 0 48.45 0Z" fill="white"/>
<path d="M29.5 6C17.39 6 8 14.8695 8 26.8611C8 33.1289 10.5663 38.5452 14.7409 42.2822C14.9174 42.4367 15.0607 42.6254 15.1623 42.8367C15.2639 43.0481 15.3217 43.2778 15.3322 43.5121L15.4505 47.3319C15.46 47.6132 15.5382 47.8878 15.6781 48.1319C15.818 48.3761 16.0155 48.5823 16.2533 48.7327C16.4911 48.8831 16.7621 48.9731 17.0427 48.9948C17.3232 49.0166 17.6049 48.9694 17.863 48.8575L22.1205 46.9653C22.4854 46.8037 22.8952 46.7744 23.2794 46.8825C25.3064 47.4366 27.3987 47.7151 29.5 47.7104C41.61 47.7104 51 38.8408 51 26.8611C51 14.8813 41.61 6 29.5 6Z" fill="url(#paint0_linear_1437_1176)"/>
<path d="M17.1636 33.4307L23.4407 23.4528C23.677 23.0764 23.9885 22.7531 24.3557 22.5035C24.7229 22.2538 25.1378 22.0832 25.5742 22.0024C26.0105 21.9215 26.4588 21.9323 26.8908 22.0339C27.3228 22.1356 27.7291 22.3259 28.0839 22.5929L33.0798 26.3508C33.3015 26.5135 33.5691 26.6012 33.8439 26.6012C34.1186 26.6012 34.3863 26.5135 34.6079 26.3508L41.367 21.2146C42.2604 20.5313 43.4359 21.6151 42.8364 22.5693L36.5593 32.5472C36.323 32.9219 36.012 33.2436 35.6457 33.4921C35.2795 33.7407 34.8659 33.9106 34.431 33.9914C33.9961 34.0721 33.5493 34.0619 33.1185 33.9614C32.6877 33.8608 32.2824 33.6721 31.9278 33.4071L26.932 29.6492C26.7081 29.481 26.4359 29.3901 26.1561 29.3901C25.8764 29.3901 25.6041 29.481 25.3803 29.6492L18.633 34.7854C17.7396 35.4687 16.5641 34.3849 17.1636 33.4307Z" fill="white"/>
</g>
<defs>
<linearGradient id="paint0_linear_1437_1176" x1="29.5" y1="6" x2="29.5" y2="48.9284" gradientUnits="userSpaceOnUse">
<stop stop-color="#00B2FF"/>
<stop offset="1" stop-color="#006AFF"/>
</linearGradient>
<clipPath id="clip0_1437_1176">
<rect width="57" height="57" fill="white"/>
</clipPath>
</defs>
</svg>
