<svg width="60" height="60" viewBox="0 0 60 60" fill="none" xmlns="http://www.w3.org/2000/svg">
<g clip-path="url(#clip0_128_522)">
<path d="M30 29.9998C32.9667 29.9998 35.8668 29.12 38.3336 27.4718C40.8003 25.8236 42.7229 23.4809 43.8582 20.74C44.9935 17.9991 45.2906 14.9831 44.7118 12.0734C44.133 9.16369 42.7044 6.49095 40.6066 4.39316C38.5088 2.29537 35.8361 0.866762 32.9264 0.287983C30.0166 -0.290795 27.0006 0.00625515 24.2597 1.14157C21.5189 2.27688 19.1762 4.19947 17.528 6.66621C15.8797 9.13295 15 12.033 15 14.9998C15.004 18.9768 16.5856 22.7898 19.3978 25.602C22.21 28.4142 26.023 29.9958 30 29.9998ZM30 4.99976C31.9778 4.99976 33.9112 5.58625 35.5557 6.68507C37.2002 7.78388 38.4819 9.34567 39.2388 11.1729C39.9957 13.0002 40.1937 15.0109 39.8079 16.9507C39.422 18.8905 38.4696 20.6723 37.0711 22.0708C35.6725 23.4694 33.8907 24.4218 31.9509 24.8076C30.0111 25.1935 28.0004 24.9954 26.1732 24.2386C24.3459 23.4817 22.7841 22.2 21.6853 20.5555C20.5865 18.911 20 16.9776 20 14.9998C20 12.3476 21.0536 9.80406 22.9289 7.92869C24.8043 6.05333 27.3478 4.99976 30 4.99976V4.99976Z" fill="#EF5DA8"/>
<path d="M30 35.0015C24.0346 35.0081 18.3155 37.3807 14.0974 41.5989C9.87926 45.817 7.5066 51.5361 7.49998 57.5015C7.49998 58.1645 7.76338 58.8004 8.23222 59.2692C8.70106 59.7381 9.33694 60.0015 9.99998 60.0015C10.663 60.0015 11.2989 59.7381 11.7678 59.2692C12.2366 58.8004 12.5 58.1645 12.5 57.5015C12.5 52.8602 14.3437 48.409 17.6256 45.1271C20.9075 41.8452 25.3587 40.0015 30 40.0015C34.6413 40.0015 39.0925 41.8452 42.3744 45.1271C45.6562 48.409 47.5 52.8602 47.5 57.5015C47.5 58.1645 47.7634 58.8004 48.2322 59.2692C48.7011 59.7381 49.3369 60.0015 50 60.0015C50.663 60.0015 51.2989 59.7381 51.7678 59.2692C52.2366 58.8004 52.5 58.1645 52.5 57.5015C52.4934 51.5361 50.1207 45.817 45.9026 41.5989C41.6844 37.3807 35.9653 35.0081 30 35.0015V35.0015Z" fill="#EF5DA8"/>
</g>
<defs>
<clipPath id="clip0_128_522">
<rect width="60" height="60" fill="white"/>
</clipPath>
</defs>
</svg>
