<svg width="20" height="20" viewBox="0 0 20 20" fill="none" xmlns="http://www.w3.org/2000/svg">
<path d="M15 8.95829C14.6583 8.95829 14.375 8.67496 14.375 8.33329V6.66663C14.375 4.04163 13.6333 2.29163 10 2.29163C6.36667 2.29163 5.625 4.04163 5.625 6.66663V8.33329C5.625 8.67496 5.34167 8.95829 5 8.95829C4.65833 8.95829 4.375 8.67496 4.375 8.33329V6.66663C4.375 4.24996 4.95833 1.04163 10 1.04163C15.0417 1.04163 15.625 4.24996 15.625 6.66663V8.33329C15.625 8.67496 15.3417 8.95829 15 8.95829Z" fill="#606060"/>
<path d="M10.0003 16.0417C8.50866 16.0417 7.29199 14.825 7.29199 13.3333C7.29199 11.8417 8.50866 10.625 10.0003 10.625C11.492 10.625 12.7087 11.8417 12.7087 13.3333C12.7087 14.825 11.492 16.0417 10.0003 16.0417ZM10.0003 11.875C9.20033 11.875 8.54199 12.5333 8.54199 13.3333C8.54199 14.1333 9.20033 14.7917 10.0003 14.7917C10.8003 14.7917 11.4587 14.1333 11.4587 13.3333C11.4587 12.5333 10.8003 11.875 10.0003 11.875Z" fill="#606060"/>
<path d="M14.167 18.9584H5.83366C2.15866 18.9584 1.04199 17.8417 1.04199 14.1667V12.5C1.04199 8.82504 2.15866 7.70837 5.83366 7.70837H14.167C17.842 7.70837 18.9587 8.82504 18.9587 12.5V14.1667C18.9587 17.8417 17.842 18.9584 14.167 18.9584ZM5.83366 8.95837C2.85033 8.95837 2.29199 9.52504 2.29199 12.5V14.1667C2.29199 17.1417 2.85033 17.7084 5.83366 17.7084H14.167C17.1503 17.7084 17.7087 17.1417 17.7087 14.1667V12.5C17.7087 9.52504 17.1503 8.95837 14.167 8.95837H5.83366Z" fill="#606060"/>
</svg>
