<svg width="27" height="26" viewBox="0 0 27 26" fill="none" xmlns="http://www.w3.org/2000/svg">
<path d="M3.44543 0.0570736C2.91323 0.209582 2.61072 0.453594 2.38103 0.911118L2.23537 1.20088L2.25218 2.74121L2.26899 4.28154L2.42024 4.54081C2.58271 4.82041 2.87401 5.07967 3.17093 5.21184L3.3614 5.29318V5.9998V6.7115L1.86564 8.52127C1.04773 9.51765 0.325057 10.4327 0.263434 10.5598C-0.0054673 11.1037 0.00013478 10.9817 0.00013478 16.5889C0.00013478 22.369 -0.0166715 22.0792 0.325057 22.6842C0.509926 23.0197 1.12616 23.5687 1.5127 23.7365C2.18496 24.0364 2.06731 24.0313 7.14282 24.0313L11.7926 24.0364L11.983 24.2855C12.2351 24.6261 12.9018 25.1904 13.3219 25.4242C14.4704 26.0546 15.9325 26.1766 17.1874 25.7445C17.5011 25.6377 18.896 24.9362 21.1481 23.7568C23.0584 22.7553 24.7502 21.8606 24.9015 21.7691C25.5625 21.3828 26.0835 20.8337 26.4477 20.1424C26.7894 19.5018 26.8622 19.1816 26.8622 18.3631C26.8622 17.7582 26.8398 17.5955 26.7334 17.2701C26.3356 16.1263 25.5289 15.252 24.3973 14.7538C23.6578 14.4284 23.2993 14.3522 22.4366 14.3522C21.2937 14.3471 20.9072 14.4742 18.9072 15.5315L17.9549 16.0348L17.9269 13.615C17.8989 11.2562 17.8933 11.1851 17.77 10.8648C17.602 10.4327 17.4787 10.27 15.8989 8.36367L14.5656 6.74709V6.00997V5.27285L14.7057 5.22201C14.9522 5.13559 15.3891 4.72382 15.5236 4.44422C15.6524 4.18496 15.658 4.14937 15.658 2.68021V1.18055L15.5124 0.900949C15.3387 0.565432 15.053 0.301086 14.6945 0.133327L14.4256 0.0113201L9.04753 0.00115395C4.81795 -0.00392965 3.61909 0.00623761 3.44543 0.0570736ZM14.3807 1.17038L14.5376 1.30764L14.5544 2.59379C14.5656 3.7376 14.56 3.89519 14.4704 4.05278C14.4144 4.14937 14.3079 4.25612 14.2295 4.29171C14.039 4.37813 3.86559 4.3883 3.68072 4.30188C3.367 4.15445 3.3614 4.1392 3.3614 2.68021C3.3614 1.23138 3.367 1.21105 3.66951 1.06363C3.74794 1.02296 5.26611 1.00771 9.00272 1.01787L14.2295 1.02804L14.3807 1.17038ZM13.4452 5.88288V6.39124H10.8626C8.17921 6.39124 8.13999 6.39632 7.94392 6.61492C7.74224 6.83351 7.85429 7.2097 8.1624 7.35204C8.24643 7.39271 9.10916 7.40796 10.9971 7.40796H13.7141L15.1034 9.09063C16.4815 10.7631 16.7504 11.1292 16.7504 11.3579V11.4748H8.92989H1.10935L1.14857 11.3071C1.21579 11.0275 1.39506 10.7886 2.87962 8.98896C3.67512 8.02816 4.35857 7.16903 4.40339 7.07244C4.45941 6.95043 4.48182 6.681 4.48182 6.13706V5.37452H8.9635H13.4452V5.88288ZM16.8065 14.5657V16.6347L15.1146 17.5192C14.1791 18.0073 13.2771 18.4902 13.1091 18.597C12.7001 18.841 12.1119 19.3849 11.9046 19.7052L11.7365 19.9644H6.43135H1.12056V16.228V12.4916H8.9635H16.8065V14.5657ZM23.2153 15.44C24.3637 15.7044 25.2488 16.4415 25.6074 17.4328C25.7194 17.7429 25.7418 17.9056 25.7418 18.4139C25.7362 19.1053 25.6354 19.451 25.2768 19.9848C24.9015 20.5491 24.5598 20.7931 22.9352 21.642C22.106 22.0741 21.4058 22.4351 21.3722 22.4452C21.3105 22.4605 17.9493 17.2346 17.9885 17.1939C18.0557 17.138 20.9128 15.6637 21.1201 15.5824C21.7475 15.3333 22.5262 15.2774 23.2153 15.44ZM18.672 20.3508C19.5907 21.7945 20.3246 22.9943 20.2966 23.0146C20.2349 23.0654 17.4059 24.5448 17.0978 24.6871C16.7448 24.8498 16.0614 24.9972 15.6636 24.9972C14.0782 24.9921 12.6777 23.9703 12.3528 22.5723C12.1119 21.5505 12.4424 20.5541 13.2715 19.8119C13.6469 19.4764 13.8822 19.3341 15.3219 18.5817C16.2182 18.114 16.9577 17.7277 16.9745 17.7277C16.9913 17.7277 17.7532 18.9071 18.672 20.3508ZM11.238 21.1693C11.1539 21.6522 11.1371 22.0691 11.1987 22.4554C11.238 22.6842 11.2828 22.9028 11.2996 22.9434C11.3276 23.0044 10.7114 23.0146 6.85711 23.0044C2.44265 22.9892 2.37543 22.9892 2.12333 22.8824C1.74239 22.7198 1.45668 22.4656 1.27741 22.125C1.14296 21.8657 1.12056 21.7539 1.12056 21.398V20.9812H6.19606H11.2772L11.238 21.1693Z" fill="white"/>
<path d="M5.91043 6.44711C5.46226 6.68097 5.52948 7.27578 6.01687 7.38762C6.51546 7.49946 6.90761 6.8894 6.54347 6.55896C6.38661 6.42169 6.07289 6.36069 5.91043 6.44711Z" fill="white"/>
</svg>
