<svg width="21" height="20" viewBox="0 0 21 20" fill="none" xmlns="http://www.w3.org/2000/svg">
<g clip-path="url(#clip0_1675_3839)">
<path d="M16.3333 0H4.66667C3.562 0.00132321 2.50296 0.440735 1.72185 1.22185C0.940735 2.00296 0.501323 3.062 0.5 4.16667L0.5 15.8333C0.501323 16.938 0.940735 17.997 1.72185 18.7782C2.50296 19.5593 3.562 19.9987 4.66667 20H16.3333C17.438 19.9987 18.497 19.5593 19.2782 18.7782C20.0593 17.997 20.4987 16.938 20.5 15.8333V4.16667C20.4987 3.062 20.0593 2.00296 19.2782 1.22185C18.497 0.440735 17.438 0.00132321 16.3333 0V0ZM4.66667 1.66667H16.3333C16.9964 1.66667 17.6323 1.93006 18.1011 2.3989C18.5699 2.86774 18.8333 3.50363 18.8333 4.16667V15.8333C18.8319 16.2046 18.7464 16.5707 18.5833 16.9042L10.9475 9.26833C10.5606 8.88131 10.1012 8.57429 9.5956 8.36483C9.09001 8.15537 8.5481 8.04756 8.00083 8.04756C7.45357 8.04756 6.91166 8.15537 6.40606 8.36483C5.90047 8.57429 5.44109 8.88131 5.05417 9.26833L2.16667 12.155V4.16667C2.16667 3.50363 2.43006 2.86774 2.8989 2.3989C3.36774 1.93006 4.00363 1.66667 4.66667 1.66667ZM4.66667 18.3333C4.00363 18.3333 3.36774 18.0699 2.8989 17.6011C2.43006 17.1323 2.16667 16.4964 2.16667 15.8333V14.5117L6.23167 10.4467C6.46383 10.2144 6.7395 10.0301 7.04292 9.90432C7.34634 9.77858 7.67156 9.71387 8 9.71387C8.32844 9.71387 8.65366 9.77858 8.95708 9.90432C9.2605 10.0301 9.53617 10.2144 9.76833 10.4467L17.4042 18.0833C17.0707 18.2464 16.7046 18.3319 16.3333 18.3333H4.66667Z" fill="#6359A6"/>
<path d="M13.8335 8.74972C14.4103 8.74972 14.9742 8.57866 15.4539 8.25817C15.9335 7.93768 16.3074 7.48216 16.5281 6.94921C16.7489 6.41626 16.8066 5.82981 16.6941 5.26404C16.5816 4.69826 16.3038 4.17856 15.8959 3.77066C15.488 3.36275 14.9683 3.08497 14.4025 2.97243C13.8367 2.85989 13.2503 2.91765 12.7173 3.1384C12.1844 3.35916 11.7288 3.73299 11.4084 4.21264C11.0879 4.69228 10.9168 5.25619 10.9168 5.83305C10.9168 6.6066 11.2241 7.34846 11.7711 7.89544C12.3181 8.44243 13.0599 8.74972 13.8335 8.74972ZM13.8335 4.58305C14.0807 4.58305 14.3224 4.65636 14.5279 4.79371C14.7335 4.93106 14.8937 5.12629 14.9883 5.3547C15.0829 5.5831 15.1077 5.83444 15.0595 6.07691C15.0112 6.31939 14.8922 6.54212 14.7174 6.71693C14.5425 6.89175 14.3198 7.0108 14.0773 7.05903C13.8349 7.10726 13.5835 7.08251 13.3551 6.9879C13.1267 6.89329 12.9315 6.73307 12.7941 6.52751C12.6568 6.32195 12.5835 6.08028 12.5835 5.83305C12.5835 5.50153 12.7152 5.18359 12.9496 4.94917C13.184 4.71475 13.502 4.58305 13.8335 4.58305Z" fill="#6359A6"/>
</g>
<defs>
<clipPath id="clip0_1675_3839">
<rect width="20" height="20" fill="white" transform="translate(0.5)"/>
</clipPath>
</defs>
</svg>
