<svg width="29" height="29" viewBox="0 0 29 29" fill="none" xmlns="http://www.w3.org/2000/svg">
<path d="M13.1289 0.0583801C10.3727 0.302244 7.52008 1.47052 5.3253 3.25697C4.67878 3.77872 3.65796 4.81089 3.14754 5.45174C1.84883 7.07939 0.782633 9.27984 0.340275 11.2534C0.0623838 12.4898 0 13.0966 0 14.5144C0 15.9322 0.0623838 16.539 0.340275 17.7754C0.788304 19.7887 1.88286 22.0231 3.22694 23.6735C3.7487 24.32 4.78087 25.3408 5.42172 25.8512C7.04937 27.15 9.24981 28.2161 11.2234 28.6585C12.4597 28.9364 13.0666 28.9988 14.4844 28.9988C15.9022 28.9988 16.509 28.9364 17.7453 28.6585C19.2255 28.3296 21.1651 27.5016 22.4411 26.6566C24.6473 25.1877 26.343 23.2595 27.5056 20.8946C28.4413 18.9833 28.9007 17.1629 28.9858 15.0362C29.1162 11.6447 28.033 8.32707 25.8949 5.55382C25.4185 4.93566 24.0631 3.58023 23.445 3.10384C20.4505 0.795643 16.8436 -0.270552 13.1289 0.0583801ZM16.4126 1.10189C17.1669 1.21531 18.2444 1.47619 18.9874 1.7314C20.201 2.15107 21.8286 3.04713 22.9005 3.89782C23.4166 4.30048 24.6983 5.58218 25.101 6.09826C25.9516 7.17013 26.8477 8.79778 27.2674 10.0114C27.7948 11.5597 28.0046 12.83 28.0046 14.5144C28.0046 15.8925 27.9196 16.6071 27.6133 17.8321C26.4053 22.6186 22.5886 26.4354 17.8021 27.6434C16.5771 27.9496 15.8625 28.0347 14.4844 28.0347C12.8 28.0347 11.5297 27.8248 9.9814 27.2974C8.76775 26.8777 7.14011 25.9817 6.06824 25.131C5.55216 24.7283 4.27045 23.4466 3.86779 22.9305C3.01711 21.8587 2.12105 20.231 1.70138 19.0174C1.44617 18.2631 1.18529 17.1969 1.06052 16.3859C0.924414 15.4842 0.924414 13.5446 1.06052 12.6429C1.2817 11.174 1.67869 9.89233 2.31387 8.58794C3.02845 7.13043 3.73735 6.13796 4.92265 4.95267C5.75632 4.12467 6.19301 3.76171 7.06638 3.18324C8.86417 1.99795 10.9909 1.24934 13.2083 1.02249C13.9059 0.948767 15.6867 0.994137 16.4126 1.10189Z" fill="white"/>
<path d="M13.7471 4.87898C12.7603 4.94704 11.2007 5.32134 10.9455 5.54819C10.7754 5.70131 10.7357 5.87712 10.8264 6.0983C10.9568 6.41589 11.1156 6.43858 11.7848 6.24008C12.6128 5.99055 13.1176 5.89414 13.8889 5.84877C14.6772 5.79773 15.5789 5.84877 16.1857 5.97921C16.4183 6.03025 16.6735 6.05293 16.7585 6.03592C16.9797 5.98488 17.1158 5.80907 17.1158 5.57088C17.1158 5.27597 16.9287 5.13986 16.3502 5.02644C15.9192 4.94137 14.6431 4.80526 14.4276 4.82794C14.3823 4.82794 14.076 4.85063 13.7471 4.87898Z" fill="white"/>
<path d="M8.35374 7.41974L8.18927 7.58421V9.92643V12.263L8.90952 12.9946L9.63544 13.7262L9.4256 17.9626C9.29516 20.5033 9.23278 22.2784 9.26114 22.3975C9.43127 23.1348 10.1288 23.7019 10.8548 23.7019C11.5977 23.7019 12.2782 23.1461 12.4484 22.3975C12.4767 22.2784 12.4144 20.4976 12.2839 17.9626L12.0741 13.7262L12.8 12.9946L13.5202 12.263V9.92643V7.58421L13.3558 7.41974C13.18 7.24393 13.0212 7.21557 12.8227 7.32333C12.5618 7.45944 12.5618 7.45377 12.5561 9.72227V11.8773L11.8983 12.5295C11.5353 12.8868 11.2064 13.2555 11.1667 13.3519C11.1043 13.4936 11.127 14.2082 11.3085 17.7981C11.4502 20.6678 11.507 22.131 11.4729 22.2614C11.3198 22.8115 10.5315 22.8682 10.2763 22.3408C10.1856 22.1537 10.1912 21.9438 10.3954 17.8322C10.5825 14.2082 10.6052 13.4936 10.5428 13.3519C10.5031 13.2555 10.1742 12.8868 9.81125 12.5295L9.15338 11.8773V9.72227C9.14771 7.45377 9.14771 7.45944 8.88683 7.32333C8.68834 7.21557 8.52955 7.24393 8.35374 7.41974Z" fill="white"/>
<path d="M9.91902 7.32324C9.66382 7.45935 9.66382 7.45368 9.66382 9.67681V11.7979L9.8056 11.934C9.99275 12.1268 10.2763 12.1268 10.4635 11.9283L10.5996 11.7808V9.65412V7.5274L10.4408 7.39129C10.2706 7.24384 10.1005 7.22115 9.91902 7.32324Z" fill="white"/>
<path d="M11.2688 7.39129L11.11 7.5274V9.65412V11.7808L11.2461 11.9283C11.4332 12.1268 11.7168 12.1268 11.904 11.934L12.0457 11.7979V9.69949C12.0457 8.54823 12.0287 7.56143 12.0117 7.51039C11.9663 7.40263 11.6998 7.25518 11.541 7.25518C11.4786 7.25518 11.3538 7.31757 11.2688 7.39129Z" fill="white"/>
<path d="M17.5468 7.33457C16.9343 7.51037 16.4296 7.91303 16.1687 8.42912C16.0156 8.72969 15.7377 9.59739 15.5789 10.2609C15.4428 10.8451 15.4428 12.0757 15.5789 12.5861C15.7434 13.193 16.095 13.6864 16.6621 14.0947L16.8266 14.2138L16.6451 18.2631C16.5203 21.0703 16.4863 22.3691 16.5203 22.4995C16.6167 22.8228 16.8663 23.1914 17.1101 23.3672C18.0232 24.0251 19.3219 23.6394 19.6735 22.5959C19.7643 22.3294 19.7586 22.1138 19.5828 18.2631L19.4013 14.2138L19.5658 14.0947C20.4448 13.4595 20.7454 12.7903 20.7454 11.4519C20.7454 10.6182 20.6887 10.2893 20.3541 9.21175C20.0478 8.21928 19.6622 7.73722 18.9363 7.42531C18.5847 7.27785 17.8984 7.22681 17.5468 7.33457ZM18.6641 8.34972C18.8625 8.45747 19.1234 8.70701 19.2198 8.9055C19.3673 9.18339 19.7076 10.4651 19.7699 10.9528C19.8437 11.5256 19.7756 12.2686 19.6225 12.5918C19.4637 12.9264 19.2142 13.1816 18.8625 13.3688C18.6244 13.4935 18.5053 13.6013 18.4656 13.7091C18.4315 13.8111 18.4769 15.2289 18.6017 18.0022C18.7378 20.9853 18.7775 22.1932 18.7321 22.3237C18.6527 22.5619 18.4259 22.7037 18.1139 22.7037C17.802 22.7037 17.5695 22.5619 17.4958 22.3237C17.4561 22.1932 17.4901 20.9626 17.6262 18.0022C17.7737 14.8433 17.802 13.8225 17.751 13.7034C17.7113 13.6013 17.5695 13.4822 17.3483 13.3574C16.9513 13.1419 16.6281 12.7563 16.5146 12.365C16.4069 11.985 16.4239 10.8394 16.5487 10.3744C16.8549 9.22309 16.9854 8.88849 17.2236 8.63328C17.354 8.49717 17.5638 8.34972 17.6886 8.29868C17.9551 8.20227 18.4202 8.22495 18.6641 8.34972Z" fill="white"/>
<path d="M21.2105 8.23627C20.9666 8.48014 21.0063 8.70132 21.3919 9.22307C22.0498 10.1191 22.4184 10.811 22.7247 11.7411C23.082 12.8073 23.133 13.1589 23.133 14.5144C23.133 15.8698 23.082 16.2214 22.7247 17.2876C22.3334 18.4615 21.7946 19.3633 20.7794 20.5429C20.4505 20.9229 20.4108 21.127 20.6377 21.3482C20.7341 21.4503 20.8362 21.49 20.9836 21.49C21.1708 21.49 21.2388 21.4503 21.477 21.1894C22.6283 19.9644 23.4336 18.5183 23.8306 16.9813C24.324 15.0758 24.2616 13.227 23.6378 11.3952C23.2861 10.38 22.5602 9.06428 21.9591 8.37238C21.7039 8.08315 21.4203 8.03211 21.2105 8.23627Z" fill="white"/>
<path d="M6.84526 8.67307C6.62975 8.76381 5.92652 9.91507 5.55222 10.7998C4.67884 12.8641 4.58243 15.3311 5.29701 17.5202C5.51819 18.2064 6.108 19.4087 6.49932 19.9702C6.94167 20.6111 7.59954 21.354 7.79236 21.4334C8.01354 21.5241 8.22338 21.4674 8.34247 21.2859C8.50694 21.0307 8.46157 20.8436 8.15532 20.4976C6.67512 18.8133 5.9492 17.1516 5.81309 15.1383C5.67698 13.1987 6.17038 11.3102 7.23091 9.69957C7.55417 9.21184 7.5882 8.97365 7.36702 8.75814C7.22524 8.61069 7.06077 8.588 6.84526 8.67307Z" fill="white"/>
<path d="M13.0722 23.3275C12.8397 23.577 12.9134 23.923 13.2197 24.0704C13.3955 24.1555 13.594 24.1725 14.456 24.1725C15.6527 24.1725 15.8738 24.1271 15.9929 23.8436C16.0837 23.628 16.0156 23.3388 15.8511 23.2537C15.8001 23.2254 15.1819 23.2027 14.473 23.197C13.2083 23.197 13.1913 23.2027 13.0722 23.3275Z" fill="white"/>
</svg>
