<svg width="16" height="16" viewBox="0 0 16 16" fill="none" xmlns="http://www.w3.org/2000/svg">
<g clip-path="url(#clip0_108_447)">
<g clip-path="url(#clip1_108_447)">
<path d="M11.6258 16C6.20518 16.1834 -3.56014 6.49669 0.97385 1.24469L1.74052 0.578024C2.1286 0.202867 2.64879 -0.00439108 3.18853 0.00109865C3.72827 0.00658838 4.24414 0.224385 4.62451 0.607357C4.64507 0.628293 4.66422 0.650564 4.68185 0.674024L5.88184 2.23336C6.24653 2.61925 6.44915 3.13041 6.44791 3.66135C6.44667 4.1923 6.24166 4.70251 5.87518 5.08669L5.10318 6.05736C5.53059 7.0954 6.15879 8.03882 6.95173 8.83348C7.74466 9.62813 8.68672 10.2584 9.72384 10.688L10.6998 9.91136C11.089 9.55392 11.598 9.35526 12.1264 9.35452C12.6548 9.35378 13.1643 9.55102 13.5545 9.90736L15.1145 11.1074C15.1378 11.1249 15.1601 11.1439 15.1812 11.164C15.5659 11.5523 15.7817 12.0768 15.7817 12.6234C15.7817 13.1699 15.5659 13.6944 15.1812 14.0827L14.5738 14.7827C14.1886 15.1721 13.7293 15.4805 13.223 15.6896C12.7167 15.8986 12.1736 16.0042 11.6258 16ZM3.16518 1.33336C3.06938 1.33328 2.97449 1.35208 2.88596 1.38869C2.79742 1.42529 2.71696 1.47898 2.64918 1.54669L1.88185 2.21336C-1.88215 6.73869 9.63584 17.6154 13.5978 13.872L14.2058 13.1714C14.2781 13.107 14.3369 13.029 14.3789 12.9419C14.4209 12.8547 14.4453 12.7601 14.4505 12.6635C14.4558 12.5669 14.4419 12.4702 14.4096 12.379C14.3774 12.2878 14.3274 12.2038 14.2625 12.132L12.7112 10.9407C12.6874 10.9232 12.6651 10.9038 12.6445 10.8827C12.5054 10.7501 12.3206 10.6762 12.1285 10.6762C11.9364 10.6762 11.7516 10.7501 11.6125 10.8827C11.5948 10.9006 11.5761 10.9175 11.5565 10.9334L10.2512 11.9734C10.1606 12.0455 10.0527 12.0928 9.93827 12.1105C9.82383 12.1283 9.70673 12.1159 9.59851 12.0747C8.25459 11.574 7.03399 10.7904 6.01938 9.77681C5.00477 8.76324 4.21987 7.54343 3.71785 6.20002C3.6734 6.09027 3.65899 5.97066 3.6761 5.85349C3.69321 5.73632 3.74121 5.62582 3.81518 5.53336L4.85118 4.22936C4.86659 4.2096 4.88329 4.1909 4.90118 4.17336C5.03736 4.03601 5.11376 3.85043 5.11376 3.65702C5.11376 3.46361 5.03736 3.27803 4.90118 3.14069C4.8804 3.11996 4.86123 3.09767 4.84385 3.07402L3.65518 1.52469C3.52087 1.40334 3.3462 1.33632 3.16518 1.33669V1.33336ZM14.8272 8.38402C18.1538 3.48736 12.2938 -2.36664 7.40251 0.959357C7.32875 1.00861 7.26555 1.07208 7.21663 1.14605C7.1677 1.22003 7.13403 1.30303 7.11759 1.39018C7.10114 1.47734 7.10225 1.5669 7.12085 1.65362C7.13945 1.74034 7.17517 1.82247 7.22591 1.89522C7.27665 1.96796 7.3414 2.02984 7.41636 2.07725C7.49132 2.12466 7.57499 2.15663 7.66246 2.17129C7.74993 2.18596 7.83945 2.18302 7.92577 2.16266C8.01209 2.14229 8.09348 2.10491 8.16518 2.05269C11.8145 -0.45331 16.2385 3.97536 13.7338 7.62202C13.6805 7.69365 13.6421 7.77527 13.6209 7.86203C13.5997 7.9488 13.5962 8.03893 13.6105 8.12709C13.6248 8.21524 13.6567 8.29962 13.7042 8.37522C13.7518 8.45081 13.8141 8.51608 13.8873 8.56715C13.9606 8.61822 14.0434 8.65404 14.1308 8.67249C14.2182 8.69095 14.3084 8.69165 14.396 8.67457C14.4837 8.65749 14.567 8.62297 14.6411 8.57306C14.7151 8.52315 14.7784 8.45886 14.8272 8.38402ZM12.2552 7.14069C12.3802 7.01567 12.4504 6.84613 12.4504 6.66936C12.4504 6.49258 12.3802 6.32304 12.2552 6.19802L11.1178 5.06002V3.33336C11.1178 3.15655 11.0476 2.98698 10.9226 2.86195C10.7976 2.73693 10.628 2.66669 10.4512 2.66669C10.2744 2.66669 10.1048 2.73693 9.97977 2.86195C9.85474 2.98698 9.78451 3.15655 9.78451 3.33336V5.33336C9.78454 5.51015 9.85481 5.6797 9.97984 5.80469L11.3132 7.13802C11.4382 7.263 11.6077 7.33321 11.7845 7.33321C11.9613 7.33321 12.1308 7.263 12.2558 7.13802L12.2552 7.14069Z" fill="#EF5DA8"/>
</g>
</g>
<defs>
<clipPath id="clip0_108_447">
<rect width="16" height="16" fill="white"/>
</clipPath>
<clipPath id="clip1_108_447">
<rect width="16" height="16" fill="white" transform="translate(-0.215576)"/>
</clipPath>
</defs>
</svg>
