<svg width="27" height="27" viewBox="0 0 27 27" fill="none" xmlns="http://www.w3.org/2000/svg">
<path d="M16.4028 0.0369911C16.1971 0.11083 15.7488 0.516943 15.5642 0.791202C15.2899 1.20786 15.1633 1.68254 15.2055 2.17304C15.2635 2.86924 15.7066 3.54433 16.2973 3.85024C16.7825 4.09813 17.004 4.66247 16.7983 5.14769C16.7561 5.2479 16.5663 5.48524 16.3711 5.66984C16.0283 6.00211 16.0178 6.01266 16.0494 6.2289C16.0863 6.49261 16.2551 6.68776 16.4872 6.72995C16.7245 6.77215 16.8353 6.72468 17.1886 6.4346C17.7635 5.95465 18.0114 5.39558 17.9745 4.64664C17.9376 3.89243 17.6 3.33337 16.9249 2.92198C16.5663 2.70574 16.4344 2.53696 16.35 2.20469C16.2498 1.80912 16.3448 1.56651 16.7772 1.14985C17.1148 0.822847 17.1412 0.780653 17.1412 0.580234C17.1412 0.400911 17.1095 0.327072 16.9618 0.179395C16.7878 0.00534582 16.6137 -0.0421219 16.4028 0.0369911Z" fill="white"/>
<path d="M20.7224 0.147799C19.984 0.622477 19.5779 1.50854 19.7255 2.32604C19.8416 2.95895 20.1369 3.41253 20.6696 3.7659C21.234 4.14037 21.3606 4.33024 21.3606 4.78382C21.3606 5.11082 21.2392 5.34289 20.907 5.62242C20.5641 5.91777 20.4745 6.12874 20.5905 6.39773C20.6696 6.59815 20.9017 6.7511 21.1127 6.7511C21.2814 6.7511 21.6612 6.49794 21.9302 6.20258C22.3732 5.72263 22.5736 5.05281 22.4681 4.43572C22.3574 3.80282 22.0567 3.34396 21.5188 2.98005C20.9597 2.60558 20.8331 2.42098 20.8331 1.9674C20.8331 1.6404 20.9544 1.40833 21.2867 1.1288C21.6295 0.833446 21.7192 0.622477 21.6032 0.353493C21.5241 0.153073 21.292 0.000121593 21.081 0.000121593C21.0177 0.000121593 20.8542 0.068686 20.7224 0.147799Z" fill="white"/>
<path d="M25.2686 0.105638C24.9575 0.300783 24.5513 0.754364 24.3878 1.08136C24.2454 1.37145 24.2349 1.44528 24.2349 1.97798C24.2349 2.49485 24.2507 2.58979 24.3773 2.85877C24.5566 3.23851 24.8678 3.58134 25.2845 3.84505C25.6537 4.07711 25.7591 4.20897 25.8435 4.55179C25.9437 4.94208 25.8435 5.18469 25.4163 5.60135C25.0999 5.90726 25.0524 5.97582 25.0524 6.1446C25.0524 6.54016 25.3372 6.80387 25.6958 6.73003C25.9437 6.68257 26.3973 6.3081 26.6294 5.96C27.0513 5.3271 27.1146 4.54651 26.7982 3.87142C26.6241 3.49695 26.2338 3.07501 25.9174 2.91151C25.1895 2.53704 25.1157 1.62461 25.7697 1.14466C26.065 0.923139 26.1863 0.706896 26.1389 0.464283C26.065 0.0739923 25.6167 -0.110605 25.2686 0.105638Z" fill="white"/>
<path d="M11.3395 3.41253C10.0263 3.53383 9.098 3.71843 8.06953 4.06125C6.49782 4.57813 5.33749 5.26377 4.31957 6.27115C3.47042 7.12029 2.95355 7.93252 2.616 8.93989C2.34175 9.78376 2.3101 10.0422 2.27318 11.8829L2.24154 13.6128L1.89344 13.7341C0.764759 14.1297 0 15.2056 0 16.4082C0 17.3048 0.56434 18.3016 1.33437 18.7657C1.635 18.9451 2.09913 19.1191 2.43141 19.1718C2.59491 19.1929 2.63183 19.2246 2.65292 19.3564C2.7795 19.9841 3.50207 21.5083 4.08751 22.3891C6.47145 25.9756 10.3163 27.6158 14.4091 26.7878C17.7635 26.1127 20.7487 23.3385 21.9618 19.7784L22.1464 19.2246L22.5578 19.1191C23.6073 18.8448 24.3932 18.0801 24.6569 17.0833C24.8204 16.482 24.7307 15.7067 24.4354 15.1107C24.14 14.5042 23.4438 13.9082 22.8267 13.7236L22.5208 13.6339V12.3945C22.5208 10.9388 22.4575 10.1424 22.2835 9.45149C22.1095 8.78694 22.0092 8.59179 21.7719 8.47576C21.5135 8.34918 21.2445 8.4283 21.0915 8.67091C20.9702 8.86605 20.9755 8.95572 21.1812 9.67828C21.3236 10.1899 21.3289 10.2479 21.35 11.7985C21.3658 13.1118 21.3552 13.3966 21.2972 13.3966C21.1074 13.3966 18.5652 13.0063 18.0114 12.8955C15.6011 12.4103 13.2646 11.192 11.3765 9.44621C10.9703 9.07175 10.8912 9.019 10.7172 9.019C10.4482 9.019 10.3533 9.09812 9.92605 9.66773C8.51256 11.5401 6.59275 12.7215 4.1297 13.2278L3.37549 13.386V12.1097C3.37549 11.2605 3.40186 10.6698 3.4546 10.3217C3.53899 9.76267 3.76578 9.02428 3.9873 8.58652C5.02631 6.53486 7.38388 5.10555 10.5115 4.63614C11.0916 4.54648 11.5294 4.52011 12.4629 4.51484L13.6707 4.50956L13.8237 4.33551C14.1507 3.96632 13.9344 3.50219 13.3912 3.42308C13.1117 3.38616 11.7087 3.37561 11.3395 3.41253ZM11.234 10.8175C12.5842 11.9409 14.0241 12.7742 15.6644 13.386C16.9302 13.8554 17.753 14.04 19.9629 14.3459C20.601 14.4356 21.1812 14.52 21.2445 14.5358L21.3711 14.5622L21.3447 16.1286C21.3183 17.8955 21.2761 18.2278 20.9333 19.2879C20.1316 21.7457 18.4017 23.8342 16.2393 24.9471C13.5652 26.3184 10.3796 26.1654 7.79527 24.541C6.03896 23.4387 4.54109 21.4819 3.83434 19.3512C3.4757 18.2752 3.37549 17.5105 3.37549 15.7542C3.37549 14.6519 3.38604 14.5042 3.45988 14.5042C3.67084 14.5042 5.35331 14.1086 5.85436 13.9398C7.33641 13.4441 8.72353 12.5844 9.83639 11.4715C10.1265 11.1814 10.4482 10.8281 10.5484 10.6962C10.6486 10.5591 10.7435 10.443 10.7594 10.443C10.7752 10.443 10.9862 10.6118 11.234 10.8175ZM2.27318 16.097C2.27318 16.8037 2.29428 17.5157 2.31537 17.6792C2.34175 17.8849 2.33647 17.9851 2.29955 17.9851C2.17825 17.9851 1.69829 17.6687 1.55589 17.4999C1.06011 16.9198 0.996824 16.1497 1.38711 15.501C1.55062 15.2267 2.03584 14.8206 2.19934 14.8206C2.25208 14.8206 2.26791 15.0738 2.27318 16.097ZM22.8689 14.9894C23.7445 15.5801 23.8763 16.7457 23.1537 17.5316C22.9533 17.7478 22.4945 18.0326 22.4365 17.9746C22.4259 17.9588 22.4365 17.6687 22.4681 17.3206C22.4945 16.9778 22.5208 16.271 22.5208 15.7542C22.5208 15.2426 22.5419 14.8206 22.5683 14.8206C22.5947 14.8206 22.7265 14.8997 22.8689 14.9894Z" fill="white"/>
<path d="M7.08334 14.6887C6.90929 14.7626 6.75107 14.9999 6.75107 15.1898C6.75107 15.3691 6.846 15.5115 7.25739 15.9282L7.64768 16.3237L7.22575 16.7457C6.74579 17.2203 6.67196 17.4049 6.83018 17.695C6.93567 17.8954 7.10444 17.9851 7.36815 17.9851C7.53165 17.9851 7.61076 17.9324 7.99578 17.5526L8.43881 17.1201L8.88185 17.5526C9.26686 17.9324 9.34597 17.9851 9.50948 17.9851C9.77319 17.9851 9.94196 17.8954 10.0474 17.695C10.2057 17.4049 10.1318 17.2203 9.65188 16.7457L9.22994 16.3237L9.62023 15.9282C9.83648 15.7119 10.0369 15.4799 10.0685 15.4166C10.2742 15.0105 9.83648 14.5041 9.40927 14.6624C9.32488 14.694 9.07172 14.905 8.8502 15.1265L8.43881 15.5326L8.0327 15.1265C7.67933 14.7784 7.42617 14.6043 7.28904 14.6096C7.26794 14.6149 7.17828 14.6465 7.08334 14.6887Z" fill="white"/>
<path d="M14.9418 14.694C14.7309 14.7995 14.5885 15.0843 14.6359 15.3058C14.6623 15.406 14.8258 15.6276 15.0895 15.9018L15.5009 16.329L15.1317 16.6982C14.6834 17.136 14.5779 17.3364 14.6623 17.5948C14.7467 17.8375 14.9471 17.9851 15.2055 17.9851C15.3954 17.9851 15.4534 17.9482 15.8543 17.5526L16.2973 17.1202L16.6823 17.4946C16.888 17.7003 17.1148 17.8955 17.1781 17.9271C17.542 18.1117 17.985 17.8638 17.985 17.4735C17.985 17.2256 17.9112 17.1149 17.4682 16.656L17.1201 16.2974L17.5526 15.8544C17.9481 15.4535 17.985 15.3955 17.985 15.2056C17.985 14.9472 17.8374 14.7468 17.5947 14.6624C17.3363 14.578 17.1359 14.6835 16.6929 15.1318L16.3289 15.5063L15.9228 15.1107C15.5536 14.752 15.3374 14.6096 15.1739 14.6096C15.137 14.6096 15.0368 14.6518 14.9418 14.694Z" fill="white"/>
<path d="M9.77839 20.311C9.45666 20.3638 9.10857 20.5115 8.86595 20.6908C8.5706 20.9176 7.92187 21.6718 7.88495 21.8353C7.80584 22.1887 8.19086 22.5737 8.5495 22.4946C8.64971 22.4735 8.8554 22.3047 9.14021 22.0093C9.64654 21.4872 9.76784 21.4133 10.1265 21.4133C10.4482 21.4133 10.5221 21.4503 10.9387 21.8036C11.3659 22.1623 11.7351 22.3205 12.2414 22.3522C12.8902 22.3891 13.3754 22.2098 13.8712 21.7456C14.156 21.4872 14.3195 21.4133 14.6412 21.4133C14.9788 21.4133 15.2214 21.561 15.6064 21.9935C16.0072 22.4418 16.2182 22.5579 16.4924 22.4629C16.6929 22.3996 16.8775 22.1517 16.8775 21.9408C16.8775 21.7509 16.7351 21.5505 16.2657 21.06C15.7963 20.58 15.4798 20.3954 14.9524 20.3163C14.3142 20.2161 13.6655 20.4165 13.1961 20.8543C12.6634 21.3501 12.1571 21.3923 11.7087 20.9703C11.118 20.4165 10.4693 20.195 9.77839 20.311Z" fill="white"/>
</svg>
